<svg width="250" height="173" viewBox="0 0 250 173" fill="none" xmlns="http://www.w3.org/2000/svg">
<path d="M12.8476 141.389L24.0475 123.118L36.4951 106L40.1905 108.771L27.0309 122.112C25.9326 123.225 24.9252 124.425 24.0181 125.699L12.8476 141.389Z" fill="white"/>
<path d="M2.0781 46.1807L13.3249 62.191L25.7439 76.9735L29.2322 73.9462L16.5475 63.0874C15.2463 61.9734 14.0451 60.7477 12.9578 59.4241L2.0781 46.1807Z" fill="white"/>
<path d="M54.6264 162.333L54.7598 156.304C54.9264 148.781 56.2937 141.332 58.8099 134.24L62.0882 125L67.6263 127.333L60.0516 141.438C58.665 144.02 57.6731 146.795 57.1091 149.672L54.6264 162.333Z" fill="white"/>
<path d="M216.064 32.669L213.054 37.8941C209.297 44.4147 204.523 50.2934 198.912 55.3081L191.602 61.8415L187.863 57.1367L201.277 48.3972C203.733 46.7973 205.935 44.8384 207.81 42.5857L216.064 32.669Z" fill="white"/>
<path d="M60.439 8.00082L60.4674 14.4229C60.4993 21.639 61.6363 28.8075 63.8388 35.6793L66.9755 45.4658L72.3333 43.3918L65.2127 28.8535C63.9797 26.3361 63.1139 23.655 62.6418 20.8919L60.439 8.00082Z" fill="white"/>
<path d="M120.454 172.299L119.27 169.62C115.871 161.931 113.871 153.697 113.364 145.306L112.999 139.264L119.007 139.23L117.551 152.322C117.186 155.603 117.378 158.922 118.118 162.138L120.454 172.299Z" fill="white"/>
<path d="M116.982 0.667221L116.15 3.47632C113.765 11.5375 112.837 19.9596 113.41 28.3468L113.822 34.3857L119.785 33.6484L116.663 20.8513C115.881 17.6444 115.645 14.3286 115.967 11.0434L116.982 0.667221Z" fill="white"/>
<path d="M179.415 160.928L179.292 158.001C178.942 149.601 177.095 141.332 173.84 133.581L171.495 128L166.092 130.627L173.186 141.726C174.964 144.507 176.259 147.569 177.018 150.781L179.415 160.928Z" fill="white"/>
<path d="M179.455 15.652L177.172 17.4888C170.623 22.7597 165.067 29.1569 160.766 36.3797L157.668 41.5802L162.991 44.3673L167.707 32.0677C168.888 28.9856 170.582 26.125 172.715 23.6065L179.455 15.652Z" fill="white"/>
<path d="M224.433 137.397L221.009 131.623C218.196 126.879 214.838 122.48 211.002 118.517L203.726 111L201.162 113.858L212.594 123.333C214.223 124.683 215.702 126.206 217.004 127.874L224.433 137.397Z" fill="white"/>
<path d="M247.546 63.3432L243.281 68.528C239.778 72.7876 235.788 76.6224 231.393 79.9541L223.056 86.2737L220.958 83.0581L233.701 75.4378C235.517 74.3517 237.21 73.0722 238.751 71.6217L247.546 63.3432Z" fill="white"/>
<path d="M31.5625 76.9716L19 88.7727L31.5625 96.3864L56.3068 115.801L67.6325 122.435C77.7751 128.375 88.8439 132.569 100.377 134.841C105.5 135.85 110.709 136.358 115.931 136.358H123.489C127.42 136.358 131.343 136.002 135.21 135.294L142.639 133.933C151.788 132.258 160.667 129.349 169.034 125.285L183.074 118.466L191.406 113.213C197.51 109.365 203.207 104.907 208.41 99.9082L220 88.7727L213.806 82.3718C210.326 78.7762 206.596 75.4319 202.643 72.364L190.408 62.8686C185.528 59.0808 180.327 55.7245 174.866 52.8375L168.967 49.7194C160.643 45.3198 151.773 42.0424 142.589 39.9726L139.427 39.26C132.761 37.758 125.95 37 119.117 37C111.785 37 104.478 37.873 97.3523 39.6005L95.7929 39.9786C87.2671 42.0454 79.0314 45.1646 71.2755 49.2641L65.2149 52.4676C59.2894 55.5996 53.6725 59.2836 48.4388 63.4705L31.5625 76.9716Z" stroke="white" stroke-width="13"/>
</svg>
