<svg width="250" height="172" viewBox="0 0 250 172" fill="none" xmlns="http://www.w3.org/2000/svg">
<path d="M236.981 140.722L225.781 122.451L213.333 105.333L209.638 108.104L222.797 121.445C223.895 122.558 224.903 123.758 225.81 125.032L236.981 140.722Z" fill="white"/>
<path d="M247.75 45.5137L236.503 61.524L224.084 76.3065L220.596 73.2792L233.281 62.4204C234.582 61.3064 235.783 60.0807 236.87 58.7571L247.75 45.5137Z" fill="white"/>
<path d="M195.202 161.666L195.068 155.637C194.902 148.114 193.534 140.665 191.018 133.573L187.74 124.333L182.202 126.666L189.776 140.771C191.163 143.353 192.155 146.128 192.719 149.005L195.202 161.666Z" fill="white"/>
<path d="M33.7639 32.002L36.7741 37.2271C40.5308 43.7477 45.3049 49.6264 50.9159 54.6411L58.2265 61.1745L61.9654 56.4697L48.5511 47.7302C46.0954 46.1303 43.8933 44.1714 42.0182 41.9187L33.7639 32.002Z" fill="white"/>
<path d="M189.389 7.33383L189.361 13.756C189.329 20.972 188.192 28.1406 185.989 35.0123L182.853 44.7988L177.495 42.7248L184.615 28.1865C185.848 25.6691 186.714 22.988 187.186 20.2249L189.389 7.33383Z" fill="white"/>
<path d="M129.374 171.632L130.558 168.953C133.958 161.264 135.958 153.03 136.464 144.639L136.829 138.597L130.821 138.563L132.277 151.655C132.642 154.936 132.45 158.255 131.71 161.471L129.374 171.632Z" fill="white"/>
<path d="M132.846 0.000228988L133.678 2.80933C136.063 10.8705 136.992 19.2926 136.418 27.6798L136.006 33.7187L130.043 32.9814L133.165 20.1843C133.947 16.9774 134.183 13.6616 133.861 10.3764L132.846 0.000228988Z" fill="white"/>
<path d="M70.4135 160.261L70.5357 157.334C70.8863 148.934 72.7329 140.665 75.9885 132.914L78.3326 127.333L83.7364 129.96L76.6421 141.059C74.8644 143.84 73.5688 146.902 72.8101 150.114L70.4135 160.261Z" fill="white"/>
<path d="M70.3734 14.985L72.6556 16.8218C79.2047 22.0927 84.7607 28.4899 89.0625 35.7127L92.1598 40.9132L86.837 43.7003L82.1216 31.4008C80.94 28.3186 79.2466 25.458 77.1128 22.9396L70.3734 14.985Z" fill="white"/>
<path d="M25.3953 136.73L28.8191 130.956C31.632 126.212 34.9906 121.813 38.8263 117.85L46.1019 110.333L48.6659 113.191L37.2341 122.666C35.6047 124.016 34.1263 125.539 32.8245 127.207L25.3953 136.73Z" fill="white"/>
<path d="M2.28217 62.6762L6.54666 67.861C10.0501 72.1206 14.0402 75.9554 18.4355 79.2871L26.7724 85.6067L28.8705 82.3912L16.1275 74.7708C14.3113 73.6847 12.6178 72.4052 11.0769 70.9547L2.28217 62.6762Z" fill="white"/>
<path d="M218.266 76.3046L230.828 88.1057L218.266 95.7194L193.521 115.134L182.196 121.768C172.053 127.708 160.984 131.902 149.452 134.174C144.328 135.183 139.119 135.691 133.898 135.691H126.339C122.408 135.691 118.485 135.335 114.618 134.627L107.189 133.266C98.04 131.591 89.1607 128.682 80.7942 124.618L66.7543 117.799L58.4221 112.546C52.3184 108.698 46.6212 104.24 41.4182 99.2412L29.8281 88.1057L36.0226 81.7048C39.5022 78.1092 43.2325 74.7649 47.1853 71.697L59.4198 62.2016C64.3002 58.4138 69.5007 55.0575 74.9625 52.1705L80.8616 49.0524C89.1852 44.6528 98.0549 41.3754 107.239 39.3056L110.402 38.593C117.067 37.091 123.878 36.333 130.711 36.333C138.043 36.333 145.35 37.206 152.476 38.9335L154.035 39.3116C162.561 41.3785 170.797 44.4976 178.553 48.5971L184.613 51.8006C190.539 54.9326 196.156 58.6166 201.389 62.8035L218.266 76.3046Z" stroke="white" stroke-width="13"/>
</svg>
