<svg width="250" height="172" viewBox="0 0 250 172" fill="none" xmlns="http://www.w3.org/2000/svg">
<path d="M12.5136 140.722L23.7135 122.451L36.1611 105.333L39.8565 108.104L26.697 121.445C25.5987 122.558 24.5912 123.758 23.6841 125.032L12.5136 140.722Z" fill="white"/>
<path d="M1.74412 45.5137L12.9909 61.524L25.4099 76.3065L28.8983 73.2792L16.2136 62.4204C14.9123 61.3064 13.7111 60.0807 12.6238 58.7571L1.74412 45.5137Z" fill="white"/>
<path d="M54.2924 161.666L54.4259 155.637C54.5924 148.114 55.9597 140.665 58.4759 133.573L61.7542 124.333L67.2923 126.666L59.7177 140.771C58.331 143.353 57.3391 146.128 56.7752 149.005L54.2924 161.666Z" fill="white"/>
<path d="M215.73 32.002L212.72 37.2271C208.963 43.7477 204.189 49.6264 198.578 54.6411L191.268 61.1745L187.529 56.4697L200.943 47.7302C203.399 46.1303 205.601 44.1714 207.476 41.9187L215.73 32.002Z" fill="white"/>
<path d="M60.105 7.33383L60.1334 13.756C60.1653 20.972 61.3023 28.1406 63.5048 35.0123L66.6415 44.7988L71.9993 42.7248L64.8787 28.1865C63.6457 25.6691 62.78 22.988 62.3078 20.2249L60.105 7.33383Z" fill="white"/>
<path d="M120.12 171.632L118.936 168.953C115.537 161.264 113.537 153.03 113.03 144.639L112.665 138.597L118.673 138.563L117.217 151.655C116.853 154.936 117.044 158.255 117.784 161.471L120.12 171.632Z" fill="white"/>
<path d="M116.648 0.000228988L115.816 2.80933C113.431 10.8705 112.503 19.2926 113.076 27.6798L113.488 33.7187L119.451 32.9814L116.329 20.1843C115.547 16.9774 115.311 13.6616 115.633 10.3764L116.648 0.000228988Z" fill="white"/>
<path d="M179.081 160.261L178.958 157.334C178.608 148.934 176.761 140.665 173.506 132.914L171.162 127.333L165.758 129.96L172.852 141.059C174.63 143.84 175.925 146.902 176.684 150.114L179.081 160.261Z" fill="white"/>
<path d="M179.121 14.985L176.839 16.8218C170.289 22.0927 164.733 28.4899 160.432 35.7127L157.334 40.9132L162.657 43.7003L167.373 31.4008C168.554 28.3186 170.248 25.458 172.381 22.9396L179.121 14.985Z" fill="white"/>
<path d="M224.099 136.73L220.675 130.956C217.862 126.212 214.504 121.813 210.668 117.85L203.392 110.333L200.828 113.191L212.26 122.666C213.889 124.016 215.368 125.539 216.67 127.207L224.099 136.73Z" fill="white"/>
<path d="M247.212 62.6762L242.947 67.861C239.444 72.1206 235.454 75.9554 231.059 79.2871L222.722 85.6067L220.624 82.3912L233.367 74.7708C235.183 73.6847 236.876 72.4052 238.417 70.9547L247.212 62.6762Z" fill="white"/>
<path d="M31.2285 76.3046L18.666 88.1057L31.2285 95.7194L55.9728 115.134L67.2985 121.768C77.4411 127.708 88.5099 131.902 100.043 134.174C105.166 135.183 110.375 135.691 115.597 135.691H123.155C127.086 135.691 131.009 135.335 134.876 134.627L142.305 133.266C151.454 131.591 160.333 128.682 168.7 124.618L182.74 117.799L191.072 112.546C197.176 108.698 202.873 104.24 208.076 99.2412L219.666 88.1057L213.472 81.7048C209.992 78.1092 206.262 74.7649 202.309 71.697L190.074 62.2016C185.194 58.4138 179.993 55.0575 174.532 52.1705L168.633 49.0524C160.309 44.6528 151.439 41.3754 142.255 39.3056L139.093 38.593C132.427 37.091 125.616 36.333 118.783 36.333C111.451 36.333 104.144 37.206 97.0184 38.9335L95.4589 39.3116C86.9331 41.3785 78.6974 44.4976 70.9415 48.5971L64.8809 51.8006C58.9554 54.9326 53.3385 58.6166 48.1048 62.8035L31.2285 76.3046Z" stroke="white" stroke-width="13"/>
</svg>
