<svg width="417" height="417" viewBox="0 0 417 417" fill="none" xmlns="http://www.w3.org/2000/svg">
<g filter="url(#filter0_f_225_443)">
<circle cx="208.5" cy="208.5" r="94.5" fill="#DFBE03"/>
</g>
<mask id="path-2-outside-1_225_443" maskUnits="userSpaceOnUse" x="158" y="203" width="101" height="22" fill="black">
<rect fill="white" x="158" y="203" width="101" height="22"/>
<path d="M168.917 223.332C167.587 223.332 166.34 223.102 165.176 222.64C164.031 222.178 163.024 221.531 162.156 220.7C161.306 219.851 160.632 218.844 160.134 217.68C159.653 216.498 159.413 215.196 159.413 213.773C159.413 212.351 159.653 211.058 160.134 209.894C160.632 208.712 161.306 207.705 162.156 206.874C163.024 206.024 164.031 205.369 165.176 204.907C166.34 204.445 167.587 204.214 168.917 204.214C169.73 204.214 170.478 204.306 171.161 204.491C171.863 204.676 172.5 204.934 173.073 205.267C173.664 205.599 174.191 205.987 174.652 206.431C175.133 206.874 175.558 207.354 175.927 207.871L173.987 208.952C173.452 208.176 172.731 207.539 171.826 207.04C170.94 206.523 169.97 206.264 168.917 206.264C167.901 206.264 166.959 206.449 166.091 206.819C165.223 207.188 164.465 207.705 163.819 208.37C163.191 209.035 162.692 209.829 162.322 210.753C161.971 211.658 161.796 212.665 161.796 213.773C161.796 214.863 161.971 215.87 162.322 216.793C162.692 217.717 163.191 218.511 163.819 219.176C164.465 219.841 165.223 220.359 166.091 220.728C166.959 221.097 167.901 221.282 168.917 221.282C169.97 221.282 170.94 221.033 171.826 220.534C172.731 220.035 173.452 219.389 173.987 218.594L175.955 219.675C175.179 220.728 174.218 221.605 173.073 222.307C171.946 222.991 170.561 223.332 168.917 223.332ZM179.192 221.282C179.747 221.282 180.236 221.19 180.661 221.005C181.104 220.802 181.501 220.432 181.852 219.897C182.203 219.343 182.499 218.585 182.739 217.625C182.998 216.646 183.229 215.371 183.432 213.801L184.568 204.519H195.873V223H193.573V206.569H186.618L185.704 213.967C185.445 215.999 185.113 217.634 184.706 218.872C184.318 220.091 183.847 221.033 183.293 221.698C182.758 222.363 182.148 222.797 181.465 223C180.781 223.222 180.024 223.332 179.192 223.332V221.282ZM215.044 223L213.409 218.899H204.21L202.576 223H199.943L207.369 204.519H210.223L217.676 223H215.044ZM208.81 206.902L204.875 216.849H212.717L208.81 206.902ZM221.755 223V204.519H229.984C230.779 204.519 231.499 204.639 232.146 204.879C232.792 205.101 233.337 205.424 233.78 205.849C234.224 206.255 234.565 206.754 234.806 207.345C235.046 207.918 235.166 208.546 235.166 209.229C235.166 209.82 235.073 210.356 234.889 210.836C234.722 211.316 234.482 211.741 234.168 212.111C233.873 212.462 233.531 212.757 233.143 212.997C232.755 213.219 232.349 213.376 231.924 213.468C232.423 213.542 232.884 213.718 233.309 213.995C233.753 214.272 234.131 214.614 234.445 215.02C234.778 215.426 235.036 215.888 235.221 216.406C235.424 216.923 235.526 217.458 235.526 218.013C235.526 218.751 235.406 219.426 235.166 220.035C234.926 220.645 234.575 221.171 234.113 221.615C233.651 222.058 233.088 222.4 232.423 222.64C231.776 222.88 231.028 223 230.178 223H221.755ZM229.596 212.526C230.649 212.526 231.444 212.249 231.979 211.695C232.515 211.123 232.783 210.411 232.783 209.562C232.783 208.73 232.515 208.028 231.979 207.456C231.444 206.865 230.649 206.569 229.596 206.569H224.055V212.526H229.596ZM229.707 220.95C230.797 220.95 231.638 220.673 232.229 220.118C232.838 219.546 233.143 218.761 233.143 217.763C233.143 217.338 233.069 216.932 232.921 216.544C232.774 216.156 232.552 215.824 232.256 215.547C231.979 215.251 231.628 215.02 231.204 214.854C230.779 214.669 230.28 214.577 229.707 214.577H224.055V220.95H229.707ZM254.032 223L252.397 218.899H243.198L241.564 223H238.931L246.357 204.519H249.211L256.665 223H254.032ZM247.798 206.902L243.863 216.849H251.705L247.798 206.902Z"/>
</mask>
<path d="M168.917 223.332C167.587 223.332 166.34 223.102 165.176 222.64C164.031 222.178 163.024 221.531 162.156 220.7C161.306 219.851 160.632 218.844 160.134 217.68C159.653 216.498 159.413 215.196 159.413 213.773C159.413 212.351 159.653 211.058 160.134 209.894C160.632 208.712 161.306 207.705 162.156 206.874C163.024 206.024 164.031 205.369 165.176 204.907C166.34 204.445 167.587 204.214 168.917 204.214C169.73 204.214 170.478 204.306 171.161 204.491C171.863 204.676 172.5 204.934 173.073 205.267C173.664 205.599 174.191 205.987 174.652 206.431C175.133 206.874 175.558 207.354 175.927 207.871L173.987 208.952C173.452 208.176 172.731 207.539 171.826 207.04C170.94 206.523 169.97 206.264 168.917 206.264C167.901 206.264 166.959 206.449 166.091 206.819C165.223 207.188 164.465 207.705 163.819 208.37C163.191 209.035 162.692 209.829 162.322 210.753C161.971 211.658 161.796 212.665 161.796 213.773C161.796 214.863 161.971 215.87 162.322 216.793C162.692 217.717 163.191 218.511 163.819 219.176C164.465 219.841 165.223 220.359 166.091 220.728C166.959 221.097 167.901 221.282 168.917 221.282C169.97 221.282 170.94 221.033 171.826 220.534C172.731 220.035 173.452 219.389 173.987 218.594L175.955 219.675C175.179 220.728 174.218 221.605 173.073 222.307C171.946 222.991 170.561 223.332 168.917 223.332ZM179.192 221.282C179.747 221.282 180.236 221.19 180.661 221.005C181.104 220.802 181.501 220.432 181.852 219.897C182.203 219.343 182.499 218.585 182.739 217.625C182.998 216.646 183.229 215.371 183.432 213.801L184.568 204.519H195.873V223H193.573V206.569H186.618L185.704 213.967C185.445 215.999 185.113 217.634 184.706 218.872C184.318 220.091 183.847 221.033 183.293 221.698C182.758 222.363 182.148 222.797 181.465 223C180.781 223.222 180.024 223.332 179.192 223.332V221.282ZM215.044 223L213.409 218.899H204.21L202.576 223H199.943L207.369 204.519H210.223L217.676 223H215.044ZM208.81 206.902L204.875 216.849H212.717L208.81 206.902ZM221.755 223V204.519H229.984C230.779 204.519 231.499 204.639 232.146 204.879C232.792 205.101 233.337 205.424 233.78 205.849C234.224 206.255 234.565 206.754 234.806 207.345C235.046 207.918 235.166 208.546 235.166 209.229C235.166 209.82 235.073 210.356 234.889 210.836C234.722 211.316 234.482 211.741 234.168 212.111C233.873 212.462 233.531 212.757 233.143 212.997C232.755 213.219 232.349 213.376 231.924 213.468C232.423 213.542 232.884 213.718 233.309 213.995C233.753 214.272 234.131 214.614 234.445 215.02C234.778 215.426 235.036 215.888 235.221 216.406C235.424 216.923 235.526 217.458 235.526 218.013C235.526 218.751 235.406 219.426 235.166 220.035C234.926 220.645 234.575 221.171 234.113 221.615C233.651 222.058 233.088 222.4 232.423 222.64C231.776 222.88 231.028 223 230.178 223H221.755ZM229.596 212.526C230.649 212.526 231.444 212.249 231.979 211.695C232.515 211.123 232.783 210.411 232.783 209.562C232.783 208.73 232.515 208.028 231.979 207.456C231.444 206.865 230.649 206.569 229.596 206.569H224.055V212.526H229.596ZM229.707 220.95C230.797 220.95 231.638 220.673 232.229 220.118C232.838 219.546 233.143 218.761 233.143 217.763C233.143 217.338 233.069 216.932 232.921 216.544C232.774 216.156 232.552 215.824 232.256 215.547C231.979 215.251 231.628 215.02 231.204 214.854C230.779 214.669 230.28 214.577 229.707 214.577H224.055V220.95H229.707ZM254.032 223L252.397 218.899H243.198L241.564 223H238.931L246.357 204.519H249.211L256.665 223H254.032ZM247.798 206.902L243.863 216.849H251.705L247.798 206.902Z" fill="black"/>
<path d="M165.176 222.64L164.838 223.479L164.843 223.48L165.176 222.64ZM162.156 220.7L161.517 221.34L161.524 221.347L161.531 221.353L162.156 220.7ZM160.134 217.68L159.296 218.02L159.299 218.028L159.302 218.036L160.134 217.68ZM160.134 209.894L159.3 209.543L159.298 209.549L160.134 209.894ZM162.156 206.874L162.789 207.52L162.789 207.52L162.156 206.874ZM165.176 204.907L164.843 204.066L164.838 204.068L165.176 204.907ZM171.161 204.491L170.925 205.364L170.931 205.366L171.161 204.491ZM173.073 205.267L172.619 206.049L172.63 206.055L173.073 205.267ZM174.652 206.431L174.026 207.083L174.033 207.089L174.039 207.095L174.652 206.431ZM175.927 207.871L176.367 208.661L177.251 208.169L176.663 207.346L175.927 207.871ZM173.987 208.952L173.243 209.466L173.71 210.142L174.428 209.742L173.987 208.952ZM171.826 207.04L171.371 207.821L171.38 207.827L171.39 207.832L171.826 207.04ZM166.091 206.819L165.737 205.986H165.737L166.091 206.819ZM163.819 208.37L163.17 207.74L163.161 207.749L163.819 208.37ZM162.322 210.753L161.483 210.417L161.479 210.426L162.322 210.753ZM162.322 216.793L161.477 217.115L161.48 217.122L161.483 217.129L162.322 216.793ZM163.819 219.176L163.161 219.797L163.17 219.807L163.819 219.176ZM166.091 220.728L166.445 219.896H166.445L166.091 220.728ZM171.826 220.534L171.39 219.742L171.383 219.746L171.826 220.534ZM173.987 218.594L174.423 217.802L173.699 217.404L173.238 218.089L173.987 218.594ZM175.955 219.675L176.683 220.211L177.296 219.38L176.39 218.882L175.955 219.675ZM173.073 222.307L173.542 223.08L173.546 223.078L173.073 222.307ZM168.917 222.428C167.694 222.428 166.561 222.216 165.51 221.799L164.843 223.48C166.119 223.987 167.48 224.237 168.917 224.237V222.428ZM165.515 221.801C164.473 221.381 163.564 220.797 162.782 220.047L161.531 221.353C162.484 222.266 163.589 222.975 164.838 223.478L165.515 221.801ZM162.796 220.061C162.032 219.297 161.421 218.388 160.965 217.324L159.302 218.036C159.844 219.3 160.581 220.404 161.517 221.34L162.796 220.061ZM160.971 217.34C160.54 216.277 160.317 215.092 160.317 213.773H158.509C158.509 215.299 158.767 216.718 159.296 218.02L160.971 217.34ZM160.317 213.773C160.317 212.454 160.54 211.28 160.969 210.239L159.298 209.549C158.767 210.836 158.509 212.248 158.509 213.773H160.317ZM160.967 210.246C161.423 209.165 162.031 208.261 162.789 207.52L161.524 206.228C160.582 207.149 159.842 208.259 159.3 209.543L160.967 210.246ZM162.789 207.52C163.571 206.755 164.477 206.164 165.515 205.745L164.838 204.068C163.585 204.573 162.478 205.294 161.524 206.228L162.789 207.52ZM165.51 205.747C166.561 205.33 167.694 205.118 168.917 205.118V203.31C167.48 203.31 166.119 203.56 164.843 204.066L165.51 205.747ZM168.917 205.118C169.662 205.118 170.329 205.203 170.925 205.364L171.397 203.618C170.626 203.41 169.798 203.31 168.917 203.31V205.118ZM170.931 205.366C171.562 205.532 172.123 205.761 172.619 206.049L173.527 204.485C172.878 204.108 172.164 203.82 171.391 203.617L170.931 205.366ZM172.63 206.055C173.158 206.352 173.623 206.696 174.026 207.083L175.279 205.778C174.759 205.279 174.17 204.846 173.516 204.479L172.63 206.055ZM174.039 207.095C174.475 207.498 174.859 207.932 175.191 208.397L176.663 207.346C176.256 206.777 175.79 206.25 175.266 205.766L174.039 207.095ZM175.487 207.081L173.547 208.162L174.428 209.742L176.367 208.661L175.487 207.081ZM174.732 208.438C174.109 207.536 173.279 206.808 172.263 206.248L171.39 207.832C172.184 208.27 172.795 208.816 173.243 209.466L174.732 208.438ZM172.282 206.259C171.253 205.659 170.126 205.36 168.917 205.36V207.169C169.814 207.169 170.626 207.387 171.371 207.821L172.282 206.259ZM168.917 205.36C167.789 205.36 166.725 205.566 165.737 205.986L166.445 207.651C167.193 207.332 168.013 207.169 168.917 207.169V205.36ZM165.737 205.986C164.76 206.402 163.902 206.987 163.17 207.74L164.467 209.001C165.028 208.423 165.685 207.974 166.445 207.651L165.737 205.986ZM163.161 207.749C162.448 208.504 161.891 209.397 161.483 210.417L163.162 211.089C163.493 210.262 163.933 209.566 164.476 208.991L163.161 207.749ZM161.479 210.426C161.083 211.449 160.892 212.569 160.892 213.773H162.7C162.7 212.761 162.86 211.867 163.166 211.08L161.479 210.426ZM160.892 213.773C160.892 214.962 161.083 216.078 161.477 217.115L163.168 216.472C162.86 215.661 162.7 214.765 162.7 213.773H160.892ZM161.483 217.129C161.891 218.149 162.448 219.043 163.161 219.797L164.476 218.555C163.933 217.98 163.493 217.285 163.162 216.458L161.483 217.129ZM163.17 219.807C163.902 220.559 164.76 221.144 165.737 221.56L166.445 219.896C165.685 219.573 165.028 219.123 164.467 218.546L163.17 219.807ZM165.737 221.56C166.725 221.981 167.789 222.186 168.917 222.186V220.378C168.013 220.378 167.193 220.214 166.445 219.896L165.737 221.56ZM168.917 222.186C170.119 222.186 171.243 221.9 172.27 221.322L171.383 219.746C170.636 220.166 169.82 220.378 168.917 220.378V222.186ZM172.263 221.326C173.283 220.764 174.115 220.023 174.737 219.1L173.238 218.089C172.789 218.755 172.179 219.307 171.39 219.742L172.263 221.326ZM173.552 219.387L175.519 220.468L176.39 218.882L174.423 217.802L173.552 219.387ZM175.227 219.139C174.522 220.095 173.649 220.894 172.601 221.536L173.546 223.078C174.788 222.317 175.836 221.361 176.683 220.211L175.227 219.139ZM172.604 221.534C171.65 222.113 170.436 222.428 168.917 222.428V224.237C170.686 224.237 172.243 223.869 173.542 223.08L172.604 221.534ZM179.192 221.282V220.378H178.288V221.282H179.192ZM180.661 221.005L181.022 221.834L181.03 221.831L181.038 221.827L180.661 221.005ZM181.852 219.897L182.609 220.392L182.616 220.381L181.852 219.897ZM182.739 217.625L181.865 217.394L181.862 217.405L182.739 217.625ZM183.432 213.801L184.329 213.917L184.329 213.911L183.432 213.801ZM184.568 204.519V203.614H183.767L183.67 204.409L184.568 204.519ZM195.873 204.519H196.777V203.614H195.873V204.519ZM195.873 223V223.904H196.777V223H195.873ZM193.573 223H192.669V223.904H193.573V223ZM193.573 206.569H194.477V205.665H193.573V206.569ZM186.618 206.569V205.665H185.819L185.721 206.458L186.618 206.569ZM185.704 213.967L186.601 214.081L186.601 214.078L185.704 213.967ZM184.706 218.872L183.847 218.589L183.845 218.597L184.706 218.872ZM183.293 221.698L182.599 221.119L182.594 221.125L182.589 221.13L183.293 221.698ZM181.465 223L181.207 222.133L181.196 222.136L181.186 222.14L181.465 223ZM179.192 223.332H178.288V224.237H179.192V223.332ZM179.192 222.186C179.847 222.186 180.463 222.077 181.022 221.834L180.3 220.176C180.009 220.302 179.646 220.378 179.192 220.378V222.186ZM181.038 221.827C181.677 221.534 182.193 221.027 182.609 220.392L181.096 219.401C180.81 219.838 180.531 220.07 180.284 220.183L181.038 221.827ZM182.616 220.381C183.038 219.715 183.364 218.856 183.616 217.844L181.862 217.405C181.634 218.315 181.369 218.971 181.088 219.413L182.616 220.381ZM183.613 217.856C183.886 216.824 184.123 215.507 184.329 213.917L182.535 213.685C182.334 215.235 182.109 216.467 181.865 217.394L183.613 217.856ZM184.329 213.911L185.465 204.629L183.67 204.409L182.534 213.691L184.329 213.911ZM184.568 205.423H195.873V203.614H184.568V205.423ZM194.968 204.519V223H196.777V204.519H194.968ZM195.873 222.096H193.573V223.904H195.873V222.096ZM194.477 223V206.569H192.669V223H194.477ZM193.573 205.665H186.618V207.473H193.573V205.665ZM185.721 206.458L184.806 213.856L186.601 214.078L187.516 206.68L185.721 206.458ZM184.807 213.853C184.552 215.856 184.228 217.428 183.847 218.589L185.566 219.154C185.997 217.84 186.339 216.142 186.601 214.081L184.807 213.853ZM183.845 218.597C183.477 219.754 183.051 220.576 182.599 221.119L183.988 222.277C184.644 221.49 185.16 220.428 185.568 219.146L183.845 218.597ZM182.589 221.13C182.145 221.681 181.682 221.992 181.207 222.133L181.722 223.867C182.614 223.602 183.37 223.044 183.997 222.265L182.589 221.13ZM181.186 222.14C180.605 222.328 179.944 222.428 179.192 222.428V224.237C180.104 224.237 180.957 224.115 181.743 223.86L181.186 222.14ZM180.097 223.332V221.282H178.288V223.332H180.097ZM215.044 223L214.204 223.335L214.431 223.904H215.044V223ZM213.409 218.899L214.249 218.564L214.022 217.995H213.409V218.899ZM204.21 218.899V217.995H203.597L203.37 218.564L204.21 218.899ZM202.576 223V223.904H203.189L203.416 223.335L202.576 223ZM199.943 223L199.104 222.663L198.605 223.904H199.943V223ZM207.369 204.519V203.614H206.758L206.53 204.182L207.369 204.519ZM210.223 204.519L211.062 204.181L210.833 203.614H210.223V204.519ZM217.676 223V223.904H219.016L218.515 222.662L217.676 223ZM208.81 206.902L209.652 206.571L208.813 204.436L207.969 206.569L208.81 206.902ZM204.875 216.849L204.034 216.516L203.545 217.753H204.875V216.849ZM212.717 216.849V217.753H214.043L213.558 216.518L212.717 216.849ZM215.884 222.665L214.249 218.564L212.569 219.234L214.204 223.335L215.884 222.665ZM213.409 217.995H204.21V219.804H213.409V217.995ZM203.37 218.564L201.736 222.665L203.416 223.335L205.05 219.234L203.37 218.564ZM202.576 222.096H199.943V223.904H202.576V222.096ZM200.782 223.337L208.208 204.856L206.53 204.182L199.104 222.663L200.782 223.337ZM207.369 205.423H210.223V203.614H207.369V205.423ZM209.384 204.857L216.838 223.338L218.515 222.662L211.062 204.181L209.384 204.857ZM217.676 222.096H215.044V223.904H217.676V222.096ZM207.969 206.569L204.034 216.516L205.716 217.181L209.651 207.234L207.969 206.569ZM204.875 217.753H212.717V215.945H204.875V217.753ZM213.558 216.518L209.652 206.571L207.968 207.232L211.875 217.179L213.558 216.518ZM221.755 223H220.851V223.904H221.755V223ZM221.755 204.519V203.614H220.851V204.519H221.755ZM232.146 204.879L231.831 205.727L231.841 205.731L231.852 205.734L232.146 204.879ZM233.78 205.849L233.155 206.502L233.162 206.509L233.169 206.515L233.78 205.849ZM234.806 207.345L233.968 207.685L233.972 207.695L234.806 207.345ZM234.889 210.836L234.045 210.512L234.039 210.526L234.034 210.54L234.889 210.836ZM234.168 212.111L233.479 211.525L233.477 211.528L234.168 212.111ZM233.143 212.997L233.592 213.783L233.606 213.775L233.619 213.766L233.143 212.997ZM231.924 213.468L231.732 212.585L231.791 214.363L231.924 213.468ZM233.309 213.995L232.815 214.752L232.823 214.757L232.83 214.762L233.309 213.995ZM234.445 215.02L233.73 215.573L233.737 215.583L233.745 215.593L234.445 215.02ZM235.221 216.406L234.37 216.71L234.374 216.723L234.379 216.736L235.221 216.406ZM235.166 220.035L234.324 219.704L235.166 220.035ZM234.113 221.615L234.739 222.267L234.113 221.615ZM232.423 222.64L232.116 221.789L232.108 221.792L232.423 222.64ZM231.979 211.695L232.63 212.324L232.635 212.318L232.64 212.313L231.979 211.695ZM231.979 207.456L231.309 208.063L231.314 208.068L231.319 208.074L231.979 207.456ZM224.055 206.569V205.665H223.151V206.569H224.055ZM224.055 212.526H223.151V213.431H224.055V212.526ZM232.229 220.118L232.847 220.778L232.848 220.777L232.229 220.118ZM232.921 216.544L233.766 216.222V216.222L232.921 216.544ZM232.256 215.547L231.597 216.165L231.617 216.186L231.638 216.206L232.256 215.547ZM231.204 214.854L230.843 215.683L230.858 215.69L230.874 215.696L231.204 214.854ZM224.055 214.577V213.672H223.151V214.577H224.055ZM224.055 220.95H223.151V221.854H224.055V220.95ZM222.659 223V204.519H220.851V223H222.659ZM221.755 205.423H229.984V203.614H221.755V205.423ZM229.984 205.423C230.687 205.423 231.299 205.529 231.831 205.727L232.46 204.031C231.699 203.749 230.87 203.614 229.984 203.614V205.423ZM231.852 205.734C232.389 205.918 232.816 206.177 233.155 206.502L234.406 205.196C233.858 204.67 233.195 204.283 232.439 204.024L231.852 205.734ZM233.169 206.515C233.508 206.826 233.775 207.211 233.968 207.685L235.643 207.005C235.356 206.297 234.94 205.685 234.391 205.182L233.169 206.515ZM233.972 207.695C234.161 208.146 234.261 208.654 234.261 209.229H236.07C236.07 208.438 235.931 207.689 235.639 206.995L233.972 207.695ZM234.261 209.229C234.261 209.726 234.184 210.149 234.045 210.512L235.733 211.161C235.963 210.563 236.07 209.915 236.07 209.229H234.261ZM234.034 210.54C233.903 210.92 233.717 211.245 233.479 211.525L234.857 212.696C235.247 212.237 235.542 211.713 235.743 211.132L234.034 210.54ZM233.477 211.528C233.242 211.807 232.973 212.039 232.667 212.229L233.619 213.766C234.089 213.476 234.503 213.117 234.86 212.693L233.477 211.528ZM232.694 212.212C232.384 212.389 232.064 212.513 231.732 212.585L232.116 214.352C232.633 214.24 233.126 214.049 233.592 213.783L232.694 212.212ZM231.791 214.363C232.16 214.418 232.499 214.546 232.815 214.752L233.803 213.237C233.27 212.89 232.685 212.667 232.056 212.574L231.791 214.363ZM232.83 214.762C233.184 214.983 233.482 215.253 233.73 215.573L235.161 214.467C234.78 213.975 234.321 213.561 233.789 213.228L232.83 214.762ZM233.745 215.593C234.009 215.915 234.218 216.285 234.37 216.71L236.073 216.101C235.855 215.491 235.546 214.938 235.145 214.447L233.745 215.593ZM234.379 216.736C234.541 217.148 234.622 217.572 234.622 218.013H236.43C236.43 217.345 236.307 216.697 236.063 216.075L234.379 216.736ZM234.622 218.013C234.622 218.652 234.518 219.212 234.324 219.704L236.007 220.367C236.294 219.639 236.43 218.85 236.43 218.013H234.622ZM234.324 219.704C234.131 220.195 233.852 220.611 233.487 220.962L234.739 222.267C235.297 221.731 235.72 221.095 236.007 220.367L234.324 219.704ZM233.487 220.962C233.125 221.309 232.674 221.588 232.116 221.789L232.73 223.49C233.501 223.212 234.177 222.807 234.739 222.267L233.487 220.962ZM232.108 221.792C231.582 221.987 230.945 222.096 230.178 222.096V223.904C231.111 223.904 231.97 223.773 232.738 223.488L232.108 221.792ZM230.178 222.096H221.755V223.904H230.178V222.096ZM229.596 213.431C230.802 213.431 231.868 213.111 232.63 212.324L231.329 211.067C231.019 211.388 230.497 211.622 229.596 211.622V213.431ZM232.64 212.313C233.346 211.558 233.687 210.62 233.687 209.562H231.879C231.879 210.203 231.684 210.687 231.319 211.077L232.64 212.313ZM233.687 209.562C233.687 208.516 233.342 207.589 232.64 206.838L231.319 208.074C231.688 208.468 231.879 208.945 231.879 209.562H233.687ZM232.649 206.849C231.892 206.013 230.819 205.665 229.596 205.665V207.473C230.48 207.473 230.995 207.717 231.309 208.063L232.649 206.849ZM229.596 205.665H224.055V207.473H229.596V205.665ZM223.151 206.569V212.526H224.959V206.569H223.151ZM224.055 213.431H229.596V211.622H224.055V213.431ZM229.707 221.854C230.946 221.854 232.038 221.537 232.847 220.778L231.61 219.459C231.238 219.808 230.648 220.045 229.707 220.045V221.854ZM232.848 220.777C233.674 220.001 234.047 218.958 234.047 217.763H232.239C232.239 218.563 232.002 219.09 231.61 219.459L232.848 220.777ZM234.047 217.763C234.047 217.231 233.954 216.715 233.766 216.222L232.076 216.866C232.184 217.149 232.239 217.446 232.239 217.763H234.047ZM233.766 216.222C233.571 215.709 233.273 215.26 232.875 214.887L231.638 216.206C231.831 216.387 231.976 216.603 232.076 216.866L233.766 216.222ZM232.916 214.928C232.536 214.523 232.067 214.221 231.533 214.012L230.874 215.696C231.189 215.819 231.423 215.979 231.597 216.165L232.916 214.928ZM231.564 214.025C231.002 213.78 230.376 213.672 229.707 213.672V215.481C230.184 215.481 230.555 215.558 230.843 215.683L231.564 214.025ZM229.707 213.672H224.055V215.481H229.707V213.672ZM223.151 214.577V220.95H224.959V214.577H223.151ZM224.055 221.854H229.707V220.045H224.055V221.854ZM254.032 223L253.192 223.335L253.419 223.904H254.032V223ZM252.397 218.899L253.238 218.564L253.01 217.995H252.397V218.899ZM243.198 218.899V217.995H242.585L242.358 218.564L243.198 218.899ZM241.564 223V223.904H242.177L242.404 223.335L241.564 223ZM238.931 223L238.092 222.663L237.593 223.904H238.931V223ZM246.357 204.519V203.614H245.746L245.518 204.182L246.357 204.519ZM249.211 204.519L250.05 204.181L249.821 203.614H249.211V204.519ZM256.665 223V223.904H258.004L257.503 222.662L256.665 223ZM247.798 206.902L248.64 206.571L247.801 204.436L246.957 206.569L247.798 206.902ZM243.863 216.849L243.023 216.516L242.533 217.753H243.863V216.849ZM251.705 216.849V217.753H253.032L252.547 216.518L251.705 216.849ZM254.872 222.665L253.238 218.564L251.557 219.234L253.192 223.335L254.872 222.665ZM252.397 217.995H243.198V219.804H252.397V217.995ZM242.358 218.564L240.724 222.665L242.404 223.335L244.038 219.234L242.358 218.564ZM241.564 222.096H238.931V223.904H241.564V222.096ZM239.771 223.337L247.196 204.856L245.518 204.182L238.092 222.663L239.771 223.337ZM246.357 205.423H249.211V203.614H246.357V205.423ZM248.372 204.857L255.826 223.338L257.503 222.662L250.05 204.181L248.372 204.857ZM256.665 222.096H254.032V223.904H256.665V222.096ZM246.957 206.569L243.023 216.516L244.704 217.181L248.639 207.234L246.957 206.569ZM243.863 217.753H251.705V215.945H243.863V217.753ZM252.547 216.518L248.64 206.571L246.956 207.232L250.863 217.179L252.547 216.518Z" fill="black" mask="url(#path-2-outside-1_225_443)"/>
<defs>
<filter id="filter0_f_225_443" x="0.600014" y="0.600014" width="415.8" height="415.8" filterUnits="userSpaceOnUse" color-interpolation-filters="sRGB">
<feFlood flood-opacity="0" result="BackgroundImageFix"/>
<feBlend mode="normal" in="SourceGraphic" in2="BackgroundImageFix" result="shape"/>
<feGaussianBlur stdDeviation="56.7" result="effect1_foregroundBlur_225_443"/>
</filter>
</defs>
</svg>
