<svg width="321" height="353" viewBox="0 0 321 353" fill="none" xmlns="http://www.w3.org/2000/svg">
<g filter="url(#filter0_f_225_435)">
<ellipse cx="185.25" cy="176.795" rx="89.25" ry="80.7947" fill="#DBBA03"/>
</g>
<mask id="path-2-outside-1_225_435" maskUnits="userSpaceOnUse" x="130.641" y="169.038" width="110" height="19" fill="black">
<rect fill="white" x="130.641" y="169.038" width="110" height="19"/>
<path d="M139.916 186.32C138.786 186.32 137.727 186.124 136.738 185.732C135.765 185.339 134.91 184.79 134.172 184.084C133.45 183.362 132.877 182.506 132.453 181.517C132.045 180.513 131.841 179.406 131.841 178.198C131.841 176.989 132.045 175.891 132.453 174.902C132.877 173.898 133.45 173.042 134.172 172.336C134.91 171.614 135.765 171.057 136.738 170.664C137.727 170.272 138.786 170.076 139.916 170.076C140.607 170.076 141.243 170.154 141.823 170.311C142.42 170.468 142.961 170.688 143.448 170.97C143.95 171.253 144.397 171.583 144.79 171.959C145.198 172.336 145.559 172.744 145.873 173.183L144.225 174.102C143.769 173.442 143.157 172.901 142.388 172.477C141.635 172.038 140.811 171.818 139.916 171.818C139.053 171.818 138.253 171.975 137.515 172.289C136.777 172.603 136.134 173.042 135.585 173.607C135.051 174.172 134.627 174.847 134.313 175.632C134.015 176.401 133.866 177.256 133.866 178.198C133.866 179.124 134.015 179.979 134.313 180.764C134.627 181.549 135.051 182.224 135.585 182.789C136.134 183.354 136.777 183.793 137.515 184.107C138.253 184.421 139.053 184.578 139.916 184.578C140.811 184.578 141.635 184.366 142.388 183.942C143.157 183.519 143.769 182.969 144.225 182.294L145.896 183.213C145.237 184.107 144.421 184.853 143.448 185.449C142.49 186.03 141.313 186.32 139.916 186.32ZM151.282 174.431C151.282 175.64 151.588 176.55 152.2 177.162C152.828 177.759 153.738 178.057 154.931 178.057C155.59 178.057 156.234 178.01 156.862 177.915C157.49 177.821 158.055 177.688 158.557 177.515V170.335H160.511V186.038H158.557V179.257C158.039 179.399 157.466 179.524 156.838 179.634C156.21 179.744 155.52 179.799 154.766 179.799C153.84 179.799 153.032 179.673 152.342 179.422C151.667 179.155 151.102 178.787 150.647 178.316C150.207 177.845 149.878 177.28 149.658 176.621C149.438 175.946 149.328 175.208 149.328 174.408V170.335H151.282V174.431ZM176.81 186.038L175.421 182.553H167.605L166.216 186.038H163.979L170.289 170.335H172.714L179.046 186.038H176.81ZM171.513 172.359L168.17 180.811H174.832L171.513 172.359ZM189.078 186.32C187.948 186.32 186.888 186.124 185.9 185.732C184.926 185.339 184.071 184.79 183.333 184.084C182.611 183.362 182.039 182.506 181.615 181.517C181.207 180.513 181.003 179.406 181.003 178.198C181.003 176.989 181.207 175.891 181.615 174.902C182.039 173.898 182.611 173.042 183.333 172.336C184.071 171.614 184.926 171.057 185.9 170.664C186.888 170.272 187.948 170.076 189.078 170.076C189.768 170.076 190.404 170.154 190.985 170.311C191.581 170.468 192.123 170.688 192.609 170.97C193.111 171.253 193.559 171.583 193.951 171.959C194.359 172.336 194.72 172.744 195.034 173.183L193.386 174.102C192.931 173.442 192.319 172.901 191.55 172.477C190.796 172.038 189.972 171.818 189.078 171.818C188.215 171.818 187.414 171.975 186.676 172.289C185.939 172.603 185.295 173.042 184.746 173.607C184.212 174.172 183.789 174.847 183.475 175.632C183.176 176.401 183.027 177.256 183.027 178.198C183.027 179.124 183.176 179.979 183.475 180.764C183.789 181.549 184.212 182.224 184.746 182.789C185.295 183.354 185.939 183.793 186.676 184.107C187.414 184.421 188.215 184.578 189.078 184.578C189.972 184.578 190.796 184.366 191.55 183.942C192.319 183.519 192.931 182.969 193.386 182.294L195.058 183.213C194.398 184.107 193.582 184.853 192.609 185.449C191.652 186.03 190.475 186.32 189.078 186.32ZM202.845 186.038V172.077H197.878V170.335H209.79V172.077H204.799V186.038H202.845ZM215.754 170.335V176.574H220.109C220.878 176.574 221.569 176.699 222.181 176.95C222.793 177.201 223.311 177.547 223.734 177.986C224.158 178.41 224.48 178.912 224.7 179.493C224.919 180.058 225.029 180.662 225.029 181.306C225.029 181.949 224.919 182.561 224.7 183.142C224.48 183.707 224.158 184.209 223.734 184.649C223.326 185.072 222.816 185.41 222.204 185.661C221.592 185.912 220.894 186.038 220.109 186.038H213.8V170.335H215.754ZM215.754 178.316V184.295H219.874C220.815 184.295 221.569 184.021 222.134 183.471C222.714 182.922 223.005 182.2 223.005 181.306C223.005 180.411 222.714 179.689 222.134 179.14C221.569 178.59 220.815 178.316 219.874 178.316H215.754ZM229.029 186.038V170.335H239.318V172.077H230.984V177.139H239.153V178.881H230.984V184.295H239.318V186.038H229.029Z"/>
</mask>
<path d="M139.916 186.32C138.786 186.32 137.727 186.124 136.738 185.732C135.765 185.339 134.91 184.79 134.172 184.084C133.45 183.362 132.877 182.506 132.453 181.517C132.045 180.513 131.841 179.406 131.841 178.198C131.841 176.989 132.045 175.891 132.453 174.902C132.877 173.898 133.45 173.042 134.172 172.336C134.91 171.614 135.765 171.057 136.738 170.664C137.727 170.272 138.786 170.076 139.916 170.076C140.607 170.076 141.243 170.154 141.823 170.311C142.42 170.468 142.961 170.688 143.448 170.97C143.95 171.253 144.397 171.583 144.79 171.959C145.198 172.336 145.559 172.744 145.873 173.183L144.225 174.102C143.769 173.442 143.157 172.901 142.388 172.477C141.635 172.038 140.811 171.818 139.916 171.818C139.053 171.818 138.253 171.975 137.515 172.289C136.777 172.603 136.134 173.042 135.585 173.607C135.051 174.172 134.627 174.847 134.313 175.632C134.015 176.401 133.866 177.256 133.866 178.198C133.866 179.124 134.015 179.979 134.313 180.764C134.627 181.549 135.051 182.224 135.585 182.789C136.134 183.354 136.777 183.793 137.515 184.107C138.253 184.421 139.053 184.578 139.916 184.578C140.811 184.578 141.635 184.366 142.388 183.942C143.157 183.519 143.769 182.969 144.225 182.294L145.896 183.213C145.237 184.107 144.421 184.853 143.448 185.449C142.49 186.03 141.313 186.32 139.916 186.32ZM151.282 174.431C151.282 175.64 151.588 176.55 152.2 177.162C152.828 177.759 153.738 178.057 154.931 178.057C155.59 178.057 156.234 178.01 156.862 177.915C157.49 177.821 158.055 177.688 158.557 177.515V170.335H160.511V186.038H158.557V179.257C158.039 179.399 157.466 179.524 156.838 179.634C156.21 179.744 155.52 179.799 154.766 179.799C153.84 179.799 153.032 179.673 152.342 179.422C151.667 179.155 151.102 178.787 150.647 178.316C150.207 177.845 149.878 177.28 149.658 176.621C149.438 175.946 149.328 175.208 149.328 174.408V170.335H151.282V174.431ZM176.81 186.038L175.421 182.553H167.605L166.216 186.038H163.979L170.289 170.335H172.714L179.046 186.038H176.81ZM171.513 172.359L168.17 180.811H174.832L171.513 172.359ZM189.078 186.32C187.948 186.32 186.888 186.124 185.9 185.732C184.926 185.339 184.071 184.79 183.333 184.084C182.611 183.362 182.039 182.506 181.615 181.517C181.207 180.513 181.003 179.406 181.003 178.198C181.003 176.989 181.207 175.891 181.615 174.902C182.039 173.898 182.611 173.042 183.333 172.336C184.071 171.614 184.926 171.057 185.9 170.664C186.888 170.272 187.948 170.076 189.078 170.076C189.768 170.076 190.404 170.154 190.985 170.311C191.581 170.468 192.123 170.688 192.609 170.97C193.111 171.253 193.559 171.583 193.951 171.959C194.359 172.336 194.72 172.744 195.034 173.183L193.386 174.102C192.931 173.442 192.319 172.901 191.55 172.477C190.796 172.038 189.972 171.818 189.078 171.818C188.215 171.818 187.414 171.975 186.676 172.289C185.939 172.603 185.295 173.042 184.746 173.607C184.212 174.172 183.789 174.847 183.475 175.632C183.176 176.401 183.027 177.256 183.027 178.198C183.027 179.124 183.176 179.979 183.475 180.764C183.789 181.549 184.212 182.224 184.746 182.789C185.295 183.354 185.939 183.793 186.676 184.107C187.414 184.421 188.215 184.578 189.078 184.578C189.972 184.578 190.796 184.366 191.55 183.942C192.319 183.519 192.931 182.969 193.386 182.294L195.058 183.213C194.398 184.107 193.582 184.853 192.609 185.449C191.652 186.03 190.475 186.32 189.078 186.32ZM202.845 186.038V172.077H197.878V170.335H209.79V172.077H204.799V186.038H202.845ZM215.754 170.335V176.574H220.109C220.878 176.574 221.569 176.699 222.181 176.95C222.793 177.201 223.311 177.547 223.734 177.986C224.158 178.41 224.48 178.912 224.7 179.493C224.919 180.058 225.029 180.662 225.029 181.306C225.029 181.949 224.919 182.561 224.7 183.142C224.48 183.707 224.158 184.209 223.734 184.649C223.326 185.072 222.816 185.41 222.204 185.661C221.592 185.912 220.894 186.038 220.109 186.038H213.8V170.335H215.754ZM215.754 178.316V184.295H219.874C220.815 184.295 221.569 184.021 222.134 183.471C222.714 182.922 223.005 182.2 223.005 181.306C223.005 180.411 222.714 179.689 222.134 179.14C221.569 178.59 220.815 178.316 219.874 178.316H215.754ZM229.029 186.038V170.335H239.318V172.077H230.984V177.139H239.153V178.881H230.984V184.295H239.318V186.038H229.029Z" fill="black"/>
<path d="M136.738 185.732L136.451 186.444L136.455 186.446L136.738 185.732ZM134.172 184.084L133.629 184.627L133.635 184.633L133.641 184.639L134.172 184.084ZM132.453 181.517L131.742 181.807L131.744 181.813L131.747 181.82L132.453 181.517ZM132.453 174.902L131.745 174.603L131.743 174.609L132.453 174.902ZM134.172 172.336L134.709 172.885L134.709 172.885L134.172 172.336ZM136.738 170.664L136.455 169.95L136.451 169.952L136.738 170.664ZM141.823 170.311L141.623 171.053L141.628 171.054L141.823 170.311ZM143.448 170.97L143.062 171.635L143.071 171.64L143.448 170.97ZM144.79 171.959L144.257 172.514L144.263 172.519L144.268 172.524L144.79 171.959ZM145.873 173.183L146.247 173.855L146.997 173.436L146.498 172.737L145.873 173.183ZM144.225 174.102L143.592 174.538L143.989 175.113L144.599 174.773L144.225 174.102ZM142.388 172.477L142.001 173.141L142.009 173.146L142.017 173.15L142.388 172.477ZM137.515 172.289L137.214 171.582L137.214 171.582L137.515 172.289ZM135.585 173.607L135.034 173.071L135.026 173.08L135.585 173.607ZM134.313 175.632L133.6 175.346L133.597 175.354L134.313 175.632ZM134.313 180.764L133.595 181.037L133.6 181.049L134.313 180.764ZM135.585 182.789L135.026 183.316L135.034 183.324L135.585 182.789ZM137.515 184.107L137.816 183.4L137.515 184.107ZM142.388 183.942L142.017 183.269L142.012 183.273L142.388 183.942ZM144.225 182.294L144.595 181.621L143.98 181.283L143.588 181.865L144.225 182.294ZM145.896 183.213L146.515 183.668L147.035 182.962L146.266 182.539L145.896 183.213ZM143.448 185.449L143.846 186.106L143.849 186.104L143.448 185.449ZM139.916 185.552C138.877 185.552 137.915 185.372 137.022 185.017L136.455 186.446C137.539 186.876 138.695 187.089 139.916 187.089V185.552ZM137.025 185.019C136.14 184.662 135.369 184.165 134.703 183.529L133.641 184.639C134.451 185.414 135.39 186.016 136.451 186.444L137.025 185.019ZM134.715 183.54C134.066 182.891 133.547 182.119 133.16 181.215L131.747 181.82C132.207 182.894 132.834 183.832 133.629 184.627L134.715 183.54ZM133.165 181.228C132.799 180.326 132.61 179.319 132.61 178.198H131.073C131.073 179.494 131.292 180.7 131.742 181.807L133.165 181.228ZM132.61 178.198C132.61 177.077 132.799 176.08 133.164 175.195L131.743 174.609C131.292 175.702 131.073 176.902 131.073 178.198H132.61ZM133.161 175.201C133.549 174.283 134.066 173.515 134.709 172.885L133.635 171.787C132.834 172.57 132.206 173.512 131.745 174.603L133.161 175.201ZM134.709 172.885C135.374 172.235 136.144 171.732 137.025 171.377L136.451 169.952C135.386 170.381 134.445 170.993 133.635 171.787L134.709 172.885ZM137.022 171.379C137.915 171.024 138.877 170.844 139.916 170.844V169.307C138.695 169.307 137.539 169.52 136.455 169.95L137.022 171.379ZM139.916 170.844C140.549 170.844 141.116 170.916 141.623 171.053L142.024 169.569C141.369 169.392 140.665 169.307 139.916 169.307V170.844ZM141.628 171.054C142.164 171.195 142.64 171.39 143.062 171.635L143.834 170.306C143.282 169.986 142.676 169.741 142.019 169.568L141.628 171.054ZM143.071 171.64C143.52 171.893 143.915 172.184 144.257 172.514L145.322 171.405C144.88 170.981 144.38 170.613 143.824 170.301L143.071 171.64ZM144.268 172.524C144.639 172.866 144.965 173.235 145.247 173.63L146.498 172.737C146.153 172.253 145.756 171.806 145.311 171.395L144.268 172.524ZM145.499 172.512L143.851 173.43L144.599 174.773L146.247 173.855L145.499 172.512ZM144.857 173.665C144.328 172.899 143.622 172.28 142.759 171.804L142.017 173.15C142.692 173.522 143.211 173.986 143.592 174.538L144.857 173.665ZM142.775 171.813C141.901 171.304 140.943 171.05 139.916 171.05V172.586C140.679 172.586 141.368 172.772 142.001 173.141L142.775 171.813ZM139.916 171.05C138.958 171.05 138.054 171.224 137.214 171.582L137.816 172.996C138.451 172.725 139.148 172.586 139.916 172.586V171.05ZM137.214 171.582C136.384 171.935 135.655 172.432 135.034 173.072L136.135 174.143C136.612 173.652 137.17 173.27 137.816 172.996L137.214 171.582ZM135.026 173.08C134.42 173.721 133.946 174.48 133.6 175.346L135.027 175.917C135.308 175.214 135.682 174.624 136.143 174.135L135.026 173.08ZM133.597 175.354C133.26 176.223 133.098 177.175 133.098 178.198H134.634C134.634 177.338 134.77 176.578 135.03 175.91L133.597 175.354ZM133.098 178.198C133.098 179.208 133.26 180.157 133.595 181.037L135.032 180.491C134.77 179.802 134.634 179.04 134.634 178.198H133.098ZM133.6 181.049C133.946 181.916 134.42 182.675 135.026 183.316L136.143 182.261C135.682 181.772 135.308 181.182 135.027 180.479L133.6 181.049ZM135.034 183.324C135.655 183.964 136.384 184.461 137.214 184.814L137.816 183.4C137.17 183.125 136.612 182.744 136.135 182.253L135.034 183.324ZM137.214 184.814C138.054 185.172 138.958 185.346 139.916 185.346V183.81C139.148 183.81 138.451 183.67 137.816 183.4L137.214 184.814ZM139.916 185.346C140.938 185.346 141.893 185.103 142.765 184.612L142.012 183.273C141.377 183.629 140.684 183.81 139.916 183.81V185.346ZM142.759 184.615C143.626 184.137 144.333 183.508 144.862 182.724L143.588 181.865C143.206 182.431 142.688 182.9 142.017 183.269L142.759 184.615ZM143.855 182.968L145.526 183.886L146.266 182.539L144.595 181.621L143.855 182.968ZM145.278 182.757C144.679 183.569 143.937 184.248 143.046 184.794L143.849 186.104C144.905 185.457 145.795 184.645 146.515 183.668L145.278 182.757ZM143.049 184.792C142.238 185.284 141.207 185.552 139.916 185.552V187.089C141.419 187.089 142.742 186.776 143.846 186.106L143.049 184.792ZM152.2 177.162L151.657 177.705L151.664 177.712L151.671 177.719L152.2 177.162ZM156.862 177.915L156.748 177.156L156.862 177.915ZM158.557 177.515L158.807 178.242L159.325 178.064V177.515H158.557ZM158.557 170.335V169.566H157.788V170.335H158.557ZM160.511 170.335H161.279V169.566H160.511V170.335ZM160.511 186.038V186.806H161.279V186.038H160.511ZM158.557 186.038H157.788V186.806H158.557V186.038ZM158.557 179.257H159.325V178.251L158.355 178.516L158.557 179.257ZM156.838 179.634L156.706 178.877L156.838 179.634ZM152.342 179.422L152.059 180.137L152.069 180.141L152.079 180.144L152.342 179.422ZM150.647 178.316L150.085 178.84L150.094 178.85L150.647 178.316ZM149.658 176.621L148.927 176.859L148.929 176.864L149.658 176.621ZM149.328 170.335V169.566H148.56V170.335H149.328ZM151.282 170.335H152.051V169.566H151.282V170.335ZM150.514 174.431C150.514 175.761 150.852 176.9 151.657 177.705L152.744 176.619C152.325 176.2 152.051 175.518 152.051 174.431H150.514ZM151.671 177.719C152.488 178.496 153.617 178.825 154.931 178.825V177.288C153.86 177.288 153.168 177.021 152.73 176.605L151.671 177.719ZM154.931 178.825C155.627 178.825 156.309 178.775 156.976 178.675L156.748 177.156C156.159 177.244 155.554 177.288 154.931 177.288V178.825ZM156.976 178.675C157.641 178.576 158.253 178.432 158.807 178.242L158.307 176.789C157.857 176.943 157.338 177.067 156.748 177.156L156.976 178.675ZM159.325 177.515V170.335H157.788V177.515H159.325ZM158.557 171.103H160.511V169.566H158.557V171.103ZM159.742 170.335V186.038H161.279V170.335H159.742ZM160.511 185.269H158.557V186.806H160.511V185.269ZM159.325 186.038V179.257H157.788V186.038H159.325ZM158.355 178.516C157.863 178.65 157.314 178.771 156.706 178.877L156.971 180.391C157.618 180.278 158.214 180.147 158.759 179.999L158.355 178.516ZM156.706 178.877C156.129 178.978 155.483 179.03 154.766 179.03V180.567C155.556 180.567 156.292 180.51 156.971 180.391L156.706 178.877ZM154.766 179.03C153.908 179.03 153.192 178.914 152.604 178.7L152.079 180.144C152.872 180.433 153.773 180.567 154.766 180.567V179.03ZM152.624 178.708C152.04 178.477 151.57 178.166 151.199 177.782L150.094 178.85C150.633 179.407 151.293 179.834 152.059 180.137L152.624 178.708ZM151.208 177.791C150.85 177.407 150.574 176.941 150.387 176.378L148.929 176.864C149.181 177.619 149.564 178.282 150.085 178.84L151.208 177.791ZM150.388 176.383C150.197 175.794 150.097 175.137 150.097 174.408H148.56C148.56 175.279 148.679 176.098 148.927 176.859L150.388 176.383ZM150.097 174.408V170.335H148.56V174.408H150.097ZM149.328 171.103H151.282V169.566H149.328V171.103ZM150.514 170.335V174.431H152.051V170.335H150.514ZM176.81 186.038L176.096 186.322L176.289 186.806H176.81V186.038ZM175.421 182.553L176.135 182.269L175.942 181.785H175.421V182.553ZM167.605 182.553V181.785H167.084L166.891 182.269L167.605 182.553ZM166.216 186.038V186.806H166.737L166.93 186.322L166.216 186.038ZM163.979 186.038L163.266 185.751L162.842 186.806H163.979V186.038ZM170.289 170.335V169.566H169.769L169.576 170.048L170.289 170.335ZM172.714 170.335L173.426 170.047L173.232 169.566H172.714V170.335ZM179.046 186.038V186.806H180.185L179.759 185.75L179.046 186.038ZM171.513 172.359L172.228 172.079L171.515 170.264L170.798 172.077L171.513 172.359ZM168.17 180.811L167.455 180.529L167.04 181.58H168.17V180.811ZM174.832 180.811V181.58H175.96L175.548 180.53L174.832 180.811ZM177.524 185.753L176.135 182.269L174.707 182.838L176.096 186.322L177.524 185.753ZM175.421 181.785H167.605V183.322H175.421V181.785ZM166.891 182.269L165.502 185.753L166.93 186.322L168.319 182.838L166.891 182.269ZM166.216 185.269H163.979V186.806H166.216V185.269ZM164.692 186.324L171.002 170.621L169.576 170.048L163.266 185.751L164.692 186.324ZM170.289 171.103H172.714V169.566H170.289V171.103ZM172.001 170.622L178.334 186.325L179.759 185.75L173.426 170.047L172.001 170.622ZM179.046 185.269H176.81V186.806H179.046V185.269ZM170.798 172.077L167.455 180.529L168.884 181.094L172.227 172.642L170.798 172.077ZM168.17 181.58H174.832V180.043H168.17V181.58ZM175.548 180.53L172.228 172.079L170.798 172.64L174.117 181.092L175.548 180.53ZM185.9 185.732L185.612 186.444L185.616 186.446L185.9 185.732ZM183.333 184.084L182.79 184.627L182.796 184.633L182.802 184.639L183.333 184.084ZM181.615 181.517L180.903 181.807L180.906 181.813L180.909 181.82L181.615 181.517ZM181.615 174.902L180.907 174.603L180.905 174.609L181.615 174.902ZM183.333 172.336L183.871 172.885L183.871 172.885L183.333 172.336ZM185.9 170.664L185.616 169.95L185.612 169.952L185.9 170.664ZM190.985 170.311L190.784 171.053L190.789 171.054L190.985 170.311ZM192.609 170.97L192.223 171.635L192.232 171.64L192.609 170.97ZM193.951 171.959L193.419 172.514L193.424 172.519L193.43 172.524L193.951 171.959ZM195.034 173.183L195.408 173.855L196.159 173.436L195.659 172.737L195.034 173.183ZM193.386 174.102L192.754 174.538L193.15 175.113L193.76 174.773L193.386 174.102ZM191.55 172.477L191.163 173.141L191.171 173.146L191.179 173.15L191.55 172.477ZM186.676 172.289L186.376 171.582V171.582L186.676 172.289ZM184.746 173.607L184.195 173.071L184.187 173.08L184.746 173.607ZM183.475 175.632L182.761 175.346L182.758 175.354L183.475 175.632ZM183.475 180.764L182.756 181.037L182.761 181.049L183.475 180.764ZM184.746 182.789L184.187 183.316L184.195 183.324L184.746 182.789ZM186.676 184.107L186.977 183.4L186.676 184.107ZM191.55 183.942L191.179 183.269L191.173 183.273L191.55 183.942ZM193.386 182.294L193.756 181.621L193.141 181.283L192.749 181.865L193.386 182.294ZM195.058 183.213L195.676 183.668L196.197 182.962L195.427 182.539L195.058 183.213ZM192.609 185.449L193.008 186.106L193.011 186.104L192.609 185.449ZM189.078 185.552C188.039 185.552 187.076 185.372 186.183 185.017L185.616 186.446C186.701 186.876 187.857 187.089 189.078 187.089V185.552ZM186.187 185.019C185.302 184.662 184.53 184.165 183.865 183.529L182.802 184.639C183.612 185.414 184.551 186.016 185.612 186.444L186.187 185.019ZM183.877 183.54C183.228 182.891 182.708 182.119 182.321 181.215L180.909 181.82C181.369 182.894 181.995 183.832 182.79 184.627L183.877 183.54ZM182.327 181.228C181.96 180.326 181.771 179.319 181.771 178.198H180.234C180.234 179.494 180.453 180.7 180.903 181.807L182.327 181.228ZM181.771 178.198C181.771 177.077 181.96 176.08 182.325 175.195L180.905 174.609C180.453 175.702 180.234 176.902 180.234 178.198H181.771ZM182.323 175.201C182.71 174.283 183.227 173.515 183.871 172.885L182.796 171.787C181.996 172.57 181.367 173.512 180.907 174.603L182.323 175.201ZM183.871 172.885C184.535 172.235 185.305 171.732 186.187 171.377L185.612 169.952C184.547 170.381 183.607 170.993 182.796 171.787L183.871 172.885ZM186.183 171.379C187.076 171.024 188.039 170.844 189.078 170.844V169.307C187.857 169.307 186.701 169.52 185.616 169.95L186.183 171.379ZM189.078 170.844C189.71 170.844 190.278 170.916 190.784 171.053L191.185 169.569C190.53 169.392 189.826 169.307 189.078 169.307V170.844ZM190.789 171.054C191.325 171.195 191.802 171.39 192.223 171.635L192.995 170.306C192.443 169.986 191.837 169.741 191.18 169.568L190.789 171.054ZM192.232 171.64C192.682 171.893 193.076 172.184 193.419 172.514L194.483 171.405C194.041 170.981 193.541 170.613 192.986 170.301L192.232 171.64ZM193.43 172.524C193.8 172.866 194.126 173.235 194.409 173.63L195.659 172.737C195.314 172.253 194.918 171.806 194.472 171.395L193.43 172.524ZM194.66 172.512L193.012 173.43L193.76 174.773L195.408 173.855L194.66 172.512ZM194.018 173.665C193.489 172.899 192.784 172.28 191.921 171.804L191.179 173.15C191.854 173.522 192.373 173.986 192.754 174.538L194.018 173.665ZM191.937 171.813C191.063 171.304 190.105 171.05 189.078 171.05V172.586C189.84 172.586 190.53 172.772 191.163 173.141L191.937 171.813ZM189.078 171.05C188.119 171.05 187.215 171.224 186.376 171.582L186.977 172.996C187.613 172.725 188.31 172.586 189.078 172.586V171.05ZM186.376 171.582C185.546 171.935 184.817 172.432 184.195 173.072L185.297 174.143C185.774 173.652 186.332 173.27 186.977 172.996L186.376 171.582ZM184.187 173.08C183.582 173.721 183.108 174.48 182.761 175.346L184.188 175.917C184.469 175.214 184.843 174.624 185.305 174.135L184.187 173.08ZM182.758 175.354C182.421 176.223 182.259 177.175 182.259 178.198H183.796C183.796 177.338 183.932 176.578 184.191 175.91L182.758 175.354ZM182.259 178.198C182.259 179.208 182.422 180.157 182.756 181.037L184.193 180.491C183.931 179.802 183.796 179.04 183.796 178.198H182.259ZM182.761 181.049C183.108 181.916 183.582 182.675 184.187 183.316L185.305 182.261C184.843 181.772 184.469 181.182 184.188 180.479L182.761 181.049ZM184.195 183.324C184.817 183.964 185.546 184.461 186.376 184.814L186.977 183.4C186.332 183.125 185.774 182.744 185.297 182.253L184.195 183.324ZM186.376 184.814C187.215 185.172 188.119 185.346 189.078 185.346V183.81C188.31 183.81 187.613 183.67 186.977 183.4L186.376 184.814ZM189.078 185.346C190.1 185.346 191.054 185.103 191.926 184.612L191.173 183.273C190.539 183.629 189.845 183.81 189.078 183.81V185.346ZM191.921 184.615C192.788 184.137 193.494 183.508 194.023 182.724L192.749 181.865C192.367 182.431 191.85 182.9 191.179 183.269L191.921 184.615ZM193.016 182.968L194.688 183.886L195.427 182.539L193.756 181.621L193.016 182.968ZM194.439 182.757C193.84 183.569 193.098 184.248 192.208 184.794L193.011 186.104C194.066 185.457 194.957 184.645 195.676 183.668L194.439 182.757ZM192.211 184.792C191.4 185.284 190.369 185.552 189.078 185.552V187.089C190.581 187.089 191.904 186.776 193.008 186.106L192.211 184.792ZM202.845 186.038H202.077V186.806H202.845V186.038ZM202.845 172.077H203.613V171.309H202.845V172.077ZM197.878 172.077H197.109V172.845H197.878V172.077ZM197.878 170.335V169.566H197.109V170.335H197.878ZM209.79 170.335H210.558V169.566H209.79V170.335ZM209.79 172.077V172.845H210.558V172.077H209.79ZM204.799 172.077V171.309H204.031V172.077H204.799ZM204.799 186.038V186.806H205.567V186.038H204.799ZM203.613 186.038V172.077H202.077V186.038H203.613ZM202.845 171.309H197.878V172.845H202.845V171.309ZM198.646 172.077V170.335H197.109V172.077H198.646ZM197.878 171.103H209.79V169.566H197.878V171.103ZM209.022 170.335V172.077H210.558V170.335H209.022ZM209.79 171.309H204.799V172.845H209.79V171.309ZM204.031 172.077V186.038H205.567V172.077H204.031ZM204.799 185.269H202.845V186.806H204.799V185.269ZM215.754 170.335H216.522V169.566H215.754V170.335ZM215.754 176.574H214.985V177.342H215.754V176.574ZM223.734 177.986L223.181 178.52L223.191 178.529L223.734 177.986ZM224.7 179.493L223.981 179.765L223.984 179.771L224.7 179.493ZM224.7 183.142L225.416 183.42L225.418 183.414L224.7 183.142ZM223.734 184.649L223.181 184.115L223.181 184.116L223.734 184.649ZM213.8 186.038H213.031V186.806H213.8V186.038ZM213.8 170.335V169.566H213.031V170.335H213.8ZM215.754 178.316V177.547H214.985V178.316H215.754ZM215.754 184.295H214.985V185.064H215.754V184.295ZM222.134 183.471L221.605 182.913L221.598 182.921L222.134 183.471ZM222.134 179.14L221.598 179.691L221.606 179.698L222.134 179.14ZM214.985 170.335V176.574H216.522V170.335H214.985ZM215.754 177.342H220.109V175.805H215.754V177.342ZM220.109 177.342C220.794 177.342 221.383 177.454 221.889 177.661L222.472 176.239C221.754 175.945 220.962 175.805 220.109 175.805V177.342ZM221.889 177.661C222.411 177.875 222.838 178.163 223.181 178.519L224.288 177.453C223.784 176.93 223.175 176.527 222.472 176.239L221.889 177.661ZM223.191 178.529C223.535 178.873 223.798 179.282 223.981 179.765L225.418 179.221C225.162 178.542 224.781 177.946 224.278 177.443L223.191 178.529ZM223.984 179.771C224.167 180.242 224.261 180.751 224.261 181.306H225.798C225.798 180.573 225.672 179.873 225.416 179.214L223.984 179.771ZM224.261 181.306C224.261 181.86 224.167 182.379 223.981 182.87L225.418 183.414C225.672 182.743 225.798 182.039 225.798 181.306H224.261ZM223.984 182.863C223.801 183.333 223.535 183.749 223.181 184.115L224.288 185.182C224.782 184.67 225.159 184.081 225.416 183.42L223.984 182.863ZM223.181 184.116C222.856 184.453 222.438 184.734 221.913 184.95L222.496 186.372C223.194 186.085 223.797 185.691 224.288 185.182L223.181 184.116ZM221.913 184.95C221.409 185.157 220.812 185.269 220.109 185.269V186.806C220.975 186.806 221.776 186.667 222.496 186.372L221.913 184.95ZM220.109 185.269H213.8V186.806H220.109V185.269ZM214.568 186.038V170.335H213.031V186.038H214.568ZM213.8 171.103H215.754V169.566H213.8V171.103ZM214.985 178.316V184.295H216.522V178.316H214.985ZM215.754 185.064H219.874V183.527H215.754V185.064ZM219.874 185.064C220.974 185.064 221.933 184.738 222.669 184.022L221.598 182.921C221.204 183.304 220.657 183.527 219.874 183.527V185.064ZM222.662 184.03C223.415 183.317 223.773 182.384 223.773 181.306H222.236C222.236 182.017 222.014 182.527 221.606 182.913L222.662 184.03ZM223.773 181.306C223.773 180.228 223.415 179.294 222.662 178.581L221.606 179.698C222.014 180.084 222.236 180.594 222.236 181.306H223.773ZM222.669 178.589C221.933 177.873 220.974 177.547 219.874 177.547V179.084C220.657 179.084 221.204 179.307 221.598 179.691L222.669 178.589ZM219.874 177.547H215.754V179.084H219.874V177.547ZM229.029 186.038H228.261V186.806H229.029V186.038ZM229.029 170.335V169.566H228.261V170.335H229.029ZM239.318 170.335H240.086V169.566H239.318V170.335ZM239.318 172.077V172.845H240.086V172.077H239.318ZM230.984 172.077V171.309H230.215V172.077H230.984ZM230.984 177.139H230.215V177.907H230.984V177.139ZM239.153 177.139H239.921V176.37H239.153V177.139ZM239.153 178.881V179.649H239.921V178.881H239.153ZM230.984 178.881V178.112H230.215V178.881H230.984ZM230.984 184.295H230.215V185.064H230.984V184.295ZM239.318 184.295H240.086V183.527H239.318V184.295ZM239.318 186.038V186.806H240.086V186.038H239.318ZM229.798 186.038V170.335H228.261V186.038H229.798ZM229.029 171.103H239.318V169.566H229.029V171.103ZM238.549 170.335V172.077H240.086V170.335H238.549ZM239.318 171.309H230.984V172.845H239.318V171.309ZM230.215 172.077V177.139H231.752V172.077H230.215ZM230.984 177.907H239.153V176.37H230.984V177.907ZM238.384 177.139V178.881H239.921V177.139H238.384ZM239.153 178.112H230.984V179.649H239.153V178.112ZM230.215 178.881V184.295H231.752V178.881H230.215ZM230.984 185.064H239.318V183.527H230.984V185.064ZM238.549 184.295V186.038H240.086V184.295H238.549ZM239.318 185.269H229.029V186.806H239.318V185.269Z" fill="black" mask="url(#path-2-outside-1_225_435)"/>
<defs>
<filter id="filter0_f_225_435" x="0.765587" y="0.765587" width="368.969" height="352.058" filterUnits="userSpaceOnUse" color-interpolation-filters="sRGB">
<feFlood flood-opacity="0" result="BackgroundImageFix"/>
<feBlend mode="normal" in="SourceGraphic" in2="BackgroundImageFix" result="shape"/>
<feGaussianBlur stdDeviation="47.6172" result="effect1_foregroundBlur_225_435"/>
</filter>
</defs>
</svg>
