<svg width="296" height="283" viewBox="0 0 296 283" fill="none" xmlns="http://www.w3.org/2000/svg">
<g filter="url(#filter0_f_225_447)">
<ellipse cx="148.277" cy="141.525" rx="71.2772" ry="64.5247" fill="#DCBB03"/>
</g>
<mask id="path-2-outside-1_225_447" maskUnits="userSpaceOnUse" x="91" y="135" width="107" height="17" fill="black">
<rect fill="white" x="91" y="135" width="107" height="17"/>
<path d="M97.2644 149.226C96.7129 149.226 96.1928 149.169 95.7039 149.056C95.2276 148.956 94.7826 148.812 94.369 148.624C93.9679 148.436 93.6107 148.217 93.2973 147.966C92.9965 147.715 92.7458 147.446 92.5452 147.157L93.4665 146.161C93.8426 146.65 94.369 147.051 95.0459 147.364C95.7227 147.678 96.4497 147.834 97.2268 147.834C98.2171 147.834 98.9879 147.627 99.5394 147.214C100.103 146.788 100.386 146.211 100.386 145.484C100.386 145.096 100.304 144.763 100.141 144.488C99.9907 144.199 99.7713 143.967 99.483 143.792C99.1947 143.616 98.85 143.485 98.4489 143.397C98.0478 143.309 97.6091 143.266 97.1328 143.266H94.5758V141.874H97.1328C97.5465 141.874 97.935 141.837 98.2985 141.761C98.6746 141.674 99.0005 141.548 99.2762 141.385C99.552 141.21 99.7713 140.997 99.9343 140.746C100.097 140.483 100.179 140.17 100.179 139.806C100.179 139.455 100.097 139.148 99.9343 138.885C99.7839 138.622 99.5708 138.402 99.295 138.227C99.0193 138.039 98.6996 137.901 98.3361 137.813C97.9726 137.713 97.5841 137.663 97.1704 137.663C95.754 137.663 94.5695 138.17 93.6169 139.186L92.7521 138.208C93.2284 137.656 93.8488 137.199 94.6134 136.835C95.3906 136.459 96.2805 136.271 97.2832 136.271C97.8974 136.271 98.474 136.347 99.013 136.497C99.5645 136.647 100.041 136.867 100.442 137.155C100.856 137.431 101.181 137.782 101.42 138.208C101.658 138.622 101.777 139.092 101.777 139.618C101.777 140.069 101.689 140.464 101.514 140.803C101.338 141.141 101.119 141.429 100.856 141.667C100.592 141.906 100.298 142.1 99.9719 142.25C99.6585 142.388 99.3577 142.482 99.0694 142.532C99.3577 142.557 99.671 142.639 100.009 142.777C100.348 142.915 100.661 143.109 100.95 143.36C101.238 143.61 101.476 143.924 101.664 144.3C101.865 144.676 101.965 145.114 101.965 145.616C101.965 146.142 101.852 146.625 101.626 147.063C101.401 147.502 101.081 147.884 100.668 148.21C100.254 148.524 99.7588 148.774 99.1822 148.962C98.6056 149.138 97.9664 149.226 97.2644 149.226ZM104.71 147.74C105.086 147.715 105.418 147.64 105.706 147.515C106.007 147.389 106.276 147.151 106.515 146.8C106.753 146.449 106.953 145.954 107.116 145.315C107.292 144.676 107.448 143.823 107.586 142.758L108.357 136.459H116.028V147.609H117.175V151.313H115.614V149H106.27V151.313H104.71V147.74ZM109.128 142.871C108.965 144.199 108.721 145.233 108.395 145.973C108.069 146.712 107.674 147.258 107.21 147.609H114.468V137.851H109.748L109.128 142.871ZM126.005 149.226C125.078 149.226 124.232 149.063 123.467 148.737C122.702 148.411 122.044 147.96 121.493 147.383C120.954 146.794 120.534 146.105 120.233 145.315C119.932 144.525 119.782 143.667 119.782 142.739C119.782 141.812 119.932 140.953 120.233 140.163C120.534 139.374 120.954 138.69 121.493 138.114C122.044 137.525 122.702 137.067 123.467 136.741C124.232 136.415 125.078 136.253 126.005 136.253C126.933 136.253 127.779 136.415 128.544 136.741C129.308 137.067 129.96 137.525 130.499 138.114C131.05 138.69 131.477 139.374 131.777 140.163C132.078 140.953 132.229 141.812 132.229 142.739C132.229 143.667 132.078 144.525 131.777 145.315C131.477 146.105 131.05 146.794 130.499 147.383C129.96 147.96 129.308 148.411 128.544 148.737C127.779 149.063 126.933 149.226 126.005 149.226ZM126.005 147.834C126.707 147.834 127.34 147.709 127.904 147.458C128.468 147.195 128.951 146.838 129.352 146.387C129.753 145.923 130.06 145.384 130.273 144.77C130.499 144.143 130.612 143.466 130.612 142.739C130.612 142.012 130.499 141.335 130.273 140.709C130.06 140.082 129.753 139.543 129.352 139.092C128.951 138.64 128.468 138.289 127.904 138.039C127.34 137.775 126.707 137.644 126.005 137.644C125.303 137.644 124.664 137.775 124.088 138.039C123.523 138.289 123.041 138.64 122.64 139.092C122.239 139.543 121.932 140.082 121.719 140.709C121.505 141.335 121.399 142.012 121.399 142.739C121.399 143.466 121.505 144.143 121.719 144.77C121.932 145.384 122.239 145.923 122.64 146.387C123.041 146.838 123.523 147.195 124.088 147.458C124.664 147.709 125.303 147.834 126.005 147.834ZM135.794 149V136.459H140.833C141.46 136.459 142.018 136.56 142.506 136.76C142.995 136.961 143.403 137.236 143.729 137.587C144.067 137.926 144.324 138.327 144.499 138.791C144.675 139.242 144.763 139.725 144.763 140.238C144.763 140.752 144.675 141.241 144.499 141.705C144.324 142.156 144.067 142.557 143.729 142.908C143.39 143.247 142.977 143.516 142.488 143.717C141.999 143.917 141.447 144.018 140.833 144.018H137.355V149H135.794ZM140.645 142.626C141.397 142.626 141.999 142.407 142.45 141.968C142.914 141.53 143.146 140.953 143.146 140.238C143.146 139.524 142.914 138.947 142.45 138.509C141.999 138.07 141.397 137.851 140.645 137.851H137.355V142.626H140.645ZM153.673 149.226C152.745 149.226 151.899 149.063 151.135 148.737C150.37 148.411 149.712 147.96 149.161 147.383C148.622 146.794 148.202 146.105 147.901 145.315C147.6 144.525 147.45 143.667 147.45 142.739C147.45 141.812 147.6 140.953 147.901 140.163C148.202 139.374 148.622 138.69 149.161 138.114C149.712 137.525 150.37 137.067 151.135 136.741C151.899 136.415 152.745 136.253 153.673 136.253C154.601 136.253 155.447 136.415 156.211 136.741C156.976 137.067 157.628 137.525 158.167 138.114C158.718 138.69 159.144 139.374 159.445 140.163C159.746 140.953 159.896 141.812 159.896 142.739C159.896 143.667 159.746 144.525 159.445 145.315C159.144 146.105 158.718 146.794 158.167 147.383C157.628 147.96 156.976 148.411 156.211 148.737C155.447 149.063 154.601 149.226 153.673 149.226ZM153.673 147.834C154.375 147.834 155.008 147.709 155.572 147.458C156.136 147.195 156.619 146.838 157.02 146.387C157.421 145.923 157.728 145.384 157.941 144.77C158.167 144.143 158.279 143.466 158.279 142.739C158.279 142.012 158.167 141.335 157.941 140.709C157.728 140.082 157.421 139.543 157.02 139.092C156.619 138.64 156.136 138.289 155.572 138.039C155.008 137.775 154.375 137.644 153.673 137.644C152.971 137.644 152.332 137.775 151.755 138.039C151.191 138.289 150.709 138.64 150.308 139.092C149.906 139.543 149.599 140.082 149.386 140.709C149.173 141.335 149.067 142.012 149.067 142.739C149.067 143.466 149.173 144.143 149.386 144.77C149.599 145.384 149.906 145.923 150.308 146.387C150.709 146.838 151.191 147.195 151.755 147.458C152.332 147.709 152.971 147.834 153.673 147.834ZM163.462 149V136.459H169.046C169.585 136.459 170.074 136.541 170.513 136.704C170.951 136.854 171.321 137.074 171.622 137.362C171.923 137.638 172.155 137.976 172.318 138.377C172.48 138.766 172.562 139.192 172.562 139.656C172.562 140.057 172.499 140.42 172.374 140.746C172.261 141.072 172.098 141.36 171.885 141.611C171.685 141.849 171.453 142.05 171.189 142.213C170.926 142.363 170.65 142.47 170.362 142.532C170.701 142.582 171.014 142.701 171.302 142.889C171.603 143.078 171.86 143.309 172.073 143.585C172.299 143.861 172.474 144.174 172.6 144.525C172.737 144.876 172.806 145.24 172.806 145.616C172.806 146.117 172.725 146.575 172.562 146.988C172.399 147.402 172.161 147.759 171.848 148.06C171.534 148.361 171.152 148.593 170.701 148.756C170.262 148.919 169.754 149 169.178 149H163.462ZM168.783 141.893C169.497 141.893 170.036 141.705 170.4 141.329C170.763 140.94 170.945 140.458 170.945 139.881C170.945 139.317 170.763 138.841 170.4 138.452C170.036 138.051 169.497 137.851 168.783 137.851H165.023V141.893H168.783ZM168.858 147.609C169.598 147.609 170.168 147.421 170.569 147.045C170.983 146.656 171.189 146.123 171.189 145.447C171.189 145.158 171.139 144.882 171.039 144.619C170.939 144.356 170.788 144.13 170.588 143.942C170.4 143.742 170.162 143.585 169.873 143.472C169.585 143.347 169.247 143.284 168.858 143.284H165.023V147.609H168.858ZM177.975 136.459V141.442H181.453C182.068 141.442 182.619 141.542 183.108 141.743C183.597 141.943 184.01 142.219 184.349 142.57C184.687 142.908 184.944 143.309 185.12 143.773C185.295 144.224 185.383 144.707 185.383 145.221C185.383 145.735 185.295 146.224 185.12 146.687C184.944 147.139 184.687 147.54 184.349 147.891C184.023 148.229 183.616 148.499 183.127 148.699C182.638 148.9 182.08 149 181.453 149H176.415V136.459H177.975ZM177.975 142.833V147.609H181.265C182.017 147.609 182.619 147.389 183.07 146.951C183.534 146.512 183.766 145.935 183.766 145.221C183.766 144.506 183.534 143.93 183.07 143.491C182.619 143.052 182.017 142.833 181.265 142.833H177.975ZM188.578 149V136.459H196.794V137.851H190.138V141.893H196.662V143.284H190.138V147.609H196.794V149H188.578Z"/>
</mask>
<path d="M97.2644 149.226C96.7129 149.226 96.1928 149.169 95.7039 149.056C95.2276 148.956 94.7826 148.812 94.369 148.624C93.9679 148.436 93.6107 148.217 93.2973 147.966C92.9965 147.715 92.7458 147.446 92.5452 147.157L93.4665 146.161C93.8426 146.65 94.369 147.051 95.0459 147.364C95.7227 147.678 96.4497 147.834 97.2268 147.834C98.2171 147.834 98.9879 147.627 99.5394 147.214C100.103 146.788 100.386 146.211 100.386 145.484C100.386 145.096 100.304 144.763 100.141 144.488C99.9907 144.199 99.7713 143.967 99.483 143.792C99.1947 143.616 98.85 143.485 98.4489 143.397C98.0478 143.309 97.6091 143.266 97.1328 143.266H94.5758V141.874H97.1328C97.5465 141.874 97.935 141.837 98.2985 141.761C98.6746 141.674 99.0005 141.548 99.2762 141.385C99.552 141.21 99.7713 140.997 99.9343 140.746C100.097 140.483 100.179 140.17 100.179 139.806C100.179 139.455 100.097 139.148 99.9343 138.885C99.7839 138.622 99.5708 138.402 99.295 138.227C99.0193 138.039 98.6996 137.901 98.3361 137.813C97.9726 137.713 97.5841 137.663 97.1704 137.663C95.754 137.663 94.5695 138.17 93.6169 139.186L92.7521 138.208C93.2284 137.656 93.8488 137.199 94.6134 136.835C95.3906 136.459 96.2805 136.271 97.2832 136.271C97.8974 136.271 98.474 136.347 99.013 136.497C99.5645 136.647 100.041 136.867 100.442 137.155C100.856 137.431 101.181 137.782 101.42 138.208C101.658 138.622 101.777 139.092 101.777 139.618C101.777 140.069 101.689 140.464 101.514 140.803C101.338 141.141 101.119 141.429 100.856 141.667C100.592 141.906 100.298 142.1 99.9719 142.25C99.6585 142.388 99.3577 142.482 99.0694 142.532C99.3577 142.557 99.671 142.639 100.009 142.777C100.348 142.915 100.661 143.109 100.95 143.36C101.238 143.61 101.476 143.924 101.664 144.3C101.865 144.676 101.965 145.114 101.965 145.616C101.965 146.142 101.852 146.625 101.626 147.063C101.401 147.502 101.081 147.884 100.668 148.21C100.254 148.524 99.7588 148.774 99.1822 148.962C98.6056 149.138 97.9664 149.226 97.2644 149.226ZM104.71 147.74C105.086 147.715 105.418 147.64 105.706 147.515C106.007 147.389 106.276 147.151 106.515 146.8C106.753 146.449 106.953 145.954 107.116 145.315C107.292 144.676 107.448 143.823 107.586 142.758L108.357 136.459H116.028V147.609H117.175V151.313H115.614V149H106.27V151.313H104.71V147.74ZM109.128 142.871C108.965 144.199 108.721 145.233 108.395 145.973C108.069 146.712 107.674 147.258 107.21 147.609H114.468V137.851H109.748L109.128 142.871ZM126.005 149.226C125.078 149.226 124.232 149.063 123.467 148.737C122.702 148.411 122.044 147.96 121.493 147.383C120.954 146.794 120.534 146.105 120.233 145.315C119.932 144.525 119.782 143.667 119.782 142.739C119.782 141.812 119.932 140.953 120.233 140.163C120.534 139.374 120.954 138.69 121.493 138.114C122.044 137.525 122.702 137.067 123.467 136.741C124.232 136.415 125.078 136.253 126.005 136.253C126.933 136.253 127.779 136.415 128.544 136.741C129.308 137.067 129.96 137.525 130.499 138.114C131.05 138.69 131.477 139.374 131.777 140.163C132.078 140.953 132.229 141.812 132.229 142.739C132.229 143.667 132.078 144.525 131.777 145.315C131.477 146.105 131.05 146.794 130.499 147.383C129.96 147.96 129.308 148.411 128.544 148.737C127.779 149.063 126.933 149.226 126.005 149.226ZM126.005 147.834C126.707 147.834 127.34 147.709 127.904 147.458C128.468 147.195 128.951 146.838 129.352 146.387C129.753 145.923 130.06 145.384 130.273 144.77C130.499 144.143 130.612 143.466 130.612 142.739C130.612 142.012 130.499 141.335 130.273 140.709C130.06 140.082 129.753 139.543 129.352 139.092C128.951 138.64 128.468 138.289 127.904 138.039C127.34 137.775 126.707 137.644 126.005 137.644C125.303 137.644 124.664 137.775 124.088 138.039C123.523 138.289 123.041 138.64 122.64 139.092C122.239 139.543 121.932 140.082 121.719 140.709C121.505 141.335 121.399 142.012 121.399 142.739C121.399 143.466 121.505 144.143 121.719 144.77C121.932 145.384 122.239 145.923 122.64 146.387C123.041 146.838 123.523 147.195 124.088 147.458C124.664 147.709 125.303 147.834 126.005 147.834ZM135.794 149V136.459H140.833C141.46 136.459 142.018 136.56 142.506 136.76C142.995 136.961 143.403 137.236 143.729 137.587C144.067 137.926 144.324 138.327 144.499 138.791C144.675 139.242 144.763 139.725 144.763 140.238C144.763 140.752 144.675 141.241 144.499 141.705C144.324 142.156 144.067 142.557 143.729 142.908C143.39 143.247 142.977 143.516 142.488 143.717C141.999 143.917 141.447 144.018 140.833 144.018H137.355V149H135.794ZM140.645 142.626C141.397 142.626 141.999 142.407 142.45 141.968C142.914 141.53 143.146 140.953 143.146 140.238C143.146 139.524 142.914 138.947 142.45 138.509C141.999 138.07 141.397 137.851 140.645 137.851H137.355V142.626H140.645ZM153.673 149.226C152.745 149.226 151.899 149.063 151.135 148.737C150.37 148.411 149.712 147.96 149.161 147.383C148.622 146.794 148.202 146.105 147.901 145.315C147.6 144.525 147.45 143.667 147.45 142.739C147.45 141.812 147.6 140.953 147.901 140.163C148.202 139.374 148.622 138.69 149.161 138.114C149.712 137.525 150.37 137.067 151.135 136.741C151.899 136.415 152.745 136.253 153.673 136.253C154.601 136.253 155.447 136.415 156.211 136.741C156.976 137.067 157.628 137.525 158.167 138.114C158.718 138.69 159.144 139.374 159.445 140.163C159.746 140.953 159.896 141.812 159.896 142.739C159.896 143.667 159.746 144.525 159.445 145.315C159.144 146.105 158.718 146.794 158.167 147.383C157.628 147.96 156.976 148.411 156.211 148.737C155.447 149.063 154.601 149.226 153.673 149.226ZM153.673 147.834C154.375 147.834 155.008 147.709 155.572 147.458C156.136 147.195 156.619 146.838 157.02 146.387C157.421 145.923 157.728 145.384 157.941 144.77C158.167 144.143 158.279 143.466 158.279 142.739C158.279 142.012 158.167 141.335 157.941 140.709C157.728 140.082 157.421 139.543 157.02 139.092C156.619 138.64 156.136 138.289 155.572 138.039C155.008 137.775 154.375 137.644 153.673 137.644C152.971 137.644 152.332 137.775 151.755 138.039C151.191 138.289 150.709 138.64 150.308 139.092C149.906 139.543 149.599 140.082 149.386 140.709C149.173 141.335 149.067 142.012 149.067 142.739C149.067 143.466 149.173 144.143 149.386 144.77C149.599 145.384 149.906 145.923 150.308 146.387C150.709 146.838 151.191 147.195 151.755 147.458C152.332 147.709 152.971 147.834 153.673 147.834ZM163.462 149V136.459H169.046C169.585 136.459 170.074 136.541 170.513 136.704C170.951 136.854 171.321 137.074 171.622 137.362C171.923 137.638 172.155 137.976 172.318 138.377C172.48 138.766 172.562 139.192 172.562 139.656C172.562 140.057 172.499 140.42 172.374 140.746C172.261 141.072 172.098 141.36 171.885 141.611C171.685 141.849 171.453 142.05 171.189 142.213C170.926 142.363 170.65 142.47 170.362 142.532C170.701 142.582 171.014 142.701 171.302 142.889C171.603 143.078 171.86 143.309 172.073 143.585C172.299 143.861 172.474 144.174 172.6 144.525C172.737 144.876 172.806 145.24 172.806 145.616C172.806 146.117 172.725 146.575 172.562 146.988C172.399 147.402 172.161 147.759 171.848 148.06C171.534 148.361 171.152 148.593 170.701 148.756C170.262 148.919 169.754 149 169.178 149H163.462ZM168.783 141.893C169.497 141.893 170.036 141.705 170.4 141.329C170.763 140.94 170.945 140.458 170.945 139.881C170.945 139.317 170.763 138.841 170.4 138.452C170.036 138.051 169.497 137.851 168.783 137.851H165.023V141.893H168.783ZM168.858 147.609C169.598 147.609 170.168 147.421 170.569 147.045C170.983 146.656 171.189 146.123 171.189 145.447C171.189 145.158 171.139 144.882 171.039 144.619C170.939 144.356 170.788 144.13 170.588 143.942C170.4 143.742 170.162 143.585 169.873 143.472C169.585 143.347 169.247 143.284 168.858 143.284H165.023V147.609H168.858ZM177.975 136.459V141.442H181.453C182.068 141.442 182.619 141.542 183.108 141.743C183.597 141.943 184.01 142.219 184.349 142.57C184.687 142.908 184.944 143.309 185.12 143.773C185.295 144.224 185.383 144.707 185.383 145.221C185.383 145.735 185.295 146.224 185.12 146.687C184.944 147.139 184.687 147.54 184.349 147.891C184.023 148.229 183.616 148.499 183.127 148.699C182.638 148.9 182.08 149 181.453 149H176.415V136.459H177.975ZM177.975 142.833V147.609H181.265C182.017 147.609 182.619 147.389 183.07 146.951C183.534 146.512 183.766 145.935 183.766 145.221C183.766 144.506 183.534 143.93 183.07 143.491C182.619 143.052 182.017 142.833 181.265 142.833H177.975ZM188.578 149V136.459H196.794V137.851H190.138V141.893H196.662V143.284H190.138V147.609H196.794V149H188.578Z" fill="black"/>
<path d="M95.7039 149.056L95.8419 148.458L95.8303 148.456L95.7039 149.056ZM94.369 148.624L94.1085 149.18L94.1151 149.183L94.369 148.624ZM93.2973 147.966L92.9044 148.437L92.914 148.445L93.2973 147.966ZM92.5452 147.157L92.0947 146.741L91.7598 147.103L92.0415 147.508L92.5452 147.157ZM93.4665 146.161L93.9529 145.787L93.5096 145.21L93.0159 145.744L93.4665 146.161ZM95.0459 147.364L95.3037 146.807L95.0459 147.364ZM99.5394 147.214L99.9076 147.705L99.9094 147.703L99.5394 147.214ZM100.141 144.488L99.597 144.771L99.6045 144.786L99.6128 144.8L100.141 144.488ZM94.5758 143.266H93.9622V143.879H94.5758V143.266ZM94.5758 141.874V141.261H93.9622V141.874H94.5758ZM98.2985 141.761L98.4229 142.362L98.4304 142.361L98.438 142.359L98.2985 141.761ZM99.2762 141.385L99.5884 141.914L99.5971 141.909L99.6057 141.903L99.2762 141.385ZM99.9343 140.746L100.449 141.081L100.456 141.069L99.9343 140.746ZM99.9343 138.885L99.4015 139.189L99.4068 139.199L99.4125 139.208L99.9343 138.885ZM99.295 138.227L98.9493 138.734L98.9573 138.739L98.9656 138.744L99.295 138.227ZM98.3361 137.813L98.1729 138.405L98.1825 138.407L98.1921 138.41L98.3361 137.813ZM93.6169 139.186L93.1573 139.592L93.6036 140.097L94.0645 139.605L93.6169 139.186ZM92.7521 138.208L92.2876 137.807L91.937 138.213L92.2924 138.614L92.7521 138.208ZM94.6134 136.835L94.8769 137.39L94.8807 137.388L94.6134 136.835ZM99.013 136.497L98.848 137.088L98.8515 137.089L99.013 136.497ZM100.442 137.155L100.084 137.653L100.093 137.66L100.102 137.666L100.442 137.155ZM101.42 138.208L100.884 138.507L100.888 138.514L101.42 138.208ZM101.514 140.803L102.058 141.085V141.085L101.514 140.803ZM99.9719 142.25L100.219 142.812L100.229 142.807L99.9719 142.25ZM99.0694 142.532L98.9642 141.928L99.0162 143.144L99.0694 142.532ZM100.009 142.777L100.241 142.208L100.241 142.208L100.009 142.777ZM101.664 144.3L101.115 144.574L101.119 144.581L101.123 144.588L101.664 144.3ZM100.668 148.21L101.038 148.7L101.047 148.692L100.668 148.21ZM99.1822 148.962L99.3609 149.55L99.3725 149.546L99.1822 148.962ZM97.2644 148.612C96.7548 148.612 96.2813 148.56 95.8419 148.458L95.5659 149.654C96.1042 149.779 96.671 149.839 97.2644 149.839V148.612ZM95.8303 148.456C95.3948 148.364 94.9929 148.233 94.6229 148.065L94.1151 149.183C94.5723 149.39 95.0604 149.548 95.5775 149.657L95.8303 148.456ZM94.6295 148.068C94.2677 147.899 93.9525 147.704 93.6807 147.487L92.914 148.445C93.2688 148.729 93.6681 148.973 94.1085 149.18L94.6295 148.068ZM93.6902 147.494C93.4268 147.275 93.2148 147.045 93.049 146.807L92.0415 147.508C92.2768 147.846 92.5662 148.155 92.9045 148.437L93.6902 147.494ZM92.9958 147.574L93.9171 146.578L93.0159 145.744L92.0947 146.741L92.9958 147.574ZM92.9801 146.535C93.4279 147.117 94.04 147.575 94.788 147.921L95.3037 146.807C94.698 146.527 94.2572 146.182 93.9529 145.787L92.9801 146.535ZM94.788 147.921C95.5491 148.273 96.3645 148.448 97.2268 148.448V147.221C96.5349 147.221 95.8963 147.082 95.3037 146.807L94.788 147.921ZM97.2268 148.448C98.2938 148.448 99.2125 148.226 99.9076 147.705L99.1712 146.723C98.7634 147.029 98.1403 147.221 97.2268 147.221V148.448ZM99.9094 147.703C100.632 147.158 100.999 146.397 100.999 145.484H99.7718C99.7718 146.025 99.575 146.418 99.1695 146.724L99.9094 147.703ZM100.999 145.484C100.999 145.009 100.899 144.564 100.669 144.175L99.6128 144.8C99.709 144.963 99.7718 145.182 99.7718 145.484H100.999ZM100.685 144.204C100.481 143.812 100.182 143.499 99.8021 143.268L99.164 144.316C99.3606 144.436 99.5003 144.586 99.597 144.771L100.685 144.204ZM99.8021 143.268C99.4448 143.05 99.0337 142.897 98.5801 142.798L98.3178 143.997C98.6664 144.073 98.9447 144.183 99.164 144.316L99.8021 143.268ZM98.5801 142.798C98.1297 142.699 97.6464 142.652 97.1328 142.652V143.879C97.5719 143.879 97.966 143.92 98.3178 143.997L98.5801 142.798ZM97.1328 142.652H94.5758V143.879H97.1328V142.652ZM95.1895 143.266V141.874H93.9622V143.266H95.1895ZM94.5758 142.488H97.1328V141.261H94.5758V142.488ZM97.1328 142.488C97.5836 142.488 98.0141 142.447 98.4229 142.362L98.1742 141.16C97.8559 141.226 97.5094 141.261 97.1328 141.261V142.488ZM98.438 142.359C98.8627 142.26 99.2492 142.114 99.5884 141.914L98.964 140.857C98.7517 140.983 98.4864 141.087 98.1591 141.164L98.438 142.359ZM99.6057 141.903C99.9485 141.685 100.234 141.412 100.449 141.081L99.4197 140.412C99.309 140.582 99.1554 140.735 98.9468 140.868L99.6057 141.903ZM100.456 141.069C100.689 140.693 100.792 140.263 100.792 139.806H99.565C99.565 140.076 99.5056 140.273 99.4125 140.423L100.456 141.069ZM100.792 139.806C100.792 139.357 100.687 138.934 100.456 138.562L99.4125 139.208C99.5076 139.361 99.565 139.554 99.565 139.806H100.792ZM100.467 138.58C100.263 138.224 99.9776 137.934 99.6245 137.709L98.9656 138.744C99.164 138.871 99.3043 139.019 99.4015 139.189L100.467 138.58ZM99.6407 137.72C99.2967 137.485 98.9071 137.32 98.4801 137.217L98.1921 138.41C98.4922 138.482 98.7418 138.592 98.9493 138.734L99.6407 137.72ZM98.4993 137.221C98.0778 137.105 97.6339 137.049 97.1704 137.049V138.276C97.5342 138.276 97.8675 138.32 98.1729 138.405L98.4993 137.221ZM97.1704 137.049C95.5879 137.049 94.2403 137.624 93.1694 138.766L94.0645 139.605C94.8988 138.716 95.9202 138.276 97.1704 138.276V137.049ZM94.0766 138.779L93.2117 137.801L92.2924 138.614L93.1573 139.592L94.0766 138.779ZM93.2165 138.609C93.6289 138.131 94.1769 137.722 94.8769 137.39L94.3499 136.281C93.5208 136.675 92.8279 137.181 92.2876 137.807L93.2165 138.609ZM94.8807 137.388C95.562 137.058 96.3582 136.885 97.2832 136.885V135.658C96.2028 135.658 95.2191 135.861 94.3461 136.283L94.8807 137.388ZM97.2832 136.885C97.8471 136.885 98.3677 136.954 98.848 137.088L99.1779 135.906C98.5803 135.739 97.9478 135.658 97.2832 135.658V136.885ZM98.8515 137.089C99.3433 137.223 99.7507 137.414 100.084 137.653L100.8 136.657C100.331 136.32 99.7857 136.072 99.1745 135.905L98.8515 137.089ZM100.102 137.666C100.436 137.888 100.694 138.168 100.884 138.507L101.955 137.909C101.669 137.396 101.275 136.973 100.782 136.644L100.102 137.666ZM100.888 138.514C101.067 138.825 101.163 139.188 101.163 139.618H102.39C102.39 138.995 102.249 138.418 101.951 137.902L100.888 138.514ZM101.163 139.618C101.163 139.989 101.091 140.284 100.969 140.52L102.058 141.085C102.287 140.645 102.39 140.15 102.39 139.618H101.163ZM100.969 140.52C100.825 140.798 100.649 141.027 100.444 141.212L101.267 142.122C101.589 141.832 101.852 141.484 102.058 141.085L100.969 140.52ZM100.444 141.212C100.227 141.408 99.9849 141.568 99.7147 141.693L100.229 142.807C100.611 142.631 100.957 142.403 101.267 142.122L100.444 141.212ZM99.7247 141.689C99.4493 141.81 99.1962 141.887 98.9642 141.928L99.1745 143.137C99.5192 143.077 99.8677 142.967 100.219 142.812L99.7247 141.689ZM99.0162 143.144C99.2296 143.162 99.4822 143.225 99.7779 143.345L100.241 142.208C99.8599 142.053 99.4858 141.952 99.1226 141.921L99.0162 143.144ZM99.7779 143.345C100.051 143.456 100.307 143.614 100.547 143.823L101.352 142.896C101.015 142.604 100.645 142.373 100.241 142.208L99.7779 143.345ZM100.547 143.823C100.769 144.016 100.959 144.263 101.115 144.574L102.213 144.025C101.993 143.585 101.707 143.205 101.352 142.896L100.547 143.823ZM101.123 144.588C101.268 144.861 101.351 145.197 101.351 145.616H102.578C102.578 145.031 102.461 144.49 102.205 144.011L101.123 144.588ZM101.351 145.616C101.351 146.051 101.259 146.437 101.081 146.783L102.172 147.344C102.445 146.813 102.578 146.233 102.578 145.616H101.351ZM101.081 146.783C100.898 147.138 100.637 147.453 100.288 147.728L101.047 148.692C101.525 148.316 101.904 147.866 102.172 147.344L101.081 146.783ZM100.297 147.721C99.9461 147.987 99.5143 148.209 98.992 148.379L99.3725 149.546C100.003 149.34 100.562 149.06 101.038 148.699L100.297 147.721ZM99.0035 148.375C98.4935 148.531 97.9155 148.612 97.2644 148.612V149.839C98.0172 149.839 98.7178 149.745 99.3609 149.549L99.0035 148.375ZM104.71 147.74L104.669 147.128L104.096 147.166V147.74H104.71ZM105.706 147.515L105.47 146.948L105.461 146.952L105.706 147.515ZM106.515 146.8L107.022 147.145V147.145L106.515 146.8ZM107.116 145.315L106.524 145.152L106.522 145.163L107.116 145.315ZM107.586 142.758L108.195 142.837L108.195 142.832L107.586 142.758ZM108.357 136.459V135.846H107.814L107.748 136.385L108.357 136.459ZM116.028 136.459H116.642V135.846H116.028V136.459ZM116.028 147.609H115.414V148.222H116.028V147.609ZM117.175 147.609H117.789V146.995H117.175V147.609ZM117.175 151.313V151.926H117.789V151.313H117.175ZM115.614 151.313H115.001V151.926H115.614V151.313ZM115.614 149H116.228V148.386H115.614V149ZM106.27 149V148.386H105.656V149H106.27ZM106.27 151.313V151.926H106.884V151.313H106.27ZM104.71 151.313H104.096V151.926H104.71V151.313ZM109.128 142.871L108.519 142.795L108.519 142.796L109.128 142.871ZM108.395 145.973L108.956 146.22H108.956L108.395 145.973ZM107.21 147.609L106.84 147.119L105.382 148.222H107.21V147.609ZM114.468 147.609V148.222H115.081V147.609H114.468ZM114.468 137.851H115.081V137.237H114.468V137.851ZM109.748 137.851V137.237H109.206L109.139 137.775L109.748 137.851ZM104.75 148.353C105.183 148.324 105.586 148.236 105.951 148.077L105.461 146.952C105.249 147.044 104.988 147.107 104.669 147.128L104.75 148.353ZM105.942 148.081C106.382 147.898 106.737 147.565 107.022 147.145L106.007 146.456C105.816 146.737 105.632 146.881 105.47 146.948L105.942 148.081ZM107.022 147.145C107.316 146.712 107.539 146.141 107.711 145.466L106.522 145.163C106.367 145.768 106.189 146.187 106.007 146.456L107.022 147.145ZM107.708 145.477C107.894 144.799 108.055 143.915 108.195 142.837L106.978 142.679C106.841 143.731 106.689 144.552 106.524 145.152L107.708 145.477ZM108.195 142.832L108.966 136.534L107.748 136.385L106.977 142.683L108.195 142.832ZM108.357 137.073H116.028V135.846H108.357V137.073ZM115.414 136.459V147.609H116.642V136.459H115.414ZM116.028 148.222H117.175V146.995H116.028V148.222ZM116.561 147.609V151.313H117.789V147.609H116.561ZM117.175 150.699H115.614V151.926H117.175V150.699ZM116.228 151.313V149H115.001V151.313H116.228ZM115.614 148.386H106.27V149.614H115.614V148.386ZM105.656 149V151.313H106.884V149H105.656ZM106.27 150.699H104.71V151.926H106.27V150.699ZM105.323 151.313V147.74H104.096V151.313H105.323ZM108.519 142.796C108.359 144.099 108.124 145.065 107.833 145.725L108.956 146.22C109.317 145.402 109.571 144.3 109.737 142.945L108.519 142.796ZM107.833 145.725C107.534 146.405 107.194 146.851 106.84 147.119L107.58 148.098C108.154 147.664 108.604 147.02 108.956 146.22L107.833 145.725ZM107.21 148.222H114.468V146.995H107.21V148.222ZM115.081 147.609V137.851H113.854V147.609H115.081ZM114.468 137.237H109.748V138.464H114.468V137.237ZM109.139 137.775L108.519 142.795L109.737 142.946L110.357 137.926L109.139 137.775ZM123.467 148.737L123.226 149.301L123.467 148.737ZM121.493 147.383L121.04 147.797L121.049 147.807L121.493 147.383ZM120.233 145.315L120.807 145.096L120.233 145.315ZM120.233 140.163L119.66 139.945L120.233 140.163ZM121.493 138.114L121.045 137.694L121.045 137.695L121.493 138.114ZM123.467 136.741L123.708 137.306L123.467 136.741ZM128.544 136.741L128.303 137.306H128.303L128.544 136.741ZM130.499 138.114L130.046 138.528L130.055 138.538L130.499 138.114ZM131.777 140.163L131.204 140.382L131.777 140.163ZM131.777 145.315L131.204 145.096L131.777 145.315ZM130.499 147.383L130.051 146.964L130.051 146.964L130.499 147.383ZM128.544 148.737L128.784 149.301L128.544 148.737ZM127.904 147.458L128.154 148.019L128.164 148.014L127.904 147.458ZM129.352 146.387L129.811 146.794L129.816 146.788L129.352 146.387ZM130.273 144.77L129.696 144.562L129.693 144.569L130.273 144.77ZM130.273 140.709L129.692 140.906L129.696 140.916L130.273 140.709ZM129.352 139.092L128.893 139.499H128.893L129.352 139.092ZM127.904 138.039L127.645 138.595L127.655 138.599L127.904 138.039ZM124.088 138.039L124.337 138.599L124.342 138.597L124.088 138.039ZM122.64 139.092L123.098 139.499L122.64 139.092ZM121.719 140.709L122.3 140.906V140.906L121.719 140.709ZM121.719 144.77L121.138 144.967L121.139 144.971L121.719 144.77ZM122.64 146.387L122.176 146.788L122.181 146.794L122.64 146.387ZM124.088 147.458L123.828 148.014L123.835 148.018L123.843 148.021L124.088 147.458ZM126.005 148.612C125.151 148.612 124.388 148.462 123.708 148.172L123.226 149.301C124.076 149.663 125.005 149.839 126.005 149.839V148.612ZM123.708 148.172C123.016 147.878 122.428 147.473 121.936 146.959L121.049 147.807C121.661 148.446 122.389 148.944 123.226 149.301L123.708 148.172ZM121.946 146.969C121.462 146.44 121.082 145.818 120.807 145.096L119.66 145.533C119.986 146.391 120.446 147.148 121.04 147.797L121.946 146.969ZM120.807 145.096C120.535 144.383 120.396 143.599 120.396 142.739H119.168C119.168 143.734 119.33 144.667 119.66 145.533L120.807 145.096ZM120.396 142.739C120.396 141.879 120.535 141.095 120.807 140.382L119.66 139.945C119.33 140.811 119.168 141.744 119.168 142.739H120.396ZM120.807 140.382C121.081 139.661 121.46 139.047 121.941 138.533L121.045 137.695C120.448 138.334 119.987 139.086 119.66 139.945L120.807 140.382ZM121.941 138.533C122.432 138.008 123.019 137.599 123.708 137.306L123.226 136.177C122.386 136.535 121.656 137.041 121.045 137.694L121.941 138.533ZM123.708 137.306C124.388 137.016 125.151 136.866 126.005 136.866V135.639C125.005 135.639 124.076 135.815 123.226 136.177L123.708 137.306ZM126.005 136.866C126.86 136.866 127.623 137.016 128.303 137.306L128.784 136.177C127.935 135.815 127.006 135.639 126.005 135.639V136.866ZM128.303 137.306C128.99 137.599 129.569 138.006 130.046 138.528L130.952 137.7C130.351 137.043 129.626 136.536 128.784 136.177L128.303 137.306ZM130.055 138.538C130.547 139.052 130.931 139.664 131.204 140.382L132.351 139.945C132.023 139.083 131.554 138.329 130.942 137.69L130.055 138.538ZM131.204 140.382C131.476 141.095 131.615 141.879 131.615 142.739H132.842C132.842 141.744 132.681 140.811 132.351 139.945L131.204 140.382ZM131.615 142.739C131.615 143.599 131.476 144.383 131.204 145.096L132.351 145.533C132.681 144.667 132.842 143.734 132.842 142.739H131.615ZM131.204 145.096C130.93 145.815 130.545 146.435 130.051 146.964L130.947 147.802C131.555 147.152 132.023 146.394 132.351 145.533L131.204 145.096ZM130.051 146.964C129.573 147.475 128.993 147.878 128.303 148.172L128.784 149.301C129.623 148.944 130.347 148.444 130.947 147.802L130.051 146.964ZM128.303 148.172C127.623 148.462 126.86 148.612 126.005 148.612V149.839C127.006 149.839 127.935 149.663 128.784 149.301L128.303 148.172ZM126.005 148.448C126.781 148.448 127.501 148.309 128.153 148.019L127.655 146.898C127.18 147.109 126.633 147.221 126.005 147.221V148.448ZM128.164 148.014C128.801 147.717 129.352 147.31 129.811 146.794L128.893 145.979C128.55 146.366 128.135 146.673 127.645 146.902L128.164 148.014ZM129.816 146.788C130.271 146.262 130.616 145.654 130.853 144.971L129.693 144.569C129.504 145.114 129.235 145.584 128.888 145.985L129.816 146.788ZM130.851 144.978C131.102 144.278 131.225 143.53 131.225 142.739H129.998C129.998 143.402 129.895 144.008 129.696 144.562L130.851 144.978ZM131.225 142.739C131.225 141.948 131.102 141.2 130.851 140.501L129.696 140.916C129.895 141.471 129.998 142.076 129.998 142.739H131.225ZM130.854 140.511C130.617 139.814 130.271 139.202 129.811 138.684L128.893 139.499C129.235 139.884 129.503 140.349 129.692 140.906L130.854 140.511ZM129.811 138.684C129.35 138.166 128.796 137.763 128.153 137.478L127.655 138.599C128.141 138.815 128.552 139.115 128.893 139.499L129.811 138.684ZM128.164 137.483C127.509 137.177 126.785 137.03 126.005 137.03V138.258C126.629 138.258 127.172 138.374 127.645 138.595L128.164 137.483ZM126.005 137.03C125.225 137.03 124.497 137.177 123.833 137.48L124.342 138.597C124.831 138.374 125.382 138.258 126.005 138.258V137.03ZM123.838 137.478C123.196 137.763 122.642 138.166 122.181 138.684L123.098 139.499C123.44 139.115 123.851 138.815 124.337 138.599L123.838 137.478ZM122.181 138.684C121.721 139.202 121.374 139.814 121.138 140.511L122.3 140.906C122.489 140.349 122.757 139.884 123.098 139.499L122.181 138.684ZM121.138 140.511C120.901 141.207 120.785 141.951 120.785 142.739H122.013C122.013 142.073 122.11 141.463 122.3 140.906L121.138 140.511ZM120.785 142.739C120.785 143.527 120.901 144.271 121.138 144.967L122.3 144.572C122.11 144.015 122.013 143.405 122.013 142.739H120.785ZM121.139 144.971C121.376 145.654 121.721 146.262 122.176 146.788L123.104 145.985C122.757 145.584 122.487 145.114 122.298 144.569L121.139 144.971ZM122.181 146.794C122.64 147.31 123.191 147.717 123.828 148.014L124.347 146.902C123.856 146.673 123.442 146.366 123.098 145.979L122.181 146.794ZM123.843 148.021C124.505 148.309 125.229 148.448 126.005 148.448V147.221C125.378 147.221 124.823 147.109 124.332 146.896L123.843 148.021ZM135.794 149H135.181V149.614H135.794V149ZM135.794 136.459V135.846H135.181V136.459H135.794ZM142.506 136.76L142.274 137.328H142.274L142.506 136.76ZM143.729 137.587L143.279 138.005L143.287 138.013L143.295 138.021L143.729 137.587ZM144.499 138.791L143.925 139.008L143.928 139.013L144.499 138.791ZM144.499 141.705L145.071 141.927L145.073 141.922L144.499 141.705ZM143.729 142.908L144.163 143.342L144.17 143.334L143.729 142.908ZM137.355 144.018V143.404H136.741V144.018H137.355ZM137.355 149V149.614H137.969V149H137.355ZM142.45 141.968L142.028 141.522L142.022 141.528L142.45 141.968ZM142.45 138.509L142.022 138.949L142.028 138.955L142.45 138.509ZM137.355 137.851V137.237H136.741V137.851H137.355ZM137.355 142.626H136.741V143.24H137.355V142.626ZM136.408 149V136.459H135.181V149H136.408ZM135.794 137.073H140.833V135.846H135.794V137.073ZM140.833 137.073C141.395 137.073 141.871 137.163 142.274 137.328L142.739 136.192C142.164 135.956 141.525 135.846 140.833 135.846V137.073ZM142.274 137.328C142.689 137.498 143.02 137.726 143.279 138.005L144.178 137.17C143.786 136.747 143.302 136.423 142.739 136.192L142.274 137.328ZM143.295 138.021C143.569 138.296 143.78 138.622 143.925 139.008L145.073 138.574C144.868 138.031 144.565 137.556 144.163 137.154L143.295 138.021ZM143.928 139.013C144.074 139.389 144.149 139.796 144.149 140.238H145.376C145.376 139.653 145.276 139.095 145.071 138.568L143.928 139.013ZM144.149 140.238C144.149 140.681 144.074 141.096 143.925 141.488L145.073 141.922C145.276 141.386 145.376 140.824 145.376 140.238H144.149ZM143.928 141.483C143.782 141.857 143.569 142.189 143.287 142.482L144.17 143.334C144.565 142.925 144.866 142.455 145.071 141.927L143.928 141.483ZM143.295 142.474C143.019 142.75 142.676 142.976 142.255 143.149L142.721 144.284C143.277 144.056 143.761 143.744 144.163 143.342L143.295 142.474ZM142.255 143.149C141.851 143.315 141.38 143.404 140.833 143.404V144.631C141.514 144.631 142.147 144.52 142.721 144.284L142.255 143.149ZM140.833 143.404H137.355V144.631H140.833V143.404ZM136.741 144.018V149H137.969V144.018H136.741ZM137.355 148.386H135.794V149.614H137.355V148.386ZM140.645 143.24C141.524 143.24 142.29 142.979 142.878 142.408L142.022 141.528C141.707 141.834 141.271 142.013 140.645 142.013V143.24ZM142.872 142.414C143.473 141.845 143.759 141.099 143.759 140.238H142.532C142.532 140.806 142.354 141.214 142.028 141.522L142.872 142.414ZM143.759 140.238C143.759 139.378 143.473 138.632 142.872 138.063L142.028 138.955C142.354 139.263 142.532 139.671 142.532 140.238H143.759ZM142.878 138.069C142.29 137.497 141.524 137.237 140.645 137.237V138.464C141.271 138.464 141.707 138.643 142.022 138.949L142.878 138.069ZM140.645 137.237H137.355V138.464H140.645V137.237ZM136.741 137.851V142.626H137.969V137.851H136.741ZM137.355 143.24H140.645V142.013H137.355V143.24ZM151.135 148.737L150.894 149.301L151.135 148.737ZM149.161 147.383L148.708 147.797L148.717 147.807L149.161 147.383ZM147.901 145.315L148.474 145.096L147.901 145.315ZM147.901 140.163L147.327 139.945L147.901 140.163ZM149.161 138.114L148.713 137.694L148.712 137.695L149.161 138.114ZM151.135 136.741L151.375 137.306L151.135 136.741ZM156.211 136.741L155.971 137.306L156.211 136.741ZM158.167 138.114L157.714 138.528L157.723 138.538L158.167 138.114ZM159.445 140.163L158.872 140.382L159.445 140.163ZM159.445 145.315L158.872 145.096L159.445 145.315ZM158.167 147.383L157.719 146.964L157.718 146.964L158.167 147.383ZM156.211 148.737L156.452 149.301L156.211 148.737ZM155.572 147.458L155.821 148.019L155.831 148.014L155.572 147.458ZM157.02 146.387L157.478 146.794L157.484 146.788L157.02 146.387ZM157.941 144.77L157.364 144.562L157.361 144.569L157.941 144.77ZM157.941 140.709L157.36 140.906L157.364 140.916L157.941 140.709ZM157.02 139.092L156.561 139.499L157.02 139.092ZM155.572 138.039L155.312 138.595L155.323 138.599L155.572 138.039ZM151.755 138.039L152.004 138.599L152.01 138.597L151.755 138.039ZM150.308 139.092L150.766 139.499L150.308 139.092ZM149.386 140.709L149.967 140.906V140.906L149.386 140.709ZM149.386 144.77L148.805 144.967L148.806 144.971L149.386 144.77ZM150.308 146.387L149.843 146.788L149.849 146.794L150.308 146.387ZM151.755 147.458L151.496 148.014L151.503 148.018L151.511 148.021L151.755 147.458ZM153.673 148.612C152.819 148.612 152.056 148.462 151.375 148.172L150.894 149.301C151.743 149.663 152.672 149.839 153.673 149.839V148.612ZM151.375 148.172C150.684 147.878 150.096 147.473 149.604 146.959L148.717 147.807C149.328 148.446 150.056 148.944 150.894 149.301L151.375 148.172ZM149.613 146.969C149.13 146.44 148.749 145.818 148.474 145.096L147.327 145.533C147.654 146.391 148.114 147.148 148.708 147.797L149.613 146.969ZM148.474 145.096C148.203 144.383 148.063 143.599 148.063 142.739H146.836C146.836 143.734 146.998 144.667 147.327 145.533L148.474 145.096ZM148.063 142.739C148.063 141.879 148.203 141.095 148.474 140.382L147.327 139.945C146.998 140.811 146.836 141.744 146.836 142.739H148.063ZM148.474 140.382C148.749 139.661 149.128 139.047 149.609 138.533L148.712 137.695C148.115 138.334 147.655 139.086 147.327 139.945L148.474 140.382ZM149.609 138.533C150.1 138.008 150.687 137.599 151.375 137.306L150.894 136.177C150.054 136.535 149.324 137.041 148.713 137.694L149.609 138.533ZM151.375 137.306C152.056 137.016 152.819 136.866 153.673 136.866V135.639C152.672 135.639 151.743 135.815 150.894 136.177L151.375 137.306ZM153.673 136.866C154.527 136.866 155.29 137.016 155.971 137.306L156.452 136.177C155.603 135.815 154.674 135.639 153.673 135.639V136.866ZM155.971 137.306C156.658 137.599 157.236 138.006 157.714 138.528L158.619 137.7C158.019 137.043 157.294 136.536 156.452 136.177L155.971 137.306ZM157.723 138.538C158.215 139.052 158.598 139.664 158.872 140.382L160.019 139.945C159.69 139.083 159.221 138.329 158.61 137.69L157.723 138.538ZM158.872 140.382C159.143 141.095 159.283 141.879 159.283 142.739H160.51C160.51 141.744 160.348 140.811 160.019 139.945L158.872 140.382ZM159.283 142.739C159.283 143.599 159.143 144.383 158.872 145.096L160.019 145.533C160.348 144.667 160.51 143.734 160.51 142.739H159.283ZM158.872 145.096C158.598 145.815 158.213 146.435 157.719 146.964L158.615 147.802C159.223 147.152 159.691 146.394 160.019 145.533L158.872 145.096ZM157.718 146.964C157.241 147.475 156.661 147.878 155.971 148.172L156.452 149.301C157.291 148.944 158.014 148.444 158.615 147.802L157.718 146.964ZM155.971 148.172C155.29 148.462 154.527 148.612 153.673 148.612V149.839C154.674 149.839 155.603 149.663 156.452 149.301L155.971 148.172ZM153.673 148.448C154.449 148.448 155.169 148.309 155.821 148.019L155.323 146.898C154.847 147.109 154.301 147.221 153.673 147.221V148.448ZM155.831 148.014C156.469 147.717 157.02 147.31 157.478 146.794L156.561 145.979C156.217 146.366 155.803 146.673 155.312 146.902L155.831 148.014ZM157.484 146.788C157.939 146.262 158.284 145.654 158.521 144.971L157.361 144.569C157.172 145.114 156.903 145.584 156.556 145.985L157.484 146.788ZM158.518 144.978C158.77 144.278 158.893 143.53 158.893 142.739H157.666C157.666 143.402 157.563 144.008 157.364 144.562L158.518 144.978ZM158.893 142.739C158.893 141.948 158.77 141.2 158.518 140.501L157.364 140.916C157.563 141.471 157.666 142.076 157.666 142.739H158.893ZM158.522 140.511C158.285 139.814 157.939 139.202 157.478 138.684L156.561 139.499C156.903 139.884 157.171 140.349 157.36 140.906L158.522 140.511ZM157.478 138.684C157.018 138.166 156.463 137.763 155.821 137.478L155.323 138.599C155.809 138.815 156.219 139.115 156.561 139.499L157.478 138.684ZM155.831 137.483C155.176 137.177 154.453 137.03 153.673 137.03V138.258C154.297 138.258 154.839 138.374 155.312 138.595L155.831 137.483ZM153.673 137.03C152.893 137.03 152.165 137.177 151.5 137.48L152.01 138.597C152.498 138.374 153.049 138.258 153.673 138.258V137.03ZM151.506 137.478C150.864 137.763 150.309 138.166 149.849 138.684L150.766 139.499C151.108 139.115 151.518 138.815 152.004 138.599L151.506 137.478ZM149.849 138.684C149.388 139.202 149.042 139.814 148.805 140.511L149.967 140.906C150.157 140.349 150.424 139.884 150.766 139.499L149.849 138.684ZM148.805 140.511C148.569 141.207 148.453 141.951 148.453 142.739H149.68C149.68 142.073 149.778 141.463 149.967 140.906L148.805 140.511ZM148.453 142.739C148.453 143.527 148.569 144.271 148.805 144.967L149.967 144.572C149.778 144.015 149.68 143.405 149.68 142.739H148.453ZM148.806 144.971C149.043 145.654 149.388 146.262 149.843 146.788L150.772 145.985C150.424 145.584 150.155 145.114 149.966 144.569L148.806 144.971ZM149.849 146.794C150.307 147.31 150.858 147.717 151.496 148.014L152.015 146.902C151.524 146.673 151.11 146.366 150.766 145.979L149.849 146.794ZM151.511 148.021C152.173 148.309 152.897 148.448 153.673 148.448V147.221C153.045 147.221 152.491 147.109 152 146.896L151.511 148.021ZM163.462 149H162.848V149.614H163.462V149ZM163.462 136.459V135.846H162.848V136.459H163.462ZM170.513 136.704L170.299 137.279L170.306 137.282L170.314 137.284L170.513 136.704ZM171.622 137.362L171.197 137.805L171.207 137.814L171.622 137.362ZM172.318 138.377L171.749 138.608L171.752 138.614L172.318 138.377ZM172.374 140.746L171.801 140.526L171.797 140.536L171.794 140.545L172.374 140.746ZM171.885 141.611L171.418 141.214L171.416 141.216L171.885 141.611ZM171.189 142.213L171.494 142.745L171.503 142.74L171.512 142.734L171.189 142.213ZM170.362 142.532L170.232 141.933L170.272 143.139L170.362 142.532ZM171.302 142.889L170.967 143.404L170.977 143.41L171.302 142.889ZM172.073 143.585L171.588 143.96L171.593 143.967L171.598 143.974L172.073 143.585ZM172.6 144.525L172.022 144.732L172.025 144.741L172.028 144.75L172.6 144.525ZM172.562 146.988L171.991 146.763L172.562 146.988ZM171.848 148.06L172.272 148.503L171.848 148.06ZM170.701 148.756L170.492 148.178L170.487 148.18L170.701 148.756ZM170.4 141.329L170.841 141.756L170.848 141.748L170.4 141.329ZM170.4 138.452L169.945 138.864L169.952 138.872L170.4 138.452ZM165.023 137.851V137.237H164.409V137.851H165.023ZM165.023 141.893H164.409V142.507H165.023V141.893ZM170.569 147.045L170.989 147.492L170.989 147.492L170.569 147.045ZM171.039 144.619L171.613 144.401V144.401L171.039 144.619ZM170.588 143.942L170.14 144.362L170.154 144.377L170.168 144.39L170.588 143.942ZM169.873 143.472L169.629 144.035L169.639 144.04L169.65 144.044L169.873 143.472ZM165.023 143.284V142.671H164.409V143.284H165.023ZM165.023 147.609H164.409V148.222H165.023V147.609ZM164.076 149V136.459H162.848V149H164.076ZM163.462 137.073H169.046V135.846H163.462V137.073ZM169.046 137.073C169.523 137.073 169.938 137.145 170.299 137.279L170.726 136.129C170.21 135.937 169.647 135.846 169.046 135.846V137.073ZM170.314 137.284C170.678 137.409 170.968 137.585 171.197 137.805L172.046 136.919C171.674 136.562 171.225 136.299 170.712 136.123L170.314 137.284ZM171.207 137.814C171.437 138.025 171.618 138.286 171.749 138.608L172.886 138.146C172.691 137.666 172.409 137.25 172.037 136.909L171.207 137.814ZM171.752 138.614C171.88 138.921 171.948 139.265 171.948 139.656H173.176C173.176 139.119 173.081 138.611 172.883 138.14L171.752 138.614ZM171.948 139.656C171.948 139.992 171.896 140.28 171.801 140.526L172.947 140.966C173.103 140.561 173.176 140.121 173.176 139.656H171.948ZM171.794 140.545C171.705 140.803 171.579 141.024 171.418 141.214L172.353 142.008C172.617 141.697 172.817 141.341 172.954 140.947L171.794 140.545ZM171.416 141.216C171.257 141.405 171.074 141.562 170.866 141.691L171.512 142.734C171.831 142.537 172.112 142.294 172.355 142.006L171.416 141.216ZM170.885 141.68C170.675 141.8 170.457 141.884 170.232 141.933L170.493 143.132C170.844 143.056 171.178 142.926 171.494 142.745L170.885 141.68ZM170.272 143.139C170.523 143.176 170.752 143.264 170.967 143.403L171.637 142.375C171.276 142.139 170.879 141.988 170.452 141.925L170.272 143.139ZM170.977 143.41C171.217 143.56 171.42 143.743 171.588 143.96L172.559 143.21C172.3 142.876 171.989 142.595 171.628 142.369L170.977 143.41ZM171.598 143.974C171.777 144.193 171.919 144.444 172.022 144.732L173.177 144.319C173.03 143.905 172.82 143.529 172.548 143.197L171.598 143.974ZM172.028 144.75C172.138 145.029 172.193 145.317 172.193 145.616H173.42C173.42 145.163 173.337 144.723 173.171 144.301L172.028 144.75ZM172.193 145.616C172.193 146.05 172.122 146.43 171.991 146.763L173.133 147.213C173.327 146.719 173.42 146.184 173.42 145.616H172.193ZM171.991 146.763C171.86 147.097 171.671 147.379 171.423 147.617L172.272 148.503C172.651 148.139 172.938 147.707 173.133 147.213L171.991 146.763ZM171.423 147.617C171.177 147.853 170.871 148.042 170.492 148.178L170.909 149.333C171.433 149.144 171.891 148.869 172.272 148.503L171.423 147.617ZM170.487 148.18C170.13 148.313 169.698 148.386 169.178 148.386V149.614C169.811 149.614 170.393 149.524 170.914 149.331L170.487 148.18ZM169.178 148.386H163.462V149.614H169.178V148.386ZM168.783 142.507C169.601 142.507 170.325 142.29 170.841 141.755L169.959 140.902C169.748 141.12 169.394 141.279 168.783 141.279V142.507ZM170.848 141.748C171.327 141.236 171.559 140.599 171.559 139.881H170.331C170.331 140.316 170.199 140.645 169.952 140.91L170.848 141.748ZM171.559 139.881C171.559 139.172 171.325 138.543 170.848 138.033L169.952 138.872C170.202 139.139 170.331 139.463 170.331 139.881H171.559ZM170.855 138.04C170.341 137.473 169.612 137.237 168.783 137.237V138.464C169.382 138.464 169.732 138.629 169.945 138.864L170.855 138.04ZM168.783 137.237H165.023V138.464H168.783V137.237ZM164.409 137.851V141.893H165.636V137.851H164.409ZM165.023 142.507H168.783V141.279H165.023V142.507ZM168.858 148.222C169.699 148.222 170.439 148.007 170.989 147.492L170.149 146.597C169.896 146.834 169.497 146.995 168.858 146.995V148.222ZM170.989 147.492C171.55 146.965 171.803 146.257 171.803 145.447H170.576C170.576 145.989 170.415 146.347 170.149 146.597L170.989 147.492ZM171.803 145.447C171.803 145.085 171.74 144.735 171.613 144.401L170.466 144.838C170.539 145.029 170.576 145.231 170.576 145.447H171.803ZM171.613 144.401C171.48 144.053 171.278 143.748 171.008 143.495L170.168 144.39C170.299 144.513 170.398 144.659 170.466 144.838L171.613 144.401ZM171.035 143.523C170.778 143.248 170.46 143.043 170.097 142.901L169.65 144.044C169.864 144.128 170.022 144.236 170.14 144.362L171.035 143.523ZM170.118 142.91C169.737 142.744 169.312 142.671 168.858 142.671V143.898C169.182 143.898 169.434 143.95 169.629 144.035L170.118 142.91ZM168.858 142.671H165.023V143.898H168.858V142.671ZM164.409 143.284V147.609H165.636V143.284H164.409ZM165.023 148.222H168.858V146.995H165.023V148.222ZM177.975 136.459H178.589V135.846H177.975V136.459ZM177.975 141.442H177.361V142.055H177.975V141.442ZM184.349 142.57L183.907 142.996L183.915 143.004L184.349 142.57ZM185.12 143.773L184.546 143.99L184.548 143.996L185.12 143.773ZM185.12 146.687L185.692 146.91L185.694 146.905L185.12 146.687ZM184.349 147.891L183.907 147.465L183.907 147.465L184.349 147.891ZM176.415 149H175.801V149.614H176.415V149ZM176.415 136.459V135.846H175.801V136.459H176.415ZM177.975 142.833V142.219H177.361V142.833H177.975ZM177.975 147.609H177.361V148.222H177.975V147.609ZM183.07 146.951L182.649 146.505L182.643 146.511L183.07 146.951ZM183.07 143.491L182.642 143.931L182.649 143.937L183.07 143.491ZM177.361 136.459V141.442H178.589V136.459H177.361ZM177.975 142.055H181.453V140.828H177.975V142.055ZM181.453 142.055C182 142.055 182.471 142.145 182.875 142.31L183.341 141.175C182.767 140.939 182.135 140.828 181.453 140.828V142.055ZM182.875 142.31C183.292 142.481 183.632 142.711 183.907 142.996L184.791 142.144C184.388 141.727 183.902 141.405 183.341 141.175L182.875 142.31ZM183.915 143.004C184.19 143.278 184.4 143.605 184.546 143.99L185.694 143.556C185.488 143.014 185.185 142.538 184.783 142.136L183.915 143.004ZM184.548 143.996C184.694 144.372 184.769 144.778 184.769 145.221H185.997C185.997 144.636 185.896 144.077 185.692 143.551L184.548 143.996ZM184.769 145.221C184.769 145.663 184.694 146.078 184.546 146.47L185.694 146.905C185.896 146.369 185.997 145.806 185.997 145.221H184.769ZM184.548 146.465C184.402 146.84 184.189 147.172 183.907 147.465L184.791 148.317C185.185 147.908 185.486 147.437 185.692 146.91L184.548 146.465ZM183.907 147.465C183.647 147.735 183.314 147.959 182.894 148.131L183.36 149.267C183.917 149.038 184.399 148.723 184.791 148.316L183.907 147.465ZM182.894 148.131C182.491 148.297 182.015 148.386 181.453 148.386V149.614C182.145 149.614 182.784 149.503 183.36 149.267L182.894 148.131ZM181.453 148.386H176.415V149.614H181.453V148.386ZM177.028 149V136.459H175.801V149H177.028ZM176.415 137.073H177.975V135.846H176.415V137.073ZM177.361 142.833V147.609H178.589V142.833H177.361ZM177.975 148.222H181.265V146.995H177.975V148.222ZM181.265 148.222C182.144 148.222 182.91 147.962 183.498 147.391L182.643 146.511C182.328 146.817 181.891 146.995 181.265 146.995V148.222ZM183.492 147.396C184.094 146.827 184.38 146.082 184.38 145.221H183.152C183.152 145.789 182.975 146.196 182.649 146.505L183.492 147.396ZM184.38 145.221C184.38 144.36 184.094 143.614 183.492 143.045L182.649 143.937C182.975 144.245 183.152 144.653 183.152 145.221H184.38ZM183.498 143.051C182.91 142.48 182.144 142.219 181.265 142.219V143.447C181.891 143.447 182.328 143.625 182.643 143.931L183.498 143.051ZM181.265 142.219H177.975V143.447H181.265V142.219ZM188.578 149H187.964V149.614H188.578V149ZM188.578 136.459V135.846H187.964V136.459H188.578ZM196.794 136.459H197.407V135.846H196.794V136.459ZM196.794 137.851V138.464H197.407V137.851H196.794ZM190.138 137.851V137.237H189.524V137.851H190.138ZM190.138 141.893H189.524V142.507H190.138V141.893ZM196.662 141.893H197.276V141.279H196.662V141.893ZM196.662 143.284V143.898H197.276V143.284H196.662ZM190.138 143.284V142.671H189.524V143.284H190.138ZM190.138 147.609H189.524V148.222H190.138V147.609ZM196.794 147.609H197.407V146.995H196.794V147.609ZM196.794 149V149.614H197.407V149H196.794ZM189.191 149V136.459H187.964V149H189.191ZM188.578 137.073H196.794V135.846H188.578V137.073ZM196.18 136.459V137.851H197.407V136.459H196.18ZM196.794 137.237H190.138V138.464H196.794V137.237ZM189.524 137.851V141.893H190.752V137.851H189.524ZM190.138 142.507H196.662V141.279H190.138V142.507ZM196.049 141.893V143.284H197.276V141.893H196.049ZM196.662 142.671H190.138V143.898H196.662V142.671ZM189.524 143.284V147.609H190.752V143.284H189.524ZM190.138 148.222H196.794V146.995H190.138V148.222ZM196.18 147.609V149H197.407V147.609H196.18ZM196.794 148.386H188.578V149.614H196.794V148.386Z" fill="black" mask="url(#path-2-outside-1_225_447)"/>
<defs>
<filter id="filter0_f_225_447" x="0.943443" y="0.943443" width="294.668" height="281.162" filterUnits="userSpaceOnUse" color-interpolation-filters="sRGB">
<feFlood flood-opacity="0" result="BackgroundImageFix"/>
<feBlend mode="normal" in="SourceGraphic" in2="BackgroundImageFix" result="shape"/>
<feGaussianBlur stdDeviation="38.0283" result="effect1_foregroundBlur_225_447"/>
</filter>
</defs>
</svg>
