<svg width="758" height="331" viewBox="0 0 758 331" fill="none" xmlns="http://www.w3.org/2000/svg">
<g filter="url(#filter0_f_210_1673)">
<path d="M-4 80L-2.953 78.5342C-0.325303 74.8554 2.6908 71.4702 6.04319 68.4371L8.01471 66.6534C10.3304 64.5582 12.8821 62.7399 15.6183 61.2349L16.9036 60.528C19.9468 58.8542 23.2464 57.6963 26.6681 57.1012L28.6896 56.7496C31.5338 56.255 34.4487 56.3409 37.2588 57.0021L38.0267 57.1828C40.3187 57.7221 42.4786 58.7176 44.3774 60.1101V60.1101C47.3809 62.3126 49.6046 65.4147 50.7262 68.9663L51.039 69.9568C51.6759 71.9737 52 74.0763 52 76.1913V78.1848C52 81.0499 51.634 83.9032 50.9108 86.6754L49 94L47.2229 99.3313C46.7423 100.773 46.1115 102.16 45.3409 103.47L42.7341 107.902C41.935 109.26 40.6992 110.308 39.2282 110.874V110.874C36.657 111.863 33.7446 111.245 31.7967 109.297L31.641 109.141C30.2701 107.77 29.5 105.911 29.5 103.972V99.7388C29.5 96.0103 30.6888 92.3789 32.8937 89.3722L33.9585 87.9202C34.6518 86.9748 35.4163 86.0837 36.2453 85.2547L38.9875 82.5125C42.2749 79.2251 46.3458 76.8298 50.816 75.5526L51.3177 75.4092C53.4289 74.806 55.6139 74.5 57.8097 74.5H59.6036C61.8412 74.5 64.0521 74.9856 66.0838 75.9233V75.9233C68.3285 76.9593 70.2921 78.5184 71.8099 80.4699L74.2172 83.5649C75.7338 85.5149 77.0164 87.6361 78.0387 89.885L79.4059 92.8929C80.7995 95.9588 81.9308 99.1372 82.7879 102.394L84 107L84.2738 108.643C85.4226 115.536 86 122.512 86 129.5V129.5V140.5V153V164V174V178.547C86 182.837 86.4596 187.114 87.3708 191.306L87.8503 193.511C88.2826 195.5 88.8897 197.446 89.6645 199.328L90.7126 201.873C91.5642 203.942 92.7734 205.844 94.2848 207.492L95.0699 208.349C96.6655 210.09 98.6646 211.411 100.891 212.197L103.279 213.04C105.033 213.659 106.952 213.619 108.679 212.928V212.928C111.591 211.764 113.5 208.944 113.5 205.808V201.293C113.5 200.433 113.423 199.574 113.269 198.728L111.5 189L110.548 183.528C109.851 179.517 109.5 175.453 109.5 171.381V166.619C109.5 164.878 109.681 163.141 110.04 161.437L110.152 160.905C111.033 156.716 113.055 152.853 115.994 149.742L117.989 147.629C119.309 146.232 120.955 145.182 122.779 144.574V144.574C124.883 143.872 127.143 143.786 129.294 144.324L130.1 144.525C132.652 145.163 134.983 146.483 136.843 148.343L139.5 151L146.5 159.5C147.382 160.319 148.525 161.518 149.607 162.694C151.74 165.013 154.911 166.118 158 165.5V165.5V165.5C163.102 164.543 167.575 161.507 170.346 157.118L170.66 156.622C171.55 155.213 172.258 153.697 172.768 152.111L174.013 148.239C175.661 143.111 176.5 137.758 176.5 132.371V125V112.5L178 100.5L181.5 86.5L186.5 70.5L186.986 69.3264C190.653 60.4634 195.179 51.9808 200.5 44V44V44C205.113 38.7279 210.398 32.6331 216.353 28.9439C221.142 25.9774 225.384 24.2059 228.317 23.1955C231.035 22.2592 234.787 22.5201 237.599 23.1209V23.1209C244.36 24.5657 251.063 27.7228 256.012 32.5503C258.002 34.4903 259.782 36.4199 261.223 38.0866C263.135 40.2988 264.566 42.8672 265.684 45.5695L270 56L270.407 57.4772C272.794 66.1297 274.168 75.0304 274.5 84V84V84C274.167 95.6386 272.693 107.216 270.099 118.567L270 119L264 140.5L262.766 143.626C258.597 154.187 253.488 164.353 247.5 174V174L240.847 184.505C238.961 187.483 236.621 190.149 233.912 192.406L232.119 193.901C230.058 195.619 227.694 196.935 225.149 197.784L223.348 198.384C220.198 199.434 216.751 199.444 213.587 198.437V198.437C209.721 197.207 206.441 194.488 204.551 190.898V190.898C203.211 188.35 202.609 185.478 202.814 182.607L203.301 175.788C203.433 173.932 203.697 172.087 204.091 170.268L207.5 154.5V154.5C210.826 142.858 215.225 131.55 220.639 120.721L221.5 119L221.937 118.305C228.969 107.118 236.846 96.4854 245.5 86.5V86.5L250.912 81.2815C256.597 75.799 263.159 71.3046 270.325 67.9836V67.9836C276.739 65.0112 283.561 63.0144 290.566 62.0592L302 60.5H308.041C311.994 60.5 315.928 61.051 319.729 62.137L320.897 62.4707C323.291 63.1546 326.116 64.4062 328.294 65.6119V65.6119C334.545 69.0721 340.633 72.811 345.842 77.7017C349.701 81.325 352.902 84.7024 354.5 86.5V86.5C358.152 91.4801 361.228 96.8803 363.237 102.72C368.263 117.325 370.803 130.202 371.5 135.5V149.5V164L368.5 189L366 210L362.5 226.5L359.5 246L358 264V264C358 271.944 359.221 279.872 362.003 287.313C362.311 288.135 362.5 288.6 362.5 288.5C362.5 288.32 363.712 289.548 365.319 291.256C369.462 295.662 374.251 299.426 379.62 302.21V302.21C383.194 304.063 386.977 305.481 390.889 306.432L392.881 306.917C399.914 308.628 407.179 309.19 414.393 308.6C418.423 308.27 421.792 308 422 308C422.058 308 422.264 307.965 422.586 307.902C429.868 306.484 436.841 303.791 443.446 300.411L446.262 298.971C452.057 296.006 457.392 292.217 462.1 287.723V287.723C464.696 285.245 467.09 282.564 469.259 279.705L470.94 277.488C474.97 272.176 478.471 266.481 481.392 260.486L481.763 259.723C484.914 253.256 487.427 246.498 489.267 239.545L491 233L494 208V208C494.663 196.391 493.685 184.747 491.094 173.412L491 173L487.225 161.332C486.077 157.782 484.662 154.324 482.994 150.988L480.427 145.854C479.148 143.296 477.53 140.923 475.618 138.797L472.859 135.732C470.664 133.293 467.827 131.522 464.672 130.621L464.26 130.503C460.848 129.528 457.21 129.7 453.906 130.993L451.615 131.89C448.985 132.919 446.887 134.972 445.801 137.579V137.579C445.272 138.847 445 140.207 445 141.581V145.286C445 146.755 445.276 148.515 445.675 149.93V149.93C447.254 155.518 450.303 161.566 453.574 166.365C456.333 170.415 459.167 174.296 461.308 177.138C462.752 179.056 464.402 180.802 466.196 182.397L477 192C480.333 194.5 488 199.9 492 201.5C497 203.5 503.5 206.5 507.5 206C511.5 205.5 518 205 521.5 201.5C525 198 530 195 532.5 187.5C534.5 181.5 538.667 168.333 540.5 162.5V162.5C542.496 155.181 545.129 148.05 548.369 141.19L552 133.5V133.5C555.659 126.847 559.705 120.349 564.904 114.814C567.403 112.154 569.352 110.549 571 110C572.306 109.565 574.462 109.208 576.531 108.947C579.495 108.573 582.492 108.695 585.454 109.081V109.081C590.122 109.69 594.664 111.035 598.91 113.066L600.127 113.648C602.705 114.88 605.179 116.32 607.525 117.952L607.996 118.28C612.97 121.74 617.392 125.933 621.112 130.715L622.5 132.5L622.581 132.64C624.841 136.513 626.359 140.773 627.058 145.202V145.202C627.352 147.064 627.5 148.947 627.5 150.833V159.5L626.5 170.5L625.106 178.514C624.704 180.826 623.967 183.066 622.918 185.165L622.066 186.868C621.035 188.93 619.56 190.739 617.747 192.163V192.163C614.996 194.325 611.527 195.702 608.181 194.681C606.116 194.051 604.304 193.136 602.865 192.223C600.825 190.929 599.349 188.969 598.059 186.927L597.799 186.515C595.289 182.541 593.56 178.126 592.705 173.505L592.498 172.39C591.835 168.811 591.631 165.163 591.891 161.532L592.045 159.366C592.348 155.134 593.099 150.946 594.287 146.873L596 141L596.444 139.778C598.804 133.288 602.018 127.142 606 121.5V121.5L610.603 116.284C612.528 114.101 614.691 112.14 617.05 110.436L619.649 108.559C621.536 107.196 623.641 106.164 625.873 105.508L626.333 105.373C629.393 104.473 632.633 104.371 635.744 105.078L636.342 105.214C640.009 106.047 643.293 108.08 645.674 110.991V110.991C646.224 111.663 646.722 112.375 647.157 113.126C650.896 119.597 654.24 126.322 655.5 129L659 136.5L662 142.5C662.833 143.833 665 146.7 667 147.5C669.5 148.5 673.5 148.5 674 147.5C674.142 147.215 674.373 146.711 674.634 146.128C675.557 144.063 676.115 141.855 676.34 139.604V139.604C676.446 138.536 676.476 137.462 676.427 136.389L676 127C676 126.167 676.1 124.2 676.5 123C676.9 121.8 679 119.167 680 118C680.333 117.5 681.3 116.3 682.5 115.5C684 114.5 686.5 113 688.5 113.5C688.837 113.584 689.254 113.744 689.717 113.953C693.392 115.615 696.187 118.696 698.5 122V122L700.468 124.625C701.155 125.54 701.715 126.551 702.442 127.434C702.536 127.547 702.634 127.66 702.736 127.769C703.935 129.05 707.532 128.157 709.108 127.387V127.387C711.561 126.188 711.685 124.744 712.993 122.346L713.137 122.082C713.711 121.03 714.175 119.922 714.522 118.776L719 104L722.5 88.5L723.5 79L724.5 69.5L725.975 61.7555C726.324 59.9228 726.849 58.1278 727.542 56.3956V56.3956C729.478 51.5543 732.681 47.3226 736.813 44.1435L737 44" stroke="#3305FF" stroke-width="7"/>
</g>
<g filter="url(#filter1_f_210_1673)">
<path d="M-4 80.5L-2.953 79.0342C-0.325303 75.3554 2.6908 71.9702 6.04319 68.9371L8.01471 67.1534C10.3304 65.0582 12.8821 63.2399 15.6183 61.7349L16.9036 61.028C19.9468 59.3542 23.2464 58.1963 26.6681 57.6012L28.6896 57.2496C31.5338 56.755 34.4487 56.8409 37.2588 57.5021L38.0267 57.6828C40.3187 58.2221 42.4786 59.2176 44.3774 60.6101V60.6101C47.3809 62.8126 49.6046 65.9147 50.7262 69.4663L51.039 70.4568C51.6759 72.4737 52 74.5763 52 76.6913V78.6848C52 81.5499 51.634 84.4032 50.9108 87.1754L49 94.5L47.2229 99.8313C46.7423 101.273 46.1115 102.66 45.3409 103.97L42.7341 108.402C41.935 109.76 40.6992 110.808 39.2282 111.374V111.374C36.657 112.363 33.7446 111.745 31.7967 109.797L31.641 109.641C30.2701 108.27 29.5 106.411 29.5 104.472V100.239C29.5 96.5103 30.6888 92.8789 32.8937 89.8722L33.9585 88.4202C34.6518 87.4748 35.4163 86.5837 36.2453 85.7547L38.9875 83.0125C42.2749 79.7251 46.3458 77.3298 50.816 76.0526L51.3177 75.9092C53.4289 75.306 55.6139 75 57.8097 75H59.6036C61.8412 75 64.0521 75.4856 66.0838 76.4233V76.4233C68.3285 77.4593 70.2921 79.0184 71.8099 80.9699L74.2172 84.0649C75.7338 86.0149 77.0164 88.1361 78.0387 90.385L79.4059 93.3929C80.7995 96.4588 81.9308 99.6372 82.7879 102.894L84 107.5L84.2738 109.143C85.4226 116.036 86 123.012 86 130V130V141V153.5V164.5V174.5V179.047C86 183.337 86.4596 187.614 87.3708 191.806L87.8503 194.011C88.2826 196 88.8897 197.946 89.6645 199.828L90.7126 202.373C91.5642 204.442 92.7734 206.344 94.2848 207.992L95.0699 208.849C96.6655 210.59 98.6646 211.911 100.891 212.697L103.279 213.54C105.033 214.159 106.952 214.119 108.679 213.428V213.428C111.591 212.264 113.5 209.444 113.5 206.308V201.793C113.5 200.933 113.423 200.074 113.269 199.228L111.5 189.5L110.548 184.028C109.851 180.017 109.5 175.953 109.5 171.881V167.119C109.5 165.378 109.681 163.641 110.04 161.937L110.152 161.405C111.033 157.216 113.055 153.353 115.994 150.242L117.989 148.129C119.309 146.732 120.955 145.682 122.779 145.074V145.074C124.883 144.372 127.143 144.286 129.294 144.824L130.1 145.025C132.652 145.663 134.983 146.983 136.843 148.843L139.5 151.5L146.5 160C147.382 160.819 148.525 162.018 149.607 163.194C151.74 165.513 154.911 166.618 158 166V166V166C163.102 165.043 167.575 162.007 170.346 157.618L170.66 157.122C171.55 155.713 172.258 154.197 172.768 152.611L174.013 148.739C175.661 143.611 176.5 138.258 176.5 132.871V125.5V113L178 101L181.5 87L186.5 71L186.986 69.8264C190.653 60.9634 195.179 52.4808 200.5 44.5V44.5V44.5C205.113 39.2279 210.398 33.1331 216.353 29.4439C221.142 26.4774 225.384 24.7059 228.317 23.6955C231.035 22.7592 234.787 23.0201 237.599 23.6209V23.6209C244.36 25.0657 251.063 28.2228 256.012 33.0503C258.002 34.9903 259.782 36.9199 261.223 38.5866C263.135 40.7988 264.566 43.3672 265.684 46.0695L270 56.5L270.407 57.9772C272.794 66.6297 274.168 75.5304 274.5 84.5V84.5V84.5C274.167 96.1386 272.693 107.716 270.099 119.067L270 119.5L264 141L262.766 144.126C258.597 154.687 253.488 164.853 247.5 174.5V174.5L240.847 185.005C238.961 187.983 236.621 190.649 233.912 192.906L232.119 194.401C230.058 196.119 227.694 197.435 225.149 198.284L223.348 198.884C220.198 199.934 216.751 199.944 213.587 198.937V198.937C209.721 197.707 206.441 194.988 204.551 191.398V191.398C203.211 188.85 202.609 185.978 202.814 183.107L203.301 176.288C203.433 174.432 203.697 172.587 204.091 170.768L207.5 155V155C210.826 143.358 215.225 132.05 220.639 121.221L221.5 119.5L221.937 118.805C228.969 107.618 236.846 96.9854 245.5 87V87L250.912 81.7815C256.597 76.299 263.159 71.8046 270.325 68.4836V68.4836C276.739 65.5112 283.561 63.5144 290.566 62.5592L302 61H308.041C311.994 61 315.928 61.551 319.729 62.637L320.897 62.9707C323.291 63.6546 326.116 64.9062 328.294 66.1119V66.1119C334.545 69.5721 340.633 73.311 345.842 78.2017C349.701 81.825 352.902 85.2024 354.5 87V87C358.152 91.9801 361.228 97.3803 363.237 103.22C368.263 117.825 370.803 130.702 371.5 136V150V164.5L368.5 189.5L366 210.5L362.5 227L359.5 246.5L358 264.5V264.5C358 272.444 359.221 280.372 362.003 287.813C362.311 288.635 362.5 289.1 362.5 289C362.5 288.82 363.712 290.048 365.319 291.756C369.462 296.162 374.251 299.926 379.62 302.71V302.71C383.194 304.563 386.977 305.981 390.889 306.932L392.881 307.417C399.914 309.128 407.179 309.69 414.393 309.1C418.423 308.77 421.792 308.5 422 308.5C422.058 308.5 422.264 308.465 422.586 308.402C429.868 306.984 436.841 304.291 443.446 300.911L446.262 299.471C452.057 296.506 457.392 292.717 462.1 288.223V288.223C464.696 285.745 467.09 283.064 469.259 280.205L470.94 277.988C474.97 272.676 478.471 266.981 481.392 260.986L481.763 260.223C484.914 253.756 487.427 246.998 489.267 240.045L491 233.5L494 208.5V208.5C494.663 196.891 493.685 185.247 491.094 173.912L491 173.5L487.225 161.832C486.077 158.282 484.662 154.824 482.994 151.488L480.427 146.354C479.148 143.796 477.53 141.423 475.618 139.297L472.859 136.232C470.664 133.793 467.827 132.022 464.672 131.121L464.26 131.003C460.848 130.028 457.21 130.2 453.906 131.493L451.615 132.39C448.985 133.419 446.887 135.472 445.801 138.079V138.079C445.272 139.347 445 140.707 445 142.081V145.786C445 147.255 445.276 149.015 445.675 150.43V150.43C447.254 156.018 450.303 162.066 453.574 166.865C456.333 170.915 459.167 174.796 461.308 177.638C462.752 179.556 464.402 181.302 466.196 182.897L477 192.5C480.333 195 488 200.4 492 202C497 204 503.5 207 507.5 206.5C511.5 206 518 205.5 521.5 202C525 198.5 530 195.5 532.5 188C534.5 182 538.667 168.833 540.5 163V163C542.496 155.681 545.129 148.55 548.369 141.69L552 134V134C555.659 127.347 559.705 120.849 564.904 115.314C567.403 112.654 569.352 111.049 571 110.5C572.306 110.065 574.462 109.708 576.531 109.447C579.495 109.073 582.492 109.195 585.454 109.581V109.581C590.122 110.19 594.664 111.535 598.91 113.566L600.127 114.148C602.705 115.38 605.179 116.82 607.525 118.452L607.996 118.78C612.97 122.24 617.392 126.433 621.112 131.215L622.5 133L622.581 133.14C624.841 137.013 626.359 141.273 627.058 145.702V145.702C627.352 147.564 627.5 149.447 627.5 151.333V160L626.5 171L625.106 179.014C624.704 181.326 623.967 183.566 622.918 185.665L622.066 187.368C621.035 189.43 619.56 191.239 617.747 192.663V192.663C614.996 194.825 611.527 196.202 608.181 195.181C606.116 194.551 604.304 193.636 602.865 192.723C600.825 191.429 599.349 189.469 598.059 187.427L597.799 187.015C595.289 183.041 593.56 178.626 592.705 174.005L592.498 172.89C591.835 169.311 591.631 165.663 591.891 162.032L592.045 159.866C592.348 155.634 593.099 151.446 594.287 147.373L596 141.5L596.444 140.278C598.804 133.788 602.018 127.642 606 122V122L610.603 116.784C612.528 114.601 614.691 112.64 617.05 110.936L619.649 109.059C621.536 107.696 623.641 106.664 625.873 106.008L626.333 105.873C629.393 104.973 632.633 104.871 635.744 105.578L636.342 105.714C640.009 106.547 643.293 108.58 645.674 111.491V111.491C646.224 112.163 646.722 112.875 647.157 113.626C650.896 120.097 654.24 126.822 655.5 129.5L659 137L662 143C662.833 144.333 665 147.2 667 148C669.5 149 673.5 149 674 148C674.142 147.715 674.373 147.211 674.634 146.628C675.557 144.563 676.115 142.355 676.34 140.104V140.104C676.446 139.036 676.476 137.962 676.427 136.889L676 127.5C676 126.667 676.1 124.7 676.5 123.5C676.9 122.3 679 119.667 680 118.5C680.333 118 681.3 116.8 682.5 116C684 115 686.5 113.5 688.5 114C688.837 114.084 689.254 114.244 689.717 114.453C693.392 116.115 696.187 119.196 698.5 122.5V122.5L700.468 125.125C701.155 126.04 701.715 127.051 702.442 127.934C702.536 128.047 702.634 128.16 702.736 128.269C703.935 129.55 707.532 128.657 709.108 127.887V127.887C711.561 126.688 711.685 125.244 712.993 122.846L713.137 122.582C713.711 121.53 714.175 120.422 714.522 119.276L719 104.5L722.5 89L723.5 79.5L724.5 70L725.975 62.2555C726.324 60.4228 726.849 58.6278 727.542 56.8956V56.8956C729.478 52.0543 732.681 47.8226 736.813 44.6435L737 44.5" stroke="#00D0FF" stroke-width="3"/>
</g>
<defs>
<filter id="filter0_f_210_1673" x="-24.9477" y="0.980078" width="782.182" height="329.446" filterUnits="userSpaceOnUse" color-interpolation-filters="sRGB">
<feFlood flood-opacity="0" result="BackgroundImageFix"/>
<feBlend mode="normal" in="SourceGraphic" in2="BackgroundImageFix" result="shape"/>
<feGaussianBlur stdDeviation="9.05" result="effect1_foregroundBlur_210_1673"/>
</filter>
<filter id="filter1_f_210_1673" x="-13.0207" y="13.7801" width="758.735" height="304.846" filterUnits="userSpaceOnUse" color-interpolation-filters="sRGB">
<feFlood flood-opacity="0" result="BackgroundImageFix"/>
<feBlend mode="normal" in="SourceGraphic" in2="BackgroundImageFix" result="shape"/>
<feGaussianBlur stdDeviation="3.9" result="effect1_foregroundBlur_210_1673"/>
</filter>
</defs>
</svg>
