<svg width="434" height="414" viewBox="0 0 434 414" fill="none" xmlns="http://www.w3.org/2000/svg">
<g filter="url(#filter0_f_210_1701)">
<ellipse cx="216.905" cy="206.967" rx="104.905" ry="94.9666" fill="#E7C402"/>
</g>
<mask id="path-2-outside-1_210_1701" maskUnits="userSpaceOnUse" x="152.549" y="198.383" width="128" height="22" fill="black">
<rect fill="white" x="152.549" y="198.383" width="128" height="22"/>
<path d="M154.434 216.667C154.988 216.667 155.477 216.575 155.901 216.39C156.344 216.188 156.74 215.819 157.091 215.284C157.441 214.73 157.737 213.974 157.976 213.014C158.235 212.037 158.465 210.764 158.668 209.196L159.803 199.926H171.093V218.383H168.796V201.973H161.85L160.937 209.362C160.679 211.391 160.347 213.024 159.941 214.26C159.554 215.477 159.083 216.418 158.53 217.082C157.995 217.746 157.386 218.18 156.703 218.383C156.021 218.604 155.264 218.715 154.434 218.715V216.667ZM191.761 218.715C190.452 218.715 189.252 218.494 188.164 218.051C187.094 217.608 186.153 216.999 185.341 216.224C184.548 215.45 183.912 214.527 183.432 213.457C182.971 212.369 182.703 211.188 182.63 209.915H179.364V218.383H177.068V199.926H179.364V207.867H182.657C182.786 206.668 183.1 205.571 183.598 204.575C184.096 203.56 184.742 202.684 185.535 201.946C186.328 201.208 187.251 200.636 188.302 200.23C189.354 199.824 190.507 199.621 191.761 199.621C193.127 199.621 194.372 199.861 195.497 200.341C196.622 200.82 197.591 201.494 198.403 202.361C199.214 203.209 199.842 204.215 200.284 205.377C200.727 206.539 200.948 207.803 200.948 209.168C200.948 210.533 200.727 211.797 200.284 212.959C199.842 214.121 199.214 215.136 198.403 216.003C197.591 216.852 196.622 217.516 195.497 217.995C194.372 218.475 193.127 218.715 191.761 218.715ZM191.761 216.667C192.794 216.667 193.726 216.483 194.556 216.114C195.405 215.726 196.124 215.201 196.715 214.536C197.305 213.854 197.757 213.061 198.071 212.157C198.403 211.234 198.569 210.238 198.569 209.168C198.569 208.098 198.403 207.102 198.071 206.179C197.757 205.257 197.305 204.464 196.715 203.8C196.124 203.136 195.405 202.619 194.556 202.25C193.726 201.863 192.794 201.669 191.761 201.669C190.728 201.669 189.787 201.863 188.939 202.25C188.109 202.619 187.398 203.136 186.808 203.8C186.218 204.464 185.766 205.257 185.452 206.179C185.139 207.102 184.982 208.098 184.982 209.168C184.982 210.238 185.139 211.234 185.452 212.157C185.766 213.061 186.218 213.854 186.808 214.536C187.398 215.201 188.109 215.726 188.939 216.114C189.787 216.483 190.728 216.667 191.761 216.667ZM218.166 199.926V201.973H208.48V207.259H213.6C214.504 207.259 215.315 207.406 216.035 207.701C216.754 207.997 217.363 208.402 217.861 208.919C218.359 209.417 218.737 210.007 218.996 210.69C219.254 211.354 219.383 212.064 219.383 212.821C219.383 213.577 219.254 214.297 218.996 214.979C218.737 215.643 218.359 216.234 217.861 216.75C217.382 217.248 216.782 217.645 216.063 217.94C215.343 218.235 214.522 218.383 213.6 218.383H206.184V199.926H218.166ZM208.48 209.306V216.335H213.323C214.43 216.335 215.315 216.012 215.979 215.367C216.662 214.721 217.003 213.872 217.003 212.821C217.003 211.769 216.662 210.921 215.979 210.275C215.315 209.629 214.43 209.306 213.323 209.306H208.48ZM232.497 218.715C231.132 218.715 229.887 218.475 228.762 217.995C227.636 217.516 226.668 216.852 225.856 216.003C225.063 215.136 224.445 214.121 224.002 212.959C223.559 211.797 223.338 210.533 223.338 209.168C223.338 207.803 223.559 206.539 224.002 205.377C224.445 204.215 225.063 203.209 225.856 202.361C226.668 201.494 227.636 200.82 228.762 200.341C229.887 199.861 231.132 199.621 232.497 199.621C233.862 199.621 235.108 199.861 236.233 200.341C237.358 200.82 238.318 201.494 239.111 202.361C239.923 203.209 240.55 204.215 240.993 205.377C241.435 206.539 241.657 207.803 241.657 209.168C241.657 210.533 241.435 211.797 240.993 212.959C240.55 214.121 239.923 215.136 239.111 216.003C238.318 216.852 237.358 217.516 236.233 217.995C235.108 218.475 233.862 218.715 232.497 218.715ZM232.497 216.667C233.53 216.667 234.462 216.483 235.292 216.114C236.122 215.726 236.833 215.201 237.423 214.536C238.013 213.854 238.465 213.061 238.779 212.157C239.111 211.234 239.277 210.238 239.277 209.168C239.277 208.098 239.111 207.102 238.779 206.179C238.465 205.257 238.013 204.464 237.423 203.8C236.833 203.136 236.122 202.619 235.292 202.25C234.462 201.863 233.53 201.669 232.497 201.669C231.464 201.669 230.523 201.863 229.675 202.25C228.845 202.619 228.134 203.136 227.544 203.8C226.954 204.464 226.502 205.257 226.188 206.179C225.874 207.102 225.718 208.098 225.718 209.168C225.718 210.238 225.874 211.234 226.188 212.157C226.502 213.061 226.954 213.854 227.544 214.536C228.134 215.201 228.845 215.726 229.675 216.114C230.523 216.483 231.464 216.667 232.497 216.667ZM246.905 218.383V199.926H255.123C255.916 199.926 256.636 200.046 257.282 200.285C257.927 200.507 258.471 200.83 258.914 201.254C259.357 201.66 259.698 202.158 259.938 202.748C260.178 203.32 260.298 203.947 260.298 204.63C260.298 205.22 260.206 205.755 260.021 206.235C259.855 206.714 259.615 207.139 259.302 207.508C259.006 207.858 258.665 208.153 258.278 208.393C257.89 208.615 257.484 208.771 257.06 208.864C257.558 208.937 258.019 209.113 258.444 209.389C258.887 209.666 259.265 210.007 259.578 210.413C259.91 210.819 260.169 211.28 260.353 211.797C260.556 212.313 260.658 212.848 260.658 213.402C260.658 214.14 260.538 214.813 260.298 215.422C260.058 216.031 259.707 216.556 259.246 216.999C258.785 217.442 258.222 217.783 257.558 218.023C256.913 218.263 256.165 218.383 255.317 218.383H246.905ZM254.736 207.923C255.787 207.923 256.581 207.646 257.116 207.093C257.651 206.521 257.918 205.811 257.918 204.962C257.918 204.132 257.651 203.431 257.116 202.859C256.581 202.269 255.787 201.973 254.736 201.973H249.201V207.923H254.736ZM254.846 216.335C255.935 216.335 256.774 216.058 257.365 215.505C257.973 214.933 258.278 214.149 258.278 213.153C258.278 212.729 258.204 212.323 258.056 211.935C257.909 211.548 257.687 211.216 257.392 210.939C257.116 210.644 256.765 210.413 256.341 210.247C255.916 210.063 255.418 209.971 254.846 209.971H249.201V216.335H254.846ZM268.265 199.926V207.259H273.384C274.288 207.259 275.1 207.406 275.819 207.701C276.539 207.997 277.147 208.402 277.646 208.919C278.144 209.417 278.522 210.007 278.78 210.69C279.038 211.354 279.167 212.064 279.167 212.821C279.167 213.577 279.038 214.297 278.78 214.979C278.522 215.643 278.144 216.234 277.646 216.75C277.166 217.248 276.566 217.645 275.847 217.94C275.127 218.235 274.306 218.383 273.384 218.383H265.968V199.926H268.265ZM268.265 209.306V216.335H273.107C274.214 216.335 275.1 216.012 275.764 215.367C276.446 214.721 276.788 213.872 276.788 212.821C276.788 211.769 276.446 210.921 275.764 210.275C275.1 209.629 274.214 209.306 273.107 209.306H268.265Z"/>
</mask>
<path d="M154.434 216.667C154.988 216.667 155.477 216.575 155.901 216.39C156.344 216.188 156.74 215.819 157.091 215.284C157.441 214.73 157.737 213.974 157.976 213.014C158.235 212.037 158.465 210.764 158.668 209.196L159.803 199.926H171.093V218.383H168.796V201.973H161.85L160.937 209.362C160.679 211.391 160.347 213.024 159.941 214.26C159.554 215.477 159.083 216.418 158.53 217.082C157.995 217.746 157.386 218.18 156.703 218.383C156.021 218.604 155.264 218.715 154.434 218.715V216.667ZM191.761 218.715C190.452 218.715 189.252 218.494 188.164 218.051C187.094 217.608 186.153 216.999 185.341 216.224C184.548 215.45 183.912 214.527 183.432 213.457C182.971 212.369 182.703 211.188 182.63 209.915H179.364V218.383H177.068V199.926H179.364V207.867H182.657C182.786 206.668 183.1 205.571 183.598 204.575C184.096 203.56 184.742 202.684 185.535 201.946C186.328 201.208 187.251 200.636 188.302 200.23C189.354 199.824 190.507 199.621 191.761 199.621C193.127 199.621 194.372 199.861 195.497 200.341C196.622 200.82 197.591 201.494 198.403 202.361C199.214 203.209 199.842 204.215 200.284 205.377C200.727 206.539 200.948 207.803 200.948 209.168C200.948 210.533 200.727 211.797 200.284 212.959C199.842 214.121 199.214 215.136 198.403 216.003C197.591 216.852 196.622 217.516 195.497 217.995C194.372 218.475 193.127 218.715 191.761 218.715ZM191.761 216.667C192.794 216.667 193.726 216.483 194.556 216.114C195.405 215.726 196.124 215.201 196.715 214.536C197.305 213.854 197.757 213.061 198.071 212.157C198.403 211.234 198.569 210.238 198.569 209.168C198.569 208.098 198.403 207.102 198.071 206.179C197.757 205.257 197.305 204.464 196.715 203.8C196.124 203.136 195.405 202.619 194.556 202.25C193.726 201.863 192.794 201.669 191.761 201.669C190.728 201.669 189.787 201.863 188.939 202.25C188.109 202.619 187.398 203.136 186.808 203.8C186.218 204.464 185.766 205.257 185.452 206.179C185.139 207.102 184.982 208.098 184.982 209.168C184.982 210.238 185.139 211.234 185.452 212.157C185.766 213.061 186.218 213.854 186.808 214.536C187.398 215.201 188.109 215.726 188.939 216.114C189.787 216.483 190.728 216.667 191.761 216.667ZM218.166 199.926V201.973H208.48V207.259H213.6C214.504 207.259 215.315 207.406 216.035 207.701C216.754 207.997 217.363 208.402 217.861 208.919C218.359 209.417 218.737 210.007 218.996 210.69C219.254 211.354 219.383 212.064 219.383 212.821C219.383 213.577 219.254 214.297 218.996 214.979C218.737 215.643 218.359 216.234 217.861 216.75C217.382 217.248 216.782 217.645 216.063 217.94C215.343 218.235 214.522 218.383 213.6 218.383H206.184V199.926H218.166ZM208.48 209.306V216.335H213.323C214.43 216.335 215.315 216.012 215.979 215.367C216.662 214.721 217.003 213.872 217.003 212.821C217.003 211.769 216.662 210.921 215.979 210.275C215.315 209.629 214.43 209.306 213.323 209.306H208.48ZM232.497 218.715C231.132 218.715 229.887 218.475 228.762 217.995C227.636 217.516 226.668 216.852 225.856 216.003C225.063 215.136 224.445 214.121 224.002 212.959C223.559 211.797 223.338 210.533 223.338 209.168C223.338 207.803 223.559 206.539 224.002 205.377C224.445 204.215 225.063 203.209 225.856 202.361C226.668 201.494 227.636 200.82 228.762 200.341C229.887 199.861 231.132 199.621 232.497 199.621C233.862 199.621 235.108 199.861 236.233 200.341C237.358 200.82 238.318 201.494 239.111 202.361C239.923 203.209 240.55 204.215 240.993 205.377C241.435 206.539 241.657 207.803 241.657 209.168C241.657 210.533 241.435 211.797 240.993 212.959C240.55 214.121 239.923 215.136 239.111 216.003C238.318 216.852 237.358 217.516 236.233 217.995C235.108 218.475 233.862 218.715 232.497 218.715ZM232.497 216.667C233.53 216.667 234.462 216.483 235.292 216.114C236.122 215.726 236.833 215.201 237.423 214.536C238.013 213.854 238.465 213.061 238.779 212.157C239.111 211.234 239.277 210.238 239.277 209.168C239.277 208.098 239.111 207.102 238.779 206.179C238.465 205.257 238.013 204.464 237.423 203.8C236.833 203.136 236.122 202.619 235.292 202.25C234.462 201.863 233.53 201.669 232.497 201.669C231.464 201.669 230.523 201.863 229.675 202.25C228.845 202.619 228.134 203.136 227.544 203.8C226.954 204.464 226.502 205.257 226.188 206.179C225.874 207.102 225.718 208.098 225.718 209.168C225.718 210.238 225.874 211.234 226.188 212.157C226.502 213.061 226.954 213.854 227.544 214.536C228.134 215.201 228.845 215.726 229.675 216.114C230.523 216.483 231.464 216.667 232.497 216.667ZM246.905 218.383V199.926H255.123C255.916 199.926 256.636 200.046 257.282 200.285C257.927 200.507 258.471 200.83 258.914 201.254C259.357 201.66 259.698 202.158 259.938 202.748C260.178 203.32 260.298 203.947 260.298 204.63C260.298 205.22 260.206 205.755 260.021 206.235C259.855 206.714 259.615 207.139 259.302 207.508C259.006 207.858 258.665 208.153 258.278 208.393C257.89 208.615 257.484 208.771 257.06 208.864C257.558 208.937 258.019 209.113 258.444 209.389C258.887 209.666 259.265 210.007 259.578 210.413C259.91 210.819 260.169 211.28 260.353 211.797C260.556 212.313 260.658 212.848 260.658 213.402C260.658 214.14 260.538 214.813 260.298 215.422C260.058 216.031 259.707 216.556 259.246 216.999C258.785 217.442 258.222 217.783 257.558 218.023C256.913 218.263 256.165 218.383 255.317 218.383H246.905ZM254.736 207.923C255.787 207.923 256.581 207.646 257.116 207.093C257.651 206.521 257.918 205.811 257.918 204.962C257.918 204.132 257.651 203.431 257.116 202.859C256.581 202.269 255.787 201.973 254.736 201.973H249.201V207.923H254.736ZM254.846 216.335C255.935 216.335 256.774 216.058 257.365 215.505C257.973 214.933 258.278 214.149 258.278 213.153C258.278 212.729 258.204 212.323 258.056 211.935C257.909 211.548 257.687 211.216 257.392 210.939C257.116 210.644 256.765 210.413 256.341 210.247C255.916 210.063 255.418 209.971 254.846 209.971H249.201V216.335H254.846ZM268.265 199.926V207.259H273.384C274.288 207.259 275.1 207.406 275.819 207.701C276.539 207.997 277.147 208.402 277.646 208.919C278.144 209.417 278.522 210.007 278.78 210.69C279.038 211.354 279.167 212.064 279.167 212.821C279.167 213.577 279.038 214.297 278.78 214.979C278.522 215.643 278.144 216.234 277.646 216.75C277.166 217.248 276.566 217.645 275.847 217.94C275.127 218.235 274.306 218.383 273.384 218.383H265.968V199.926H268.265ZM268.265 209.306V216.335H273.107C274.214 216.335 275.1 216.012 275.764 215.367C276.446 214.721 276.788 213.872 276.788 212.821C276.788 211.769 276.446 210.921 275.764 210.275C275.1 209.629 274.214 209.306 273.107 209.306H268.265Z" fill="black"/>
<path d="M154.434 216.667V215.764H153.531V216.667H154.434ZM155.901 216.39L156.261 217.219L156.269 217.215L156.277 217.211L155.901 216.39ZM157.091 215.284L157.846 215.779L157.854 215.767L157.091 215.284ZM157.976 213.014L157.103 212.784L157.1 212.795L157.976 213.014ZM158.668 209.196L159.564 209.312L159.565 209.305L158.668 209.196ZM159.803 199.926V199.022H159.003L158.906 199.816L159.803 199.926ZM171.093 199.926H171.996V199.022H171.093V199.926ZM171.093 218.383V219.286H171.996V218.383H171.093ZM168.796 218.383H167.893V219.286H168.796V218.383ZM168.796 201.973H169.699V201.07H168.796V201.973ZM161.85 201.973V201.07H161.052L160.954 201.863L161.85 201.973ZM160.937 209.362L161.833 209.476L161.834 209.473L160.937 209.362ZM159.941 214.26L159.083 213.978L159.08 213.986L159.941 214.26ZM158.53 217.082L157.836 216.504L157.831 216.51L157.826 216.516L158.53 217.082ZM156.703 218.383L156.446 217.517L156.435 217.52L156.425 217.524L156.703 218.383ZM154.434 218.715H153.531V219.618H154.434V218.715ZM154.434 217.57C155.088 217.57 155.703 217.461 156.261 217.219L155.541 215.562C155.25 215.689 154.888 215.764 154.434 215.764V217.57ZM156.277 217.211C156.916 216.919 157.431 216.412 157.846 215.779L156.335 214.789C156.049 215.225 155.771 215.456 155.525 215.569L156.277 217.211ZM157.854 215.767C158.275 215.102 158.6 214.244 158.853 213.234L157.1 212.795C156.873 213.704 156.608 214.359 156.328 214.8L157.854 215.767ZM158.85 213.245C159.122 212.215 159.358 210.899 159.564 209.312L157.772 209.08C157.572 210.628 157.348 211.859 157.103 212.784L158.85 213.245ZM159.565 209.305L160.699 200.035L158.906 199.816L157.772 209.086L159.565 209.305ZM159.803 200.829H171.093V199.022H159.803V200.829ZM170.19 199.926V218.383H171.996V199.926H170.19ZM171.093 217.48H168.796V219.286H171.093V217.48ZM169.699 218.383V201.973H167.893V218.383H169.699ZM168.796 201.07H161.85V202.877H168.796V201.07ZM160.954 201.863L160.041 209.251L161.834 209.473L162.747 202.084L160.954 201.863ZM160.041 209.248C159.787 211.248 159.464 212.818 159.083 213.978L160.799 214.541C161.23 213.229 161.571 211.534 161.833 209.476L160.041 209.248ZM159.08 213.986C158.713 215.141 158.288 215.962 157.836 216.504L159.224 217.66C159.879 216.874 160.394 215.814 160.802 214.534L159.08 213.986ZM157.826 216.516C157.383 217.066 156.921 217.376 156.446 217.517L156.961 219.249C157.851 218.984 158.606 218.427 159.233 217.649L157.826 216.516ZM156.425 217.524C155.845 217.712 155.184 217.812 154.434 217.812V219.618C155.345 219.618 156.197 219.497 156.982 219.242L156.425 217.524ZM155.338 218.715V216.667H153.531V218.715H155.338ZM188.164 218.051L187.819 218.885L187.824 218.887L188.164 218.051ZM185.341 216.224L184.71 216.871L184.718 216.878L185.341 216.224ZM183.432 213.457L182.601 213.81L182.604 213.818L182.608 213.827L183.432 213.457ZM182.63 209.915L183.531 209.863L183.482 209.012H182.63V209.915ZM179.364 209.915V209.012H178.461V209.915H179.364ZM179.364 218.383V219.286H180.268V218.383H179.364ZM177.068 218.383H176.164V219.286H177.068V218.383ZM177.068 199.926V199.022H176.164V199.926H177.068ZM179.364 199.926H180.268V199.022H179.364V199.926ZM179.364 207.867H178.461V208.771H179.364V207.867ZM182.657 207.867V208.771H183.468L183.555 207.964L182.657 207.867ZM183.598 204.575L184.406 204.978L184.409 204.973L183.598 204.575ZM185.535 201.946L184.92 201.284V201.284L185.535 201.946ZM188.302 200.23L188.628 201.073L188.302 200.23ZM195.497 200.341L195.143 201.172L195.497 200.341ZM198.403 202.361L197.743 202.978L197.75 202.985L198.403 202.361ZM200.284 205.377L199.44 205.699L200.284 205.377ZM200.284 212.959L199.44 212.638L200.284 212.959ZM198.403 216.003L199.055 216.627L199.062 216.62L198.403 216.003ZM195.497 217.995L195.143 217.165L195.497 217.995ZM194.556 216.114L194.923 216.939L194.931 216.935L194.556 216.114ZM196.715 214.536L197.39 215.137L197.398 215.127L196.715 214.536ZM198.071 212.157L197.221 211.851L197.217 211.861L198.071 212.157ZM198.071 206.179L197.215 206.47L197.218 206.478L197.221 206.485L198.071 206.179ZM196.715 203.8L196.04 204.4L196.715 203.8ZM194.556 202.25L194.174 203.069L194.185 203.074L194.196 203.078L194.556 202.25ZM188.939 202.25L189.306 203.075L189.314 203.072L188.939 202.25ZM186.808 203.8L186.133 203.2L186.808 203.8ZM185.452 206.179L184.597 205.889L185.452 206.179ZM185.452 212.157L184.597 212.447L184.599 212.453L185.452 212.157ZM186.808 214.536L186.125 215.127L186.133 215.136L186.808 214.536ZM188.939 216.114L188.557 216.932L188.568 216.937L188.579 216.942L188.939 216.114ZM191.761 217.812C190.555 217.812 189.473 217.608 188.504 217.214L187.824 218.887C189.032 219.379 190.348 219.618 191.761 219.618V217.812ZM188.509 217.216C187.539 216.815 186.693 216.266 185.965 215.571L184.718 216.878C185.613 217.732 186.649 218.401 187.819 218.885L188.509 217.216ZM185.973 215.578C185.265 214.887 184.692 214.06 184.256 213.088L182.608 213.827C183.131 214.994 183.831 216.012 184.71 216.871L185.973 215.578ZM184.264 213.105C183.846 212.119 183.6 211.041 183.531 209.863L181.728 209.967C181.807 211.336 182.096 212.619 182.601 213.81L184.264 213.105ZM182.63 209.012H179.364V210.818H182.63V209.012ZM178.461 209.915V218.383H180.268V209.915H178.461ZM179.364 217.48H177.068V219.286H179.364V217.48ZM177.971 218.383V199.926H176.164V218.383H177.971ZM177.068 200.829H179.364V199.022H177.068V200.829ZM178.461 199.926V207.867H180.268V199.926H178.461ZM179.364 208.771H182.657V206.964H179.364V208.771ZM183.555 207.964C183.674 206.863 183.96 205.871 184.406 204.978L182.79 204.171C182.24 205.271 181.899 206.474 181.759 207.771L183.555 207.964ZM184.409 204.973C184.861 204.053 185.441 203.267 186.15 202.607L184.92 201.284C184.043 202.101 183.332 203.067 182.787 204.177L184.409 204.973ZM186.15 202.607C186.856 201.951 187.679 201.439 188.628 201.073L187.977 199.387C186.823 199.833 185.801 200.465 184.92 201.284L186.15 202.607ZM188.628 201.073C189.564 200.711 190.606 200.524 191.761 200.524V198.718C190.408 198.718 189.144 198.937 187.977 199.387L188.628 201.073ZM191.761 200.524C193.019 200.524 194.142 200.745 195.143 201.172L195.851 199.51C194.602 198.977 193.234 198.718 191.761 198.718V200.524ZM195.143 201.172C196.156 201.604 197.02 202.205 197.743 202.978L199.062 201.744C198.162 200.782 197.088 200.037 195.851 199.51L195.143 201.172ZM197.75 202.985C198.473 203.741 199.038 204.642 199.44 205.699L201.128 205.055C200.645 203.787 199.955 202.677 199.055 201.736L197.75 202.985ZM199.44 205.699C199.84 206.748 200.045 207.902 200.045 209.168H201.852C201.852 207.704 201.614 206.33 201.128 205.055L199.44 205.699ZM200.045 209.168C200.045 210.434 199.84 211.588 199.44 212.638L201.128 213.281C201.614 212.006 201.852 210.632 201.852 209.168H200.045ZM199.44 212.638C199.037 213.695 198.471 214.608 197.743 215.386L199.062 216.62C199.958 215.664 200.646 214.547 201.128 213.281L199.44 212.638ZM197.75 215.379C197.026 216.135 196.161 216.731 195.143 217.165L195.851 218.826C197.084 218.301 198.156 217.568 199.055 216.627L197.75 215.379ZM195.143 217.165C194.142 217.591 193.019 217.812 191.761 217.812V219.618C193.234 219.618 194.602 219.359 195.851 218.826L195.143 217.165ZM191.761 217.57C192.904 217.57 193.963 217.366 194.923 216.939L194.189 215.288C193.49 215.599 192.685 215.764 191.761 215.764V217.57ZM194.931 216.935C195.888 216.498 196.712 215.899 197.39 215.136L196.04 213.936C195.537 214.502 194.921 214.954 194.181 215.292L194.931 216.935ZM197.398 215.127C198.067 214.353 198.575 213.458 198.924 212.453L197.217 211.861C196.939 212.663 196.543 213.355 196.032 213.946L197.398 215.127ZM198.92 212.463C199.291 211.433 199.472 210.333 199.472 209.168H197.665C197.665 210.143 197.514 211.035 197.221 211.851L198.92 212.463ZM199.472 209.168C199.472 208.003 199.291 206.903 198.92 205.874L197.221 206.485C197.514 207.301 197.665 208.193 197.665 209.168H199.472ZM198.926 205.889C198.577 204.863 198.067 203.962 197.39 203.2L196.04 204.4C196.542 204.965 196.937 205.651 197.215 206.47L198.926 205.889ZM197.39 203.2C196.709 202.433 195.88 201.841 194.916 201.422L194.196 203.078C194.93 203.397 195.54 203.838 196.04 204.4L197.39 203.2ZM194.938 201.432C193.974 200.982 192.91 200.766 191.761 200.766V202.572C192.679 202.572 193.478 202.744 194.174 203.069L194.938 201.432ZM191.761 200.766C190.613 200.766 189.542 200.982 188.564 201.428L189.314 203.072C190.033 202.744 190.844 202.572 191.761 202.572V200.766ZM188.572 201.425C187.627 201.845 186.811 202.437 186.133 203.2L187.483 204.4C187.986 203.834 188.59 203.393 189.306 203.075L188.572 201.425ZM186.133 203.2C185.455 203.962 184.946 204.863 184.597 205.889L186.307 206.47C186.586 205.651 186.98 204.965 187.483 204.4L186.133 203.2ZM184.597 205.889C184.249 206.914 184.079 208.009 184.079 209.168H185.885C185.885 208.187 186.028 207.29 186.307 206.47L184.597 205.889ZM184.079 209.168C184.079 210.327 184.249 211.423 184.597 212.447L186.307 211.866C186.028 211.046 185.885 210.149 185.885 209.168H184.079ZM184.599 212.453C184.948 213.458 185.455 214.353 186.125 215.127L187.491 213.946C186.98 213.355 186.584 212.663 186.305 211.861L184.599 212.453ZM186.133 215.136C186.808 215.895 187.619 216.494 188.557 216.932L189.321 215.295C188.599 214.958 187.989 214.506 187.483 213.936L186.133 215.136ZM188.579 216.942C189.554 217.366 190.619 217.57 191.761 217.57V215.764C190.838 215.764 190.021 215.6 189.299 215.285L188.579 216.942ZM218.166 199.926H219.069V199.022H218.166V199.926ZM218.166 201.973V202.877H219.069V201.973H218.166ZM208.48 201.973V201.07H207.577V201.973H208.48ZM208.48 207.259H207.577V208.162H208.48V207.259ZM217.861 208.919L217.211 209.546L217.217 209.552L217.223 209.558L217.861 208.919ZM218.996 210.69L218.151 211.01L218.154 211.017L218.996 210.69ZM218.996 214.979L219.838 215.307L219.84 215.299L218.996 214.979ZM217.861 216.75L217.211 216.123L217.211 216.124L217.861 216.75ZM206.184 218.383H205.28V219.286H206.184V218.383ZM206.184 199.926V199.022H205.28V199.926H206.184ZM208.48 209.306V208.403H207.577V209.306H208.48ZM208.48 216.335H207.577V217.238H208.48V216.335ZM215.979 215.367L215.359 214.71L215.35 214.719L215.979 215.367ZM215.979 210.275L215.35 210.923L215.359 210.931L215.979 210.275ZM217.262 199.926V201.973H219.069V199.926H217.262ZM218.166 201.07H208.48V202.877H218.166V201.07ZM207.577 201.973V207.259H209.384V201.973H207.577ZM208.48 208.162H213.6V206.356H208.48V208.162ZM213.6 208.162C214.405 208.162 215.098 208.293 215.692 208.537L216.378 206.866C215.533 206.519 214.602 206.356 213.6 206.356V208.162ZM215.692 208.537C216.306 208.789 216.807 209.127 217.211 209.546L218.511 208.292C217.919 207.678 217.203 207.205 216.378 206.866L215.692 208.537ZM217.223 209.558C217.627 209.962 217.936 210.442 218.151 211.01L219.84 210.37C219.539 209.572 219.092 208.872 218.5 208.28L217.223 209.558ZM218.154 211.017C218.369 211.571 218.48 212.169 218.48 212.821H220.286C220.286 211.959 220.139 211.137 219.838 210.363L218.154 211.017ZM218.48 212.821C218.48 213.472 218.369 214.083 218.151 214.66L219.84 215.299C220.139 214.51 220.286 213.682 220.286 212.821H218.48ZM218.154 214.652C217.939 215.204 217.627 215.692 217.211 216.123L218.511 217.377C219.092 216.775 219.536 216.083 219.838 215.307L218.154 214.652ZM217.211 216.124C216.828 216.521 216.338 216.851 215.72 217.104L216.405 218.776C217.226 218.439 217.935 217.976 218.512 217.377L217.211 216.124ZM215.72 217.104C215.127 217.348 214.426 217.48 213.6 217.48V219.286C214.618 219.286 215.559 219.123 216.405 218.776L215.72 217.104ZM213.6 217.48H206.184V219.286H213.6V217.48ZM207.087 218.383V199.926H205.28V218.383H207.087ZM206.184 200.829H218.166V199.022H206.184V200.829ZM207.577 209.306V216.335H209.384V209.306H207.577ZM208.48 217.238H213.323V215.432H208.48V217.238ZM213.323 217.238C214.616 217.238 215.744 216.855 216.609 216.014L215.35 214.719C214.886 215.17 214.244 215.432 213.323 215.432V217.238ZM216.6 216.023C217.485 215.185 217.907 214.088 217.907 212.821H216.1C216.1 213.657 215.839 214.257 215.359 214.71L216.6 216.023ZM217.907 212.821C217.907 211.554 217.485 210.456 216.6 209.619L215.359 210.931C215.839 211.385 216.1 211.985 216.1 212.821H217.907ZM216.609 209.627C215.744 208.787 214.616 208.403 213.323 208.403V210.21C214.244 210.21 214.886 210.472 215.35 210.923L216.609 209.627ZM213.323 208.403H208.48V210.21H213.323V208.403ZM228.762 217.995L228.407 218.826L228.762 217.995ZM225.856 216.003L225.19 216.613L225.196 216.62L225.203 216.627L225.856 216.003ZM224.002 212.959L224.846 212.638L224.002 212.959ZM224.002 205.377L223.158 205.055L224.002 205.377ZM225.856 202.361L225.197 201.744L225.196 201.744L225.856 202.361ZM228.762 200.341L229.116 201.172L228.762 200.341ZM236.233 200.341L235.879 201.172L236.233 200.341ZM239.111 202.361L238.444 202.97L238.451 202.978L238.458 202.985L239.111 202.361ZM240.993 205.377L240.149 205.699L240.993 205.377ZM240.993 212.959L240.149 212.638L240.993 212.959ZM239.111 216.003L238.451 215.386L238.451 215.386L239.111 216.003ZM236.233 217.995L236.587 218.826L236.233 217.995ZM235.292 216.114L235.659 216.939L235.667 216.936L235.674 216.932L235.292 216.114ZM237.423 214.536L238.098 215.137L238.106 215.127L237.423 214.536ZM238.779 212.157L237.929 211.851L237.925 211.861L238.779 212.157ZM238.779 206.179L237.924 206.47L237.926 206.478L237.929 206.485L238.779 206.179ZM237.423 203.8L236.748 204.4L237.423 203.8ZM235.292 202.25L234.91 203.069L234.918 203.072L234.925 203.075L235.292 202.25ZM229.675 202.25L230.042 203.075L230.05 203.072L229.675 202.25ZM227.544 203.8L228.219 204.4L227.544 203.8ZM226.188 206.179L227.043 206.47L226.188 206.179ZM226.188 212.157L225.333 212.447L225.335 212.453L226.188 212.157ZM227.544 214.536L226.861 215.127L226.869 215.136L227.544 214.536ZM229.675 216.114L229.293 216.932L229.304 216.937L229.315 216.942L229.675 216.114ZM232.497 217.812C231.24 217.812 230.117 217.591 229.116 217.165L228.407 218.826C229.657 219.359 231.025 219.618 232.497 219.618V217.812ZM229.116 217.165C228.098 216.731 227.232 216.135 226.509 215.379L225.203 216.627C226.103 217.568 227.174 218.301 228.407 218.826L229.116 217.165ZM226.522 215.393C225.81 214.615 225.251 213.7 224.846 212.638L223.158 213.281C223.639 214.543 224.315 215.657 225.19 216.613L226.522 215.393ZM224.846 212.638C224.446 211.588 224.241 210.434 224.241 209.168H222.435C222.435 210.632 222.672 212.006 223.158 213.281L224.846 212.638ZM224.241 209.168C224.241 207.902 224.446 206.748 224.846 205.699L223.158 205.055C222.672 206.33 222.435 207.704 222.435 209.168H224.241ZM224.846 205.699C225.25 204.638 225.808 203.735 226.516 202.978L225.196 201.744C224.317 202.684 223.639 203.792 223.158 205.055L224.846 205.699ZM226.515 202.978C227.239 202.205 228.102 201.604 229.116 201.172L228.407 199.51C227.17 200.037 226.097 200.782 225.197 201.744L226.515 202.978ZM229.116 201.172C230.117 200.745 231.24 200.524 232.497 200.524V198.718C231.025 198.718 229.657 198.977 228.407 199.51L229.116 201.172ZM232.497 200.524C233.755 200.524 234.878 200.745 235.879 201.172L236.587 199.51C235.337 198.977 233.97 198.718 232.497 198.718V200.524ZM235.879 201.172C236.89 201.603 237.742 202.202 238.444 202.97L239.777 201.751C238.893 200.785 237.826 200.038 236.587 199.51L235.879 201.172ZM238.458 202.985C239.182 203.741 239.746 204.642 240.149 205.699L241.837 205.055C241.353 203.787 240.663 202.677 239.764 201.736L238.458 202.985ZM240.149 205.699C240.549 206.748 240.753 207.902 240.753 209.168H242.56C242.56 207.704 242.322 206.33 241.837 205.055L240.149 205.699ZM240.753 209.168C240.753 210.434 240.549 211.588 240.149 212.638L241.837 213.281C242.322 212.006 242.56 210.632 242.56 209.168H240.753ZM240.149 212.638C239.746 213.695 239.179 214.608 238.451 215.386L239.77 216.62C240.666 215.664 241.354 214.547 241.837 213.281L240.149 212.638ZM238.451 215.386C237.748 216.138 236.895 216.732 235.879 217.165L236.587 218.826C237.822 218.3 238.887 217.565 239.771 216.62L238.451 215.386ZM235.879 217.165C234.878 217.591 233.755 217.812 232.497 217.812V219.618C233.97 219.618 235.337 219.359 236.587 218.826L235.879 217.165ZM232.497 217.57C233.639 217.57 234.698 217.366 235.659 216.939L234.925 215.288C234.225 215.599 233.421 215.764 232.497 215.764V217.57ZM235.674 216.932C236.612 216.494 237.423 215.895 238.098 215.136L236.748 213.936C236.242 214.506 235.632 214.958 234.91 215.295L235.674 216.932ZM238.106 215.127C238.776 214.353 239.283 213.458 239.632 212.453L237.925 211.861C237.647 212.663 237.251 213.355 236.74 213.946L238.106 215.127ZM239.629 212.463C239.999 211.433 240.18 210.333 240.18 209.168H238.374C238.374 210.143 238.223 211.035 237.929 211.851L239.629 212.463ZM240.18 209.168C240.18 208.003 239.999 206.903 239.629 205.874L237.929 206.485C238.223 207.301 238.374 208.193 238.374 209.168H240.18ZM239.634 205.889C239.285 204.863 238.776 203.962 238.098 203.2L236.748 204.4C237.251 204.965 237.645 205.651 237.924 206.47L239.634 205.889ZM238.098 203.2C237.42 202.437 236.604 201.845 235.659 201.425L234.925 203.075C235.641 203.393 236.245 203.834 236.748 204.4L238.098 203.2ZM235.674 201.432C234.71 200.982 233.645 200.766 232.497 200.766V202.572C233.415 202.572 234.214 202.744 234.91 203.069L235.674 201.432ZM232.497 200.766C231.349 200.766 230.278 200.982 229.3 201.428L230.05 203.072C230.769 202.744 231.58 202.572 232.497 202.572V200.766ZM229.308 201.425C228.363 201.845 227.547 202.437 226.869 203.2L228.219 204.4C228.722 203.834 229.326 203.393 230.042 203.075L229.308 201.425ZM226.869 203.2C226.191 203.962 225.682 204.863 225.333 205.889L227.043 206.47C227.322 205.651 227.716 204.965 228.219 204.4L226.869 203.2ZM225.333 205.889C224.985 206.914 224.814 208.009 224.814 209.168H226.621C226.621 208.187 226.764 207.29 227.043 206.47L225.333 205.889ZM224.814 209.168C224.814 210.327 224.985 211.423 225.333 212.447L227.043 211.866C226.764 211.046 226.621 210.149 226.621 209.168H224.814ZM225.335 212.453C225.684 213.458 226.191 214.353 226.861 215.127L228.227 213.946C227.716 213.355 227.32 212.663 227.041 211.861L225.335 212.453ZM226.869 215.136C227.544 215.895 228.355 216.494 229.293 216.932L230.057 215.295C229.335 214.958 228.725 214.506 228.219 213.936L226.869 215.136ZM229.315 216.942C230.289 217.366 231.355 217.57 232.497 217.57V215.764C231.574 215.764 230.757 215.6 230.035 215.285L229.315 216.942ZM246.905 218.383H246.001V219.286H246.905V218.383ZM246.905 199.926V199.022H246.001V199.926H246.905ZM257.282 200.285L256.967 201.132L256.978 201.136L256.989 201.14L257.282 200.285ZM258.914 201.254L258.289 201.906L258.297 201.913L258.304 201.92L258.914 201.254ZM259.938 202.748L259.101 203.088L259.105 203.097L259.938 202.748ZM260.021 206.235L259.178 205.911L259.173 205.925L259.168 205.939L260.021 206.235ZM259.302 207.508L258.613 206.923L258.611 206.926L259.302 207.508ZM258.278 208.393L258.726 209.177L258.74 209.17L258.753 209.161L258.278 208.393ZM257.06 208.864L256.868 207.981L256.928 209.757L257.06 208.864ZM258.444 209.389L257.95 210.146L257.958 210.151L257.965 210.155L258.444 209.389ZM259.578 210.413L258.864 210.966L258.871 210.975L258.879 210.985L259.578 210.413ZM260.353 211.797L259.503 212.101L259.507 212.114L259.513 212.127L260.353 211.797ZM260.298 215.422L259.457 215.091L260.298 215.422ZM259.246 216.999L259.872 217.651L259.246 216.999ZM257.558 218.023L257.252 217.174L257.244 217.176L257.558 218.023ZM257.116 207.093L257.765 207.72L257.77 207.715L257.775 207.71L257.116 207.093ZM257.116 202.859L256.446 203.465L256.451 203.471L256.456 203.476L257.116 202.859ZM249.201 201.973V201.07H248.298V201.973H249.201ZM249.201 207.923H248.298V208.826H249.201V207.923ZM257.365 215.505L257.982 216.164L257.983 216.163L257.365 215.505ZM258.056 211.935L258.9 211.614L258.056 211.935ZM257.392 210.939L256.733 211.557L256.753 211.578L256.775 211.598L257.392 210.939ZM256.341 210.247L255.981 211.076L255.996 211.082L256.012 211.088L256.341 210.247ZM249.201 209.971V209.067H248.298V209.971H249.201ZM249.201 216.335H248.298V217.238H249.201V216.335ZM247.808 218.383V199.926H246.001V218.383H247.808ZM246.905 200.829H255.123V199.022H246.905V200.829ZM255.123 200.829C255.825 200.829 256.436 200.935 256.967 201.132L257.596 199.439C256.836 199.156 256.008 199.022 255.123 199.022V200.829ZM256.989 201.14C257.524 201.323 257.951 201.582 258.289 201.906L259.539 200.602C258.991 200.077 258.33 199.69 257.574 199.431L256.989 201.14ZM258.304 201.92C258.642 202.23 258.909 202.614 259.101 203.088L260.775 202.408C260.488 201.702 260.072 201.09 259.525 200.588L258.304 201.92ZM259.105 203.097C259.294 203.548 259.395 204.055 259.395 204.63H261.201C261.201 203.839 261.062 203.092 260.771 202.399L259.105 203.097ZM259.395 204.63C259.395 205.126 259.317 205.549 259.178 205.911L260.864 206.559C261.094 205.962 261.201 205.315 261.201 204.63H259.395ZM259.168 205.939C259.036 206.318 258.851 206.643 258.613 206.923L259.99 208.093C260.379 207.634 260.674 207.111 260.875 206.53L259.168 205.939ZM258.611 206.926C258.377 207.204 258.108 207.436 257.802 207.625L258.753 209.161C259.222 208.871 259.636 208.513 259.992 208.09L258.611 206.926ZM257.83 207.609C257.52 207.786 257.2 207.909 256.868 207.981L257.252 209.746C257.769 209.634 258.261 209.443 258.726 209.177L257.83 207.609ZM256.928 209.757C257.296 209.812 257.634 209.94 257.95 210.146L258.937 208.633C258.404 208.286 257.82 208.063 257.193 207.97L256.928 209.757ZM257.965 210.155C258.319 210.376 258.617 210.646 258.864 210.966L260.293 209.861C259.913 209.369 259.454 208.956 258.922 208.624L257.965 210.155ZM258.879 210.985C259.143 211.307 259.351 211.677 259.503 212.101L261.204 211.493C260.986 210.884 260.678 210.331 260.277 209.841L258.879 210.985ZM259.513 212.127C259.674 212.539 259.754 212.962 259.754 213.402H261.561C261.561 212.735 261.438 212.088 261.194 211.467L259.513 212.127ZM259.754 213.402C259.754 214.041 259.651 214.6 259.457 215.091L261.138 215.753C261.424 215.026 261.561 214.239 261.561 213.402H259.754ZM259.457 215.091C259.264 215.582 258.986 215.997 258.621 216.348L259.872 217.651C260.429 217.116 260.852 216.48 261.138 215.753L259.457 215.091ZM258.621 216.348C258.26 216.694 257.809 216.972 257.252 217.174L257.865 218.873C258.636 218.594 259.31 218.19 259.872 217.651L258.621 216.348ZM257.244 217.176C256.719 217.371 256.082 217.48 255.317 217.48V219.286C256.249 219.286 257.106 219.154 257.873 218.87L257.244 217.176ZM255.317 217.48H246.905V219.286H255.317V217.48ZM254.736 208.826C255.94 208.826 257.005 208.507 257.765 207.72L256.466 206.465C256.156 206.786 255.635 207.02 254.736 207.02V208.826ZM257.775 207.71C258.48 206.956 258.821 206.019 258.821 204.962H257.015C257.015 205.602 256.821 206.086 256.456 206.476L257.775 207.71ZM258.821 204.962C258.821 203.918 258.477 202.992 257.775 202.242L256.456 203.476C256.824 203.87 257.015 204.346 257.015 204.962H258.821ZM257.785 202.252C257.028 201.418 255.956 201.07 254.736 201.07V202.877C255.618 202.877 256.133 203.119 256.446 203.465L257.785 202.252ZM254.736 201.07H249.201V202.877H254.736V201.07ZM248.298 201.973V207.923H250.105V201.973H248.298ZM249.201 208.826H254.736V207.02H249.201V208.826ZM254.846 217.238C256.084 217.238 257.174 216.922 257.982 216.164L256.747 214.846C256.375 215.195 255.786 215.432 254.846 215.432V217.238ZM257.983 216.163C258.808 215.388 259.181 214.346 259.181 213.153H257.375C257.375 213.952 257.139 214.478 256.746 214.847L257.983 216.163ZM259.181 213.153C259.181 212.621 259.088 212.106 258.9 211.614L257.212 212.257C257.32 212.539 257.375 212.836 257.375 213.153H259.181ZM258.9 211.614C258.705 211.101 258.408 210.653 258.01 210.28L256.775 211.598C256.967 211.779 257.112 211.994 257.212 212.257L258.9 211.614ZM258.051 210.321C257.672 209.916 257.203 209.615 256.67 209.406L256.012 211.088C256.327 211.212 256.56 211.371 256.733 211.557L258.051 210.321ZM256.701 209.419C256.139 209.175 255.514 209.067 254.846 209.067V210.874C255.323 210.874 255.693 210.951 255.981 211.076L256.701 209.419ZM254.846 209.067H249.201V210.874H254.846V209.067ZM248.298 209.971V216.335H250.105V209.971H248.298ZM249.201 217.238H254.846V215.432H249.201V217.238ZM268.265 199.926H269.168V199.022H268.265V199.926ZM268.265 207.259H267.362V208.162H268.265V207.259ZM277.646 208.919L276.995 209.546L277.001 209.552L277.007 209.558L277.646 208.919ZM278.78 210.69L277.935 211.01L277.938 211.017L278.78 210.69ZM278.78 214.979L279.622 215.307L279.625 215.299L278.78 214.979ZM277.646 216.75L276.995 216.123L276.995 216.124L277.646 216.75ZM265.968 218.383H265.065V219.286H265.968V218.383ZM265.968 199.926V199.022H265.065V199.926H265.968ZM268.265 209.306V208.403H267.362V209.306H268.265ZM268.265 216.335H267.362V217.238H268.265V216.335ZM275.764 215.367L275.143 214.71L275.134 214.719L275.764 215.367ZM275.764 210.275L275.134 210.923L275.143 210.931L275.764 210.275ZM267.362 199.926V207.259H269.168V199.926H267.362ZM268.265 208.162H273.384V206.356H268.265V208.162ZM273.384 208.162C274.189 208.162 274.882 208.293 275.476 208.537L276.162 206.866C275.318 206.519 274.387 206.356 273.384 206.356V208.162ZM275.476 208.537C276.09 208.789 276.591 209.127 276.995 209.546L278.296 208.292C277.704 207.678 276.987 207.205 276.162 206.866L275.476 208.537ZM277.007 209.558C277.411 209.962 277.721 210.442 277.935 211.01L279.625 210.37C279.323 209.572 278.876 208.872 278.284 208.28L277.007 209.558ZM277.938 211.017C278.154 211.571 278.264 212.169 278.264 212.821H280.071C280.071 211.959 279.923 211.137 279.622 210.363L277.938 211.017ZM278.264 212.821C278.264 213.472 278.154 214.083 277.935 214.66L279.625 215.299C279.923 214.51 280.071 213.682 280.071 212.821H278.264ZM277.938 214.652C277.724 215.204 277.411 215.692 276.995 216.123L278.296 217.377C278.876 216.775 279.32 216.083 279.622 215.307L277.938 214.652ZM276.995 216.124C276.612 216.521 276.122 216.851 275.504 217.104L276.19 218.776C277.011 218.439 277.719 217.976 278.296 217.377L276.995 216.124ZM275.504 217.104C274.912 217.348 274.21 217.48 273.384 217.48V219.286C274.403 219.286 275.343 219.123 276.19 218.776L275.504 217.104ZM273.384 217.48H265.968V219.286H273.384V217.48ZM266.871 218.383V199.926H265.065V218.383H266.871ZM265.968 200.829H268.265V199.022H265.968V200.829ZM267.362 209.306V216.335H269.168V209.306H267.362ZM268.265 217.238H273.107V215.432H268.265V217.238ZM273.107 217.238C274.4 217.238 275.529 216.855 276.393 216.014L275.134 214.719C274.671 215.17 274.028 215.432 273.107 215.432V217.238ZM276.384 216.023C277.27 215.185 277.691 214.088 277.691 212.821H275.884C275.884 213.657 275.623 214.257 275.143 214.71L276.384 216.023ZM277.691 212.821C277.691 211.554 277.27 210.456 276.384 209.619L275.143 210.931C275.623 211.385 275.884 211.985 275.884 212.821H277.691ZM276.393 209.627C275.529 208.787 274.4 208.403 273.107 208.403V210.21C274.028 210.21 274.671 210.472 275.134 210.923L276.393 209.627ZM273.107 208.403H268.265V210.21H273.107V208.403Z" fill="black" mask="url(#path-2-outside-1_210_1701)"/>
<defs>
<filter id="filter0_f_210_1701" x="0.0609589" y="0.0609589" width="433.689" height="413.811" filterUnits="userSpaceOnUse" color-interpolation-filters="sRGB">
<feFlood flood-opacity="0" result="BackgroundImageFix"/>
<feBlend mode="normal" in="SourceGraphic" in2="BackgroundImageFix" result="shape"/>
<feGaussianBlur stdDeviation="55.9695" result="effect1_foregroundBlur_210_1701"/>
</filter>
</defs>
</svg>
