<svg width="357" height="357" viewBox="0 0 357 357" fill="none" xmlns="http://www.w3.org/2000/svg">
<g filter="url(#filter0_f_225_431)">
<circle cx="178.202" cy="178.202" r="86.2021" fill="#FFD900"/>
</g>
<mask id="path-2-outside-1_225_431" maskUnits="userSpaceOnUse" x="120" y="175" width="103" height="22" fill="black">
<rect fill="white" x="120" y="175" width="103" height="22"/>
<path d="M121.794 191.338C122.29 191.305 122.728 191.206 123.108 191.041C123.505 190.875 123.86 190.561 124.174 190.098C124.489 189.635 124.753 188.982 124.968 188.139C125.2 187.296 125.406 186.172 125.588 184.766L126.605 176.458H136.723V191.165H138.236V196.05H136.178V193H123.852V196.05H121.794V191.338ZM127.622 184.915C127.407 186.668 127.084 188.032 126.654 189.007C126.225 189.983 125.704 190.702 125.092 191.165H134.665V178.293H128.44L127.622 184.915ZM142.345 193V176.458H153.182V178.293H144.403V183.625H153.009V185.461H144.403V191.165H153.182V193H142.345ZM169.683 193V185.411H160.011V193H157.952V176.458H160.011V183.576H169.683V176.458H171.741V193H169.683ZM179.154 176.458V183.03H183.742C184.553 183.03 185.28 183.163 185.925 183.427C186.57 183.692 187.115 184.055 187.562 184.518C188.008 184.965 188.347 185.494 188.579 186.106C188.81 186.701 188.926 187.337 188.926 188.015C188.926 188.693 188.81 189.338 188.579 189.95C188.347 190.545 188.008 191.074 187.562 191.537C187.132 191.983 186.595 192.339 185.95 192.603C185.305 192.868 184.569 193 183.742 193H177.096V176.458H179.154ZM179.154 184.865V191.165H183.494C184.486 191.165 185.28 190.875 185.875 190.297C186.487 189.718 186.793 188.958 186.793 188.015C186.793 187.073 186.487 186.312 185.875 185.734C185.28 185.155 184.486 184.865 183.494 184.865H179.154ZM193.14 193V176.458H203.977V178.293H195.198V193H193.14ZM208.263 193V176.458H210.321V189.379L219.845 176.458H221.953V193H219.894V179.806L210.247 193H208.263Z"/>
</mask>
<path d="M121.794 191.338C122.29 191.305 122.728 191.206 123.108 191.041C123.505 190.875 123.86 190.561 124.174 190.098C124.489 189.635 124.753 188.982 124.968 188.139C125.2 187.296 125.406 186.172 125.588 184.766L126.605 176.458H136.723V191.165H138.236V196.05H136.178V193H123.852V196.05H121.794V191.338ZM127.622 184.915C127.407 186.668 127.084 188.032 126.654 189.007C126.225 189.983 125.704 190.702 125.092 191.165H134.665V178.293H128.44L127.622 184.915ZM142.345 193V176.458H153.182V178.293H144.403V183.625H153.009V185.461H144.403V191.165H153.182V193H142.345ZM169.683 193V185.411H160.011V193H157.952V176.458H160.011V183.576H169.683V176.458H171.741V193H169.683ZM179.154 176.458V183.03H183.742C184.553 183.03 185.28 183.163 185.925 183.427C186.57 183.692 187.115 184.055 187.562 184.518C188.008 184.965 188.347 185.494 188.579 186.106C188.81 186.701 188.926 187.337 188.926 188.015C188.926 188.693 188.81 189.338 188.579 189.95C188.347 190.545 188.008 191.074 187.562 191.537C187.132 191.983 186.595 192.339 185.95 192.603C185.305 192.868 184.569 193 183.742 193H177.096V176.458H179.154ZM179.154 184.865V191.165H183.494C184.486 191.165 185.28 190.875 185.875 190.297C186.487 189.718 186.793 188.958 186.793 188.015C186.793 187.073 186.487 186.312 185.875 185.734C185.28 185.155 184.486 184.865 183.494 184.865H179.154ZM193.14 193V176.458H203.977V178.293H195.198V193H193.14ZM208.263 193V176.458H210.321V189.379L219.845 176.458H221.953V193H219.894V179.806L210.247 193H208.263Z" fill="black"/>
<path d="M121.794 191.338L121.74 190.531L120.984 190.581V191.338H121.794ZM123.108 191.041L122.797 190.294L122.785 190.298L123.108 191.041ZM124.174 190.098L124.844 190.553L124.174 190.098ZM124.968 188.139L124.188 187.925L124.186 187.932L124.184 187.939L124.968 188.139ZM125.588 184.766L126.391 184.87L126.391 184.865L125.588 184.766ZM126.605 176.458V175.649H125.888L125.801 176.36L126.605 176.458ZM136.723 176.458H137.533V175.649H136.723V176.458ZM136.723 191.165H135.914V191.974H136.723V191.165ZM138.236 191.165H139.046V190.355H138.236V191.165ZM138.236 196.05V196.86H139.046V196.05H138.236ZM136.178 196.05H135.368V196.86H136.178V196.05ZM136.178 193H136.987V192.191H136.178V193ZM123.852 193V192.191H123.043V193H123.852ZM123.852 196.05V196.86H124.661V196.05H123.852ZM121.794 196.05H120.984V196.86H121.794V196.05ZM127.622 184.915L126.818 184.816L126.818 184.817L127.622 184.915ZM126.654 189.007L127.395 189.334L126.654 189.007ZM125.092 191.165L124.604 190.519L122.681 191.974H125.092V191.165ZM134.665 191.165V191.974H135.474V191.165H134.665ZM134.665 178.293H135.474V177.484H134.665V178.293ZM128.44 178.293V177.484H127.725L127.637 178.194L128.44 178.293ZM121.847 192.146C122.418 192.108 122.95 191.992 123.431 191.783L122.785 190.298C122.505 190.42 122.161 190.503 121.74 190.531L121.847 192.146ZM123.419 191.788C123.999 191.546 124.468 191.107 124.844 190.553L123.505 189.644C123.253 190.015 123.01 190.205 122.797 190.294L123.419 191.788ZM124.844 190.553C125.232 189.982 125.526 189.228 125.752 188.339L124.184 187.939C123.981 188.736 123.745 189.289 123.505 189.644L124.844 190.553ZM125.749 188.353C125.994 187.459 126.207 186.293 126.391 184.87L124.785 184.662C124.606 186.05 124.405 187.133 124.188 187.925L125.749 188.353ZM126.391 184.865L127.408 176.557L125.801 176.36L124.785 184.668L126.391 184.865ZM126.605 177.268H136.723V175.649H126.605V177.268ZM135.914 176.458V191.165H137.533V176.458H135.914ZM136.723 191.974H138.236V190.355H136.723V191.974ZM137.427 191.165V196.05H139.046V191.165H137.427ZM138.236 195.241H136.178V196.86H138.236V195.241ZM136.987 196.05V193H135.368V196.05H136.987ZM136.178 192.191H123.852V193.809H136.178V192.191ZM123.043 193V196.05H124.661V193H123.043ZM123.852 195.241H121.794V196.86H123.852V195.241ZM122.603 196.05V191.338H120.984V196.05H122.603ZM126.818 184.817C126.608 186.535 126.298 187.81 125.914 188.681L127.395 189.334C127.871 188.254 128.206 186.8 128.425 185.014L126.818 184.817ZM125.914 188.681C125.519 189.577 125.071 190.166 124.604 190.519L125.58 191.81C126.337 191.238 126.93 190.388 127.395 189.334L125.914 188.681ZM125.092 191.974H134.665V190.355H125.092V191.974ZM135.474 191.165V178.293H133.856V191.165H135.474ZM134.665 177.484H128.44V179.103H134.665V177.484ZM127.637 178.194L126.818 184.816L128.425 185.014L129.243 178.393L127.637 178.194ZM142.345 193H141.535V193.809H142.345V193ZM142.345 176.458V175.649H141.535V176.458H142.345ZM153.182 176.458H153.992V175.649H153.182V176.458ZM153.182 178.293V179.103H153.992V178.293H153.182ZM144.403 178.293V177.484H143.594V178.293H144.403ZM144.403 183.625H143.594V184.435H144.403V183.625ZM153.009 183.625H153.818V182.816H153.009V183.625ZM153.009 185.461V186.27H153.818V185.461H153.009ZM144.403 185.461V184.651H143.594V185.461H144.403ZM144.403 191.165H143.594V191.974H144.403V191.165ZM153.182 191.165H153.992V190.355H153.182V191.165ZM153.182 193V193.809H153.992V193H153.182ZM143.154 193V176.458H141.535V193H143.154ZM142.345 177.268H153.182V175.649H142.345V177.268ZM152.373 176.458V178.293H153.992V176.458H152.373ZM153.182 177.484H144.403V179.103H153.182V177.484ZM143.594 178.293V183.625H145.212V178.293H143.594ZM144.403 184.435H153.009V182.816H144.403V184.435ZM152.199 183.625V185.461H153.818V183.625H152.199ZM153.009 184.651H144.403V186.27H153.009V184.651ZM143.594 185.461V191.165H145.212V185.461H143.594ZM144.403 191.974H153.182V190.355H144.403V191.974ZM152.373 191.165V193H153.992V191.165H152.373ZM153.182 192.191H142.345V193.809H153.182V192.191ZM169.683 193H168.873V193.809H169.683V193ZM169.683 185.411H170.492V184.602H169.683V185.411ZM160.011 185.411V184.602H159.201V185.411H160.011ZM160.011 193V193.809H160.82V193H160.011ZM157.952 193H157.143V193.809H157.952V193ZM157.952 176.458V175.649H157.143V176.458H157.952ZM160.011 176.458H160.82V175.649H160.011V176.458ZM160.011 183.576H159.201V184.385H160.011V183.576ZM169.683 183.576V184.385H170.492V183.576H169.683ZM169.683 176.458V175.649H168.873V176.458H169.683ZM171.741 176.458H172.551V175.649H171.741V176.458ZM171.741 193V193.809H172.551V193H171.741ZM170.492 193V185.411H168.873V193H170.492ZM169.683 184.602H160.011V186.221H169.683V184.602ZM159.201 185.411V193H160.82V185.411H159.201ZM160.011 192.191H157.952V193.809H160.011V192.191ZM158.762 193V176.458H157.143V193H158.762ZM157.952 177.268H160.011V175.649H157.952V177.268ZM159.201 176.458V183.576H160.82V176.458H159.201ZM160.011 184.385H169.683V182.766H160.011V184.385ZM170.492 183.576V176.458H168.873V183.576H170.492ZM169.683 177.268H171.741V175.649H169.683V177.268ZM170.932 176.458V193H172.551V176.458H170.932ZM171.741 192.191H169.683V193.809H171.741V192.191ZM179.154 176.458H179.964V175.649H179.154V176.458ZM179.154 183.03H178.345V183.84H179.154V183.03ZM187.562 184.518L186.979 185.08L186.984 185.085L186.989 185.091L187.562 184.518ZM188.579 186.106L187.821 186.392L187.824 186.399L188.579 186.106ZM188.579 189.95L189.333 190.243L189.336 190.236L188.579 189.95ZM187.562 191.537L186.979 190.975L186.979 190.975L187.562 191.537ZM177.096 193H176.287V193.809H177.096V193ZM177.096 176.458V175.649H176.287V176.458H177.096ZM179.154 184.865V184.056H178.345V184.865H179.154ZM179.154 191.165H178.345V191.974H179.154V191.165ZM185.875 190.297L185.319 189.709L185.311 189.716L185.875 190.297ZM185.875 185.734L185.311 186.314L185.319 186.322L185.875 185.734ZM178.345 176.458V183.03H179.964V176.458H178.345ZM179.154 183.84H183.742V182.221H179.154V183.84ZM183.742 183.84C184.464 183.84 185.085 183.957 185.618 184.176L186.232 182.678C185.475 182.368 184.641 182.221 183.742 182.221V183.84ZM185.618 184.176C186.168 184.401 186.617 184.705 186.979 185.08L188.144 183.956C187.614 183.406 186.972 182.982 186.232 182.678L185.618 184.176ZM186.989 185.091C187.352 185.453 187.629 185.884 187.822 186.392L189.336 185.819C189.065 185.104 188.665 184.476 188.134 183.946L186.989 185.091ZM187.824 186.399C188.017 186.895 188.116 187.431 188.116 188.015H189.735C189.735 187.243 189.603 186.507 189.333 185.812L187.824 186.399ZM188.116 188.015C188.116 188.599 188.017 189.146 187.822 189.663L189.336 190.236C189.603 189.529 189.735 188.787 189.735 188.015H188.116ZM187.824 189.656C187.632 190.151 187.352 190.589 186.979 190.975L188.144 192.099C188.665 191.559 189.062 190.939 189.333 190.243L187.824 189.656ZM186.979 190.975C186.636 191.331 186.196 191.627 185.642 191.854L186.257 193.352C186.993 193.05 187.628 192.635 188.145 192.098L186.979 190.975ZM185.642 191.854C185.112 192.072 184.483 192.191 183.742 192.191V193.809C184.655 193.809 185.498 193.663 186.257 193.352L185.642 191.854ZM183.742 192.191H177.096V193.809H183.742V192.191ZM177.905 193V176.458H176.287V193H177.905ZM177.096 177.268H179.154V175.649H177.096V177.268ZM178.345 184.865V191.165H179.964V184.865H178.345ZM179.154 191.974H183.494V190.355H179.154V191.974ZM183.494 191.974C184.653 191.974 185.664 191.631 186.44 190.877L185.311 189.716C184.896 190.12 184.32 190.355 183.494 190.355V191.974ZM186.432 190.885C187.225 190.134 187.602 189.151 187.602 188.015H185.983C185.983 188.764 185.749 189.302 185.319 189.709L186.432 190.885ZM187.602 188.015C187.602 186.879 187.225 185.896 186.432 185.145L185.319 186.322C185.749 186.728 185.983 187.266 185.983 188.015H187.602ZM186.44 185.153C185.664 184.4 184.653 184.056 183.494 184.056V185.675C184.32 185.675 184.896 185.91 185.311 186.314L186.44 185.153ZM183.494 184.056H179.154V185.675H183.494V184.056ZM193.14 193H192.33V193.809H193.14V193ZM193.14 176.458V175.649H192.33V176.458H193.14ZM203.977 176.458H204.787V175.649H203.977V176.458ZM203.977 178.293V179.103H204.787V178.293H203.977ZM195.198 178.293V177.484H194.389V178.293H195.198ZM195.198 193V193.809H196.007V193H195.198ZM193.949 193V176.458H192.33V193H193.949ZM193.14 177.268H203.977V175.649H193.14V177.268ZM203.168 176.458V178.293H204.787V176.458H203.168ZM203.977 177.484H195.198V179.103H203.977V177.484ZM194.389 178.293V193H196.007V178.293H194.389ZM195.198 192.191H193.14V193.809H195.198V192.191ZM208.263 193H207.454V193.809H208.263V193ZM208.263 176.458V175.649H207.454V176.458H208.263ZM210.321 176.458H211.131V175.649H210.321V176.458ZM210.321 189.379H209.512V191.842L210.973 189.859L210.321 189.379ZM219.845 176.458V175.649H219.436L219.193 175.978L219.845 176.458ZM221.953 176.458H222.762V175.649H221.953V176.458ZM221.953 193V193.809H222.762V193H221.953ZM219.894 193H219.085V193.809H219.894V193ZM219.894 179.806H220.704V177.328L219.241 179.328L219.894 179.806ZM210.247 193V193.809H210.658L210.9 193.478L210.247 193ZM209.072 193V176.458H207.454V193H209.072ZM208.263 177.268H210.321V175.649H208.263V177.268ZM209.512 176.458V189.379H211.131V176.458H209.512ZM210.973 189.859L220.496 176.938L219.193 175.978L209.67 188.899L210.973 189.859ZM219.845 177.268H221.953V175.649H219.845V177.268ZM221.143 176.458V193H222.762V176.458H221.143ZM221.953 192.191H219.894V193.809H221.953V192.191ZM220.704 193V179.806H219.085V193H220.704ZM219.241 179.328L209.594 192.522L210.9 193.478L220.548 180.284L219.241 179.328ZM210.247 192.191H208.263V193.809H210.247V192.191Z" fill="black" mask="url(#path-2-outside-1_225_431)"/>
<defs>
<filter id="filter0_f_225_431" x="0.017807" y="0.017807" width="356.369" height="356.369" filterUnits="userSpaceOnUse" color-interpolation-filters="sRGB">
<feFlood flood-opacity="0" result="BackgroundImageFix"/>
<feBlend mode="normal" in="SourceGraphic" in2="BackgroundImageFix" result="shape"/>
<feGaussianBlur stdDeviation="45.9911" result="effect1_foregroundBlur_225_431"/>
</filter>
</defs>
</svg>
