<svg width="2472" height="204" viewBox="0 0 2472 204" fill="none" xmlns="http://www.w3.org/2000/svg">
<rect width="204" height="204" fill="#DD00FF"/>
<rect x="1260" width="204" height="204" fill="#DD00FF"/>
<rect x="252" width="204" height="204" fill="#DD00FF"/>
<rect x="1512" width="204" height="204" fill="#DD00FF"/>
<rect x="504" width="204" height="204" fill="#DD00FF"/>
<rect x="1764" width="204" height="204" fill="#DD00FF"/>
<rect x="756" width="204" height="204" fill="#DD00FF"/>
<rect x="2016" width="204" height="204" fill="#DD00FF"/>
<rect x="1008" width="204" height="204" fill="#DD00FF"/>
<rect x="2268" width="204" height="204" fill="#DD00FF"/>
<path d="M881.383 107.625L885.835 106.078L890.655 101.414L894.15 92.9347L896.566 83.4049" stroke="white" stroke-width="3.12419"/>
<path d="M896.983 109.604L900.727 115.484C901.121 116.407 901.883 118.257 901.778 118.271L900.389 119.796L899.893 121.997L900.309 125.005L902.199 128.076L904.598 130.011C904.747 130.123 905.284 131.116 905.302 131.246C905.32 131.377 905.198 133.393 902.497 132.167C900.335 131.185 899.365 129.756 899.15 129.163L897.319 129.416L895.438 132.208L895.619 133.516L894.74 133.904L895.444 139.004L890.695 140.326L889.685 144.597L894.508 163.124L892.609 165.785C890.78 164.118 889.107 154.895 888.499 150.492L886.47 149.306L884.373 150.528C884.555 152.813 884.923 157.41 884.937 157.514C884.951 157.619 883.587 157.39 882.903 157.262L882.091 151.376L881.306 151.485L881.739 154.624C881.407 155.309 880.092 155.562 879.475 155.603" stroke="white" stroke-width="3.12419"/>
<path d="M879.477 155.602L879.043 152.463L876.987 153.014L874.975 151.959L873.784 147.192L870.181 147.156L868.723 139.494L866.856 139.485L862.596 108.619L861.644 108.484C860.922 113.87 859.48 124.669 859.495 124.774C859.509 124.878 858.641 125.025 858.205 125.085L856.26 110.026L851.36 139.225L849.533 138.544L846.246 146.594L844.677 146.811L843.897 145.986L842.526 147.641C841.689 150.849 839.673 152.078 838.769 152.291L837.227 154.636L836.127 154.389L835.959 150.28L834.259 150.515L833.24 152.788L833.637 155.665C833.67 156.549 833.398 157.99 832.045 156.684C830.692 155.378 830.609 153.684 830.737 153L832.094 150.28L831.282 148.26L829.172 148.418L827.557 150.24L826.173 154.696L826.128 160.167L825.912 162.462L823.418 164.672L821.465 163.076L821.835 159.96L824.852 153.812L826.803 143.813L826.244 139.759L822.239 137.78C821.687 137.323 820.772 136.036 821.526 134.546C822.28 133.056 821.061 130.212 820.357 128.976L817.173 127.15L818.012 123.569L817.218 121.679M817.218 121.679L813.944 123.064L812.212 125.969L812.699 129.5L807.86 130.168L806.936 128.296L810.047 125.734L814.169 118.901L813.357 116.881L807.201 115.732L806.61 114.347L807.994 113.756L803.565 110.636L800.972 110.194C800.101 110.003 798.794 109.482 800.53 108.922C802.265 108.363 801.905 107.622 801.508 107.321L799.018 104.732L802.374 102.004L802.77 101.016L789.556 96.0426L783.264 91.9797L778.456 86.1127L777.368 83.064L778.631 80.624L783.529 79.4149L767.147 61.1509L768.761 59.3288L776.83 58.8815L787.911 60.9506L803.2 65.5043L821.123 73.6928L824.527 75.7129M817.218 121.679L816.139 116.764C816.781 115.298 818.465 111.405 820.067 107.558M858.288 95.7522L854.544 86.0065L845.928 68.0034L834.638 50.9026L824.413 41.5183C822.819 41.5605 819.629 41.6188 819.614 41.5142C819.6 41.4096 818.92 44.8531 818.582 46.588L820.666 55.8964L823.905 65.8451L826.369 74.0351L833.707 85.6837L840.252 91.5776L858.685 98.6295M858.288 95.7522L824.527 75.7129M858.288 95.7522L848.567 82.2998L836.262 62.6735L822.018 46.3802L809.53 37.9748L800.735 34.124C797.893 33.4944 792.467 33.3193 793.492 37.656C794.517 41.9927 797.2 51.0052 798.414 54.9694L805.573 69.1752L824.521 87.6847M858.685 98.6295L844.824 84.1492L837.107 77.4842L829.467 74.2738L825.151 74.8695C824.91 75.1231 824.704 75.4071 824.527 75.7129M858.685 98.6295L836.677 105.266M836.677 105.266L831.873 102.33L828.4 98.4113L825.27 93.1124L824.521 87.6847M836.677 105.266L820.067 107.558M824.527 75.7129C823.335 77.7736 823.497 80.8249 823.772 82.257L824.521 87.6847M824.527 75.7129C814.823 72.1816 807.727 71.5878 805.392 71.7324L801.767 76.3644L803.446 88.5277L809.959 100.957L820.067 107.558" stroke="white" stroke-width="3.12419"/>
<path d="M858.269 95.6217L858.404 94.6701L859.103 92.9743L860.019 92.8479L861.246 94.0114L861.76 95.8063M861.76 95.8063L862.968 92.9739L866.837 84.3099L870.756 76.9718L874.976 68.9256L880.545 60.0269L886.818 52.3639L891.887 46.5997L895.201 44.5428L900.212 43.1848L902.359 43.2884L903.153 49.043L901.214 56.2412L898.491 63.5476L894.762 74.1915M861.76 95.8063L868.728 91.2461L875.249 86.3477L881.959 80.89L886.96 77.5341L890.861 75.8628M861.76 95.8063C864.481 91.699 870.862 82.1817 874.621 76.9715L881.52 67.0895L888.208 58.5695L894.643 52.0835L904.789 42.553L913.534 37.3477C915.977 36.6996 920.888 35.3996 920.993 35.3852C921.098 35.3707 924.594 36.0433 926.329 36.3814L927.028 38.5506L927.069 41.7437L924.589 48.8832L918.925 61.9266L912.856 73.9598L908.293 79.521L896.189 88.3888M861.76 95.8063C862.504 102.741 866.671 104.991 868.661 105.25L877.672 106.805C881.906 107.864 890.399 109.979 890.503 109.965C894.952 110.524 900.406 108.643 902.576 107.632L910.382 99.491C913.442 93.8443 916.337 86.6295 917.403 83.728L916.748 76.0882L911.918 72.9564L903.809 74.0756L896.972 76.6853L891.466 80.2442L880.246 91.6554C882.286 93.2398 883.906 96.3482 874.063 96.1074M894.762 74.1915L890.861 75.8628M894.762 74.1915L904.508 70.4473L915.092 66.9872L926.647 63.793L938.287 62.1864L947.208 63.0876L947.515 65.311L943.722 69.6996L932.732 79.8796C930.97 81.2779 927.421 84.078 927.316 84.0924C927.185 84.1105 920.285 86.2624 920.303 86.3931L911.423 88.685L897.546 89.5342L896.189 88.3888M896.189 88.3888C896.265 86.69 896.467 83.2591 896.662 83.1256C896.972 80.7371 895.729 77.6565 895.069 76.4149L890.861 75.8628" stroke="white" stroke-width="3.12419"/>
<path d="M908.428 101.76L918.499 100.37L927.031 96.5266C931.321 92.8425 934.48 87.724 935.523 85.6252L930.309 82.613L923.233 82.5235L916.829 82.4745L904.011 84.2435L896.421 86.2241" stroke="white" stroke-width="3.12419"/>
<path d="M2141.38 107.625L2145.83 106.078L2150.66 101.414L2154.15 92.9347L2156.57 83.4049" stroke="white" stroke-width="3.12419"/>
<path d="M2156.98 109.604L2160.73 115.484C2161.12 116.407 2161.88 118.257 2161.78 118.271L2160.39 119.796L2159.89 121.997L2160.31 125.005L2162.2 128.076L2164.6 130.011C2164.75 130.123 2165.28 131.116 2165.3 131.246C2165.32 131.377 2165.2 133.393 2162.5 132.167C2160.34 131.185 2159.36 129.756 2159.15 129.163L2157.32 129.416L2155.44 132.208L2155.62 133.516L2154.74 133.904L2155.44 139.004L2150.69 140.326L2149.68 144.597L2154.51 163.124L2152.61 165.785C2150.78 164.118 2149.11 154.895 2148.5 150.492L2146.47 149.306L2144.37 150.528C2144.55 152.813 2144.92 157.41 2144.94 157.514C2144.95 157.619 2143.59 157.39 2142.9 157.262L2142.09 151.376L2141.31 151.485L2141.74 154.624C2141.41 155.309 2140.09 155.562 2139.48 155.603" stroke="white" stroke-width="3.12419"/>
<path d="M2139.48 155.602L2139.04 152.463L2136.99 153.014L2134.98 151.959L2133.78 147.192L2130.18 147.156L2128.72 139.494L2126.86 139.485L2122.6 108.619L2121.64 108.484C2120.92 113.87 2119.48 124.669 2119.49 124.774C2119.51 124.878 2118.64 125.025 2118.2 125.085L2116.26 110.026L2111.36 139.225L2109.53 138.544L2106.25 146.594L2104.68 146.811L2103.9 145.986L2102.53 147.641C2101.69 150.849 2099.67 152.078 2098.77 152.291L2097.23 154.636L2096.13 154.389L2095.96 150.28L2094.26 150.515L2093.24 152.788L2093.64 155.665C2093.67 156.549 2093.4 157.99 2092.05 156.684C2090.69 155.378 2090.61 153.684 2090.74 153L2092.09 150.28L2091.28 148.26L2089.17 148.418L2087.56 150.24L2086.17 154.696L2086.13 160.167L2085.91 162.462L2083.42 164.672L2081.47 163.076L2081.83 159.96L2084.85 153.812L2086.8 143.813L2086.24 139.759L2082.24 137.78C2081.69 137.323 2080.77 136.036 2081.53 134.546C2082.28 133.056 2081.06 130.212 2080.36 128.976L2077.17 127.15L2078.01 123.569L2077.22 121.679M2077.22 121.679L2073.94 123.064L2072.21 125.969L2072.7 129.5L2067.86 130.168L2066.94 128.296L2070.05 125.734L2074.17 118.901L2073.36 116.881L2067.2 115.732L2066.61 114.347L2067.99 113.756L2063.57 110.636L2060.97 110.194C2060.1 110.003 2058.79 109.482 2060.53 108.922C2062.27 108.363 2061.91 107.622 2061.51 107.321L2059.02 104.732L2062.37 102.004L2062.77 101.016L2049.56 96.0426L2043.26 91.9797L2038.46 86.1127L2037.37 83.064L2038.63 80.624L2043.53 79.4149L2027.15 61.1509L2028.76 59.3288L2036.83 58.8815L2047.91 60.9506L2063.2 65.5043L2081.12 73.6928L2084.53 75.7129M2077.22 121.679L2076.14 116.764C2076.78 115.298 2078.47 111.405 2080.07 107.558M2118.29 95.7522L2114.54 86.0065L2105.93 68.0034L2094.64 50.9026L2084.41 41.5183C2082.82 41.5605 2079.63 41.6188 2079.61 41.5142C2079.6 41.4096 2078.92 44.8531 2078.58 46.588L2080.67 55.8964L2083.91 65.8451L2086.37 74.0351L2093.71 85.6837L2100.25 91.5776L2118.68 98.6295M2118.29 95.7522L2084.53 75.7129M2118.29 95.7522L2108.57 82.2998L2096.26 62.6735L2082.02 46.3802L2069.53 37.9748L2060.73 34.124C2057.89 33.4944 2052.47 33.3193 2053.49 37.656C2054.52 41.9927 2057.2 51.0052 2058.41 54.9694L2065.57 69.1752L2084.52 87.6847M2118.68 98.6295L2104.82 84.1492L2097.11 77.4842L2089.47 74.2738L2085.15 74.8695C2084.91 75.1231 2084.7 75.4071 2084.53 75.7129M2118.68 98.6295L2096.68 105.266M2096.68 105.266L2091.87 102.33L2088.4 98.4113L2085.27 93.1124L2084.52 87.6847M2096.68 105.266L2080.07 107.558M2084.53 75.7129C2083.33 77.7736 2083.5 80.8249 2083.77 82.257L2084.52 87.6847M2084.53 75.7129C2074.82 72.1816 2067.73 71.5878 2065.39 71.7324L2061.77 76.3644L2063.45 88.5277L2069.96 100.957L2080.07 107.558" stroke="white" stroke-width="3.12419"/>
<path d="M2118.27 95.6217L2118.4 94.6701L2119.1 92.9743L2120.02 92.8479L2121.25 94.0114L2121.76 95.8063M2121.76 95.8063L2122.97 92.9739L2126.84 84.3099L2130.76 76.9718L2134.98 68.9256L2140.55 60.0269L2146.82 52.3639L2151.89 46.5997L2155.2 44.5428L2160.21 43.1848L2162.36 43.2884L2163.15 49.043L2161.21 56.2412L2158.49 63.5476L2154.76 74.1915M2121.76 95.8063L2128.73 91.2461L2135.25 86.3477L2141.96 80.89L2146.96 77.5341L2150.86 75.8628M2121.76 95.8063C2124.48 91.699 2130.86 82.1817 2134.62 76.9715L2141.52 67.0895L2148.21 58.5695L2154.64 52.0835L2164.79 42.553L2173.53 37.3477C2175.98 36.6996 2180.89 35.3996 2180.99 35.3852C2181.1 35.3707 2184.59 36.0433 2186.33 36.3814L2187.03 38.5506L2187.07 41.7437L2184.59 48.8832L2178.93 61.9266L2172.86 73.9598L2168.29 79.521L2156.19 88.3888M2121.76 95.8063C2122.5 102.741 2126.67 104.991 2128.66 105.25L2137.67 106.805C2141.91 107.864 2150.4 109.979 2150.5 109.965C2154.95 110.524 2160.41 108.643 2162.58 107.632L2170.38 99.491C2173.44 93.8443 2176.34 86.6295 2177.4 83.728L2176.75 76.0882L2171.92 72.9564L2163.81 74.0756L2156.97 76.6853L2151.47 80.2442L2140.25 91.6554C2142.29 93.2398 2143.91 96.3482 2134.06 96.1074M2154.76 74.1915L2150.86 75.8628M2154.76 74.1915L2164.51 70.4473L2175.09 66.9872L2186.65 63.793L2198.29 62.1864L2207.21 63.0876L2207.51 65.311L2203.72 69.6996L2192.73 79.8796C2190.97 81.2779 2187.42 84.078 2187.32 84.0924C2187.19 84.1105 2180.29 86.2624 2180.3 86.3931L2171.42 88.685L2157.55 89.5342L2156.19 88.3888M2156.19 88.3888C2156.27 86.69 2156.47 83.2591 2156.66 83.1256C2156.97 80.7371 2155.73 77.6565 2155.07 76.4149L2150.86 75.8628" stroke="white" stroke-width="3.12419"/>
<path d="M2168.43 101.76L2178.5 100.37L2187.03 96.5266C2191.32 92.8425 2194.48 87.724 2195.52 85.6252L2190.31 82.613L2183.23 82.5235L2176.83 82.4745L2164.01 84.2435L2156.42 86.2241" stroke="white" stroke-width="3.12419"/>
<path d="M114.531 78.9703L109.365 86.3112C108.983 86.854 108.537 87.3486 108.036 87.7841C104.613 90.7609 99.4254 90.4031 96.4432 86.9845L89.4521 78.9703L79.1789 66.1288L67.2771 51.9867C66.6515 51.2433 65.9708 50.5482 65.2407 49.9072L53.9491 39.9926L46.3687 32.9695C44.5894 31.3211 42.5159 30.0221 40.2564 29.1403L39.2256 28.738C38.067 28.2859 36.8597 27.9704 35.628 27.798L31.717 27.2505C30.5606 27.0886 29.3839 27.3348 28.3895 27.9468C26.9045 28.8606 26 30.4793 26 32.2229V35.4777C26 36.0694 26.0484 36.6601 26.1448 37.2439L28.5683 51.9276C28.8973 56.5331 29.2262 64.9269 28.6887 70.4775C28.3816 73.6489 27.6618 76.8606 27.6618 80.0469V80.6678C27.6618 82.4484 27.9111 84.2321 28.396 85.9455C29.3923 89.4657 31.3736 92.6553 34.0969 95.0983L39.0778 99.5665C39.8256 100.237 40.6245 100.849 41.4673 101.395L50.8275 107.467C51.1875 107.701 51.4664 108.04 51.6258 108.438C52.0064 109.39 51.6362 110.477 50.7538 110.998L44.6121 114.627C43.1059 115.517 41.8487 116.773 40.9568 118.278L39.9791 119.928C38.3444 122.687 37.4818 125.834 37.4818 129.041V131.405C37.4818 133.202 37.7322 134.99 38.2259 136.717L39.5009 141.18C39.9658 142.807 40.6421 144.366 41.5126 145.817L45.1867 151.94L51.3808 160.401L55.2054 164.608C56.6738 166.223 58.4051 167.578 60.3259 168.615L60.6771 168.805C63.4998 170.329 66.6574 171.127 69.8654 171.127H71.0536C73.9168 171.127 76.753 170.487 79.3405 169.261C82.3954 167.814 85.028 165.587 86.9561 162.81L87.7903 161.609L92.6247 153.602L96.8549 144.991L99.1746 139.468C99.6913 138.237 100.896 137.437 102.23 137.437C103.226 137.437 104.17 137.885 104.799 138.657L106.313 140.515C106.853 141.178 107.288 141.921 107.604 142.716L109.762 148.165C110.121 149.069 110.547 149.945 111.037 150.785L115.682 158.749C116.323 159.847 117.071 160.88 117.914 161.832L119.744 163.896C121.585 165.973 123.851 167.629 126.389 168.752L127.04 169.041C130.122 170.405 133.522 170.889 136.862 170.439C138.683 170.194 140.457 169.675 142.123 168.9L143.588 168.219C145.258 167.442 146.808 166.431 148.192 165.216L151.154 162.615C151.917 161.945 152.626 161.217 153.274 160.436L158.947 153.602L163.636 146.75C164.436 145.581 165.105 144.327 165.631 143.012L166.478 140.895C167.391 138.61 167.861 136.173 167.861 133.713V131.233C167.861 129.834 167.709 128.438 167.408 127.072L166.935 124.925C166.254 121.836 164.795 118.972 162.697 116.605L160.693 114.343C160.239 113.832 159.681 113.424 159.056 113.149C155.619 111.634 155.222 106.915 158.358 104.848L164.303 100.928C164.66 100.692 164.999 100.431 165.317 100.145L170.769 95.2499C171.748 94.3702 172.636 93.3927 173.417 92.3328L174.734 90.5449C175.883 88.9855 176.737 87.2288 177.253 85.3618C178.027 82.5645 178.019 79.6086 177.229 76.8156L176.472 74.1359L175.506 69.4792C175.046 67.2628 174.978 64.9829 175.307 62.7432L176.472 54.7981L178.037 47.2139C178.302 45.9281 178.436 44.6187 178.436 43.3059V36.0208C178.436 35.051 178.259 34.0894 177.912 33.1836L177.607 32.3863C176.894 30.5202 175.333 29.1065 173.406 28.5809C172.157 28.2404 170.834 28.295 169.617 28.7372L166.3 29.9437C165.328 30.297 164.39 30.7364 163.496 31.2566L156.414 35.3793C155.286 36.0359 154.227 36.805 153.254 37.6749L144.746 45.2803L132.811 57.5174L122.538 69.1503L114.531 78.9703Z" stroke="white" stroke-width="4"/>
<path d="M107.278 98.7616C108.437 97.2508 110.783 94.2293 110.904 94.2293C111.025 94.2293 114.48 89.7977 116.192 87.5819L120.875 80.7835L126.163 74.4383C127.802 72.8416 131.06 69.7023 132.937 68.0041C133.549 67.4505 134.23 66.9821 134.963 66.602C137.007 65.5408 138.899 64.7296 140.558 64.1197C143.888 62.8946 147.033 65.3119 147.44 68.8374V68.8374C147.556 69.8384 147.439 70.8526 147.098 71.8011L146.403 73.7374C145.806 75.4007 145.501 77.1548 145.501 78.9221V82.171C145.501 83.2584 145.592 84.3439 145.775 85.4159L146.548 89.9555C146.655 90.5878 146.709 91.228 146.709 91.8694V91.8694C146.709 95.3631 145.108 98.664 142.364 100.827L134.563 106.976C134.124 107.322 133.868 107.944 133.868 108.503V108.503C133.868 109.086 134.149 109.537 134.607 109.898C136.954 111.745 138.647 113.746 139.761 115.381C140.92 117.084 141.271 119.156 141.271 121.216V121.911C141.271 125.255 140.403 128.542 138.753 131.451L137.023 134.502C136.033 136.247 134.778 137.827 133.303 139.186L131.227 141.098C130.276 141.974 129.177 142.676 127.982 143.172L127.712 143.284C125.084 144.374 122.123 144.333 119.526 143.171V143.171C118.42 142.676 117.409 141.99 116.54 141.145L114.903 139.554C113.257 137.954 111.91 136.074 110.923 134.002L109.393 130.79L106.372 123.085M51.5311 43.4676L55.911 47.8475C56.0122 47.9487 56.0999 48.0625 56.172 48.1861V48.1861C57.0259 49.6498 55.4034 51.3054 53.9227 50.4812L45.8432 45.9841C44.4563 45.2122 42.7071 45.8408 42.1287 47.3188V47.3188C41.9544 47.7644 41.9053 48.2491 41.9869 48.7205L42.987 54.4984C43.1434 55.4022 43.3639 56.2938 43.6469 57.1663L44.0916 58.5374C44.7165 60.4643 45.0348 62.4774 45.0348 64.5032V69.906V78.4029C45.0348 79.984 45.2287 81.5591 45.6122 83.093L46.2422 85.6131C46.8418 88.0113 47.8956 90.2723 49.3466 92.2737L51.5311 95.2868V95.2868C52.8792 97.264 50.8352 99.7856 48.6218 98.876L45.6068 97.637C45.2286 97.4815 44.8816 97.2589 44.5827 96.9799L43.0577 95.5566C41.3773 93.9882 40.0848 92.0504 39.2823 89.8964L37.6321 85.4669L36.7929 81.9239C36.4471 80.4636 36.2724 78.9679 36.2724 77.4672V70.9635V58.2731C36.2724 56.1059 36.0873 50.5363 35.3707 44.6812C35.2721 43.8759 35.2796 43.0605 35.4071 42.2593L35.8331 39.5811C36.0995 37.9069 37.3398 36.5534 38.9845 36.1422V36.1422C39.9641 35.8973 40.9989 36.0109 41.902 36.4625L43.9442 37.4835C44.6688 37.8458 45.3486 38.2915 45.9697 38.8116L51.5311 43.4676ZM157.285 119.761C157.166 119.761 153.334 116.935 151.34 115.453C151.274 115.404 151.203 115.363 151.128 115.331V115.331C150.077 114.875 149.141 116.165 149.9 117.023L153.292 120.857C153.533 121.129 153.703 121.457 153.787 121.811L154.399 124.396C154.807 126.122 154.853 127.913 154.533 129.657L154.155 131.716C153.826 133.507 153.246 135.242 152.431 136.871L151.029 139.675C150.467 140.799 149.797 141.866 149.028 142.859L143.99 149.372L140.464 152.993C139.097 154.397 137.51 155.568 135.766 156.461V156.461C133.227 157.76 130.417 158.437 127.566 158.437H125.101C125.004 158.437 124.907 158.424 124.813 158.397V158.397C123.674 158.081 122.93 159.565 123.866 160.288L125.893 161.854C126.071 161.992 126.276 162.089 126.495 162.141L128.987 162.731C130.908 163.186 132.906 163.213 134.838 162.808L135.226 162.727C137.319 162.289 139.295 161.415 141.028 160.162L143.175 158.608C144.717 157.493 146.086 156.156 147.237 154.641L151.242 149.372L155.144 144.201C156.559 142.326 157.641 140.215 158.139 137.919C158.896 134.427 159.702 129.448 159.702 124.747C159.702 124.596 157.436 119.761 157.285 119.761ZM47.6031 140.459L46.0188 136.079C45.3678 134.279 45.0348 132.379 45.0348 130.465V130.465C45.0348 128.188 45.5059 125.936 46.4185 123.85L47.5957 121.16C48.0021 120.231 48.5171 119.353 49.1299 118.545L51.2003 115.816C51.4158 115.532 51.7121 115.32 52.0503 115.207V115.207C53.6957 114.658 55.0657 116.559 54.0251 117.947L51.8925 120.79C51.6541 121.108 51.4841 121.472 51.3932 121.858L50.7002 124.803C50.0552 127.544 50.0875 130.401 50.7942 133.127L50.9382 133.683C51.5299 135.965 52.534 138.12 53.9009 140.041L57.4231 144.991L60.269 148.939C61.486 150.627 62.9675 152.107 64.6562 153.323L66.1713 154.414C68.4692 156.068 71.1025 157.198 73.885 157.723L77.5024 158.406C77.6121 158.426 77.7235 158.437 77.8352 158.437V158.437C79.6318 158.437 80.3102 160.779 78.7867 161.731C77.261 162.685 76.0624 163.422 76.0055 163.422C75.8846 163.422 72.5307 163.422 70.8689 163.422V163.422C67.5857 163.422 64.428 162.118 62.1065 159.796V159.796L56.3656 154.207L52.9282 149.853C52.1998 148.93 51.557 147.943 51.0078 146.903L47.6031 140.459Z" stroke="white" stroke-width="4"/>
<path d="M98.2139 99.3661L88.2428 86.0713L78.8895 74.7137C78.0768 73.7269 77.1683 72.8231 76.1773 72.0156L66.8135 64.3858C65.9188 63.6569 64.8001 63.2588 63.6461 63.2588V63.2588C60.8768 63.2588 58.6319 65.5037 58.6319 68.273V73.2298C58.6319 81.2423 58.1802 86.4953 57.7306 89.5149C57.4455 91.4298 57.3847 93.4184 57.8774 95.2906V95.2906C58.3689 97.1583 59.4123 98.8344 60.8712 100.1L66.7663 105.214C69.0246 107.173 68.8835 110.721 66.4767 112.494V112.494C65.7921 112.998 65.2584 113.68 64.9333 114.466L64.3721 115.822C63.8738 117.027 63.6174 118.317 63.6174 119.62V121.175C63.6174 122.545 63.7758 123.909 64.0894 125.242L64.5953 127.392C65.1471 129.738 66.1322 131.959 67.5 133.942L67.5604 134.03C68.1537 134.89 68.8158 135.701 69.5402 136.454L72.2287 139.25L72.8389 139.957C74.3192 141.671 76.2281 142.961 78.3705 143.696L78.789 143.839C79.8469 144.202 80.9577 144.387 82.0761 144.387V144.387C84.4039 144.387 86.6607 143.586 88.4674 142.118L88.6821 141.943C89.8862 140.965 90.8679 139.741 91.5617 138.353L93.0773 135.322L98.2139 125.502" stroke="white" stroke-width="4"/>
<path d="M1374.53 78.9703L1369.36 86.3112C1368.98 86.854 1368.54 87.3486 1368.04 87.7841C1364.61 90.7609 1359.43 90.4031 1356.44 86.9845L1349.45 78.9703L1339.18 66.1288L1327.28 51.9867C1326.65 51.2433 1325.97 50.5482 1325.24 49.9072L1313.95 39.9926L1306.37 32.9695C1304.59 31.3211 1302.52 30.0221 1300.26 29.1403L1299.23 28.738C1298.07 28.2859 1296.86 27.9704 1295.63 27.798L1291.72 27.2505C1290.56 27.0886 1289.38 27.3348 1288.39 27.9468C1286.9 28.8606 1286 30.4793 1286 32.2229V35.4777C1286 36.0694 1286.05 36.6601 1286.14 37.2439L1288.57 51.9276C1288.9 56.5331 1289.23 64.9269 1288.69 70.4775C1288.38 73.6489 1287.66 76.8606 1287.66 80.0469V80.6678C1287.66 82.4484 1287.91 84.2321 1288.4 85.9455C1289.39 89.4657 1291.37 92.6553 1294.1 95.0983L1299.08 99.5665C1299.83 100.237 1300.62 100.849 1301.47 101.395L1310.83 107.467C1311.19 107.701 1311.47 108.04 1311.63 108.438C1312.01 109.39 1311.64 110.477 1310.75 110.998L1304.61 114.627C1303.11 115.517 1301.85 116.773 1300.96 118.278L1299.98 119.928C1298.34 122.687 1297.48 125.834 1297.48 129.041V131.405C1297.48 133.202 1297.73 134.99 1298.23 136.717L1299.5 141.18C1299.97 142.807 1300.64 144.366 1301.51 145.817L1305.19 151.94L1311.38 160.401L1315.21 164.608C1316.67 166.223 1318.41 167.578 1320.33 168.615L1320.68 168.805C1323.5 170.329 1326.66 171.127 1329.87 171.127H1331.05C1333.92 171.127 1336.75 170.487 1339.34 169.261C1342.4 167.814 1345.03 165.587 1346.96 162.81L1347.79 161.609L1352.62 153.602L1356.85 144.991L1359.17 139.468C1359.69 138.237 1360.9 137.437 1362.23 137.437C1363.23 137.437 1364.17 137.885 1364.8 138.657L1366.31 140.515C1366.85 141.178 1367.29 141.921 1367.6 142.716L1369.76 148.165C1370.12 149.069 1370.55 149.945 1371.04 150.785L1375.68 158.749C1376.32 159.847 1377.07 160.88 1377.91 161.832L1379.74 163.896C1381.59 165.973 1383.85 167.629 1386.39 168.752L1387.04 169.041C1390.12 170.405 1393.52 170.889 1396.86 170.439C1398.68 170.194 1400.46 169.675 1402.12 168.9L1403.59 168.219C1405.26 167.442 1406.81 166.431 1408.19 165.216L1411.15 162.615C1411.92 161.945 1412.63 161.217 1413.27 160.436L1418.95 153.602L1423.64 146.75C1424.44 145.581 1425.1 144.327 1425.63 143.012L1426.48 140.895C1427.39 138.61 1427.86 136.173 1427.86 133.713V131.233C1427.86 129.834 1427.71 128.438 1427.41 127.072L1426.93 124.925C1426.25 121.836 1424.8 118.972 1422.7 116.605L1420.69 114.343C1420.24 113.832 1419.68 113.424 1419.06 113.149C1415.62 111.634 1415.22 106.915 1418.36 104.848L1424.3 100.928C1424.66 100.692 1425 100.431 1425.32 100.145L1430.77 95.2499C1431.75 94.3702 1432.64 93.3927 1433.42 92.3328L1434.73 90.5449C1435.88 88.9855 1436.74 87.2288 1437.25 85.3618C1438.03 82.5645 1438.02 79.6086 1437.23 76.8156L1436.47 74.1359L1435.51 69.4792C1435.05 67.2628 1434.98 64.9829 1435.31 62.7432L1436.47 54.7981L1438.04 47.2139C1438.3 45.9281 1438.44 44.6187 1438.44 43.3059V36.0208C1438.44 35.051 1438.26 34.0894 1437.91 33.1836L1437.61 32.3863C1436.89 30.5202 1435.33 29.1065 1433.41 28.5809C1432.16 28.2404 1430.83 28.295 1429.62 28.7372L1426.3 29.9437C1425.33 30.297 1424.39 30.7364 1423.5 31.2566L1416.41 35.3793C1415.29 36.0359 1414.23 36.805 1413.25 37.6749L1404.75 45.2803L1392.81 57.5174L1382.54 69.1503L1374.53 78.9703Z" stroke="white" stroke-width="4"/>
<path d="M1367.28 98.7616C1368.44 97.2508 1370.78 94.2293 1370.9 94.2293C1371.03 94.2293 1374.48 89.7977 1376.19 87.5819L1380.88 80.7835L1386.16 74.4383C1387.8 72.8416 1391.06 69.7023 1392.94 68.0041C1393.55 67.4505 1394.23 66.9821 1394.96 66.602C1397.01 65.5408 1398.9 64.7296 1400.56 64.1197C1403.89 62.8946 1407.03 65.3119 1407.44 68.8374V68.8374C1407.56 69.8384 1407.44 70.8526 1407.1 71.8011L1406.4 73.7374C1405.81 75.4007 1405.5 77.1548 1405.5 78.9221V82.171C1405.5 83.2584 1405.59 84.3439 1405.77 85.4159L1406.55 89.9555C1406.66 90.5878 1406.71 91.228 1406.71 91.8694V91.8694C1406.71 95.3631 1405.11 98.664 1402.36 100.827L1394.56 106.976C1394.12 107.322 1393.87 107.944 1393.87 108.503V108.503C1393.87 109.086 1394.15 109.537 1394.61 109.898C1396.95 111.745 1398.65 113.746 1399.76 115.381C1400.92 117.084 1401.27 119.156 1401.27 121.216V121.911C1401.27 125.255 1400.4 128.542 1398.75 131.451L1397.02 134.502C1396.03 136.247 1394.78 137.827 1393.3 139.186L1391.23 141.098C1390.28 141.974 1389.18 142.676 1387.98 143.172L1387.71 143.284C1385.08 144.374 1382.12 144.333 1379.53 143.171V143.171C1378.42 142.676 1377.41 141.99 1376.54 141.145L1374.9 139.554C1373.26 137.954 1371.91 136.074 1370.92 134.002L1369.39 130.79L1366.37 123.085M1311.53 43.4676L1315.91 47.8475C1316.01 47.9487 1316.1 48.0625 1316.17 48.1861V48.1861C1317.03 49.6498 1315.4 51.3054 1313.92 50.4812L1305.84 45.9841C1304.46 45.2122 1302.71 45.8408 1302.13 47.3188V47.3188C1301.95 47.7644 1301.91 48.2491 1301.99 48.7205L1302.99 54.4984C1303.14 55.4022 1303.36 56.2938 1303.65 57.1663L1304.09 58.5374C1304.72 60.4643 1305.03 62.4774 1305.03 64.5032V69.906V78.4029C1305.03 79.984 1305.23 81.5591 1305.61 83.093L1306.24 85.6131C1306.84 88.0113 1307.9 90.2723 1309.35 92.2737L1311.53 95.2868V95.2868C1312.88 97.264 1310.84 99.7856 1308.62 98.876L1305.61 97.637C1305.23 97.4815 1304.88 97.2589 1304.58 96.9799L1303.06 95.5566C1301.38 93.9882 1300.08 92.0504 1299.28 89.8964L1297.63 85.4669L1296.79 81.9239C1296.45 80.4636 1296.27 78.9679 1296.27 77.4672V70.9635V58.2731C1296.27 56.1059 1296.09 50.5363 1295.37 44.6812C1295.27 43.8759 1295.28 43.0605 1295.41 42.2593L1295.83 39.5811C1296.1 37.9069 1297.34 36.5534 1298.98 36.1422V36.1422C1299.96 35.8973 1301 36.0109 1301.9 36.4625L1303.94 37.4835C1304.67 37.8458 1305.35 38.2915 1305.97 38.8116L1311.53 43.4676ZM1417.28 119.761C1417.17 119.761 1413.33 116.935 1411.34 115.453C1411.27 115.404 1411.2 115.363 1411.13 115.331V115.331C1410.08 114.875 1409.14 116.165 1409.9 117.023L1413.29 120.857C1413.53 121.129 1413.7 121.457 1413.79 121.811L1414.4 124.396C1414.81 126.122 1414.85 127.913 1414.53 129.657L1414.15 131.716C1413.83 133.507 1413.25 135.242 1412.43 136.871L1411.03 139.675C1410.47 140.799 1409.8 141.866 1409.03 142.859L1403.99 149.372L1400.46 152.993C1399.1 154.397 1397.51 155.568 1395.77 156.461V156.461C1393.23 157.76 1390.42 158.437 1387.57 158.437H1385.1C1385 158.437 1384.91 158.424 1384.81 158.397V158.397C1383.67 158.081 1382.93 159.565 1383.87 160.288L1385.89 161.854C1386.07 161.992 1386.28 162.089 1386.49 162.141L1388.99 162.731C1390.91 163.186 1392.91 163.213 1394.84 162.808L1395.23 162.727C1397.32 162.289 1399.3 161.415 1401.03 160.162L1403.18 158.608C1404.72 157.493 1406.09 156.156 1407.24 154.641L1411.24 149.372L1415.14 144.201C1416.56 142.326 1417.64 140.215 1418.14 137.919C1418.9 134.427 1419.7 129.448 1419.7 124.747C1419.7 124.596 1417.44 119.761 1417.28 119.761ZM1307.6 140.459L1306.02 136.079C1305.37 134.279 1305.03 132.379 1305.03 130.465V130.465C1305.03 128.188 1305.51 125.936 1306.42 123.85L1307.6 121.16C1308 120.231 1308.52 119.353 1309.13 118.545L1311.2 115.816C1311.42 115.532 1311.71 115.32 1312.05 115.207V115.207C1313.7 114.658 1315.07 116.559 1314.03 117.947L1311.89 120.79C1311.65 121.108 1311.48 121.472 1311.39 121.858L1310.7 124.803C1310.06 127.544 1310.09 130.401 1310.79 133.127L1310.94 133.683C1311.53 135.965 1312.53 138.12 1313.9 140.041L1317.42 144.991L1320.27 148.939C1321.49 150.627 1322.97 152.107 1324.66 153.323L1326.17 154.414C1328.47 156.068 1331.1 157.198 1333.89 157.723L1337.5 158.406C1337.61 158.426 1337.72 158.437 1337.84 158.437V158.437C1339.63 158.437 1340.31 160.779 1338.79 161.731C1337.26 162.685 1336.06 163.422 1336.01 163.422C1335.88 163.422 1332.53 163.422 1330.87 163.422V163.422C1327.59 163.422 1324.43 162.118 1322.11 159.796V159.796L1316.37 154.207L1312.93 149.853C1312.2 148.93 1311.56 147.943 1311.01 146.903L1307.6 140.459Z" stroke="white" stroke-width="4"/>
<path d="M1358.21 99.3661L1348.24 86.0713L1338.89 74.7137C1338.08 73.7269 1337.17 72.8231 1336.18 72.0156L1326.81 64.3858C1325.92 63.6569 1324.8 63.2588 1323.65 63.2588V63.2588C1320.88 63.2588 1318.63 65.5037 1318.63 68.273V73.2298C1318.63 81.2423 1318.18 86.4953 1317.73 89.5149C1317.45 91.4298 1317.38 93.4184 1317.88 95.2906V95.2906C1318.37 97.1583 1319.41 98.8344 1320.87 100.1L1326.77 105.214C1329.02 107.173 1328.88 110.721 1326.48 112.494V112.494C1325.79 112.998 1325.26 113.68 1324.93 114.466L1324.37 115.822C1323.87 117.027 1323.62 118.317 1323.62 119.62V121.175C1323.62 122.545 1323.78 123.909 1324.09 125.242L1324.6 127.392C1325.15 129.738 1326.13 131.959 1327.5 133.942L1327.56 134.03C1328.15 134.89 1328.82 135.701 1329.54 136.454L1332.23 139.25L1332.84 139.957C1334.32 141.671 1336.23 142.961 1338.37 143.696L1338.79 143.839C1339.85 144.202 1340.96 144.387 1342.08 144.387V144.387C1344.4 144.387 1346.66 143.586 1348.47 142.118L1348.68 141.943C1349.89 140.965 1350.87 139.741 1351.56 138.353L1353.08 135.322L1358.21 125.502" stroke="white" stroke-width="4"/>
<path d="M361.82 82.7528L360.064 86.9129C359.523 88.1922 357.711 88.1929 357.17 86.9139C356.924 86.3327 356.354 85.9551 355.723 85.9551H354.782C354.152 85.9551 353.592 86.3541 353.386 86.949C352.955 88.1951 351.231 88.2944 350.659 87.1061L348.035 81.6505C346.554 78.5719 344.788 75.6391 342.759 72.8905L339.767 68.8363C336.839 64.8693 333.455 61.26 329.684 58.0827L320.36 50.2247L314.565 46.2451C309.11 42.499 303.421 39.0767 297.376 36.3841C296.102 35.8165 295.247 35.4702 295.247 35.5618C295.247 35.8989 289.685 33.3708 277.719 31.6854C276.88 31.636 276.106 32.2175 275.431 33.0875C273.031 36.1815 273 40.4102 273 44.3258V45.3394C273 53.7337 274.021 62.0968 276.04 70.2447C277.158 74.7566 278.619 79.1765 280.411 83.4657L280.816 84.437C282.444 88.3347 284.8 91.8867 287.757 94.903L288.506 95.6666C290.622 97.825 293.122 99.5702 295.877 100.813C298.817 102.138 301.91 103.092 305.085 103.653L310.713 104.646C313.314 105.105 315.961 105.24 318.595 105.049L330.968 104.149C332.157 104.062 332.616 104.842 331.557 105.389C329.184 106.615 323.834 108.339 313.241 110.192C311.024 110.579 304.967 112.278 302.847 113.035C302.61 113.12 302.38 113.201 302.162 113.279C301.808 113.404 299.873 114.309 299.564 114.522C297.311 116.063 294.447 118.462 292.897 120.708L290.36 124.382C288.369 128.032 287.326 132.122 287.326 136.279V140.225C287.607 142.978 288.472 149.157 289.685 151.854C290.856 154.456 295.154 158.207 297.372 159.932C297.528 160.053 297.693 160.161 297.866 160.257L304.272 163.83C305.644 164.595 307.202 164.963 308.771 164.892L317.343 164.507C317.447 164.502 317.551 164.489 317.654 164.467C318.524 164.281 329.243 159.19 329.954 158.656C330.714 158.085 331.293 157.654 331.455 157.534C331.488 157.509 331.515 157.486 331.546 157.458L337.042 152.468C337.492 152.06 337.888 151.598 338.223 151.092L344.292 141.91L352.146 127.165C352.378 126.73 352.491 126.24 352.474 125.746C352.443 124.831 353.759 124.654 353.971 125.545L355.255 130.954C355.349 131.35 355.703 131.629 356.109 131.629C356.498 131.629 356.84 131.374 356.95 131.002C357.6 128.809 358.618 125.347 358.618 125.225C358.618 125.09 360.753 128.315 361.82 129.944L364.517 135.674C367.319 141.278 370.676 146.587 374.537 151.521L374.798 151.854L375.871 153.258C378.06 156.12 380.735 158.574 383.775 160.509C384.416 160.916 385.112 161.231 385.842 161.442L387.924 162.043C390.844 162.887 393.868 163.315 396.907 163.315H399.404H400.85C404.119 163.315 407.349 162.618 410.327 161.271C412.023 160.504 413.582 159.465 414.945 158.197L417.775 155.562L419.045 154.117C421.425 151.409 423.153 148.19 424.096 144.709L424.266 144.081C424.656 142.64 424.854 141.154 424.854 139.661C424.854 136.003 424.507 132.337 423.383 128.856C422.585 126.386 421.547 123.667 420.345 121.459C419.997 120.82 418.804 119.242 418.33 118.691C416.225 116.246 413.015 113.24 410.144 111.77L409.361 111.369C407.003 110.162 404.498 109.268 401.908 108.71L394.854 107.191L382.323 105.353C382.25 105.342 382.179 105.322 382.112 105.292C381.345 104.951 381.542 103.811 382.38 103.748L394.854 102.809H406.952C408.313 102.809 409.663 102.559 410.934 102.072L416.834 99.8101C418.342 99.232 419.706 98.3326 420.832 97.1742L423.928 93.9867C424.543 93.3536 425.081 92.6496 425.529 91.8895L430.101 84.1428C430.645 83.221 431.053 82.2254 431.313 81.187L433.618 71.9663L435.697 57.4118C435.772 56.8907 435.809 56.365 435.809 55.8387V44.3258V37.0978C435.809 34.7642 434.662 32.5797 432.741 31.2548C431.556 30.4376 430.15 30 428.711 30H425.349C423.583 30 421.844 30.4201 420.273 31.2256L416.09 33.3708C413.507 34.5889 407.291 37.8776 400.849 42.2474C398.942 43.5406 396.903 44.9457 395 46.2568L394.883 46.3374C393.047 47.6031 390.774 49.1875 389.292 50.2247L382.213 56.6292L375.506 62.2695C375.035 62.6659 374.597 63.1 374.199 63.5698C372.832 65.1819 370.869 67.5203 370.753 67.7528C370.618 68.0225 367.775 72.4719 366.371 74.6629L361.82 82.7528Z" stroke="white" stroke-width="3"/>
<path d="M1621.82 82.7528L1620.06 86.9129C1619.52 88.1922 1617.71 88.1929 1617.17 86.9139C1616.92 86.3327 1616.35 85.9551 1615.72 85.9551H1614.78C1614.15 85.9551 1613.59 86.3541 1613.39 86.949C1612.95 88.1951 1611.23 88.2944 1610.66 87.1061L1608.04 81.6505C1606.55 78.5719 1604.79 75.6391 1602.76 72.8905L1599.77 68.8363C1596.84 64.8693 1593.45 61.26 1589.68 58.0827L1580.36 50.2247L1574.56 46.2451C1569.11 42.499 1563.42 39.0767 1557.38 36.3841C1556.1 35.8165 1555.25 35.4702 1555.25 35.5618C1555.25 35.8989 1549.69 33.3708 1537.72 31.6854C1536.88 31.636 1536.11 32.2175 1535.43 33.0875C1533.03 36.1815 1533 40.4102 1533 44.3258V45.3394C1533 53.7337 1534.02 62.0968 1536.04 70.2447C1537.16 74.7566 1538.62 79.1765 1540.41 83.4657L1540.82 84.437C1542.44 88.3347 1544.8 91.8867 1547.76 94.903L1548.51 95.6666C1550.62 97.825 1553.12 99.5702 1555.88 100.813C1558.82 102.138 1561.91 103.092 1565.08 103.653L1570.71 104.646C1573.31 105.105 1575.96 105.24 1578.6 105.049L1590.97 104.149C1592.16 104.062 1592.62 104.842 1591.56 105.389C1589.18 106.615 1583.83 108.339 1573.24 110.192C1571.02 110.579 1564.97 112.278 1562.85 113.035C1562.61 113.12 1562.38 113.201 1562.16 113.279C1561.81 113.404 1559.87 114.309 1559.56 114.522C1557.31 116.063 1554.45 118.462 1552.9 120.708L1550.36 124.382C1548.37 128.032 1547.33 132.122 1547.33 136.279V140.225C1547.61 142.978 1548.47 149.157 1549.69 151.854C1550.86 154.456 1555.15 158.207 1557.37 159.932C1557.53 160.053 1557.69 160.161 1557.87 160.257L1564.27 163.83C1565.64 164.595 1567.2 164.963 1568.77 164.892L1577.34 164.507C1577.45 164.502 1577.55 164.489 1577.65 164.467C1578.52 164.281 1589.24 159.19 1589.95 158.656C1590.71 158.085 1591.29 157.654 1591.45 157.534C1591.49 157.509 1591.52 157.486 1591.55 157.458L1597.04 152.468C1597.49 152.06 1597.89 151.598 1598.22 151.092L1604.29 141.91L1612.15 127.165C1612.38 126.73 1612.49 126.24 1612.47 125.746C1612.44 124.831 1613.76 124.654 1613.97 125.545L1615.26 130.954C1615.35 131.35 1615.7 131.629 1616.11 131.629C1616.5 131.629 1616.84 131.374 1616.95 131.002C1617.6 128.809 1618.62 125.347 1618.62 125.225C1618.62 125.09 1620.75 128.315 1621.82 129.944L1624.52 135.674C1627.32 141.278 1630.68 146.587 1634.54 151.521L1634.8 151.854L1635.87 153.258C1638.06 156.12 1640.74 158.574 1643.77 160.509C1644.42 160.916 1645.11 161.231 1645.84 161.442L1647.92 162.043C1650.84 162.887 1653.87 163.315 1656.91 163.315H1659.4H1660.85C1664.12 163.315 1667.35 162.618 1670.33 161.271C1672.02 160.504 1673.58 159.465 1674.94 158.197L1677.78 155.562L1679.04 154.117C1681.43 151.409 1683.15 148.19 1684.1 144.709L1684.27 144.081C1684.66 142.64 1684.85 141.154 1684.85 139.661C1684.85 136.003 1684.51 132.337 1683.38 128.856C1682.58 126.386 1681.55 123.667 1680.34 121.459C1680 120.82 1678.8 119.242 1678.33 118.691C1676.23 116.246 1673.02 113.24 1670.14 111.77L1669.36 111.369C1667 110.162 1664.5 109.268 1661.91 108.71L1654.85 107.191L1642.32 105.353C1642.25 105.342 1642.18 105.322 1642.11 105.292C1641.34 104.951 1641.54 103.811 1642.38 103.748L1654.85 102.809H1666.95C1668.31 102.809 1669.66 102.559 1670.93 102.072L1676.83 99.8101C1678.34 99.232 1679.71 98.3326 1680.83 97.1742L1683.93 93.9867C1684.54 93.3536 1685.08 92.6496 1685.53 91.8895L1690.1 84.1428C1690.64 83.221 1691.05 82.2254 1691.31 81.187L1693.62 71.9663L1695.7 57.4118C1695.77 56.8907 1695.81 56.365 1695.81 55.8387V44.3258V37.0978C1695.81 34.7642 1694.66 32.5797 1692.74 31.2548C1691.56 30.4376 1690.15 30 1688.71 30H1685.35C1683.58 30 1681.84 30.4201 1680.27 31.2256L1676.09 33.3708C1673.51 34.5889 1667.29 37.8776 1660.85 42.2474C1658.94 43.5406 1656.9 44.9457 1655 46.2568L1654.88 46.3374C1653.05 47.6031 1650.77 49.1875 1649.29 50.2247L1642.21 56.6292L1635.51 62.2695C1635.03 62.6659 1634.6 63.1 1634.2 63.5698C1632.83 65.1819 1630.87 67.5203 1630.75 67.7528C1630.62 68.0225 1627.78 72.4719 1626.37 74.6629L1621.82 82.7528Z" stroke="white" stroke-width="3"/>
<path d="M616.805 73.6294L613.633 77.8355C612.055 79.9286 608.724 78.909 608.587 76.2911L608.574 76.0421C608.504 74.6897 607.386 73.6294 606.032 73.6294C604.64 73.6294 603.506 74.7483 603.487 76.1407L603.482 76.5438C603.446 79.219 600.156 80.4724 598.349 78.4994L590.777 70.2311L579.424 56.298C576.138 53.2309 569.089 46.7745 562.29 40.8617C558.493 37.5592 553.986 35.1939 549.147 33.8114L547.629 33.3778C546.404 33.0278 544.823 32.8802 543.55 32.9121C540.241 32.995 529.833 34.5329 526.784 35.8213C526.715 35.8502 526.647 35.8791 526.58 35.9081C523.725 37.1315 523.805 40.9489 524.201 42.7047L524.283 42.9282C525.796 47.0348 528.183 50.7641 531.277 53.8588L532.821 55.4022C533.394 55.9757 533.716 56.7537 533.716 57.5648V62.9247L534.025 66.323L534.682 69.7398C534.81 70.4054 535.006 71.056 535.267 71.6816C536.604 74.8867 538.427 77.8664 540.673 80.5158L545.78 86.543L551.15 93.6534C551.728 94.4189 552.631 94.8689 553.59 94.8689H555.894C558.331 94.8689 559.79 97.5809 558.445 99.6141L548.81 114.187C548.292 114.971 548.163 115.949 548.46 116.841L549.871 121.075C549.975 121.387 550.028 121.713 550.028 122.042V125.624C550.028 127.313 551.398 128.682 553.087 128.682H553.427C555.116 128.682 556.485 130.051 556.485 131.741V136.158C556.485 137.848 557.854 139.217 559.544 139.217H561.413C563.102 139.217 564.471 140.586 564.471 142.275V146.836C564.471 147.409 564.31 147.97 564.006 148.457L558.524 157.228C556.995 160.513 553.936 167.831 553.936 170.821C553.936 173.812 555.636 174.673 556.485 174.729H558.524C560.213 174.729 561.583 173.36 561.583 171.671V170.821V161.58C561.583 161.066 561.712 160.56 561.959 160.109L564.471 155.529L568.261 150.223C568.561 149.802 568.964 149.465 569.43 149.242L570.427 148.765C571.692 148.16 573.21 148.57 573.998 149.729C574.848 150.979 576.529 151.344 577.821 150.558L578.28 150.278C579.009 149.834 579.89 149.715 580.711 149.949L584.709 151.092C586.372 151.567 588.097 150.57 588.517 148.893L589.99 143C590.187 142.21 590.692 141.531 591.392 141.114L597.354 137.562C597.956 137.204 598.417 136.649 598.659 135.992L600.663 130.551L602.2 125.459C602.585 124.186 604.364 124.123 604.837 125.366L604.912 125.562C605.336 126.676 606.906 126.692 607.353 125.587C607.841 124.382 609.597 124.545 609.855 125.819L611.494 133.915C611.632 134.597 611.999 135.212 612.534 135.657L616.499 138.962C616.702 139.131 616.883 139.326 617.036 139.542L620.304 144.148C620.463 144.371 620.591 144.615 620.685 144.872L622.277 149.252C622.83 150.773 624.473 151.6 626.024 151.138L630.135 149.913C630.852 149.7 631.623 149.757 632.301 150.073L634.317 151.014C635.525 151.578 636.973 151.279 637.875 150.298C639.125 148.94 641.305 148.965 642.491 150.378L647.524 156.375C647.986 156.926 648.24 157.622 648.24 158.341V167.083V171.671C648.24 173.36 649.609 174.729 651.298 174.729H652.181C653.399 174.729 654.501 174.007 654.986 172.89L655.523 171.655C655.76 171.111 655.833 170.51 655.734 169.925L654.297 161.446C654.224 161.018 654.061 160.61 653.819 160.249L648.578 152.463C648.354 152.131 648.198 151.759 648.118 151.368L646.862 145.224C646.762 144.738 646.783 144.235 646.921 143.759L647.599 141.423C647.979 140.116 649.176 139.217 650.537 139.217H651.128C652.817 139.217 654.187 137.848 654.187 136.158V131.741C654.187 130.051 655.556 128.682 657.245 128.682H657.412C659.761 128.682 661.233 126.145 660.068 124.106L659.981 123.955C659.2 122.588 659.584 120.852 660.869 119.942L661.392 119.571C662.201 118.998 662.683 118.067 662.683 117.075V114.972C662.683 114.278 662.446 113.604 662.012 113.062L658.605 108.802L654.381 102.304C654.252 102.106 654.1 101.923 653.929 101.759L652.134 100.046C650.173 98.1745 651.498 94.8689 654.208 94.8689H654.897C657.245 94.8689 659.471 93.8216 660.968 92.0125C662.102 90.6427 662.982 89.0814 663.566 87.4021L663.721 86.9553C664.811 83.8212 666.895 81.1291 669.656 79.2885L671.008 78.387L673.257 76.5883C675.595 74.7181 676.955 71.8866 676.955 68.8928V67.8439C676.955 66.9458 676.859 66.0504 676.669 65.1728L675.747 60.935C675.428 59.465 675.567 57.9323 676.145 56.5436C676.674 55.2745 677.561 54.1868 678.697 53.4131L682.423 50.8766C684.072 49.7535 685.392 48.2108 686.246 46.4074L686.589 45.683C687.484 43.7933 687.506 41.6062 686.648 39.6994L686.603 39.5997C685.529 37.2139 683.655 35.2786 681.305 34.1287L679.499 33.2445C677.831 32.4284 675.983 32.0351 674.139 32.2521C670.264 32.7083 664.625 33.7536 658.771 35.7067C655.796 36.6992 642.166 46.0868 639.846 48.1974C638.561 49.3666 637.335 50.4769 636.346 51.3704L625.981 62.9247L616.805 73.6294Z" stroke="white" stroke-width="4"/>
<path d="M1876.81 73.6294L1873.63 77.8355C1872.06 79.9286 1868.72 78.909 1868.59 76.2911L1868.57 76.0421C1868.5 74.6897 1867.39 73.6294 1866.03 73.6294C1864.64 73.6294 1863.51 74.7483 1863.49 76.1407L1863.48 76.5438C1863.45 79.219 1860.16 80.4724 1858.35 78.4994L1850.78 70.2311L1839.42 56.298C1836.14 53.2309 1829.09 46.7745 1822.29 40.8617C1818.49 37.5592 1813.99 35.1939 1809.15 33.8114L1807.63 33.3778C1806.4 33.0278 1804.82 32.8802 1803.55 32.9121C1800.24 32.995 1789.83 34.5329 1786.78 35.8213C1786.72 35.8502 1786.65 35.8791 1786.58 35.9081C1783.73 37.1315 1783.8 40.9489 1784.2 42.7047L1784.28 42.9282C1785.8 47.0348 1788.18 50.7641 1791.28 53.8588L1792.82 55.4022C1793.39 55.9757 1793.72 56.7537 1793.72 57.5648V62.9247L1794.03 66.323L1794.68 69.7398C1794.81 70.4054 1795.01 71.056 1795.27 71.6816C1796.6 74.8867 1798.43 77.8664 1800.67 80.5158L1805.78 86.543L1811.15 93.6534C1811.73 94.4189 1812.63 94.8689 1813.59 94.8689H1815.89C1818.33 94.8689 1819.79 97.5809 1818.45 99.6141L1808.81 114.187C1808.29 114.971 1808.16 115.949 1808.46 116.841L1809.87 121.075C1809.98 121.387 1810.03 121.713 1810.03 122.042V125.624C1810.03 127.313 1811.4 128.682 1813.09 128.682H1813.43C1815.12 128.682 1816.49 130.051 1816.49 131.741V136.158C1816.49 137.848 1817.85 139.217 1819.54 139.217H1821.41C1823.1 139.217 1824.47 140.586 1824.47 142.275V146.836C1824.47 147.409 1824.31 147.97 1824.01 148.457L1818.52 157.228C1816.99 160.513 1813.94 167.831 1813.94 170.821C1813.94 173.812 1815.64 174.673 1816.49 174.729H1818.52C1820.21 174.729 1821.58 173.36 1821.58 171.671V170.821V161.58C1821.58 161.066 1821.71 160.56 1821.96 160.109L1824.47 155.529L1828.26 150.223C1828.56 149.802 1828.96 149.465 1829.43 149.242L1830.43 148.765C1831.69 148.16 1833.21 148.57 1834 149.729C1834.85 150.979 1836.53 151.344 1837.82 150.558L1838.28 150.278C1839.01 149.834 1839.89 149.715 1840.71 149.949L1844.71 151.092C1846.37 151.567 1848.1 150.57 1848.52 148.893L1849.99 143C1850.19 142.21 1850.69 141.531 1851.39 141.114L1857.35 137.562C1857.96 137.204 1858.42 136.649 1858.66 135.992L1860.66 130.551L1862.2 125.459C1862.58 124.186 1864.36 124.123 1864.84 125.366L1864.91 125.562C1865.34 126.676 1866.91 126.692 1867.35 125.587C1867.84 124.382 1869.6 124.545 1869.85 125.819L1871.49 133.915C1871.63 134.597 1872 135.212 1872.53 135.657L1876.5 138.962C1876.7 139.131 1876.88 139.326 1877.04 139.542L1880.3 144.148C1880.46 144.371 1880.59 144.615 1880.68 144.872L1882.28 149.252C1882.83 150.773 1884.47 151.6 1886.02 151.138L1890.13 149.913C1890.85 149.7 1891.62 149.757 1892.3 150.073L1894.32 151.014C1895.52 151.578 1896.97 151.279 1897.88 150.298C1899.12 148.94 1901.3 148.965 1902.49 150.378L1907.52 156.375C1907.99 156.926 1908.24 157.622 1908.24 158.341V167.083V171.671C1908.24 173.36 1909.61 174.729 1911.3 174.729H1912.18C1913.4 174.729 1914.5 174.007 1914.99 172.89L1915.52 171.655C1915.76 171.111 1915.83 170.51 1915.73 169.925L1914.3 161.446C1914.22 161.018 1914.06 160.61 1913.82 160.249L1908.58 152.463C1908.35 152.131 1908.2 151.759 1908.12 151.368L1906.86 145.224C1906.76 144.738 1906.78 144.235 1906.92 143.759L1907.6 141.423C1907.98 140.116 1909.18 139.217 1910.54 139.217H1911.13C1912.82 139.217 1914.19 137.848 1914.19 136.158V131.741C1914.19 130.051 1915.56 128.682 1917.25 128.682H1917.41C1919.76 128.682 1921.23 126.145 1920.07 124.106L1919.98 123.955C1919.2 122.588 1919.58 120.852 1920.87 119.942L1921.39 119.571C1922.2 118.998 1922.68 118.067 1922.68 117.075V114.972C1922.68 114.278 1922.45 113.604 1922.01 113.062L1918.6 108.802L1914.38 102.304C1914.25 102.106 1914.1 101.923 1913.93 101.759L1912.13 100.046C1910.17 98.1745 1911.5 94.8689 1914.21 94.8689H1914.9C1917.25 94.8689 1919.47 93.8216 1920.97 92.0125C1922.1 90.6427 1922.98 89.0814 1923.57 87.4021L1923.72 86.9553C1924.81 83.8212 1926.9 81.1291 1929.66 79.2885L1931.01 78.387L1933.26 76.5883C1935.59 74.7181 1936.96 71.8866 1936.96 68.8928V67.8439C1936.96 66.9458 1936.86 66.0504 1936.67 65.1728L1935.75 60.935C1935.43 59.465 1935.57 57.9323 1936.15 56.5436C1936.67 55.2745 1937.56 54.1868 1938.7 53.4131L1942.42 50.8766C1944.07 49.7535 1945.39 48.2108 1946.25 46.4074L1946.59 45.683C1947.48 43.7933 1947.51 41.6062 1946.65 39.6994L1946.6 39.5997C1945.53 37.2139 1943.66 35.2786 1941.31 34.1287L1939.5 33.2445C1937.83 32.4284 1935.98 32.0351 1934.14 32.2521C1930.26 32.7083 1924.63 33.7536 1918.77 35.7067C1915.8 36.6992 1902.17 46.0868 1899.85 48.1974C1898.56 49.3666 1897.34 50.4769 1896.35 51.3704L1885.98 62.9247L1876.81 73.6294Z" stroke="white" stroke-width="4"/>
<path d="M1119.82 83.4952L1114.16 92.8277L1113.66 78.829L1114.16 75.6627L1117.99 67.1635L1122.66 59.4975L1128.29 53.6553C1130.48 51.3888 1133.34 49.8317 1136.49 49.8317C1137.55 49.8317 1138.36 49.7095 1138.95 49.5509C1139.79 49.3266 1140.22 48.5354 1140.34 47.6787L1140.49 46.6654V46.4555C1140.49 44.6053 1139.05 43.073 1137.21 42.9539L1136.93 42.9363C1135.88 42.8684 1134.83 43.1004 1133.91 43.6053C1132.41 44.419 1131.05 45.4423 1129.84 46.644L1125.32 51.165L1120.82 56.8311L1116.49 64.1637L1112.82 73.1629L1111.16 77.4958H1107.66L1105.16 70.1639C1105.05 69.8305 1104.91 69.5058 1104.75 69.1922L1100.99 61.8306L1098.99 58.2482C1098.22 56.8615 1097.32 55.5424 1096.33 54.305L1092.87 50.0042C1092.51 49.5569 1092.11 49.1437 1091.67 48.77L1088.63 46.1655C1087.99 45.6114 1087.28 45.1238 1086.54 44.7103L1084.95 43.828C1083.84 43.2093 1082.48 43.2129 1081.37 43.8375C1080.83 44.1431 1080.49 44.7181 1080.49 45.3415V46.5952C1080.49 48.4442 1081.87 50.0039 1083.71 50.2332L1085.84 50.5003C1086.71 50.6082 1087.53 50.9396 1088.22 51.4616L1090.61 53.2563C1093.18 55.1829 1095.43 57.5048 1097.27 60.1353C1099.3 63.0382 1101.09 66.1029 1102.63 69.2984L1104.16 72.4963L1105.99 78.829L1105.32 92.8277L1099.33 81.8287L1092.33 72.4963L1079.49 59.1642L1067.83 49.8317L1057.16 42.8324L1046.5 37.6662L1037.5 34.4999L1031 33.3333H1024.67C1022.94 33.7222 1018.8 35.1331 1016 37.6662L1015 43.6657L1016 49.8317L1021.17 58.6643L1025.5 64.497L1029.33 70.1632L1032.17 77.4958L1033.66 84.4952L1035.16 90.9945L1038.16 96.6607L1042.66 101.827L1050.16 103.827L1060 103.66L1073.66 102.493L1050.66 116.992L1044.5 121.992L1040.66 127.324L1041.16 137.324L1042.66 142.156L1046.83 146.489L1052 152.989L1055.33 158.155L1056.66 161.821L1056.5 162.903C1056.29 164.333 1056.7 165.786 1057.64 166.887L1058.88 168.339C1059.61 169.198 1060.57 169.833 1061.65 170.17C1064.07 170.929 1066.63 171.216 1069.17 171.013C1072.12 170.777 1074.97 169.823 1077.46 168.234L1079.16 167.154L1084.83 162.321L1087.99 158.155L1090.49 152.989L1094.83 142.156L1099.49 130.657L1105.66 117.492L1106.99 138.823L1107.99 144.156L1109.66 146.489H1111.32L1112.49 144.156L1112.99 138.823L1114.16 117.492L1118.49 125.325L1122.49 135.824L1128.66 149.822L1133.32 158.155L1135.91 161.61C1137.18 163.294 1138.72 164.746 1140.48 165.904L1141.38 166.498C1143.88 168.15 1146.6 169.458 1149.46 170.387C1151.34 171.002 1153.34 171.21 1155.32 170.996L1157.53 170.757C1158.16 170.69 1158.75 170.452 1159.25 170.07C1161.03 168.714 1162.35 166.846 1163.04 164.717L1163.65 162.821L1164.53 160.253C1165.39 157.756 1166.58 155.39 1168.09 153.224L1169.51 151.188C1169.61 151.056 1169.71 150.931 1169.82 150.814L1174.14 146.364C1174.81 145.673 1175.38 144.893 1175.84 144.045L1176.64 142.564C1177.97 140.093 1178.82 137.391 1179.14 134.603C1179.37 132.652 1179.28 130.677 1178.88 128.754L1178.52 127.022C1178.07 124.846 1176.88 122.893 1175.15 121.492L1174.46 120.926C1170.6 117.754 1166.45 114.947 1162.07 112.537L1161.99 112.493L1154.65 108.493L1149.49 106.326L1146.82 101.827L1154.65 102.493L1162.99 104.16H1171.82L1176.82 101.827L1180.48 97.6606L1183.32 92.8277L1185.82 85.995L1187.65 79.1623L1190.15 72.163L1192.65 67.1635L1197.15 60.8307L1201.82 54.498L1205.15 49.4984V45.6655V40.6659L1203.32 37.3329L1198.98 33.8333L1194.15 33H1187.65L1178.15 35.3331L1169.49 38.4995L1159.15 44.9989L1148.49 52.3315L1140.49 58.6643L1130.99 67.8301L1126.66 73.1629L1119.82 83.4952Z" stroke="white" stroke-width="2.66642"/>
<path d="M1123.32 87.3278L1120.99 93.6605L1125.99 90.8275L1132.32 85.8279L1138.16 81.495L1144.82 77.1621L1151.99 71.8293C1154.27 70.3294 1159.59 66.6964 1162.65 64.1633V61.8302L1161.82 59.1638L1159.65 56.664L1154.82 56.1641L1150.65 57.3306L1146.82 59.6637L1140.66 64.1633L1133.49 72.4959L1127.49 80.4951L1123.32 87.3278Z" stroke="white" stroke-width="2.66642"/>
<path d="M1133.82 92.6606L1124.66 99.3267L1132.99 98.4934L1138.16 97.4935L1146.49 95.327L1156.65 91.994L1162.49 89.6609L1165.32 86.6612L1166.49 84.3281L1165.65 81.495L1162.49 78.8286L1157.49 78.6619L1150.99 80.8284L1145.65 84.3281L1133.82 92.6606Z" stroke="white" stroke-width="2.66642"/>
<path d="M1140.99 108.992H1134.99L1139.99 111.326L1144.65 114.992L1148.49 117.825L1152.65 120.991L1157.49 123.824L1161.32 123.158C1160.88 121.658 1159.49 118.192 1157.49 116.325C1157.49 116.192 1154.71 114.492 1153.32 113.659L1147.32 110.659L1140.99 108.992Z" stroke="white" stroke-width="2.66642"/>
<path d="M1129.99 110.659L1125.82 109.826L1129.99 116.325L1132.99 121.658L1136.99 128.491L1140.99 135.323L1145.82 140.323L1149.99 142.156L1153.32 141.489L1155.32 138.323V134.49L1152.65 129.657L1147.82 123.824L1140.99 117.825L1134.32 113.659L1129.99 110.659Z" stroke="white" stroke-width="2.66642"/>
<path d="M1127.49 124.824L1124.16 120.158L1125.49 125.324L1126.99 130.657L1129.32 136.823L1131.82 142.656L1133.82 147.155L1137.66 149.155L1138.49 147.155L1137.66 141.489L1134.66 135.823L1131.16 130.657L1127.49 124.824Z" stroke="white" stroke-width="2.66642"/>
<path d="M1095.33 122.824V120.325L1093.16 124.158L1090.66 128.491L1086.99 133.157L1083.16 138.323L1081.66 143.989V149.489L1084.83 147.655L1088.66 143.323L1090.66 139.49L1092.66 134.657C1092.99 133.323 1093.66 130.69 1093.66 130.824C1093.66 130.957 1094.44 127.768 1094.83 126.157L1095.33 122.824Z" stroke="white" stroke-width="2.66642"/>
<path d="M1087.66 111.825L1095.33 109.659L1091.83 114.492L1084.33 126.157L1080.66 131.99L1075.83 137.99L1071.66 140.823H1067.5L1065.5 139.156L1064.66 134.99L1066.5 129.49L1070 125.324L1075.83 119.825L1081.66 115.325L1087.66 111.825Z" stroke="white" stroke-width="2.66642"/>
<path d="M1079.49 108.992L1084.33 108.659V108.992L1083.66 111.159L1081.33 111.825L1077.33 113.325L1072.33 115.825L1069.16 118.325L1065.5 121.325L1062 123.491L1059.66 122.824V119.825L1061.5 116.992L1064.66 114.492L1068.83 111.825C1071 111.103 1076.16 109.526 1079.49 108.992Z" stroke="white" stroke-width="2.66642"/>
<path d="M1089.99 95.327L1093.49 99.3267L1085.16 97.6602L1079.99 96.6603L1074.49 95.6603L1066.5 93.8272L1062.5 92.494L1058.5 90.6608C1057.55 89.9942 1055.33 88.1611 1054 86.1612L1053.33 83.4948L1053.66 80.6618L1056 78.9952L1060 78.162L1064.5 78.9952L1071.66 82.8282L1079.49 87.9944L1085.16 91.4941L1089.99 95.327Z" stroke="white" stroke-width="2.66642"/>
<path d="M1092.99 89.9942L1099.33 94.6604L1096.83 87.6611L1092.99 81.1617L1088.33 75.6622L1082.33 69.1628L1077.66 65.3299C1076.11 64.1078 1071.66 60.7636 1066.33 57.164C1065.16 56.664 1063.5 55.9974 1062.16 56.4974C1061.1 56.8973 1059.72 58.1083 1059.16 58.6638L1058.83 61.3302L1061.16 64.9966L1064.5 68.1629L1071.66 73.3291L1074.66 75.8289L1081.16 80.4951L1087.33 85.328L1092.99 89.9942Z" stroke="white" stroke-width="2.66642"/>
<path d="M2379.82 83.4952L2374.16 92.8277L2373.66 78.829L2374.16 75.6627L2377.99 67.1635L2382.66 59.4975L2388.29 53.6553C2390.48 51.3888 2393.34 49.8317 2396.49 49.8317C2397.55 49.8317 2398.36 49.7095 2398.95 49.5509C2399.79 49.3266 2400.22 48.5354 2400.34 47.6787L2400.49 46.6654V46.4555C2400.49 44.6053 2399.05 43.073 2397.21 42.9539L2396.93 42.9363C2395.88 42.8684 2394.83 43.1004 2393.91 43.6053C2392.41 44.419 2391.05 45.4423 2389.84 46.644L2385.32 51.165L2380.82 56.8311L2376.49 64.1637L2372.82 73.1629L2371.16 77.4958H2367.66L2365.16 70.1639C2365.05 69.8305 2364.91 69.5058 2364.75 69.1922L2360.99 61.8306L2358.99 58.2482C2358.22 56.8615 2357.32 55.5424 2356.33 54.305L2352.87 50.0042C2352.51 49.5569 2352.11 49.1437 2351.67 48.77L2348.63 46.1655C2347.99 45.6114 2347.28 45.1238 2346.54 44.7103L2344.95 43.828C2343.84 43.2093 2342.48 43.2129 2341.37 43.8375C2340.83 44.1431 2340.49 44.7181 2340.49 45.3415V46.5952C2340.49 48.4442 2341.87 50.0039 2343.71 50.2332L2345.84 50.5003C2346.71 50.6082 2347.53 50.9396 2348.22 51.4616L2350.61 53.2563C2353.18 55.1829 2355.43 57.5048 2357.27 60.1353C2359.3 63.0382 2361.09 66.1029 2362.63 69.2984L2364.16 72.4963L2365.99 78.829L2365.32 92.8277L2359.33 81.8287L2352.33 72.4963L2339.49 59.1642L2327.83 49.8317L2317.16 42.8324L2306.5 37.6662L2297.5 34.4999L2291 33.3333H2284.67C2282.94 33.7222 2278.8 35.1331 2276 37.6662L2275 43.6657L2276 49.8317L2281.17 58.6643L2285.5 64.497L2289.33 70.1632L2292.17 77.4958L2293.66 84.4952L2295.16 90.9945L2298.16 96.6607L2302.66 101.827L2310.16 103.827L2320 103.66L2333.66 102.493L2310.66 116.992L2304.5 121.992L2300.66 127.324L2301.16 137.324L2302.66 142.156L2306.83 146.489L2312 152.989L2315.33 158.155L2316.66 161.821L2316.5 162.903C2316.29 164.333 2316.7 165.786 2317.64 166.887L2318.88 168.339C2319.61 169.198 2320.57 169.833 2321.65 170.17C2324.07 170.929 2326.63 171.216 2329.17 171.013C2332.12 170.777 2334.97 169.823 2337.46 168.234L2339.16 167.154L2344.83 162.321L2347.99 158.155L2350.49 152.989L2354.83 142.156L2359.49 130.657L2365.66 117.492L2366.99 138.823L2367.99 144.156L2369.66 146.489H2371.32L2372.49 144.156L2372.99 138.823L2374.16 117.492L2378.49 125.325L2382.49 135.824L2388.66 149.822L2393.32 158.155L2395.91 161.61C2397.18 163.294 2398.72 164.746 2400.48 165.904L2401.38 166.498C2403.88 168.15 2406.6 169.458 2409.46 170.387C2411.34 171.002 2413.34 171.21 2415.32 170.996L2417.53 170.757C2418.16 170.69 2418.75 170.452 2419.25 170.07C2421.03 168.714 2422.35 166.846 2423.04 164.717L2423.65 162.821L2424.53 160.253C2425.39 157.756 2426.58 155.39 2428.09 153.224L2429.51 151.188C2429.61 151.056 2429.71 150.931 2429.82 150.814L2434.14 146.364C2434.81 145.673 2435.38 144.893 2435.84 144.045L2436.64 142.564C2437.97 140.093 2438.82 137.391 2439.14 134.603C2439.37 132.652 2439.28 130.677 2438.88 128.754L2438.52 127.022C2438.07 124.846 2436.88 122.893 2435.15 121.492L2434.46 120.926C2430.6 117.754 2426.45 114.947 2422.07 112.537L2421.99 112.493L2414.65 108.493L2409.49 106.326L2406.82 101.827L2414.65 102.493L2422.99 104.16H2431.82L2436.82 101.827L2440.48 97.6606L2443.32 92.8277L2445.82 85.995L2447.65 79.1623L2450.15 72.163L2452.65 67.1635L2457.15 60.8307L2461.82 54.498L2465.15 49.4984V45.6655V40.6659L2463.32 37.3329L2458.98 33.8333L2454.15 33H2447.65L2438.15 35.3331L2429.49 38.4995L2419.15 44.9989L2408.49 52.3315L2400.49 58.6643L2390.99 67.8301L2386.66 73.1629L2379.82 83.4952Z" stroke="white" stroke-width="2.66642"/>
<path d="M2383.32 87.3278L2380.99 93.6605L2385.99 90.8275L2392.32 85.8279L2398.16 81.495L2404.82 77.1621L2411.99 71.8293C2414.27 70.3294 2419.59 66.6964 2422.65 64.1633V61.8302L2421.82 59.1638L2419.65 56.664L2414.82 56.1641L2410.65 57.3306L2406.82 59.6637L2400.66 64.1633L2393.49 72.4959L2387.49 80.4951L2383.32 87.3278Z" stroke="white" stroke-width="2.66642"/>
<path d="M2393.82 92.6606L2384.66 99.3267L2392.99 98.4934L2398.16 97.4935L2406.49 95.327L2416.65 91.994L2422.49 89.6609L2425.32 86.6612L2426.49 84.3281L2425.65 81.495L2422.49 78.8286L2417.49 78.6619L2410.99 80.8284L2405.65 84.3281L2393.82 92.6606Z" stroke="white" stroke-width="2.66642"/>
<path d="M2400.99 108.992H2394.99L2399.99 111.326L2404.65 114.992L2408.49 117.825L2412.65 120.991L2417.49 123.824L2421.32 123.158C2420.88 121.658 2419.49 118.192 2417.49 116.325C2417.49 116.192 2414.71 114.492 2413.32 113.659L2407.32 110.659L2400.99 108.992Z" stroke="white" stroke-width="2.66642"/>
<path d="M2389.99 110.659L2385.82 109.826L2389.99 116.325L2392.99 121.658L2396.99 128.491L2400.99 135.323L2405.82 140.323L2409.99 142.156L2413.32 141.489L2415.32 138.323V134.49L2412.65 129.657L2407.82 123.824L2400.99 117.825L2394.32 113.659L2389.99 110.659Z" stroke="white" stroke-width="2.66642"/>
<path d="M2387.49 124.824L2384.16 120.158L2385.49 125.324L2386.99 130.657L2389.32 136.823L2391.82 142.656L2393.82 147.155L2397.66 149.155L2398.49 147.155L2397.66 141.489L2394.66 135.823L2391.16 130.657L2387.49 124.824Z" stroke="white" stroke-width="2.66642"/>
<path d="M2355.33 122.824V120.325L2353.16 124.158L2350.66 128.491L2346.99 133.157L2343.16 138.323L2341.66 143.989V149.489L2344.83 147.655L2348.66 143.323L2350.66 139.49L2352.66 134.657C2352.99 133.323 2353.66 130.69 2353.66 130.824C2353.66 130.957 2354.44 127.768 2354.83 126.157L2355.33 122.824Z" stroke="white" stroke-width="2.66642"/>
<path d="M2347.66 111.825L2355.33 109.659L2351.83 114.492L2344.33 126.157L2340.66 131.99L2335.83 137.99L2331.66 140.823H2327.5L2325.5 139.156L2324.66 134.99L2326.5 129.49L2330 125.324L2335.83 119.825L2341.66 115.325L2347.66 111.825Z" stroke="white" stroke-width="2.66642"/>
<path d="M2339.49 108.992L2344.33 108.659V108.992L2343.66 111.159L2341.33 111.825L2337.33 113.325L2332.33 115.825L2329.16 118.325L2325.5 121.325L2322 123.491L2319.66 122.824V119.825L2321.5 116.992L2324.66 114.492L2328.83 111.825C2331 111.103 2336.16 109.526 2339.49 108.992Z" stroke="white" stroke-width="2.66642"/>
<path d="M2349.99 95.327L2353.49 99.3267L2345.16 97.6602L2339.99 96.6603L2334.49 95.6603L2326.5 93.8272L2322.5 92.494L2318.5 90.6608C2317.55 89.9942 2315.33 88.1611 2314 86.1612L2313.33 83.4948L2313.66 80.6618L2316 78.9952L2320 78.162L2324.5 78.9952L2331.66 82.8282L2339.49 87.9944L2345.16 91.4941L2349.99 95.327Z" stroke="white" stroke-width="2.66642"/>
<path d="M2352.99 89.9942L2359.33 94.6604L2356.83 87.6611L2352.99 81.1617L2348.33 75.6622L2342.33 69.1628L2337.66 65.3299C2336.11 64.1078 2331.66 60.7636 2326.33 57.164C2325.16 56.664 2323.5 55.9974 2322.16 56.4974C2321.1 56.8973 2319.72 58.1083 2319.16 58.6638L2318.83 61.3302L2321.16 64.9966L2324.5 68.1629L2331.66 73.3291L2334.66 75.8289L2341.16 80.4951L2347.33 85.328L2352.99 89.9942Z" stroke="white" stroke-width="2.66642"/>
</svg>
