<svg width="1212" height="204" viewBox="0 0 1212 204" fill="none" xmlns="http://www.w3.org/2000/svg">
<rect width="204" height="204" fill="#DD00FF"/>
<rect x="252" width="204" height="204" fill="#DD00FF"/>
<rect x="504" width="204" height="204" fill="#DD00FF"/>
<rect x="756" width="204" height="204" fill="#DD00FF"/>
<rect x="1008" width="204" height="204" fill="#DD00FF"/>
<path d="M881.383 107.625L885.835 106.078L890.655 101.414L894.15 92.9352L896.566 83.4053" stroke="white" stroke-width="3.12419"/>
<path d="M896.983 109.604L900.727 115.484C901.121 116.407 901.883 118.257 901.778 118.271L900.389 119.796L899.893 121.997L900.309 125.005L902.199 128.076L904.598 130.011C904.747 130.123 905.284 131.116 905.302 131.246C905.32 131.377 905.198 133.393 902.497 132.167C900.335 131.185 899.365 129.756 899.15 129.163L897.319 129.416L895.438 132.208L895.619 133.516L894.74 133.904L895.444 139.004L890.695 140.326L889.685 144.597L894.508 163.124L892.609 165.785C890.78 164.118 889.107 154.895 888.499 150.492L886.47 149.306L884.373 150.528C884.555 152.813 884.923 157.41 884.937 157.514C884.951 157.619 883.587 157.39 882.903 157.262L882.091 151.376L881.306 151.485L881.739 154.624C881.407 155.309 880.092 155.562 879.475 155.603" stroke="white" stroke-width="3.12419"/>
<path d="M879.477 155.603L879.043 152.464L876.987 153.014L874.975 151.959L873.784 147.192L870.181 147.156L868.723 139.494L866.856 139.485L862.596 108.619L861.644 108.484C860.922 113.871 859.48 124.67 859.495 124.774C859.509 124.879 858.641 125.025 858.205 125.086L856.26 110.027L851.36 139.225L849.533 138.544L846.246 146.595L844.677 146.811L843.897 145.986L842.526 147.641C841.689 150.849 839.673 152.078 838.769 152.292L837.227 154.637L836.127 154.389L835.959 150.28L834.259 150.515L833.24 152.788L833.637 155.666C833.67 156.55 833.398 157.991 832.045 156.685C830.692 155.379 830.609 153.684 830.737 153L832.094 150.281L831.282 148.26L829.172 148.418L827.557 150.241L826.173 154.697L826.128 160.167L825.912 162.463L823.418 164.673L821.465 163.077L821.835 159.96L824.852 153.813L826.803 143.814L826.244 139.76L822.239 137.78C821.687 137.323 820.772 136.037 821.526 134.546C822.28 133.056 821.061 130.212 820.357 128.977L817.173 127.15L818.012 123.569L817.218 121.68M817.218 121.68L813.944 123.065L812.212 125.969L812.699 129.501L807.86 130.168L806.936 128.297L810.047 125.735L814.169 118.902L813.357 116.882L807.201 115.732L806.61 114.348L807.994 113.757L803.565 110.636L800.972 110.194C800.101 110.004 798.794 109.482 800.53 108.923C802.265 108.363 801.905 107.622 801.508 107.321L799.018 104.733L802.374 102.004L802.77 101.016L789.556 96.0431L783.264 91.9802L778.456 86.1131L777.368 83.0645L778.631 80.6245L783.529 79.4154L767.147 61.1514L768.761 59.3292L776.83 58.882L787.911 60.9511L803.2 65.5048L821.123 73.6933L824.527 75.7134M817.218 121.68L816.139 116.764C816.781 115.298 818.465 111.405 820.067 107.559M858.288 95.7527L854.544 86.007L845.928 68.0039L834.638 50.9031L824.413 41.5188C822.819 41.561 819.629 41.6193 819.614 41.5147C819.6 41.4101 818.92 44.8536 818.582 46.5885L820.666 55.8969L823.905 65.8456L826.369 74.0355L833.707 85.6841L840.252 91.5781L858.685 98.63M858.288 95.7527L824.527 75.7134M858.288 95.7527L848.567 82.3003L836.262 62.674L822.018 46.3807L809.53 37.9753L800.735 34.1245C797.893 33.4949 792.467 33.3198 793.492 37.6565C794.517 41.9932 797.2 51.0057 798.414 54.9699L805.573 69.1757L824.521 87.6852M858.685 98.63L844.824 84.1497L837.107 77.4847L829.467 74.2743L825.151 74.87C824.91 75.1236 824.704 75.4076 824.527 75.7134M858.685 98.63L836.677 105.266M836.677 105.266L831.873 102.331L828.4 98.4118L825.27 93.1129L824.521 87.6852M836.677 105.266L820.067 107.559M824.527 75.7134C823.335 77.7741 823.497 80.8254 823.772 82.2575L824.521 87.6852M824.527 75.7134C814.823 72.1821 807.727 71.5883 805.392 71.7328L801.767 76.3649L803.446 88.5282L809.959 100.957L820.067 107.559" stroke="white" stroke-width="3.12419"/>
<path d="M858.269 95.6217L858.404 94.6701L859.103 92.9743L860.019 92.8479L861.246 94.0114L861.76 95.8063M861.76 95.8063L862.968 92.9739L866.837 84.3099L870.756 76.9718L874.976 68.9256L880.545 60.0269L886.818 52.3639L891.887 46.5997L895.201 44.5428L900.212 43.1848L902.359 43.2884L903.153 49.043L901.214 56.2412L898.491 63.5476L894.762 74.1915M861.76 95.8063L868.728 91.2461L875.249 86.3477L881.959 80.89L886.96 77.5341L890.861 75.8628M861.76 95.8063C864.481 91.699 870.862 82.1817 874.621 76.9715L881.52 67.0895L888.208 58.5695L894.643 52.0835L904.789 42.553L913.534 37.3477C915.977 36.6996 920.888 35.3996 920.993 35.3852C921.098 35.3707 924.594 36.0433 926.329 36.3814L927.028 38.5506L927.069 41.7437L924.589 48.8832L918.925 61.9266L912.856 73.9598L908.293 79.521L896.189 88.3888M861.76 95.8063C862.504 102.741 866.671 104.991 868.661 105.25L877.672 106.805C881.906 107.864 890.399 109.979 890.503 109.965C894.952 110.524 900.406 108.643 902.576 107.632L910.382 99.491C913.442 93.8443 916.337 86.6295 917.403 83.728L916.748 76.0882L911.918 72.9564L903.809 74.0756L896.972 76.6853L891.466 80.2442L880.246 91.6554C882.286 93.2398 883.906 96.3482 874.063 96.1074M894.762 74.1915L890.861 75.8628M894.762 74.1915L904.508 70.4473L915.092 66.9872L926.647 63.793L938.287 62.1864L947.208 63.0876L947.515 65.311L943.722 69.6996L932.732 79.8796C930.97 81.2779 927.421 84.078 927.316 84.0924C927.185 84.1105 920.285 86.2624 920.303 86.3931L911.423 88.685L897.546 89.5342L896.189 88.3888M896.189 88.3888C896.265 86.69 896.467 83.2591 896.662 83.1256C896.972 80.7371 895.729 77.6565 895.069 76.4149L890.861 75.8628" stroke="white" stroke-width="3.12419"/>
<path d="M908.428 101.76L918.499 100.37L927.031 96.5266C931.321 92.8425 934.48 87.724 935.523 85.6252L930.309 82.613L923.233 82.5235L916.829 82.4745L904.011 84.2435L896.421 86.2241" stroke="white" stroke-width="3.12419"/>
<path d="M114.531 78.9703L109.365 86.3112C108.983 86.854 108.537 87.3486 108.036 87.7841C104.613 90.7609 99.4254 90.4031 96.4432 86.9845L89.4521 78.9703L79.1789 66.1288L67.2771 51.9867C66.6515 51.2433 65.9708 50.5482 65.2407 49.9072L53.9491 39.9926L46.3687 32.9695C44.5894 31.3211 42.5159 30.0221 40.2564 29.1403L39.2256 28.738C38.067 28.2859 36.8597 27.9704 35.628 27.798L31.717 27.2505C30.5606 27.0886 29.3839 27.3348 28.3895 27.9468C26.9045 28.8606 26 30.4793 26 32.2229V35.4777C26 36.0694 26.0484 36.6601 26.1448 37.2439L28.5683 51.9276C28.8973 56.5331 29.2262 64.9269 28.6887 70.4775C28.3816 73.6489 27.6618 76.8606 27.6618 80.0469V80.6678C27.6618 82.4484 27.9111 84.2321 28.396 85.9455C29.3923 89.4657 31.3736 92.6553 34.0969 95.0983L39.0778 99.5665C39.8256 100.237 40.6245 100.849 41.4673 101.395L50.8275 107.467C51.1875 107.701 51.4664 108.04 51.6258 108.438C52.0064 109.39 51.6362 110.477 50.7538 110.998L44.6121 114.627C43.1059 115.517 41.8487 116.773 40.9568 118.278L39.9791 119.928C38.3444 122.687 37.4818 125.834 37.4818 129.041V131.405C37.4818 133.202 37.7322 134.99 38.2259 136.717L39.5009 141.18C39.9658 142.807 40.6421 144.366 41.5126 145.817L45.1867 151.94L51.3808 160.401L55.2054 164.608C56.6738 166.223 58.4051 167.578 60.3259 168.615L60.6771 168.805C63.4998 170.329 66.6574 171.127 69.8654 171.127H71.0536C73.9168 171.127 76.753 170.487 79.3405 169.261C82.3954 167.814 85.028 165.587 86.9561 162.81L87.7903 161.609L92.6247 153.602L96.8549 144.991L99.1746 139.468C99.6913 138.237 100.896 137.437 102.23 137.437C103.226 137.437 104.17 137.885 104.799 138.657L106.313 140.515C106.853 141.178 107.288 141.921 107.604 142.716L109.762 148.165C110.121 149.069 110.547 149.945 111.037 150.785L115.682 158.749C116.323 159.847 117.071 160.88 117.914 161.832L119.744 163.896C121.585 165.973 123.851 167.629 126.389 168.752L127.04 169.041C130.122 170.405 133.522 170.889 136.862 170.439C138.683 170.194 140.457 169.675 142.123 168.9L143.588 168.219C145.258 167.442 146.808 166.431 148.192 165.216L151.154 162.615C151.917 161.945 152.626 161.217 153.274 160.436L158.947 153.602L163.636 146.75C164.436 145.581 165.105 144.327 165.631 143.012L166.478 140.895C167.391 138.61 167.861 136.173 167.861 133.713V131.233C167.861 129.834 167.709 128.438 167.408 127.072L166.935 124.925C166.254 121.836 164.795 118.972 162.697 116.605L160.693 114.343C160.239 113.832 159.681 113.424 159.056 113.149C155.619 111.634 155.222 106.915 158.358 104.848L164.303 100.928C164.66 100.692 164.999 100.431 165.317 100.145L170.769 95.2499C171.748 94.3702 172.636 93.3927 173.417 92.3328L174.734 90.5449C175.883 88.9855 176.737 87.2288 177.253 85.3618C178.027 82.5645 178.019 79.6086 177.229 76.8156L176.472 74.1359L175.506 69.4792C175.046 67.2628 174.978 64.9829 175.307 62.7432L176.472 54.7981L178.037 47.2139C178.302 45.9281 178.436 44.6187 178.436 43.3059V36.0208C178.436 35.051 178.259 34.0894 177.912 33.1836L177.607 32.3863C176.894 30.5202 175.333 29.1065 173.406 28.5809C172.157 28.2404 170.834 28.295 169.617 28.7372L166.3 29.9437C165.328 30.297 164.39 30.7364 163.496 31.2566L156.414 35.3793C155.286 36.0359 154.227 36.805 153.254 37.6749L144.746 45.2803L132.811 57.5174L122.538 69.1503L114.531 78.9703Z" stroke="white" stroke-width="4"/>
<path d="M107.278 98.7611C108.437 97.2503 110.783 94.2288 110.904 94.2288C111.025 94.2288 114.48 89.7972 116.192 87.5814L120.875 80.783L126.163 74.4378C127.802 72.8411 131.06 69.7018 132.937 68.0036C133.549 67.45 134.23 66.9816 134.963 66.6015C137.007 65.5403 138.899 64.7291 140.558 64.1192C143.888 62.8941 147.033 65.3114 147.44 68.8369V68.8369C147.556 69.8379 147.439 70.8521 147.098 71.8006L146.403 73.7369C145.806 75.4003 145.501 77.1543 145.501 78.9216V82.1705C145.501 83.2579 145.592 84.3434 145.775 85.4154L146.548 89.955C146.655 90.5873 146.709 91.2275 146.709 91.8689V91.8689C146.709 95.3626 145.108 98.6635 142.364 100.826L134.563 106.975C134.124 107.322 133.868 107.944 133.868 108.503V108.503C133.868 109.086 134.149 109.537 134.607 109.897C136.954 111.744 138.647 113.745 139.761 115.381C140.92 117.083 141.271 119.156 141.271 121.216V121.91C141.271 125.254 140.403 128.541 138.753 131.45L137.023 134.502C136.033 136.246 134.778 137.826 133.303 139.185L131.227 141.097C130.276 141.974 129.177 142.676 127.982 143.171L127.712 143.283C125.084 144.373 122.123 144.332 119.526 143.17V143.17C118.42 142.675 117.409 141.99 116.54 141.145L114.903 139.553C113.257 137.953 111.91 136.074 110.923 134.002L109.393 130.789L106.372 123.084M51.5311 43.4671L55.911 47.847C56.0122 47.9482 56.0999 48.062 56.172 48.1856V48.1856C57.0259 49.6494 55.4034 51.3049 53.9227 50.4807L45.8432 45.9837C44.4563 45.2117 42.7071 45.8403 42.1287 47.3183V47.3183C41.9544 47.7639 41.9053 48.2486 41.9869 48.72L42.987 54.4979C43.1434 55.4017 43.3639 56.2933 43.6469 57.1658L44.0916 58.5369C44.7165 60.4638 45.0348 62.4769 45.0348 64.5027V69.9055V78.4024C45.0348 79.9835 45.2287 81.5586 45.6122 83.0925L46.2422 85.6126C46.8418 88.0108 47.8956 90.2718 49.3466 92.2732L51.5311 95.2863V95.2863C52.8792 97.2635 50.8352 99.7851 48.6218 98.8755L45.6068 97.6365C45.2286 97.481 44.8816 97.2584 44.5827 96.9794L43.0577 95.5561C41.3773 93.9877 40.0848 92.0499 39.2823 89.8959L37.6321 85.4664L36.7929 81.9234C36.4471 80.4631 36.2724 78.9674 36.2724 77.4667V70.963V58.2726C36.2724 56.1055 36.0873 50.5358 35.3707 44.6807C35.2721 43.8754 35.2796 43.06 35.4071 42.2588L35.8331 39.5806C36.0995 37.9064 37.3398 36.5529 38.9845 36.1417V36.1417C39.9641 35.8968 40.9989 36.0104 41.902 36.462L43.9442 37.4831C44.6688 37.8453 45.3486 38.291 45.9697 38.8111L51.5311 43.4671ZM157.285 119.761C157.166 119.761 153.334 116.935 151.34 115.452C151.274 115.403 151.203 115.363 151.128 115.33V115.33C150.077 114.875 149.141 116.165 149.9 117.022L153.292 120.856C153.533 121.129 153.703 121.457 153.787 121.811L154.399 124.396C154.807 126.121 154.853 127.913 154.533 129.657L154.155 131.715C153.826 133.506 153.246 135.242 152.431 136.87L151.029 139.675C150.467 140.799 149.797 141.865 149.028 142.859L143.99 149.372L140.464 152.992C139.097 154.396 137.51 155.568 135.766 156.46V156.46C133.227 157.759 130.417 158.436 127.566 158.436H125.101C125.004 158.436 124.907 158.423 124.813 158.397V158.397C123.674 158.081 122.93 159.564 123.866 160.287L125.893 161.854C126.071 161.991 126.276 162.089 126.495 162.141L128.987 162.731C130.908 163.186 132.906 163.212 134.838 162.808L135.226 162.727C137.319 162.289 139.295 161.414 141.028 160.161L143.175 158.608C144.717 157.492 146.086 156.156 147.237 154.641L151.242 149.372L155.144 144.201C156.559 142.326 157.641 140.214 158.139 137.918C158.896 134.427 159.702 129.448 159.702 124.746C159.702 124.595 157.436 119.761 157.285 119.761ZM47.6031 140.458L46.0188 136.078C45.3678 134.278 45.0348 132.379 45.0348 130.465V130.465C45.0348 128.188 45.5059 125.936 46.4185 123.85L47.5957 121.159C48.0021 120.23 48.5171 119.353 49.1299 118.545L51.2003 115.816C51.4158 115.531 51.7121 115.319 52.0503 115.206V115.206C53.6957 114.658 55.0657 116.559 54.0251 117.946L51.8925 120.79C51.6541 121.107 51.4841 121.471 51.3932 121.858L50.7002 124.803C50.0552 127.544 50.0875 130.401 50.7942 133.127L50.9382 133.682C51.5299 135.965 52.534 138.119 53.9009 140.04L57.4231 144.99L60.269 148.938C61.486 150.626 62.9675 152.107 64.6562 153.323L66.1713 154.413C68.4692 156.068 71.1025 157.198 73.885 157.723L77.5024 158.405C77.6121 158.426 77.7235 158.436 77.8352 158.436V158.436C79.6318 158.436 80.3102 160.779 78.7867 161.731C77.261 162.685 76.0624 163.422 76.0055 163.422C75.8846 163.422 72.5307 163.422 70.8689 163.422V163.422C67.5857 163.422 64.428 162.118 62.1065 159.796V159.796L56.3656 154.206L52.9282 149.852C52.1998 148.93 51.557 147.942 51.0078 146.903L47.6031 140.458Z" stroke="white" stroke-width="4"/>
<path d="M98.2139 99.3656L88.2428 86.0708L78.8895 74.7132C78.0768 73.7264 77.1683 72.8226 76.1773 72.0151L66.8135 64.3853C65.9188 63.6564 64.8001 63.2583 63.6461 63.2583V63.2583C60.8768 63.2583 58.6319 65.5033 58.6319 68.2725V73.2293C58.6319 81.2418 58.1802 86.4948 57.7306 89.5144C57.4455 91.4293 57.3847 93.4179 57.8774 95.2901V95.2901C58.3689 97.1579 59.4123 98.8339 60.8712 100.099L66.7663 105.213C69.0246 107.172 68.8835 110.72 66.4767 112.494V112.494C65.7921 112.998 65.2584 113.68 64.9333 114.466L64.3721 115.822C63.8738 117.026 63.6174 118.317 63.6174 119.62V121.175C63.6174 122.544 63.7758 123.909 64.0894 125.242L64.5953 127.392C65.1471 129.737 66.1322 131.958 67.5 133.942L67.5604 134.029C68.1537 134.889 68.8158 135.7 69.5402 136.454L72.2287 139.25L72.8389 139.956C74.3192 141.67 76.2281 142.96 78.3705 143.695L78.789 143.839C79.8469 144.201 80.9577 144.386 82.0761 144.386V144.386C84.4039 144.386 86.6607 143.585 88.4674 142.117L88.6821 141.943C89.8862 140.964 90.8679 139.741 91.5617 138.353L93.0773 135.322L98.2139 125.502" stroke="white" stroke-width="4"/>
<path d="M361.82 82.7528L360.064 86.9129C359.523 88.1922 357.711 88.1929 357.17 86.9139C356.924 86.3327 356.354 85.9551 355.723 85.9551H354.782C354.152 85.9551 353.592 86.3541 353.386 86.949C352.955 88.1951 351.231 88.2944 350.659 87.1061L348.035 81.6505C346.554 78.5719 344.788 75.6391 342.759 72.8905L339.767 68.8363C336.839 64.8693 333.455 61.26 329.684 58.0827L320.36 50.2247L314.565 46.2451C309.11 42.499 303.421 39.0767 297.376 36.3841C296.102 35.8165 295.247 35.4702 295.247 35.5618C295.247 35.8989 289.685 33.3708 277.719 31.6854C276.88 31.636 276.106 32.2175 275.431 33.0875C273.031 36.1815 273 40.4102 273 44.3258V45.3394C273 53.7337 274.021 62.0968 276.04 70.2447C277.158 74.7566 278.619 79.1765 280.411 83.4657L280.816 84.437C282.444 88.3347 284.8 91.8867 287.757 94.903L288.506 95.6666C290.622 97.825 293.122 99.5702 295.877 100.813C298.817 102.138 301.91 103.092 305.085 103.653L310.713 104.646C313.314 105.105 315.961 105.24 318.595 105.049L330.968 104.149C332.157 104.062 332.616 104.842 331.557 105.389C329.184 106.615 323.834 108.339 313.241 110.192C311.024 110.579 304.967 112.278 302.847 113.035C302.61 113.12 302.38 113.201 302.162 113.279C301.808 113.404 299.873 114.309 299.564 114.522C297.311 116.063 294.447 118.462 292.897 120.708L290.36 124.382C288.369 128.032 287.326 132.122 287.326 136.279V140.225C287.607 142.978 288.472 149.157 289.685 151.854C290.856 154.456 295.154 158.207 297.372 159.932C297.528 160.053 297.693 160.161 297.866 160.257L304.272 163.83C305.644 164.595 307.202 164.963 308.771 164.892L317.343 164.507C317.447 164.502 317.551 164.489 317.654 164.467C318.524 164.281 329.243 159.19 329.954 158.656C330.714 158.085 331.293 157.654 331.455 157.534C331.488 157.509 331.515 157.486 331.546 157.458L337.042 152.468C337.492 152.06 337.888 151.598 338.223 151.092L344.292 141.91L352.146 127.165C352.378 126.73 352.491 126.24 352.474 125.746C352.443 124.831 353.759 124.654 353.971 125.545L355.255 130.954C355.349 131.35 355.703 131.629 356.109 131.629C356.498 131.629 356.84 131.374 356.95 131.002C357.6 128.809 358.618 125.347 358.618 125.225C358.618 125.09 360.753 128.315 361.82 129.944L364.517 135.674C367.319 141.278 370.676 146.587 374.537 151.521L374.798 151.854L375.871 153.258C378.06 156.12 380.735 158.574 383.775 160.509C384.416 160.916 385.112 161.231 385.842 161.442L387.924 162.043C390.844 162.887 393.868 163.315 396.907 163.315H399.404H400.85C404.119 163.315 407.349 162.618 410.327 161.271C412.023 160.504 413.582 159.465 414.945 158.197L417.775 155.562L419.045 154.117C421.425 151.409 423.153 148.19 424.096 144.709L424.266 144.081C424.656 142.64 424.854 141.154 424.854 139.661C424.854 136.003 424.507 132.337 423.383 128.856C422.585 126.386 421.547 123.667 420.345 121.459C419.997 120.82 418.804 119.242 418.33 118.691C416.225 116.246 413.015 113.24 410.144 111.77L409.361 111.369C407.003 110.162 404.498 109.268 401.908 108.71L394.854 107.191L382.323 105.353C382.25 105.342 382.179 105.322 382.112 105.292C381.345 104.951 381.542 103.811 382.38 103.748L394.854 102.809H406.952C408.313 102.809 409.663 102.559 410.934 102.072L416.834 99.8101C418.342 99.232 419.706 98.3326 420.832 97.1742L423.928 93.9867C424.543 93.3536 425.081 92.6496 425.529 91.8895L430.101 84.1428C430.645 83.221 431.053 82.2254 431.313 81.187L433.618 71.9663L435.697 57.4118C435.772 56.8907 435.809 56.365 435.809 55.8387V44.3258V37.0978C435.809 34.7642 434.662 32.5797 432.741 31.2548C431.556 30.4376 430.15 30 428.711 30H425.349C423.583 30 421.844 30.4201 420.273 31.2256L416.09 33.3708C413.507 34.5889 407.291 37.8776 400.849 42.2474C398.942 43.5406 396.903 44.9457 395 46.2568L394.883 46.3374C393.047 47.6031 390.774 49.1875 389.292 50.2247L382.213 56.6292L375.506 62.2695C375.035 62.6659 374.597 63.1 374.199 63.5698C372.832 65.1819 370.869 67.5203 370.753 67.7528C370.618 68.0225 367.775 72.4719 366.371 74.6629L361.82 82.7528Z" stroke="white" stroke-width="3"/>
<path d="M616.805 73.6294L613.633 77.8355C612.055 79.9286 608.724 78.909 608.587 76.2911L608.574 76.0421C608.504 74.6897 607.386 73.6294 606.032 73.6294C604.64 73.6294 603.506 74.7483 603.487 76.1407L603.482 76.5438C603.446 79.219 600.156 80.4724 598.349 78.4994L590.777 70.2311L579.424 56.298C576.138 53.2309 569.089 46.7745 562.29 40.8617C558.493 37.5592 553.986 35.1939 549.147 33.8114L547.629 33.3778C546.404 33.0278 544.823 32.8802 543.55 32.9121C540.241 32.995 529.833 34.5329 526.784 35.8213C526.715 35.8502 526.647 35.8791 526.58 35.9081C523.725 37.1315 523.805 40.9489 524.201 42.7047L524.283 42.9282C525.796 47.0348 528.183 50.7641 531.277 53.8588L532.821 55.4022C533.394 55.9757 533.716 56.7537 533.716 57.5648V62.9247L534.025 66.323L534.682 69.7398C534.81 70.4054 535.006 71.056 535.267 71.6816C536.604 74.8867 538.427 77.8664 540.673 80.5158L545.78 86.543L551.15 93.6534C551.728 94.4189 552.631 94.8689 553.59 94.8689H555.894C558.331 94.8689 559.79 97.5809 558.445 99.6141L548.81 114.187C548.292 114.971 548.163 115.949 548.46 116.841L549.871 121.075C549.975 121.387 550.028 121.713 550.028 122.042V125.624C550.028 127.313 551.398 128.682 553.087 128.682H553.427C555.116 128.682 556.485 130.051 556.485 131.741V136.158C556.485 137.848 557.854 139.217 559.544 139.217H561.413C563.102 139.217 564.471 140.586 564.471 142.275V146.836C564.471 147.409 564.31 147.97 564.006 148.457L558.524 157.228C556.995 160.513 553.936 167.831 553.936 170.821C553.936 173.812 555.636 174.673 556.485 174.729H558.524C560.213 174.729 561.583 173.36 561.583 171.671V170.821V161.58C561.583 161.066 561.712 160.56 561.959 160.109L564.471 155.529L568.261 150.223C568.561 149.802 568.964 149.465 569.43 149.242L570.427 148.765C571.692 148.16 573.21 148.57 573.998 149.729C574.848 150.979 576.529 151.344 577.821 150.558L578.28 150.278C579.009 149.834 579.89 149.715 580.711 149.949L584.709 151.092C586.372 151.567 588.097 150.57 588.517 148.893L589.99 143C590.187 142.21 590.692 141.531 591.392 141.114L597.354 137.562C597.956 137.204 598.417 136.649 598.659 135.992L600.663 130.551L602.2 125.459C602.585 124.186 604.364 124.123 604.837 125.366L604.912 125.562C605.336 126.676 606.906 126.692 607.353 125.587C607.841 124.382 609.597 124.545 609.855 125.819L611.494 133.915C611.632 134.597 611.999 135.212 612.534 135.657L616.499 138.962C616.702 139.131 616.883 139.326 617.036 139.542L620.304 144.148C620.463 144.371 620.591 144.615 620.685 144.872L622.277 149.252C622.83 150.773 624.473 151.6 626.024 151.138L630.135 149.913C630.852 149.7 631.623 149.757 632.301 150.073L634.317 151.014C635.525 151.578 636.973 151.279 637.875 150.298C639.125 148.94 641.305 148.965 642.491 150.378L647.524 156.375C647.986 156.926 648.24 157.622 648.24 158.341V167.083V171.671C648.24 173.36 649.609 174.729 651.298 174.729H652.181C653.399 174.729 654.501 174.007 654.986 172.89L655.523 171.655C655.76 171.111 655.833 170.51 655.734 169.925L654.297 161.446C654.224 161.018 654.061 160.61 653.819 160.249L648.578 152.463C648.354 152.131 648.198 151.759 648.118 151.368L646.862 145.224C646.762 144.738 646.783 144.235 646.921 143.759L647.599 141.423C647.979 140.116 649.176 139.217 650.537 139.217H651.128C652.817 139.217 654.187 137.848 654.187 136.158V131.741C654.187 130.051 655.556 128.682 657.245 128.682H657.412C659.761 128.682 661.233 126.145 660.068 124.106L659.981 123.955C659.2 122.588 659.584 120.852 660.869 119.942L661.392 119.571C662.201 118.998 662.683 118.067 662.683 117.075V114.972C662.683 114.278 662.446 113.604 662.012 113.062L658.605 108.802L654.381 102.304C654.252 102.106 654.1 101.923 653.929 101.759L652.134 100.046C650.173 98.1745 651.498 94.8689 654.208 94.8689H654.897C657.245 94.8689 659.471 93.8216 660.968 92.0125C662.102 90.6427 662.982 89.0814 663.566 87.4021L663.721 86.9553C664.811 83.8212 666.895 81.1291 669.656 79.2885L671.008 78.387L673.257 76.5883C675.595 74.7181 676.955 71.8866 676.955 68.8928V67.8439C676.955 66.9458 676.859 66.0504 676.669 65.1728L675.747 60.935C675.428 59.465 675.567 57.9323 676.145 56.5436C676.674 55.2745 677.561 54.1868 678.697 53.4131L682.423 50.8766C684.072 49.7535 685.392 48.2108 686.246 46.4074L686.589 45.683C687.484 43.7933 687.506 41.6062 686.648 39.6994L686.603 39.5997C685.529 37.2139 683.655 35.2786 681.305 34.1287L679.499 33.2445C677.831 32.4284 675.983 32.0351 674.139 32.2521C670.264 32.7083 664.625 33.7536 658.771 35.7067C655.796 36.6992 642.166 46.0868 639.846 48.1974C638.561 49.3666 637.335 50.4769 636.346 51.3704L625.981 62.9247L616.805 73.6294Z" stroke="white" stroke-width="4"/>
<path d="M1119.82 83.4952L1114.16 92.8277L1113.66 78.829L1114.16 75.6627L1117.99 67.1635L1122.66 59.4975L1128.29 53.6553C1130.48 51.3888 1133.34 49.8317 1136.49 49.8317C1137.55 49.8317 1138.36 49.7095 1138.95 49.5509C1139.79 49.3266 1140.22 48.5354 1140.34 47.6787L1140.49 46.6654V46.4555C1140.49 44.6053 1139.05 43.073 1137.21 42.9539L1136.93 42.9363C1135.88 42.8684 1134.83 43.1004 1133.91 43.6053C1132.41 44.419 1131.05 45.4423 1129.84 46.644L1125.32 51.165L1120.82 56.8311L1116.49 64.1637L1112.82 73.1629L1111.16 77.4958H1107.66L1105.16 70.1639C1105.05 69.8305 1104.91 69.5058 1104.75 69.1922L1100.99 61.8306L1098.99 58.2482C1098.22 56.8615 1097.32 55.5424 1096.33 54.305L1092.87 50.0042C1092.51 49.5569 1092.11 49.1437 1091.67 48.77L1088.63 46.1655C1087.99 45.6114 1087.28 45.1238 1086.54 44.7103L1084.95 43.828C1083.84 43.2093 1082.48 43.2129 1081.37 43.8375C1080.83 44.1431 1080.49 44.7181 1080.49 45.3415V46.5952C1080.49 48.4442 1081.87 50.0039 1083.71 50.2332L1085.84 50.5003C1086.71 50.6082 1087.53 50.9396 1088.22 51.4616L1090.61 53.2563C1093.18 55.1829 1095.43 57.5048 1097.27 60.1353C1099.3 63.0382 1101.09 66.1029 1102.63 69.2984L1104.16 72.4963L1105.99 78.829L1105.32 92.8277L1099.33 81.8287L1092.33 72.4963L1079.49 59.1642L1067.83 49.8317L1057.16 42.8324L1046.5 37.6662L1037.5 34.4999L1031 33.3333H1024.67C1022.94 33.7222 1018.8 35.1331 1016 37.6662L1015 43.6657L1016 49.8317L1021.17 58.6643L1025.5 64.497L1029.33 70.1632L1032.17 77.4958L1033.66 84.4952L1035.16 90.9945L1038.16 96.6607L1042.66 101.827L1050.16 103.827L1060 103.66L1073.66 102.493L1050.66 116.992L1044.5 121.992L1040.66 127.324L1041.16 137.324L1042.66 142.156L1046.83 146.489L1052 152.989L1055.33 158.155L1056.66 161.821L1056.5 162.903C1056.29 164.333 1056.7 165.786 1057.64 166.887L1058.88 168.339C1059.61 169.198 1060.57 169.833 1061.65 170.17C1064.07 170.929 1066.63 171.216 1069.17 171.013C1072.12 170.777 1074.97 169.823 1077.46 168.234L1079.16 167.154L1084.83 162.321L1087.99 158.155L1090.49 152.989L1094.83 142.156L1099.49 130.657L1105.66 117.492L1106.99 138.823L1107.99 144.156L1109.66 146.489H1111.32L1112.49 144.156L1112.99 138.823L1114.16 117.492L1118.49 125.325L1122.49 135.824L1128.66 149.822L1133.32 158.155L1135.91 161.61C1137.18 163.294 1138.72 164.746 1140.48 165.904L1141.38 166.498C1143.88 168.15 1146.6 169.458 1149.46 170.387C1151.34 171.002 1153.34 171.21 1155.32 170.996L1157.53 170.757C1158.16 170.69 1158.75 170.452 1159.25 170.07C1161.03 168.714 1162.35 166.846 1163.04 164.717L1163.65 162.821L1164.53 160.253C1165.39 157.756 1166.58 155.39 1168.09 153.224L1169.51 151.188C1169.61 151.056 1169.71 150.931 1169.82 150.814L1174.14 146.364C1174.81 145.673 1175.38 144.893 1175.84 144.045L1176.64 142.564C1177.97 140.093 1178.82 137.391 1179.14 134.603C1179.37 132.652 1179.28 130.677 1178.88 128.754L1178.52 127.022C1178.07 124.846 1176.88 122.893 1175.15 121.492L1174.46 120.926C1170.6 117.754 1166.45 114.947 1162.07 112.537L1161.99 112.493L1154.65 108.493L1149.49 106.326L1146.82 101.827L1154.65 102.493L1162.99 104.16H1171.82L1176.82 101.827L1180.48 97.6606L1183.32 92.8277L1185.82 85.995L1187.65 79.1623L1190.15 72.163L1192.65 67.1635L1197.15 60.8307L1201.82 54.498L1205.15 49.4984V45.6655V40.6659L1203.32 37.3329L1198.98 33.8333L1194.15 33H1187.65L1178.15 35.3331L1169.49 38.4995L1159.15 44.9989L1148.49 52.3315L1140.49 58.6643L1130.99 67.8301L1126.66 73.1629L1119.82 83.4952Z" stroke="white" stroke-width="2.66642"/>
<path d="M1123.32 87.3283L1120.99 93.661L1125.99 90.828L1132.32 85.8284L1138.16 81.4955L1144.82 77.1626L1151.99 71.8297C1154.27 70.3299 1159.59 66.6969 1162.65 64.1638V61.8307L1161.82 59.1643L1159.65 56.6645L1154.82 56.1646L1150.65 57.3311L1146.82 59.6642L1140.66 64.1638L1133.49 72.4963L1127.49 80.4956L1123.32 87.3283Z" stroke="white" stroke-width="2.66642"/>
<path d="M1133.82 92.6611L1124.66 99.3272L1132.99 98.4939L1138.16 97.494L1146.49 95.3275L1156.65 91.9945L1162.49 89.6614L1165.32 86.6617L1166.49 84.3286L1165.65 81.4955L1162.49 78.8291L1157.49 78.6624L1150.99 80.8289L1145.65 84.3286L1133.82 92.6611Z" stroke="white" stroke-width="2.66642"/>
<path d="M1140.99 108.993H1134.99L1139.99 111.326L1144.65 114.992L1148.49 117.825L1152.65 120.992L1157.49 123.825L1161.32 123.158C1160.88 121.658 1159.49 118.192 1157.49 116.326C1157.49 116.192 1154.71 114.492 1153.32 113.659L1147.32 110.659L1140.99 108.993Z" stroke="white" stroke-width="2.66642"/>
<path d="M1129.99 110.659L1125.82 109.826L1129.99 116.326L1132.99 121.658L1136.99 128.491L1140.99 135.324L1145.82 140.323L1149.99 142.156L1153.32 141.49L1155.32 138.323V134.491L1152.65 129.658L1147.82 123.825L1140.99 117.825L1134.32 113.659L1129.99 110.659Z" stroke="white" stroke-width="2.66642"/>
<path d="M1127.49 124.825L1124.16 120.159L1125.49 125.325L1126.99 130.658L1129.32 136.824L1131.82 142.656L1133.82 147.156L1137.66 149.156L1138.49 147.156L1137.66 141.49L1134.66 135.824L1131.16 130.658L1127.49 124.825Z" stroke="white" stroke-width="2.66642"/>
<path d="M1095.33 122.825V120.325L1093.16 124.158L1090.66 128.491L1086.99 133.157L1083.16 138.323L1081.66 143.99V149.489L1084.83 147.656L1088.66 143.323L1090.66 139.49L1092.66 134.657C1092.99 133.324 1093.66 130.691 1093.66 130.824C1093.66 130.958 1094.44 127.769 1094.83 126.158L1095.33 122.825Z" stroke="white" stroke-width="2.66642"/>
<path d="M1087.66 111.826L1095.33 109.66L1091.83 114.492L1084.33 126.158L1080.66 131.991L1075.83 137.99L1071.66 140.823H1067.5L1065.5 139.157L1064.66 134.99L1066.5 129.491L1070 125.325L1075.83 119.825L1081.66 115.326L1087.66 111.826Z" stroke="white" stroke-width="2.66642"/>
<path d="M1079.49 108.993L1084.33 108.66V108.993L1083.66 111.159L1081.33 111.826L1077.33 113.326L1072.33 115.826L1069.16 118.325L1065.5 121.325L1062 123.492L1059.66 122.825V119.825L1061.5 116.992L1064.66 114.492L1068.83 111.826C1071 111.104 1076.16 109.526 1079.49 108.993Z" stroke="white" stroke-width="2.66642"/>
<path d="M1089.99 95.3275L1093.49 99.3272L1085.16 97.6606L1079.99 96.6607L1074.49 95.6608L1066.5 93.8277L1062.5 92.4945L1058.5 90.6613C1057.55 89.9947 1055.33 88.1615 1054 86.1617L1053.33 83.4953L1053.66 80.6622L1056 78.9957L1060 78.1625L1064.5 78.9957L1071.66 82.8287L1079.49 87.9949L1085.16 91.4946L1089.99 95.3275Z" stroke="white" stroke-width="2.66642"/>
<path d="M1092.99 89.9947L1099.33 94.6609L1096.83 87.6616L1092.99 81.1622L1088.33 75.6627L1082.33 69.1633L1077.66 65.3304C1076.11 64.1082 1071.66 60.7641 1066.33 57.1645C1065.16 56.6645 1063.5 55.9979 1062.16 56.4979C1061.1 56.8978 1059.72 58.1088 1059.16 58.6643L1058.83 61.3307L1061.16 64.9971L1064.5 68.1634L1071.66 73.3296L1074.66 75.8294L1081.16 80.4956L1087.33 85.3285L1092.99 89.9947Z" stroke="white" stroke-width="2.66642"/>
</svg>
