<svg width="323" height="309" viewBox="0 0 323 309" fill="none" xmlns="http://www.w3.org/2000/svg">
<g filter="url(#filter0_f_225_455)">
<ellipse cx="161.857" cy="154.481" rx="77.8569" ry="70.481" fill="#DCBA03"/>
</g>
<mask id="path-2-outside-1_225_455" maskUnits="userSpaceOnUse" x="127.242" y="147.353" width="74" height="16" fill="black">
<rect fill="white" x="127.242" y="147.353" width="74" height="16"/>
<path d="M131.22 162.599C130.645 162.599 130.118 162.497 129.639 162.291C129.16 162.086 128.797 161.826 128.55 161.511L129.269 160.156C129.515 160.416 129.789 160.635 130.091 160.813C130.405 160.991 130.755 161.08 131.138 161.08C131.412 161.08 131.645 161.045 131.836 160.977C132.042 160.909 132.233 160.799 132.411 160.648C132.589 160.484 132.754 160.279 132.904 160.032C133.068 159.786 133.246 159.485 133.438 159.129L133.685 158.656L128.427 148.655H130.378L134.67 157.137L138.963 148.655H140.914L134.937 159.93C134.718 160.34 134.492 160.71 134.26 161.039C134.027 161.367 133.767 161.648 133.479 161.881C133.192 162.113 132.863 162.291 132.493 162.415C132.137 162.538 131.713 162.599 131.22 162.599ZM150.021 162.599C149.035 162.599 148.111 162.428 147.248 162.086C146.399 161.744 145.653 161.265 145.01 160.648C144.38 160.019 143.88 159.272 143.51 158.41C143.154 157.534 142.976 156.568 142.976 155.514C142.976 154.46 143.154 153.502 143.51 152.639C143.88 151.763 144.38 151.017 145.01 150.4C145.653 149.771 146.399 149.285 147.248 148.942C148.111 148.6 149.035 148.429 150.021 148.429C150.623 148.429 151.178 148.497 151.684 148.634C152.205 148.771 152.677 148.963 153.101 149.209C153.539 149.456 153.93 149.743 154.272 150.072C154.628 150.4 154.943 150.756 155.217 151.14L153.779 151.941C153.382 151.366 152.848 150.893 152.177 150.524C151.52 150.14 150.801 149.949 150.021 149.949C149.268 149.949 148.569 150.085 147.926 150.359C147.282 150.633 146.721 151.017 146.242 151.509C145.776 152.002 145.407 152.591 145.133 153.276C144.873 153.946 144.743 154.693 144.743 155.514C144.743 156.322 144.873 157.068 145.133 157.753C145.407 158.437 145.776 159.026 146.242 159.519C146.721 160.012 147.282 160.395 147.926 160.669C148.569 160.943 149.268 161.08 150.021 161.08C150.801 161.08 151.52 160.895 152.177 160.525C152.848 160.156 153.382 159.676 153.779 159.088L155.237 159.889C154.662 160.669 153.95 161.319 153.101 161.84C152.266 162.346 151.239 162.599 150.021 162.599ZM168.356 162.353V150.174H160.346V162.353H158.642V148.655H170.06V162.353H168.356ZM174.495 162.353V148.655H183.47V150.174H176.199V154.59H183.326V156.11H176.199V160.833H183.47V162.353H174.495ZM196.887 162.353L192.513 156.52L188.138 162.353H186.064L191.404 155.329L186.372 148.655H188.446L192.513 154.138L196.559 148.655H198.633L193.622 155.309L198.941 162.353H196.887Z"/>
</mask>
<path d="M131.22 162.599C130.645 162.599 130.118 162.497 129.639 162.291C129.16 162.086 128.797 161.826 128.55 161.511L129.269 160.156C129.515 160.416 129.789 160.635 130.091 160.813C130.405 160.991 130.755 161.08 131.138 161.08C131.412 161.08 131.645 161.045 131.836 160.977C132.042 160.909 132.233 160.799 132.411 160.648C132.589 160.484 132.754 160.279 132.904 160.032C133.068 159.786 133.246 159.485 133.438 159.129L133.685 158.656L128.427 148.655H130.378L134.67 157.137L138.963 148.655H140.914L134.937 159.93C134.718 160.34 134.492 160.71 134.26 161.039C134.027 161.367 133.767 161.648 133.479 161.881C133.192 162.113 132.863 162.291 132.493 162.415C132.137 162.538 131.713 162.599 131.22 162.599ZM150.021 162.599C149.035 162.599 148.111 162.428 147.248 162.086C146.399 161.744 145.653 161.265 145.01 160.648C144.38 160.019 143.88 159.272 143.51 158.41C143.154 157.534 142.976 156.568 142.976 155.514C142.976 154.46 143.154 153.502 143.51 152.639C143.88 151.763 144.38 151.017 145.01 150.4C145.653 149.771 146.399 149.285 147.248 148.942C148.111 148.6 149.035 148.429 150.021 148.429C150.623 148.429 151.178 148.497 151.684 148.634C152.205 148.771 152.677 148.963 153.101 149.209C153.539 149.456 153.93 149.743 154.272 150.072C154.628 150.4 154.943 150.756 155.217 151.14L153.779 151.941C153.382 151.366 152.848 150.893 152.177 150.524C151.52 150.14 150.801 149.949 150.021 149.949C149.268 149.949 148.569 150.085 147.926 150.359C147.282 150.633 146.721 151.017 146.242 151.509C145.776 152.002 145.407 152.591 145.133 153.276C144.873 153.946 144.743 154.693 144.743 155.514C144.743 156.322 144.873 157.068 145.133 157.753C145.407 158.437 145.776 159.026 146.242 159.519C146.721 160.012 147.282 160.395 147.926 160.669C148.569 160.943 149.268 161.08 150.021 161.08C150.801 161.08 151.52 160.895 152.177 160.525C152.848 160.156 153.382 159.676 153.779 159.088L155.237 159.889C154.662 160.669 153.95 161.319 153.101 161.84C152.266 162.346 151.239 162.599 150.021 162.599ZM168.356 162.353V150.174H160.346V162.353H158.642V148.655H170.06V162.353H168.356ZM174.495 162.353V148.655H183.47V150.174H176.199V154.59H183.326V156.11H176.199V160.833H183.47V162.353H174.495ZM196.887 162.353L192.513 156.52L188.138 162.353H186.064L191.404 155.329L186.372 148.655H188.446L192.513 154.138L196.559 148.655H198.633L193.622 155.309L198.941 162.353H196.887Z" fill="black"/>
<path d="M129.639 162.291L129.375 162.908L129.639 162.291ZM128.55 161.511L127.958 161.197L127.754 161.581L128.022 161.924L128.55 161.511ZM129.269 160.156L129.756 159.695L129.114 159.017L128.677 159.842L129.269 160.156ZM130.091 160.813L129.749 161.39L129.761 161.396L130.091 160.813ZM131.836 160.977L131.624 160.341L131.617 160.343L131.611 160.346L131.836 160.977ZM132.411 160.648L132.844 161.16L132.855 161.151L132.866 161.141L132.411 160.648ZM132.904 160.032L132.346 159.661L132.339 159.672L132.332 159.683L132.904 160.032ZM133.438 159.129L134.028 159.447L134.032 159.439L133.438 159.129ZM133.685 158.656L134.279 158.966L134.441 158.655L134.278 158.344L133.685 158.656ZM128.427 148.655V147.984H127.317L127.834 148.967L128.427 148.655ZM130.378 148.655L130.976 148.352L130.79 147.984H130.378V148.655ZM134.67 157.137L134.072 157.439L134.67 158.621L135.268 157.439L134.67 157.137ZM138.963 148.655V147.984H138.551L138.365 148.352L138.963 148.655ZM140.914 148.655L141.506 148.969L142.028 147.984H140.914V148.655ZM134.937 159.93L135.529 160.245L135.53 160.244L134.937 159.93ZM134.26 161.039L134.807 161.426L134.26 161.039ZM133.479 161.881L133.901 162.402L133.479 161.881ZM132.493 162.415L132.281 161.779L132.274 161.781L132.493 162.415ZM131.22 161.929C130.726 161.929 130.29 161.841 129.903 161.675L129.375 162.908C129.946 163.152 130.564 163.27 131.22 163.27V161.929ZM129.903 161.675C129.497 161.501 129.237 161.301 129.078 161.098L128.022 161.924C128.356 162.351 128.822 162.671 129.375 162.908L129.903 161.675ZM129.142 161.825L129.861 160.47L128.677 159.842L127.958 161.197L129.142 161.825ZM128.782 160.617C129.071 160.921 129.393 161.179 129.75 161.39L130.432 160.236C130.185 160.09 129.96 159.911 129.756 159.695L128.782 160.617ZM129.761 161.396C130.182 161.635 130.646 161.75 131.138 161.75V160.409C130.863 160.409 130.629 160.347 130.42 160.229L129.761 161.396ZM131.138 161.75C131.464 161.75 131.777 161.71 132.062 161.608L131.611 160.346C131.512 160.381 131.36 160.409 131.138 160.409V161.75ZM132.048 161.613C132.34 161.516 132.606 161.362 132.844 161.16L131.978 160.137C131.86 160.237 131.743 160.302 131.624 160.341L132.048 161.613ZM132.866 161.141C133.097 160.928 133.299 160.671 133.476 160.382L132.332 159.683C132.208 159.886 132.081 160.041 131.957 160.156L132.866 161.141ZM133.462 160.404C133.641 160.135 133.83 159.815 134.028 159.446L132.848 158.811C132.663 159.155 132.496 159.437 132.346 159.661L133.462 160.404ZM134.032 159.439L134.279 158.966L133.09 158.346L132.844 158.819L134.032 159.439ZM134.278 158.344L129.02 148.343L127.834 148.967L133.091 158.968L134.278 158.344ZM128.427 149.325H130.378V147.984H128.427V149.325ZM129.78 148.957L134.072 157.439L135.268 156.834L130.976 148.352L129.78 148.957ZM135.268 157.439L139.561 148.957L138.365 148.352L134.072 156.834L135.268 157.439ZM138.963 149.325H140.914V147.984H138.963V149.325ZM140.321 148.341L134.345 159.616L135.53 160.244L141.506 148.969L140.321 148.341ZM134.346 159.614C134.138 160.004 133.927 160.349 133.713 160.651L134.807 161.426C135.058 161.071 135.298 160.677 135.529 160.245L134.346 159.614ZM133.713 160.651C133.512 160.934 133.293 161.169 133.057 161.36L133.901 162.402C134.24 162.127 134.541 161.8 134.807 161.426L133.713 160.651ZM133.057 161.36C132.836 161.539 132.579 161.68 132.281 161.779L132.705 163.051C133.147 162.903 133.548 162.688 133.901 162.402L133.057 161.36ZM132.274 161.781C132.007 161.874 131.66 161.929 131.22 161.929V163.27C131.766 163.27 132.268 163.202 132.713 163.048L132.274 161.781ZM147.248 162.086L146.998 162.708L147.001 162.709L147.248 162.086ZM145.01 160.648L144.536 161.122L144.541 161.128L144.546 161.133L145.01 160.648ZM143.51 158.41L142.889 158.662L142.894 158.674L143.51 158.41ZM143.51 152.639L142.893 152.378L142.891 152.383L143.51 152.639ZM145.01 150.4L145.478 150.88L145.479 150.879L145.01 150.4ZM147.248 148.942L147.001 148.319L146.998 148.321L147.248 148.942ZM151.684 148.634L151.509 149.281L151.514 149.282L151.684 148.634ZM153.101 149.209L152.765 149.789L152.773 149.793L153.101 149.209ZM154.272 150.072L153.808 150.555L153.817 150.564L154.272 150.072ZM155.217 151.14L155.543 151.725L156.198 151.36L155.762 150.75L155.217 151.14ZM153.779 151.941L153.227 152.322L153.573 152.823L154.105 152.526L153.779 151.941ZM152.177 150.524L151.839 151.103L151.846 151.107L151.854 151.111L152.177 150.524ZM147.926 150.359L147.663 149.743V149.743L147.926 150.359ZM146.242 151.509L145.761 151.042L145.755 151.049L146.242 151.509ZM145.133 153.276L144.51 153.027L144.508 153.033L145.133 153.276ZM145.133 157.753L144.506 157.991L144.511 158.002L145.133 157.753ZM146.242 159.519L145.755 159.979L145.761 159.986L146.242 159.519ZM147.926 160.669L148.188 160.052L147.926 160.669ZM152.177 160.525L151.854 159.938L151.849 159.941L152.177 160.525ZM153.779 159.088L154.102 158.5L153.565 158.206L153.223 158.713L153.779 159.088ZM155.237 159.889L155.777 160.286L156.231 159.67L155.56 159.301L155.237 159.889ZM153.101 161.84L153.449 162.413L153.452 162.411L153.101 161.84ZM150.021 161.929C149.114 161.929 148.275 161.772 147.495 161.463L147.001 162.709C147.947 163.085 148.956 163.27 150.021 163.27V161.929ZM147.499 161.464C146.727 161.153 146.053 160.72 145.473 160.164L144.546 161.133C145.253 161.809 146.072 162.334 146.998 162.708L147.499 161.464ZM145.484 160.174C144.917 159.608 144.464 158.934 144.127 158.146L142.894 158.674C143.296 159.611 143.842 160.429 144.536 161.122L145.484 160.174ZM144.131 158.158C143.812 157.37 143.647 156.492 143.647 155.514H142.306C142.306 156.645 142.497 157.697 142.889 158.662L144.131 158.158ZM143.647 155.514C143.647 154.536 143.812 153.666 144.13 152.895L142.891 152.383C142.497 153.337 142.306 154.384 142.306 155.514H143.647ZM144.128 152.899C144.466 152.099 144.917 151.429 145.478 150.88L144.541 149.921C143.843 150.604 143.294 151.427 142.893 152.378L144.128 152.899ZM145.479 150.879C146.058 150.312 146.73 149.874 147.499 149.564L146.998 148.321C146.069 148.695 145.248 149.229 144.541 149.921L145.479 150.879ZM147.495 149.565C148.275 149.256 149.114 149.099 150.021 149.099V147.759C148.956 147.759 147.947 147.944 147.001 148.319L147.495 149.565ZM150.021 149.099C150.573 149.099 151.067 149.162 151.509 149.281L151.859 147.987C151.288 147.833 150.674 147.759 150.021 147.759V149.099ZM151.514 149.282C151.981 149.406 152.397 149.575 152.765 149.789L153.438 148.63C152.957 148.35 152.428 148.137 151.855 147.986L151.514 149.282ZM152.773 149.793C153.164 150.014 153.509 150.268 153.808 150.555L154.736 149.588C154.351 149.218 153.914 148.898 153.43 148.625L152.773 149.793ZM153.817 150.564C154.14 150.863 154.425 151.184 154.671 151.529L155.762 150.75C155.461 150.328 155.115 149.938 154.727 149.579L153.817 150.564ZM154.89 150.554L153.453 151.355L154.105 152.526L155.543 151.725L154.89 150.554ZM154.331 151.56C153.869 150.891 153.254 150.351 152.501 149.937L151.854 151.111C152.442 151.435 152.895 151.84 153.227 152.322L154.331 151.56ZM152.515 149.945C151.752 149.5 150.917 149.278 150.021 149.278V150.619C150.686 150.619 151.287 150.781 151.839 151.103L152.515 149.945ZM150.021 149.278C149.185 149.278 148.396 149.431 147.663 149.743L148.188 150.976C148.743 150.74 149.351 150.619 150.021 150.619V149.278ZM147.663 149.743C146.94 150.051 146.304 150.484 145.761 151.042L146.722 151.977C147.139 151.549 147.625 151.216 148.188 150.976L147.663 149.743ZM145.755 151.049C145.226 151.609 144.813 152.271 144.511 153.027L145.755 153.525C146.001 152.911 146.326 152.396 146.729 151.97L145.755 151.049ZM144.508 153.033C144.214 153.792 144.072 154.621 144.072 155.514H145.413C145.413 154.764 145.532 154.101 145.758 153.518L144.508 153.033ZM144.072 155.514C144.072 156.395 144.214 157.223 144.506 157.991L145.759 157.515C145.531 156.914 145.413 156.249 145.413 155.514H144.072ZM144.511 158.002C144.813 158.758 145.226 159.42 145.755 159.979L146.729 159.059C146.326 158.632 146.001 158.117 145.755 157.504L144.511 158.002ZM145.761 159.986C146.304 160.544 146.94 160.978 147.663 161.286L148.188 160.052C147.625 159.813 147.139 159.48 146.722 159.052L145.761 159.986ZM147.663 161.286C148.396 161.598 149.185 161.75 150.021 161.75V160.409C149.351 160.409 148.743 160.288 148.188 160.052L147.663 161.286ZM150.021 161.75C150.912 161.75 151.745 161.538 152.506 161.109L151.849 159.941C151.295 160.252 150.69 160.409 150.021 160.409V161.75ZM152.501 161.112C153.257 160.695 153.874 160.146 154.335 159.462L153.223 158.713C152.89 159.207 152.439 159.616 151.854 159.938L152.501 161.112ZM153.456 159.675L154.914 160.476L155.56 159.301L154.102 158.5L153.456 159.675ZM154.698 159.491C154.175 160.2 153.528 160.792 152.751 161.268L153.452 162.411C154.372 161.847 155.149 161.138 155.777 160.286L154.698 159.491ZM152.754 161.266C152.046 161.695 151.147 161.929 150.021 161.929V163.27C151.332 163.27 152.486 162.997 153.449 162.413L152.754 161.266ZM168.356 162.353H167.686V163.023H168.356V162.353ZM168.356 150.174H169.026V149.504H168.356V150.174ZM160.346 150.174V149.504H159.676V150.174H160.346ZM160.346 162.353V163.023H161.017V162.353H160.346ZM158.642 162.353H157.972V163.023H158.642V162.353ZM158.642 148.655V147.984H157.972V148.655H158.642ZM170.061 148.655H170.731V147.984H170.061V148.655ZM170.061 162.353V163.023H170.731V162.353H170.061ZM169.026 162.353V150.174H167.686V162.353H169.026ZM168.356 149.504H160.346V150.845H168.356V149.504ZM159.676 150.174V162.353H161.017V150.174H159.676ZM160.346 161.683H158.642V163.023H160.346V161.683ZM159.312 162.353V148.655H157.972V162.353H159.312ZM158.642 149.325H170.061V147.984H158.642V149.325ZM169.39 148.655V162.353H170.731V148.655H169.39ZM170.061 161.683H168.356V163.023H170.061V161.683ZM174.495 162.353H173.824V163.023H174.495V162.353ZM174.495 148.655V147.984H173.824V148.655H174.495ZM183.47 148.655H184.14V147.984H183.47V148.655ZM183.47 150.174V150.845H184.14V150.174H183.47ZM176.199 150.174V149.504H175.529V150.174H176.199ZM176.199 154.59H175.529V155.26H176.199V154.59ZM183.326 154.59H183.996V153.92H183.326V154.59ZM183.326 156.11V156.78H183.996V156.11H183.326ZM176.199 156.11V155.439H175.529V156.11H176.199ZM176.199 160.833H175.529V161.504H176.199V160.833ZM183.47 160.833H184.14V160.163H183.47V160.833ZM183.47 162.353V163.023H184.14V162.353H183.47ZM175.165 162.353V148.655H173.824V162.353H175.165ZM174.495 149.325H183.47V147.984H174.495V149.325ZM182.799 148.655V150.174H184.14V148.655H182.799ZM183.47 149.504H176.199V150.845H183.47V149.504ZM175.529 150.174V154.59H176.87V150.174H175.529ZM176.199 155.26H183.326V153.92H176.199V155.26ZM182.655 154.59V156.11H183.996V154.59H182.655ZM183.326 155.439H176.199V156.78H183.326V155.439ZM175.529 156.11V160.833H176.87V156.11H175.529ZM176.199 161.504H183.47V160.163H176.199V161.504ZM182.799 160.833V162.353H184.14V160.833H182.799ZM183.47 161.683H174.495V163.023H183.47V161.683ZM196.887 162.353L196.351 162.755L196.552 163.023H196.887V162.353ZM192.513 156.52L193.049 156.118L192.513 155.403L191.977 156.118L192.513 156.52ZM188.138 162.353V163.023H188.473L188.675 162.755L188.138 162.353ZM186.064 162.353L185.53 161.947L184.712 163.023H186.064V162.353ZM191.404 155.329L191.937 155.735L192.244 155.331L191.939 154.926L191.404 155.329ZM186.372 148.655V147.984H185.027L185.837 149.058L186.372 148.655ZM188.446 148.655L188.985 148.255L188.784 147.984H188.446V148.655ZM192.513 154.138L191.974 154.537L192.514 155.265L193.052 154.536L192.513 154.138ZM196.559 148.655V147.984H196.22L196.019 148.257L196.559 148.655ZM198.633 148.655L199.168 149.058L199.977 147.984H198.633V148.655ZM193.622 155.309L193.086 154.906L192.782 155.309L193.087 155.713L193.622 155.309ZM198.941 162.353V163.023H200.287L199.476 161.949L198.941 162.353ZM197.423 161.951L193.049 156.118L191.977 156.923L196.351 162.755L197.423 161.951ZM191.977 156.118L187.602 161.951L188.675 162.755L193.049 156.923L191.977 156.118ZM188.138 161.683H186.064V163.023H188.138V161.683ZM186.598 162.759L191.937 155.735L190.87 154.924L185.53 161.947L186.598 162.759ZM191.939 154.926L186.907 148.251L185.837 149.058L190.868 155.733L191.939 154.926ZM186.372 149.325H188.446V147.984H186.372V149.325ZM187.908 149.054L191.974 154.537L193.051 153.739L188.985 148.255L187.908 149.054ZM193.052 154.536L197.098 149.053L196.019 148.257L191.973 153.74L193.052 154.536ZM196.559 149.325H198.633V147.984H196.559V149.325ZM198.097 148.251L193.086 154.906L194.157 155.712L199.168 149.058L198.097 148.251ZM193.087 155.713L198.406 162.757L199.476 161.949L194.157 154.905L193.087 155.713ZM198.941 161.683H196.887V163.023H198.941V161.683Z" fill="black" mask="url(#path-2-outside-1_225_455)"/>
<defs>
<filter id="filter0_f_225_455" x="0.922646" y="0.922646" width="321.868" height="307.117" filterUnits="userSpaceOnUse" color-interpolation-filters="sRGB">
<feFlood flood-opacity="0" result="BackgroundImageFix"/>
<feBlend mode="normal" in="SourceGraphic" in2="BackgroundImageFix" result="shape"/>
<feGaussianBlur stdDeviation="41.5387" result="effect1_foregroundBlur_225_455"/>
</filter>
</defs>
</svg>
