<svg width="567" height="311" viewBox="0 0 567 311" fill="none" xmlns="http://www.w3.org/2000/svg">
<rect x="25" y="239" width="145" height="42" fill="#D9D9D9"/>
<path d="M57.404 271H52.256V254.188L45.488 271H43.256L36.488 254.188V271H31.376V246.988H38.54L44.372 261.496L50.204 246.988H57.404V271ZM86.7249 271H80.8929L79.4169 266.932H69.1209L67.6089 271H61.7769L71.0649 246.988H77.4729L86.7249 271ZM78.0129 262.432L74.2689 252.1L70.5249 262.432H78.0129ZM96.2142 271H91.1022V246.988H108.094V251.488H96.2142V271ZM118.761 271H113.829V246.988H118.941V262.504L130.065 246.988H135.321V271H130.209V254.908L118.761 271ZM147.039 271H141.171L146.571 261.856C143.979 261.244 141.315 258.976 141.315 254.728C141.315 250.264 144.375 246.988 149.379 246.988H160.611V271H155.499V262.468H151.791L147.039 271ZM150.135 257.968H155.499V251.488H150.135C148.083 251.488 146.535 252.712 146.535 254.728C146.535 256.744 148.083 257.968 150.135 257.968Z" fill="black"/>
<rect x="156.541" y="133" width="145" height="42" transform="rotate(24.6871 156.541 133)" fill="#D9D9D9"/>
<path d="M172.617 175.609L167.94 173.459L174.962 158.183L161.79 170.632L159.762 169.7L160.635 151.598L153.613 166.873L148.968 164.738L158.997 142.921L165.506 145.913L164.746 161.531L176.104 150.784L182.646 153.791L172.617 175.609ZM199.258 187.855L193.959 185.419L194.317 181.107L184.962 176.806L181.889 179.871L176.59 177.435L195.058 159.497L200.881 162.174L199.258 187.855ZM194.921 176.432L195.835 165.48L188.117 173.304L194.921 176.432ZM207.88 191.818L203.236 189.683L213.264 167.866L228.703 174.963L226.824 179.052L216.03 174.09L207.88 191.818ZM228.366 201.235L223.885 199.175L233.914 177.358L238.559 179.493L232.078 193.591L248.666 184.139L253.441 186.334L243.413 208.152L238.768 206.017L245.489 191.395L228.366 201.235ZM254.06 213.046L248.728 210.595L257.454 204.542C255.354 202.904 253.881 199.73 255.655 195.871C257.52 191.815 261.668 190.116 266.215 192.206L276.42 196.897L266.392 218.715L261.747 216.58L265.31 208.827L261.941 207.279L254.06 213.046ZM262.316 202.498L267.19 204.739L269.896 198.851L265.022 196.611C263.158 195.754 261.24 196.219 260.398 198.051C259.556 199.883 260.452 201.641 262.316 202.498Z" fill="black"/>
<rect x="166" y="277.6" width="145" height="42" transform="rotate(-39.1773 166 277.6)" fill="#D9D9D9"/>
<path d="M211.334 281.936L207.343 285.188L196.723 272.155L202.097 289.463L200.366 290.873L184.499 282.116L195.12 295.149L191.157 298.378L175.988 279.764L181.542 275.239L195.228 282.801L190.583 267.87L196.165 263.322L211.334 281.936ZM234.063 263.413L229.542 267.097L225.828 264.876L217.847 271.381L219.245 275.489L214.724 279.173L206.755 254.692L211.722 250.644L234.063 263.413ZM221.897 262.275L212.468 256.631L216.092 267.005L221.897 262.275ZM241.419 257.419L237.457 260.648L222.288 242.034L235.46 231.3L238.302 234.788L229.093 242.293L241.419 257.419ZM258.897 243.175L255.074 246.291L239.905 227.677L243.868 224.448L253.67 236.476L252.491 217.42L256.565 214.1L271.734 232.714L267.772 235.943L257.606 223.469L258.897 243.175ZM280.819 225.311L276.27 229.018L274.679 218.519C272.283 219.682 268.786 219.606 266.102 216.313C263.282 212.853 263.585 208.38 267.464 205.219L276.171 198.124L291.339 216.737L287.377 219.967L281.987 213.353L279.112 215.695L280.819 225.311ZM274.986 213.253L279.144 209.865L275.051 204.841L270.892 208.23C269.302 209.526 268.875 211.453 270.148 213.016C271.422 214.578 273.395 214.549 274.986 213.253Z" fill="black"/>
<rect x="104" y="152.645" width="145" height="42" transform="rotate(-63.3932 104 152.645)" fill="#D9D9D9"/>
<path d="M147.123 138.004L144.818 142.606L129.786 135.077L141.786 148.658L140.787 150.653L122.724 149.175L137.756 156.705L135.466 161.275L113.997 150.521L117.205 144.116L132.789 145.399L122.429 133.687L125.654 127.249L147.123 138.004ZM160.255 111.788L157.643 117.002L153.345 116.5L148.734 125.706L151.694 128.879L149.082 134.094L131.772 115.035L134.642 109.306L160.255 111.788ZM148.693 115.74L137.778 114.46L145.339 122.435L148.693 115.74ZM164.505 103.303L162.215 107.874L140.746 97.1198L148.356 81.9272L152.38 83.9426L147.059 94.5645L164.505 103.303ZM174.603 83.1445L172.394 87.5542L150.925 76.8001L153.214 72.2294L167.087 79.1785L158.196 62.2834L160.55 57.584L182.019 68.3382L179.73 72.9088L165.342 65.7018L174.603 83.1445ZM187.268 57.8606L184.64 63.1072L178.882 54.1838C177.174 56.2272 173.953 57.5933 170.155 55.6908C166.164 53.6915 164.605 49.4884 166.847 45.0143L171.877 34.9717L193.346 45.7259L191.057 50.2965L183.428 46.4753L181.767 49.7907L187.268 57.8606ZM177.002 49.2559L179.405 44.4599L173.611 41.5578L171.209 46.3537C170.29 48.1884 170.691 50.1207 172.493 51.0236C174.296 51.9265 176.083 51.0906 177.002 49.2559Z" fill="black"/>
<rect x="308" y="189.841" width="148.621" height="45.499" transform="rotate(-3.02424 308 189.841)" fill="#D9D9D9"/>
<path d="M342.269 222.411L337.129 222.682L336.242 205.894L330.37 223.04L328.141 223.157L320.496 206.726L321.383 223.514L316.278 223.784L315.011 199.805L322.165 199.428L328.754 213.608L333.813 198.812L341.003 198.432L342.269 222.411ZM371.55 220.864L365.726 221.172L364.037 217.187L353.755 217.73L352.46 221.872L346.636 222.18L354.644 197.712L361.044 197.373L371.55 220.864ZM362.398 212.767L358.114 202.647L354.92 213.163L362.398 212.767ZM381.026 220.363L375.921 220.633L374.654 196.654L391.622 195.758L391.86 200.252L379.996 200.878L381.026 220.363ZM403.541 219.174L398.616 219.434L397.349 195.455L402.454 195.186L403.272 210.68L413.562 194.599L418.811 194.322L420.078 218.3L414.973 218.57L414.124 202.5L403.541 219.174ZM431.78 217.682L425.92 217.991L430.83 208.575C428.209 208.101 425.429 205.977 425.205 201.734C424.97 197.277 427.853 193.844 432.85 193.58L444.066 192.987L445.333 216.966L440.228 217.235L439.778 208.715L436.075 208.911L431.78 217.682ZM434.184 204.505L439.541 204.222L439.199 197.751L433.842 198.034C431.793 198.142 430.312 199.446 430.418 201.459C430.524 203.472 432.135 204.613 434.184 204.505Z" fill="black"/>
<rect x="377.791" y="17" width="148.621" height="45.499" transform="rotate(51.8737 377.791 17)" fill="#D9D9D9"/>
<path d="M370.851 63.7654L367.673 59.7157L380.898 49.336L363.494 54.3916L362.116 52.6358L371.163 36.9321L357.938 47.3118L354.781 43.2904L373.671 28.4655L378.094 34.101L370.281 47.646L385.295 43.2766L389.74 48.9405L370.851 63.7654ZM388.954 86.8307L385.353 82.243L387.642 78.5703L381.285 70.4709L377.151 71.7931L373.551 67.2053L398.174 59.6868L402.131 64.7277L388.954 86.8307ZM390.315 74.6875L396.131 65.3634L385.692 68.7971L390.315 74.6875ZM394.812 94.2955L391.656 90.2742L410.545 75.4493L421.036 88.8161L417.496 91.5943L410.161 82.2489L394.812 94.2955ZM408.732 112.032L405.687 108.152L424.577 93.327L427.733 97.3484L415.527 106.928L434.601 106.099L437.846 110.234L418.956 125.059L415.8 121.037L428.459 111.102L408.732 112.032ZM426.191 134.277L422.569 129.661L433.096 128.263C431.977 125.847 432.116 122.351 435.458 119.728C438.97 116.972 443.436 117.357 446.525 121.293L453.46 130.129L434.571 144.954L431.415 140.932L438.126 135.665L435.837 132.748L426.191 134.277ZM438.355 128.667L441.666 132.886L446.764 128.886L443.452 124.666C442.185 123.052 440.267 122.59 438.681 123.834C437.095 125.079 437.088 127.052 438.355 128.667Z" fill="black"/>
<rect x="275" y="246" width="110" height="42" fill="#D9D9D9"/>
<path d="M300.024 282.428V278H281.376V253.988H286.488V273.5H297.828V253.988H302.976V273.5H305.136V282.428H300.024ZM327.282 278H310.29V253.988H327.282V258.488H315.402V263.564H327.03V268.064H315.402V273.5H327.282V278ZM355.038 278H349.89V267.92H338.55V278H333.438V253.988H338.55V263.42H349.89V253.988H355.038V278ZM365.17 278.432C362.974 278.432 360.814 277.676 359.734 276.704L361.678 272.6C362.506 273.284 363.622 273.896 364.774 273.896C366.538 273.896 367.33 273.176 368.266 271.412L359.41 253.988H365.206L371.146 266.732L377.122 253.988H382.918L373.018 273.392C371.542 276.308 369.454 278.432 365.17 278.432Z" fill="black"/>
<rect x="101" y="203.446" width="110" height="42" transform="rotate(-14.057 101 203.446)" fill="#D9D9D9"/>
<path d="M134.122 232.705L133.047 228.41L114.957 232.939L109.125 209.646L114.084 208.404L118.823 227.332L129.824 224.578L125.084 205.65L130.078 204.4L134.817 223.327L136.913 222.803L139.081 231.463L134.122 232.705ZM159.488 221.789L143.005 225.916L137.173 202.623L153.656 198.496L154.749 202.861L143.225 205.747L144.458 210.671L155.738 207.846L156.831 212.212L145.551 215.036L146.871 220.309L158.395 217.424L159.488 221.789ZM186.414 215.047L181.42 216.298L178.971 206.52L167.971 209.274L170.419 219.052L165.46 220.294L159.628 197.001L164.587 195.759L166.878 204.909L177.878 202.154L175.588 193.005L180.581 191.754L186.414 215.047ZM196.347 213.005C194.217 213.539 191.938 213.33 190.654 212.649L191.543 208.196C192.513 208.659 193.744 208.981 194.861 208.701C196.572 208.273 197.166 207.382 197.645 205.444L184.822 190.692L190.445 189.285L199.302 200.204L202.004 186.39L207.627 184.983L202.736 206.21C202.012 209.397 200.503 211.965 196.347 213.005Z" fill="black"/>
<rect x="185.773" y="83" width="110" height="42" transform="rotate(32.8339 185.773 83)" fill="#D9D9D9"/>
<path d="M187.048 127.177L189.448 123.456L173.78 113.345L186.799 93.1695L191.094 95.9412L180.515 112.336L190.043 118.485L200.623 102.09L204.948 104.881L194.369 121.276L196.184 122.447L191.343 129.949L187.048 127.177ZM212.352 138.236L198.074 129.023L211.094 108.847L225.371 118.06L222.931 121.841L212.949 115.4L210.197 119.665L219.967 125.969L217.527 129.751L207.757 123.446L204.81 128.013L214.792 134.455L212.352 138.236ZM235.674 153.285L231.348 150.494L236.814 142.025L227.285 135.876L221.82 144.346L217.525 141.574L230.544 121.398L234.839 124.17L229.725 132.095L239.254 138.243L244.368 130.318L248.693 133.11L235.674 153.285ZM243.953 159.142C242.108 157.951 240.703 156.145 240.322 154.743L244.181 152.348C244.506 153.372 245.112 154.491 246.08 155.116C247.562 156.073 248.618 155.897 250.361 154.922L252.367 135.48L257.237 138.623L255.318 152.551L267.249 145.084L272.119 148.226L253.28 159.163C250.459 160.812 247.553 161.465 243.953 159.142Z" fill="black"/>
<rect x="249" y="169.022" width="110" height="42" transform="rotate(-21.2866 249 169.022)" fill="#D9D9D9"/>
<path d="M285.542 193.881L283.934 189.755L266.559 196.525L257.841 174.151L262.605 172.295L269.688 190.476L280.254 186.359L273.171 168.179L277.968 166.31L285.051 184.49L287.064 183.706L290.305 192.025L285.542 193.881ZM309.333 179.86L293.5 186.028L284.783 163.654L300.615 157.486L302.249 161.679L291.18 165.992L293.022 170.721L303.857 166.5L305.491 170.693L294.656 174.914L296.629 179.979L307.699 175.667L309.333 179.86ZM335.195 169.783L330.398 171.652L326.739 162.26L316.173 166.377L319.832 175.769L315.069 177.625L306.352 155.251L311.115 153.395L314.539 162.184L325.105 158.067L321.681 149.278L326.478 147.409L335.195 169.783ZM344.793 166.507C342.747 167.305 340.46 167.384 339.1 166.871L339.422 162.341C340.442 162.678 341.704 162.843 342.777 162.425C344.421 161.784 344.897 160.826 345.129 158.842L330.552 145.822L335.952 143.718L346.114 153.436L347.055 139.392L352.456 137.288L350.276 158.962C349.959 162.215 348.785 164.952 344.793 166.507Z" fill="#030013"/>
<rect x="447" y="259.064" width="110" height="42" transform="rotate(-12.8153 447 259.064)" fill="#D9D9D9"/>
<path d="M479.48 289.034L478.498 284.716L460.315 288.853L454.988 265.439L459.973 264.305L464.301 283.331L475.359 280.816L471.031 261.79L476.05 260.648L480.378 279.674L482.485 279.195L484.465 287.9L479.48 289.034ZM505.077 278.67L488.508 282.439L483.182 259.025L499.751 255.256L500.749 259.644L489.165 262.279L490.291 267.229L501.629 264.65L502.627 269.038L491.289 271.617L492.495 276.918L504.079 274.282L505.077 278.67ZM532.142 272.514L527.122 273.656L524.886 263.827L513.829 266.342L516.065 276.171L511.08 277.305L505.754 253.891L510.738 252.757L512.831 261.954L523.888 259.439L521.796 250.242L526.816 249.1L532.142 272.514ZM542.117 270.688C539.976 271.175 537.702 270.917 536.433 270.208L537.419 265.775C538.378 266.259 539.602 266.608 540.725 266.352C542.445 265.961 543.058 265.083 543.579 263.156L531.079 248.13L536.731 246.845L545.349 257.954L548.35 244.201L554.001 242.916L548.652 264.032C547.859 267.203 546.295 269.737 542.117 270.688Z" fill="black"/>
<rect x="151.82" y="199" width="135" height="38" transform="rotate(22.9566 151.82 199)" fill="#D9D9D9"/>
<path d="M148.616 232.994L144.074 231.071L153.44 208.96L158.147 210.954L152.095 225.241L168.39 215.293L173.23 217.343L163.864 239.453L159.157 237.459L165.433 222.642L148.616 232.994ZM194.179 252.294L189.439 250.286L195.996 234.806L183.207 247.647L181.152 246.776L181.477 228.656L174.92 244.136L170.213 242.142L179.578 220.032L186.175 222.826L185.886 238.46L196.915 227.376L203.545 230.184L194.179 252.294ZM216.206 261.624L200.559 254.997L209.925 232.886L225.571 239.514L223.816 243.657L212.877 239.024L210.897 243.698L221.604 248.233L219.849 252.377L209.142 247.841L207.022 252.847L217.961 257.48L216.206 261.624ZM237.521 270.653L221.874 264.025L231.24 241.915L246.886 248.542L245.131 252.686L234.192 248.052L232.212 252.726L242.919 257.262L241.164 261.405L230.457 256.87L228.337 261.875L239.276 266.509L237.521 270.653ZM253.035 277.224L248.294 275.216L255.905 257.249L249.441 254.511L251.196 250.368L268.831 257.838L267.076 261.981L260.645 259.257L253.035 277.224Z" fill="black"/>
<rect x="23.1504" y="150.625" width="135" height="38" transform="rotate(35.942 23.1504 150.625)" fill="#D9D9D9"/>
<path d="M12.3899 183.03L8.3969 180.135L22.4911 160.695L26.6299 163.695L17.5225 176.257L35.636 170.225L39.8913 173.31L25.7971 192.75L21.6583 189.749L31.1038 176.721L12.3899 183.03ZM52.4516 212.074L48.2837 209.053L58.1517 195.442L42.8042 205.08L40.9972 203.77L45.3858 186.186L35.5177 199.797L31.379 196.797L45.4732 177.357L51.2733 181.562L47.4792 196.731L60.7166 188.408L66.5458 192.634L52.4516 212.074ZM71.8182 226.115L58.0613 216.141L72.1555 196.701L85.9124 206.675L83.2711 210.318L73.6529 203.345L70.6734 207.454L80.0876 214.28L77.4462 217.923L68.0321 211.098L64.8413 215.499L74.4595 222.472L71.8182 226.115ZM90.5593 239.702L76.8024 229.729L90.8966 210.288L104.654 220.262L102.012 223.905L92.394 216.932L89.4145 221.042L98.8287 227.867L96.1874 231.51L86.7732 224.685L83.5825 229.086L93.2006 236.059L90.5593 239.702ZM104.2 249.592L100.032 246.57L111.485 230.773L105.801 226.652L108.443 223.009L123.948 234.251L121.307 237.894L115.653 233.795L104.2 249.592Z" fill="black"/>
<rect x="290.316" width="135" height="38" transform="rotate(55.5007 290.316 0)" fill="#D9D9D9"/>
<path d="M269.327 26.9327L266.534 22.868L286.323 9.26773L289.218 13.4807L276.431 22.2689L295.519 22.6484L298.496 26.98L278.707 40.5803L275.811 36.3673L289.073 27.2529L269.327 26.9327ZM297.354 67.7129L294.438 63.4702L308.293 53.948L290.605 57.8925L289.34 56.053L299.362 40.9531L285.507 50.4753L282.612 46.2623L302.401 32.662L306.458 38.5661L297.805 51.5897L313.065 48.1788L317.143 54.1126L297.354 67.7129ZM310.902 87.4269L301.278 73.4232L321.067 59.8229L330.691 73.8266L326.983 76.3754L320.254 66.5846L316.071 69.4597L322.657 79.0427L318.948 81.5915L312.362 72.0085L307.882 75.0874L314.611 84.8781L310.902 87.4269ZM324.013 106.504L314.389 92.5005L334.178 78.9002L343.803 92.9038L340.094 95.4526L333.365 85.6619L329.182 88.5369L335.768 98.12L332.059 100.669L325.473 91.0857L320.993 94.1647L327.722 103.955L324.013 106.504ZM333.556 120.389L330.64 116.147L346.721 105.095L342.745 99.3098L346.453 96.761L357.301 112.545L353.592 115.094L349.637 109.338L333.556 120.389Z" fill="black"/>
<rect x="45.9629" y="91" width="135" height="38" transform="rotate(41.0644 45.9629 91)" fill="#D9D9D9"/>
<path d="M32.3523 122.314L28.6337 119.074L44.4074 100.97L48.2617 104.328L38.0691 116.027L56.6489 111.635L60.6117 115.088L44.8381 133.192L40.9838 129.834L51.5547 117.701L32.3523 122.314ZM69.6608 154.82L65.7793 151.438L76.8233 138.762L60.6765 146.992L58.9936 145.526L64.9346 128.404L53.8907 141.08L50.0364 137.722L65.8101 119.617L71.2115 124.323L66.0783 139.093L80.0058 131.985L85.4344 136.715L69.6608 154.82ZM87.6965 170.533L74.885 159.371L90.6586 141.267L103.47 152.429L100.514 155.822L91.5568 148.018L88.2224 151.845L96.9896 159.483L94.0335 162.876L85.2663 155.238L81.6954 159.336L90.6525 167.14L87.6965 170.533ZM105.15 185.74L92.3381 174.577L108.112 156.473L120.923 167.635L117.967 171.028L109.01 163.224L105.676 167.051L114.443 174.69L111.487 178.083L102.719 170.444L99.1485 174.543L108.106 182.347L105.15 185.74ZM117.853 196.807L113.971 193.426L126.789 178.714L121.496 174.103L124.452 170.71L138.892 183.291L135.936 186.684L130.67 182.096L117.853 196.807Z" fill="black"/>
<rect x="337.846" y="140" width="135" height="38" transform="rotate(5.80807 337.846 140)" fill="#D9D9D9"/>
<path d="M344.807 173.427L339.901 172.928L342.331 149.04L347.416 149.557L345.846 164.993L358.483 150.683L363.712 151.214L361.282 175.103L356.197 174.586L357.825 158.576L344.807 173.427ZM394.036 178.435L388.914 177.914L390.616 161.188L382.181 177.229L379.961 177.003L374.929 159.593L373.227 176.318L368.142 175.801L370.571 151.912L377.699 152.637L382.033 167.661L389.303 153.817L396.466 154.546L394.036 178.435ZM417.834 180.856L400.929 179.136L403.359 155.247L420.264 156.967L419.809 161.444L407.989 160.241L407.476 165.291L419.044 166.468L418.589 170.945L407.02 169.768L406.47 175.176L418.289 176.379L417.834 180.856ZM440.863 183.198L423.959 181.479L426.389 157.59L443.293 159.309L442.838 163.786L431.019 162.584L430.505 167.634L442.074 168.811L441.618 173.288L430.05 172.111L429.5 177.519L441.319 178.721L440.863 183.198ZM457.625 184.903L452.504 184.382L454.478 164.97L447.494 164.26L447.95 159.783L467.003 161.721L466.548 166.198L459.6 165.491L457.625 184.903Z" fill="black"/>
<rect x="233.975" y="69" width="135" height="38" transform="rotate(28.2317 233.975 69)" fill="#D9D9D9"/>
<path d="M227.657 102.555L223.312 100.222L234.671 79.0669L239.174 81.485L231.835 95.1553L248.975 86.7471L253.606 89.2334L242.247 110.389L237.743 107.971L245.356 93.7931L227.657 102.555ZM271.253 125.963L266.718 123.527L274.671 108.715L260.755 120.326L258.788 119.27L260.778 101.256L252.826 116.069L248.322 113.65L259.68 92.4948L265.992 95.8836L264.267 111.425L276.269 101.401L282.612 104.807L271.253 125.963ZM292.329 137.278L277.358 129.24L288.717 108.085L303.687 116.123L301.559 120.087L291.092 114.468L288.691 118.94L298.935 124.44L296.807 128.405L286.562 122.904L283.991 127.694L294.457 133.313L292.329 137.278ZM312.723 148.228L297.753 140.19L309.111 119.035L324.082 127.073L321.953 131.037L311.486 125.418L309.085 129.89L319.33 135.39L317.201 139.355L306.957 133.854L304.385 138.644L314.852 144.263L312.723 148.228ZM327.567 156.198L323.032 153.763L332.262 136.572L326.077 133.251L328.205 129.287L345.079 138.346L342.95 142.311L336.797 139.007L327.567 156.198Z" fill="black"/>
<rect x="385" y="262.958" width="135" height="38" transform="rotate(-29.258 385 262.958)" fill="#D9D9D9"/>
<path d="M409.903 286.319L405.601 288.73L393.865 267.781L398.325 265.283L405.908 278.819L408.03 259.846L412.615 257.277L424.351 278.226L419.891 280.724L412.026 266.685L409.903 286.319ZM453.073 262.135L448.582 264.651L440.365 249.984L442.677 267.959L440.73 269.05L426.609 257.69L434.826 272.358L430.366 274.856L418.63 253.907L424.88 250.406L437.059 260.213L435.056 244.705L441.338 241.186L453.073 262.135ZM473.943 250.444L459.118 258.749L447.383 237.8L462.207 229.495L464.406 233.421L454.042 239.227L456.523 243.656L466.667 237.973L468.867 241.899L458.722 247.582L461.379 252.324L471.743 246.518L473.943 250.444ZM494.138 239.13L479.313 247.435L467.578 226.486L482.402 218.182L484.601 222.108L474.237 227.914L476.718 232.342L486.862 226.659L489.062 230.585L478.917 236.268L481.574 241.011L491.938 235.205L494.138 239.13ZM508.837 230.896L504.345 233.412L494.809 216.389L488.685 219.82L486.485 215.894L503.194 206.534L505.393 210.46L499.3 213.873L508.837 230.896Z" fill="black"/>
</svg>
