<svg width="765" height="712" viewBox="0 0 765 712" fill="none" xmlns="http://www.w3.org/2000/svg">
<g filter="url(#filter0_f_195_1045)">
<path d="M656.652 439.449C645.354 476.109 605.555 501.172 548.4 511.078C491.466 520.945 418.425 515.502 342.863 492.215C267.3 468.928 203.866 432.312 162.364 392.108C120.699 351.748 101.913 308.629 113.211 271.97C124.509 235.31 164.308 210.247 221.463 200.341C278.397 190.473 351.437 195.916 427 219.203C502.563 242.49 565.997 279.107 607.499 319.311C649.163 359.671 667.95 402.789 656.652 439.449Z" stroke="#FF00E6" stroke-width="7.27978"/>
</g>
<path d="M660.098 440.432C648.565 477.853 607.786 502.721 550.509 512.336C493.311 521.938 420.048 516.239 344.307 492.897C268.567 469.555 204.805 433.026 162.934 392.892C121.006 352.704 101.299 309.195 112.832 271.774C124.365 234.352 165.144 209.484 222.421 199.869C279.619 190.267 352.882 195.967 428.623 219.309C504.363 242.651 568.125 279.18 609.996 319.313C651.924 359.502 671.631 403.01 660.098 440.432Z" stroke="#FF00E6" stroke-width="2.42659"/>
<path d="M265.348 583.186C266.559 584.344 267.504 585.648 268.183 587.097C268.863 588.546 269.28 590.053 269.435 591.617C269.562 593.184 269.435 594.755 269.055 596.329C268.674 597.903 268.029 599.394 267.121 600.802C266.212 602.21 265.175 603.326 264.009 604.149C262.842 604.972 261.625 605.485 260.356 605.687C259.059 605.893 257.752 605.766 256.434 605.306C255.116 604.847 253.852 604.038 252.641 602.88C251.429 601.722 250.484 600.418 249.805 598.969C249.126 597.52 248.723 596.012 248.596 594.445C248.44 592.881 248.553 591.312 248.933 589.737C249.314 588.163 249.959 586.672 250.867 585.264C251.776 583.856 252.813 582.74 253.979 581.917C255.146 581.094 256.378 580.58 257.675 580.374C258.943 580.171 260.236 580.3 261.554 580.76C262.872 581.22 264.136 582.029 265.348 583.186ZM263.985 585.299C263.068 584.422 262.119 583.822 261.137 583.499C260.142 583.194 259.162 583.134 258.196 583.318C257.218 583.522 256.289 583.956 255.41 584.623C254.501 585.292 253.691 586.179 252.979 587.283C252.267 588.386 251.751 589.554 251.432 590.788C251.096 592.005 250.969 593.206 251.051 594.392C251.133 595.578 251.419 596.713 251.91 597.798C252.389 598.901 253.087 599.891 254.003 600.768C254.92 601.644 255.884 602.242 256.894 602.563C257.876 602.886 258.85 602.956 259.816 602.772C260.782 602.587 261.711 602.152 262.603 601.467C263.495 600.782 264.297 599.887 265.009 598.784C265.721 597.68 266.245 596.52 266.581 595.302C266.904 594.104 267.031 592.902 266.962 591.698C266.88 590.512 266.599 589.367 266.121 588.263C265.613 587.163 264.901 586.175 263.985 585.299Z" fill="white"/>
<path d="M254.736 571.578L237.254 585.989L229.438 573.37L231.378 571.771L237.709 581.993L253.251 569.181L254.736 571.578Z" fill="white"/>
<path d="M239.141 539.417L229.731 543.832L234.585 556.157L243.995 551.743L245.028 554.366L224.517 563.989L223.484 561.365L232.309 557.225L227.456 544.899L218.63 549.04L217.597 546.416L238.108 536.794L239.141 539.417Z" fill="white"/>
<path d="M235.977 530.038L213.867 534.981L213.233 532.234L230.504 528.373L210.301 519.525L209.652 516.712L231.762 511.768L232.395 514.515L214.761 518.458L235.366 527.39L235.977 530.038Z" fill="white"/>
<path d="M228.521 492.991L205.865 493.003L205.088 482.944C205.013 481.974 205.092 481.093 205.326 480.303C205.536 479.512 205.881 478.846 206.36 478.304C206.816 477.762 207.396 477.344 208.097 477.05C208.777 476.756 209.535 476.609 210.373 476.608C211.098 476.608 211.763 476.721 212.369 476.946C212.974 477.149 213.517 477.442 214 477.826C214.458 478.187 214.853 478.604 215.184 479.078C215.492 479.552 215.723 480.049 215.876 480.568C215.92 479.958 216.091 479.394 216.391 478.874C216.689 478.332 217.072 477.869 217.54 477.485C218.007 477.079 218.549 476.762 219.165 476.536C219.78 476.287 220.427 476.163 221.107 476.163C222.012 476.162 222.85 476.308 223.62 476.601C224.39 476.895 225.069 477.323 225.656 477.887C226.243 478.451 226.715 479.14 227.072 479.952C227.427 480.743 227.645 481.657 227.725 482.695L228.521 492.991ZM214.941 483.413C214.842 482.126 214.427 481.156 213.697 480.501C212.944 479.847 212.047 479.52 211.006 479.521C209.987 479.521 209.152 479.849 208.5 480.504C207.826 481.159 207.539 482.13 207.638 483.417L208.161 490.19L215.464 490.187L214.941 483.413ZM225.256 483.272C225.154 481.94 224.734 480.913 223.999 480.191C223.24 479.447 222.249 479.074 221.026 479.075C220.505 479.075 220.014 479.166 219.552 479.347C219.091 479.528 218.704 479.799 218.392 480.16C218.056 480.499 217.806 480.928 217.642 481.448C217.456 481.967 217.39 482.577 217.444 483.277L217.978 490.185L225.79 490.181L225.256 483.272Z" fill="white"/>
<path d="M226.291 457.286L203.882 453.951L204.305 439.113L206.791 439.483L206.448 451.503L226.371 454.468L226.291 457.286Z" fill="white"/>
<path d="M225.414 437.233C225.477 436.557 225.422 435.933 225.25 435.362C225.057 434.763 224.662 434.174 224.062 433.594C223.441 433.008 222.571 432.433 221.453 431.867C220.314 431.274 218.82 430.631 216.971 429.938L206.028 425.92L207.306 412.121L229.347 417.359L229.088 420.167L209.491 415.509L208.705 423.999L217.426 427.212C219.82 428.103 221.732 428.973 223.162 429.819C224.572 430.639 225.643 431.481 226.373 432.345C227.106 433.188 227.555 434.055 227.72 434.947C227.907 435.844 227.954 436.8 227.86 437.814L225.414 437.233Z" fill="white"/>
<path d="M232.446 392.978L227.355 393.407L225.617 404.549L230.09 408.08L229.593 411.268L209.445 395.284L209.984 391.827L232.943 389.789L232.446 392.978ZM212.496 394.44L223.352 402.968L224.833 393.47L212.496 394.44Z" fill="white"/>
<path d="M235.299 378.415C235.095 379.39 234.807 380.272 234.437 381.062C234.092 381.837 233.685 382.528 233.216 383.134C232.752 383.718 232.251 384.203 231.714 384.591C231.181 384.955 230.636 385.219 230.078 385.382L228.746 383.089C229.706 382.75 230.574 382.086 231.351 381.098C232.128 380.11 232.661 378.929 232.949 377.555C233.315 375.804 233.254 374.303 232.763 373.052C232.257 371.771 231.393 370.888 230.172 370.404C229.52 370.145 228.932 370.068 228.408 370.172C227.868 370.246 227.398 370.48 226.996 370.872C226.595 371.265 226.246 371.787 225.95 372.438C225.654 373.089 225.418 373.835 225.241 374.677L224.294 379.199L221.958 378.272L222.905 373.75C223.058 373.019 223.139 372.307 223.147 371.614C223.139 370.891 223.05 370.231 222.878 369.635C222.686 369.03 222.409 368.501 222.048 368.045C221.667 367.582 221.171 367.229 220.56 366.987C219.971 366.753 219.425 366.693 218.923 366.805C218.425 366.896 217.978 367.127 217.581 367.497C217.163 367.86 216.813 368.333 216.531 368.917C216.228 369.493 216 370.147 215.847 370.878C215.322 373.383 215.736 375.815 217.088 378.176L215.126 379.054C214.376 377.844 213.837 376.443 213.51 374.848C213.167 373.224 213.181 371.525 213.552 369.752C213.78 368.666 214.119 367.696 214.572 366.844C215.029 365.969 215.573 365.273 216.206 364.755C216.822 364.208 217.533 363.865 218.336 363.728C219.119 363.583 219.953 363.685 220.837 364.036C221.594 364.336 222.225 364.755 222.728 365.29C223.232 365.826 223.634 366.406 223.937 367.03C224.239 367.654 224.456 368.304 224.588 368.981C224.704 369.627 224.75 370.221 224.728 370.765C224.876 370.271 225.129 369.772 225.486 369.265C225.843 368.759 226.285 368.334 226.813 367.991C227.341 367.648 227.955 367.436 228.657 367.354C229.362 367.25 230.136 367.365 230.978 367.699C231.862 368.05 232.631 368.571 233.284 369.262C233.937 369.953 234.461 370.773 234.855 371.721C235.228 372.662 235.465 373.704 235.567 374.849C235.648 375.985 235.559 377.174 235.299 378.415Z" fill="white"/>
<path d="M242.162 346.692L237.099 346.498L234.23 357.404L238.272 361.474L237.451 364.595L219.25 346.183L220.14 342.799L242.983 343.571L242.162 346.692ZM222.345 345.713L232.161 355.55L234.607 346.253L222.345 345.713Z" fill="white"/>
<path d="M248.389 325.091L237.715 327.424L244.035 338.89L243.003 342.162L235.428 328.24L223.2 330.95L224.232 327.678L234.244 325.558L228.269 314.883L229.301 311.612L236.501 324.726L249.411 321.852L248.389 325.091Z" fill="white"/>
<path d="M259.306 297.647C258.684 299.203 257.869 300.462 256.862 301.425C255.854 302.387 254.729 303.048 253.484 303.407C252.229 303.733 250.902 303.76 249.503 303.49C248.103 303.219 246.7 302.628 245.294 301.717C243.887 300.807 242.686 299.711 241.69 298.431C240.695 297.151 239.94 295.776 239.428 294.306C238.904 292.803 238.652 291.25 238.671 289.647C238.69 288.045 239.01 286.465 239.632 284.91C240.255 283.354 241.07 282.095 242.077 281.132C243.084 280.169 244.215 279.525 245.47 279.2C246.714 278.841 248.036 278.797 249.436 279.067C250.835 279.338 252.238 279.929 253.645 280.84C255.051 281.75 256.252 282.846 257.248 284.126C258.244 285.405 259.003 286.797 259.527 288.301C260.039 289.771 260.286 291.307 260.268 292.91C260.249 294.512 259.928 296.091 259.306 297.647ZM257.196 296.281C257.667 295.104 257.902 293.919 257.9 292.727C257.879 291.522 257.661 290.362 257.246 289.246C256.812 288.118 256.2 287.074 255.412 286.113C254.613 285.119 253.662 284.266 252.56 283.552C251.457 282.838 250.355 282.363 249.253 282.126C248.16 281.868 247.137 281.854 246.183 282.083C245.23 282.313 244.374 282.778 243.615 283.478C242.838 284.166 242.213 285.098 241.742 286.276C241.271 287.453 241.042 288.655 241.054 289.88C241.056 291.072 241.265 292.226 241.68 293.342C242.095 294.458 242.706 295.502 243.514 296.475C244.321 297.448 245.276 298.291 246.379 299.005C247.481 299.719 248.579 300.205 249.672 300.463C250.747 300.708 251.77 300.722 252.743 300.505C253.696 300.275 254.561 299.816 255.339 299.129C256.106 298.408 256.725 297.459 257.196 296.281Z" fill="white"/>
<path d="M265.825 280.016L247.489 266.708L253.705 253.229L255.739 254.705L250.704 265.624L267.005 277.455L265.825 280.016Z" fill="white"/>
<path d="M281.313 247.618L273.205 241.115L267.081 252.861L275.19 259.364L273.886 261.864L256.213 247.69L257.516 245.19L265.121 251.289L271.244 239.542L263.639 233.443L264.943 230.943L282.616 245.118L281.313 247.618Z" fill="white"/>
<path d="M285.715 238.705L268.863 223.563L270.311 221.144L283.474 232.972L277.01 209.953L278.493 207.476L295.345 222.618L293.897 225.037L280.455 212.959L287.111 236.374L285.715 238.705Z" fill="white"/>
<path d="M304.908 208.916L289.306 192.489L295.227 184.321C295.799 183.532 296.418 182.924 297.086 182.496C297.738 182.051 298.403 181.798 299.081 181.735C299.743 181.657 300.41 181.761 301.082 182.048C301.738 182.318 302.355 182.757 302.932 183.365C303.431 183.89 303.816 184.458 304.089 185.068C304.375 185.66 304.561 186.276 304.647 186.916C304.73 187.522 304.734 188.124 304.658 188.722C304.566 189.304 304.406 189.847 304.178 190.351C304.599 189.921 305.08 189.619 305.619 189.444C306.172 189.25 306.733 189.178 307.302 189.227C307.884 189.259 308.46 189.412 309.03 189.689C309.613 189.947 310.138 190.322 310.606 190.815C311.23 191.472 311.712 192.19 312.054 192.97C312.396 193.75 312.588 194.567 312.63 195.419C312.672 196.271 312.555 197.134 312.279 198.008C312.017 198.863 311.58 199.712 310.969 200.556L304.908 208.916ZM301.708 191.824C302.466 190.778 302.803 189.744 302.721 188.72C302.623 187.679 302.215 186.781 301.498 186.026C300.796 185.287 300.011 184.929 299.142 184.951C298.258 184.958 297.437 185.483 296.679 186.528L292.692 192.029L297.721 197.324L301.708 191.824ZM308.899 199.201C309.683 198.119 310.054 197.038 310.011 195.959C309.966 194.845 309.523 193.845 308.681 192.958C308.322 192.581 307.926 192.293 307.492 192.095C307.058 191.896 306.618 191.821 306.172 191.868C305.723 191.88 305.275 192.023 304.829 192.297C304.368 192.555 303.931 192.968 303.519 193.536L299.452 199.146L304.832 204.811L308.899 199.201Z" fill="white"/>
<path d="M323.503 183.568L309.213 165.987L318.982 154.811L320.568 156.762L312.654 165.815L325.359 181.445L323.503 183.568Z" fill="white"/>
<path d="M334.19 167.649C334.676 167.174 335.039 166.663 335.28 166.114C335.524 165.531 335.609 164.822 335.535 163.987C335.448 163.133 335.168 162.124 334.695 160.96C334.225 159.761 333.52 158.291 332.58 156.55L326.968 146.313L336.877 136.624L350.033 155.068L348.018 157.039L336.321 140.641L330.225 146.602L334.69 154.768C335.91 157.018 336.782 158.934 337.307 160.518C337.835 162.067 338.093 163.411 338.08 164.549C338.084 165.672 337.859 166.628 337.404 167.416C336.963 168.223 336.378 168.983 335.65 169.695L334.19 167.649Z" fill="white"/>
<path d="M366.297 141.211L362.127 138.169L353.338 145.235L354.384 150.788L351.869 152.81L347.211 127.737L349.938 125.545L368.811 139.189L366.297 141.211ZM350.103 129.128L352.67 142.575L360.161 136.552L350.103 129.128Z" fill="white"/>
<path d="M376.99 135.29C376.151 135.827 375.314 136.243 374.479 136.537C373.672 136.84 372.878 137.041 372.096 137.141C371.333 137.228 370.611 137.222 369.931 137.123C369.269 137.012 368.669 136.821 368.129 136.552L368.72 134.047C369.69 134.469 370.817 134.603 372.101 134.449C373.386 134.295 374.619 133.839 375.801 133.082C377.308 132.117 378.312 131.032 378.815 129.828C379.326 128.59 379.287 127.385 378.695 126.213C378.379 125.586 377.985 125.129 377.513 124.843C377.05 124.525 376.528 124.364 375.946 124.362C375.365 124.36 374.734 124.484 374.052 124.733C373.371 124.982 372.668 125.339 371.943 125.803L368.053 128.295L366.922 126.05L370.812 123.559C371.441 123.156 372.001 122.716 372.493 122.241C372.994 121.733 373.388 121.213 373.675 120.681C373.952 120.13 374.112 119.572 374.156 119.009C374.19 118.426 374.059 117.841 373.763 117.254C373.478 116.688 373.104 116.272 372.642 116.006C372.199 115.728 371.697 115.582 371.135 115.568C370.562 115.533 369.964 115.622 369.34 115.835C368.705 116.027 368.073 116.325 367.444 116.728C365.289 118.108 363.9 120.081 363.277 122.647L361.166 121.913C361.442 120.559 362.014 119.216 362.881 117.885C363.758 116.521 364.959 115.351 366.484 114.373C367.418 113.775 368.357 113.335 369.299 113.052C370.26 112.757 371.163 112.647 372.008 112.721C372.861 112.763 373.643 113.012 374.351 113.467C375.05 113.902 375.614 114.545 376.042 115.394C376.409 116.122 376.596 116.844 376.604 117.561C376.613 118.278 376.513 118.957 376.307 119.598C376.1 120.238 375.81 120.839 375.436 121.399C375.072 121.927 374.691 122.371 374.293 122.733C374.752 122.493 375.295 122.319 375.922 122.211C376.549 122.104 377.183 122.112 377.826 122.236C378.468 122.359 379.085 122.633 379.677 123.056C380.288 123.467 380.797 124.077 381.205 124.886C381.633 125.735 381.854 126.624 381.868 127.551C381.881 128.479 381.706 129.407 381.341 130.336C380.967 131.244 380.418 132.131 379.693 132.996C378.959 133.841 378.058 134.606 376.99 135.29Z" fill="white"/>
<path d="M400.851 121.795L397.19 117.974L386.99 122.783L387.025 128.313L384.106 129.689L384.012 104.738L387.177 103.246L403.769 120.419L400.851 121.795ZM386.684 106.701L386.803 120.098L395.498 115.999L386.684 106.701Z" fill="white"/>
<path d="M420.343 115.811L410.922 108.348L406.366 119.555L403.052 120.443L408.653 106.916L397.832 98.387L401.146 97.4994L409.929 104.535L414.106 94.028L417.419 93.1404L412.188 105.934L423.624 114.932L420.343 115.811Z" fill="white"/>
<path d="M443.516 115.972C441.851 115.782 440.333 115.314 438.963 114.568C437.593 113.823 436.415 112.872 435.429 111.717C434.466 110.543 433.717 109.211 433.183 107.723C432.648 106.234 432.385 104.652 432.391 102.977C432.397 101.301 432.673 99.7806 433.219 98.4158C433.764 97.0509 434.523 95.903 435.494 94.972C436.488 94.0209 437.673 93.3294 439.047 92.8976C440.422 92.4658 441.942 92.3451 443.607 92.5354C445.271 92.7258 446.789 93.1938 448.159 93.9395C449.529 94.6852 450.696 95.6455 451.659 96.8204C452.645 97.9752 453.405 99.2968 453.939 100.785C454.474 102.273 454.738 103.855 454.731 105.531C454.725 107.207 454.449 108.727 453.903 110.092C453.358 111.457 452.588 112.615 451.594 113.566C450.623 114.497 449.45 115.178 448.075 115.61C446.7 116.042 445.181 116.163 443.516 115.972ZM443.526 113.459C444.785 113.603 445.922 113.506 446.937 113.169C447.951 112.809 448.819 112.263 449.543 111.53C450.266 110.775 450.821 109.864 451.207 108.798C451.617 107.712 451.824 106.513 451.829 105.199C451.834 103.886 451.636 102.64 451.236 101.461C450.858 100.286 450.31 99.2488 449.594 98.3513C448.877 97.4537 448.013 96.7207 447.002 96.152C445.992 95.5607 444.857 95.193 443.597 95.049C442.337 94.9049 441.189 95.0115 440.152 95.3686C439.138 95.7058 438.269 96.2408 437.546 96.9736C436.823 97.7065 436.268 98.6172 435.881 99.7057C435.494 100.794 435.298 101.995 435.293 103.308C435.288 104.622 435.475 105.866 435.853 107.042C436.231 108.196 436.778 109.232 437.495 110.153C438.212 111.05 439.075 111.795 440.086 112.386C441.119 112.957 442.266 113.315 443.526 113.459Z" fill="white"/>
<path d="M456.154 118.012L461.654 96.0342L475.184 102.139L474.574 104.578L463.614 99.6321L458.724 119.172L456.154 118.012Z" fill="white"/>
<path d="M483.57 136.135L488.77 127.135L478.789 118.425L473.589 127.424L471.465 125.571L482.8 105.954L484.924 107.808L480.047 116.249L490.028 124.959L494.905 116.518L497.029 118.372L485.694 137.988L483.57 136.135Z" fill="white"/>
<path d="M488.274 141.578L505.252 126.577L506.798 128.935L493.537 140.652L513.952 139.841L515.536 142.255L498.558 157.257L497.011 154.899L510.553 142.934L489.765 143.851L488.274 141.578Z" fill="white"/>
<path d="M505.939 172.557L527.207 164.75L530.34 174.339C530.643 175.264 530.779 176.155 530.749 177.009C530.74 177.856 530.575 178.628 530.255 179.324C529.956 180.012 529.512 180.621 528.924 181.151C528.356 181.673 527.679 182.078 526.892 182.367C526.212 182.616 525.561 182.735 524.938 182.723C524.322 182.732 523.741 182.631 523.197 182.422C522.68 182.226 522.21 181.952 521.786 181.602C521.383 181.243 521.048 180.836 520.78 180.38C520.884 180.992 520.858 181.605 520.701 182.217C520.551 182.85 520.302 183.436 519.954 183.974C519.613 184.533 519.18 185.029 518.655 185.463C518.137 185.918 517.559 186.263 516.922 186.497C516.071 186.809 515.25 186.954 514.457 186.932C513.664 186.91 512.925 186.723 512.239 186.372C511.553 186.021 510.945 185.509 510.415 184.836C509.893 184.184 509.47 183.363 509.146 182.373L505.939 172.557ZM520.978 177.27C521.378 178.497 522 179.305 522.841 179.695C523.704 180.078 524.625 180.089 525.603 179.73C526.559 179.379 527.265 178.771 527.72 177.904C528.196 177.03 528.234 175.98 527.833 174.753L525.723 168.296L518.868 170.812L520.978 177.27ZM511.326 180.958C511.741 182.228 512.38 183.09 513.243 183.545C514.134 184.013 515.154 184.036 516.301 183.615C516.79 183.436 517.23 183.178 517.62 182.842C518.01 182.506 518.308 182.107 518.515 181.645C518.749 181.198 518.881 180.691 518.911 180.126C518.962 179.553 518.878 178.933 518.66 178.265L516.508 171.679L509.174 174.371L511.326 180.958Z" fill="white"/>
<path d="M515.362 205.903L537.875 203.364L540.15 218.032L537.652 218.314L535.81 206.432L515.794 208.688L515.362 205.903Z" fill="white"/>
<path d="M520.801 225.626C520.844 226.304 520.996 226.905 521.255 227.429C521.539 227.976 522.023 228.47 522.707 228.912C523.413 229.354 524.365 229.733 525.561 230.048C526.781 230.387 528.361 230.699 530.301 230.983L541.767 232.585L542.649 246.415L519.997 245.993L519.818 243.18L539.957 243.555L539.414 235.046L530.275 233.759C527.764 233.396 525.735 232.952 524.186 232.427C522.661 231.924 521.47 231.326 520.612 230.633C519.755 229.963 519.175 229.207 518.873 228.366C518.548 227.525 518.353 226.596 518.288 225.579L520.801 225.626Z" fill="white"/>
<path d="M520.322 270.476L525.339 269.131L525.527 257.856L520.576 255.193L520.63 251.967L542.939 264.039L542.881 267.537L520.269 273.703L520.322 270.476ZM540.014 265.422L528.005 259.001L527.845 268.612L540.014 265.422Z" fill="white"/>
<path d="M519.32 286.209C519.401 285.216 519.577 284.301 519.847 283.465C520.094 282.647 520.413 281.902 520.806 281.231C521.196 280.583 521.635 280.025 522.123 279.559C522.609 279.116 523.121 278.77 523.659 278.522L525.281 280.571C524.364 281.057 523.58 281.848 522.928 282.944C522.276 284.04 521.893 285.287 521.779 286.687C521.634 288.47 521.886 289.939 522.535 291.094C523.204 292.277 524.179 293.01 525.461 293.295C526.147 293.448 526.744 293.431 527.255 293.246C527.785 293.088 528.226 292.784 528.578 292.333C528.93 291.883 529.212 291.314 529.426 290.626C529.639 289.938 529.781 289.166 529.851 288.308L530.225 283.704L532.679 284.249L532.304 288.853C532.244 289.598 532.253 290.312 532.332 290.996C532.432 291.708 532.605 292.344 532.852 292.904C533.121 293.47 533.465 293.948 533.883 294.34C534.324 294.736 534.864 295.006 535.505 295.148C536.124 295.286 536.678 295.259 537.166 295.069C537.652 294.902 538.07 294.604 538.42 294.176C538.792 293.753 539.082 293.232 539.29 292.612C539.52 291.996 539.665 291.316 539.726 290.572C539.934 288.021 539.212 285.689 537.561 283.576L539.412 282.402C540.315 283.476 541.031 284.772 541.56 286.291C542.109 287.838 542.31 289.514 542.163 291.32C542.073 292.426 541.856 293.435 541.512 294.346C541.166 295.28 540.709 296.052 540.142 296.661C539.595 297.298 538.928 297.747 538.142 298.009C537.378 298.276 536.531 298.306 535.603 298.1C534.807 297.923 534.123 297.61 533.552 297.161C532.981 296.713 532.505 296.205 532.124 295.638C531.742 295.07 531.443 294.464 531.225 293.818C531.028 293.2 530.906 292.621 530.86 292.082C530.774 292.592 530.584 293.124 530.291 293.679C529.998 294.235 529.61 294.723 529.126 295.144C528.641 295.564 528.054 295.87 527.363 296.062C526.67 296.275 525.882 296.284 524.998 296.087C524.069 295.881 523.235 295.489 522.494 294.911C521.754 294.333 521.126 293.607 520.612 292.735C520.12 291.867 519.751 290.877 519.503 289.765C519.278 288.658 519.217 287.473 519.32 286.209Z" fill="white"/>
<path d="M515.394 318.07L520.483 317.547L522.056 306.38L517.525 302.934L517.975 299.739L538.384 315.338L537.896 318.803L514.944 321.265L515.394 318.07ZM535.342 316.238L524.347 307.918L523.007 317.437L535.342 316.238Z" fill="white"/>
<path d="M511.409 341.622L521.824 337.946L514.201 327.424L514.863 324.058L524.02 336.845L535.947 332.596L535.285 335.962L525.508 339.344L532.695 349.127L532.033 352.493L523.344 340.456L510.753 344.955L511.409 341.622Z" fill="white"/>
<path d="M504.384 370.621C504.836 369.007 505.513 367.665 506.415 366.595C507.316 365.525 508.369 364.739 509.573 364.239C510.791 363.771 512.114 363.59 513.541 363.696C514.968 363.801 516.434 364.224 517.938 364.962C519.442 365.701 520.761 366.647 521.894 367.799C523.028 368.952 523.931 370.226 524.603 371.623C525.289 373.052 525.71 374.561 525.865 376.15C526.021 377.74 525.872 379.341 525.42 380.955C524.967 382.568 524.29 383.91 523.389 384.981C522.487 386.051 521.428 386.82 520.209 387.289C519.005 387.789 517.69 387.986 516.263 387.88C514.836 387.774 513.37 387.352 511.866 386.613C510.362 385.874 509.043 384.929 507.909 383.776C506.776 382.624 505.866 381.334 505.18 379.905C504.508 378.508 504.094 377.015 503.938 375.425C503.783 373.836 503.932 372.234 504.384 370.621ZM506.64 371.729C506.298 372.95 506.192 374.151 506.323 375.332C506.475 376.523 506.819 377.647 507.355 378.704C507.911 379.771 508.635 380.734 509.527 381.594C510.433 382.486 511.476 383.221 512.655 383.801C513.834 384.38 514.986 384.723 516.112 384.829C517.233 384.958 518.256 384.853 519.184 384.515C520.111 384.177 520.915 383.617 521.597 382.835C522.299 382.064 522.821 381.068 523.164 379.847C523.506 378.626 523.605 377.409 523.459 376.196C523.328 375.015 522.994 373.896 522.458 372.839C521.922 371.782 521.198 370.818 520.286 369.949C519.373 369.079 518.328 368.354 517.149 367.775C515.97 367.196 514.821 366.842 513.7 366.714C512.601 366.595 511.577 366.7 510.629 367.028C509.702 367.366 508.887 367.921 508.185 368.693C507.498 369.496 506.982 370.508 506.64 371.729Z" fill="white"/>
<path d="M499.788 388.776L519.499 399.946L514.748 414.009L512.562 412.769L516.41 401.377L498.886 391.447L499.788 388.776Z" fill="white"/>
<path d="M486.666 422.971L495.439 428.545L500.258 416.206L491.485 410.632L492.51 408.006L511.634 420.155L510.608 422.781L502.38 417.553L497.56 429.893L505.789 435.12L504.763 437.746L485.64 425.598L486.666 422.971Z" fill="white"/>
<path d="M482.792 433.355L501.184 446.585L500.014 449.15L485.648 438.816L494.602 461.017L493.404 463.644L475.012 450.414L476.182 447.849L490.851 458.401L481.665 435.827L482.792 433.355Z" fill="white"/>
<path d="M467.79 465.88L485.165 480.419L480.311 489.262C479.842 490.116 479.304 490.795 478.697 491.301C478.107 491.822 477.482 492.153 476.821 492.295C476.177 492.452 475.507 492.427 474.809 492.22C474.129 492.027 473.468 491.662 472.825 491.124C472.27 490.659 471.821 490.139 471.478 489.562C471.125 489.006 470.867 488.414 470.705 487.786C470.549 487.192 470.473 486.592 470.476 485.986C470.496 485.395 470.588 484.835 470.752 484.306C470.389 484.784 469.951 485.142 469.44 485.38C468.918 485.639 468.373 485.777 467.806 485.795C467.228 485.832 466.641 485.747 466.046 485.539C465.44 485.35 464.876 485.038 464.355 484.602C463.66 484.021 463.097 483.361 462.666 482.624C462.234 481.886 461.947 481.095 461.802 480.25C461.658 479.405 461.669 478.53 461.835 477.627C461.991 476.743 462.319 475.845 462.821 474.932L467.79 465.88ZM473.011 482.546C472.39 483.677 472.182 484.749 472.387 485.76C472.609 486.787 473.12 487.634 473.919 488.302C474.7 488.956 475.518 489.221 476.372 489.095C477.244 488.985 477.991 488.364 478.612 487.232L481.881 481.277L476.28 476.591L473.011 482.546ZM465.026 476.039C464.383 477.21 464.148 478.331 464.32 479.402C464.499 480.507 465.057 481.453 465.995 482.237C466.395 482.572 466.82 482.812 467.272 482.958C467.724 483.105 468.167 483.128 468.602 483.028C469.044 482.963 469.468 482.768 469.875 482.442C470.299 482.131 470.68 481.667 471.018 481.052L474.352 474.978L468.361 469.964L465.026 476.039Z" fill="white"/>
<path d="M451.535 495.028L467.843 510.755L459.736 523.189L457.926 521.444L464.494 511.372L449.996 497.39L451.535 495.028Z" fill="white"/>
<path d="M442.528 511.357C442.124 511.903 441.845 512.469 441.69 513.053C441.536 513.672 441.556 514.394 441.748 515.22C441.956 516.062 442.374 517.032 443.003 518.129C443.633 519.262 444.531 520.631 445.697 522.238L452.635 531.674L444.393 542.815L428.93 526.257L430.607 523.99L444.354 538.712L449.425 531.858L443.901 524.328C442.39 522.253 441.265 520.46 440.525 518.951C439.788 517.477 439.343 516.168 439.191 515.026C439.025 513.903 439.106 512.913 439.435 512.057C439.747 511.185 440.207 510.339 440.813 509.52L442.528 511.357Z" fill="white"/>
<path d="M415.092 543.213L419.599 545.563L426.93 536.995L425.028 531.599L427.126 529.147L435.651 553.519L433.377 556.178L412.994 545.665L415.092 543.213ZM432.641 552.611L428.003 539.551L421.753 546.855L432.641 552.611Z" fill="white"/>
<path d="M406.067 552.488C406.769 551.781 407.491 551.197 408.234 550.735C408.947 550.271 409.667 549.911 410.394 549.655C411.106 549.415 411.794 549.277 412.46 549.241C413.111 549.221 413.717 549.293 414.28 549.456L414.169 552.091C413.169 551.86 412.071 551.949 410.875 552.36C409.68 552.77 408.587 553.473 407.598 554.469C406.337 555.739 405.576 557.028 405.315 558.338C405.051 559.683 405.306 560.885 406.081 561.946C406.495 562.513 406.953 562.893 407.455 563.086C407.953 563.314 408.48 563.371 409.034 563.257C409.588 563.144 410.167 562.894 410.771 562.508C411.376 562.122 411.981 561.624 412.587 561.013L415.843 557.736L417.326 559.765L414.07 563.042C413.544 563.573 413.089 564.125 412.706 564.701C412.321 565.311 412.04 565.911 411.862 566.503C411.698 567.112 411.646 567.704 411.706 568.278C411.779 568.871 412.009 569.433 412.397 569.963C412.771 570.475 413.202 570.818 413.69 570.993C414.162 571.185 414.667 571.231 415.205 571.134C415.757 571.055 416.311 570.846 416.867 570.508C417.437 570.189 417.985 569.764 418.512 569.234C420.315 567.418 421.282 565.16 421.413 562.458L423.556 562.775C423.537 564.19 423.235 565.653 422.649 567.163C422.06 568.708 421.128 570.122 419.851 571.408C419.069 572.195 418.255 572.824 417.408 573.296C416.546 573.783 415.706 574.074 414.888 574.167C414.067 574.295 413.278 574.201 412.521 573.884C411.776 573.586 411.124 573.053 410.563 572.285C410.082 571.627 409.772 570.939 409.635 570.22C409.498 569.502 409.47 568.8 409.551 568.115C409.632 567.431 409.8 566.77 410.055 566.133C410.307 565.53 410.59 565.007 410.903 564.565C410.51 564.898 410.024 565.18 409.446 565.413C408.868 565.646 408.262 565.764 407.628 565.768C406.993 565.772 406.356 565.62 405.716 565.312C405.06 565.021 404.465 564.509 403.93 563.778C403.369 563.01 402.998 562.162 402.818 561.233C402.637 560.304 402.637 559.336 402.816 558.331C403.009 557.344 403.372 556.343 403.906 555.33C404.453 554.335 405.173 553.388 406.067 552.488Z" fill="white"/>
<path d="M384.806 572.714L389.026 575.663L397.626 568.369L396.463 562.827L398.924 560.74L404.113 585.762L401.445 588.024L382.345 574.801L384.806 572.714ZM401.202 584.437L398.351 571.019L391.02 577.236L401.202 584.437Z" fill="white"/>
<path d="M367.311 584.177L377.803 588.645L379.285 576.053L382.124 574.127L380.241 589.357L392.283 594.446L389.444 596.372L379.643 592.129L378.342 603.905L375.503 605.832L377.221 591.447L364.5 586.084L367.311 584.177Z" fill="white"/>
<path d="M345.426 595.096C346.982 594.474 348.499 594.186 349.975 594.23C351.451 594.274 352.823 594.603 354.091 595.217C355.345 595.861 356.459 596.756 357.432 597.902C358.406 599.048 359.168 600.412 359.719 601.995C360.269 603.577 360.527 605.143 360.491 606.692C360.455 608.241 360.156 609.688 359.594 611.033C359.018 612.407 358.186 613.629 357.097 614.697C356.007 615.765 354.684 616.61 353.128 617.231C351.572 617.852 350.056 618.141 348.579 618.097C347.103 618.053 345.738 617.709 344.484 617.065C343.216 616.451 342.095 615.571 341.122 614.425C340.148 613.279 339.386 611.915 338.835 610.332C338.285 608.749 338.027 607.184 338.063 605.635C338.099 604.086 338.405 602.624 338.981 601.25C339.543 599.905 340.368 598.698 341.458 597.63C342.547 596.562 343.87 595.717 345.426 595.096ZM346.252 597.47C345.074 597.94 344.087 598.578 343.289 599.383C342.499 600.21 341.902 601.143 341.496 602.182C341.099 603.242 340.904 604.367 340.911 605.558C340.904 606.778 341.117 608.009 341.548 609.249C341.98 610.489 342.571 611.569 343.322 612.487C344.051 613.414 344.887 614.128 345.827 614.629C346.768 615.13 347.786 615.406 348.882 615.455C349.984 615.527 351.124 615.327 352.302 614.857C353.48 614.387 354.474 613.734 355.285 612.899C356.083 612.093 356.684 611.171 357.089 610.133C357.494 609.094 357.69 607.969 357.675 606.757C357.66 605.545 357.437 604.318 357.006 603.078C356.574 601.837 355.994 600.754 355.264 599.827C354.542 598.922 353.707 598.208 352.758 597.686C351.817 597.184 350.796 596.898 349.693 596.827C348.577 596.785 347.43 597 346.252 597.47Z" fill="white"/>
<path d="M332.694 599.993L337.23 622.19L322.634 624.887L322.13 622.424L333.954 620.24L329.922 600.505L332.694 599.993Z" fill="white"/>
<path d="M299.955 601.635L300.275 612.024L313.493 612.891L313.174 602.502L315.987 602.687L316.683 625.332L313.87 625.147L313.57 615.404L300.352 614.537L300.651 624.28L297.838 624.096L297.142 601.451L299.955 601.635Z" fill="white"/>
<path d="M294.927 600.847L290.102 622.983L287.491 621.918L291.26 604.628L275.415 616.99L272.742 615.899L277.567 593.763L280.177 594.828L276.329 612.484L292.411 599.821L294.927 600.847Z" fill="white"/>
<defs>
<filter id="filter0_f_195_1045" x="92.8644" y="178.545" width="584.134" height="354.329" filterUnits="userSpaceOnUse" color-interpolation-filters="sRGB">
<feFlood flood-opacity="0" result="BackgroundImageFix"/>
<feBlend mode="normal" in="SourceGraphic" in2="BackgroundImageFix" result="shape"/>
<feGaussianBlur stdDeviation="6.7338" result="effect1_foregroundBlur_195_1045"/>
</filter>
</defs>
</svg>
